<?xml version="1.0" standalone="no"?>
<!DOCTYPE svg PUBLIC "-//W3C//DTD SVG 1.1//EN" "http://www.w3.org/Graphics/SVG/1.1/DTD/svg11.dtd" >
<svg xmlns="http://www.w3.org/2000/svg" xmlns:xlink="http://www.w3.org/1999/xlink" version="1.1">
<metadata>
Created by FontForge 20170731 at Wed Jul 18 13:36:18 2018
 By Aleksey,,,
Dalek Pinpoint Bold by Keith Bates     (c) 2018  www.k-type.com    Dalek Pinpoint is a version of the distressed Dalek fonts with clean precise outlines.
</metadata>
<defs>
<font id="DalekPinpointBold" horiz-adv-x="571" >
  <font-face 
    font-family="Dalek Pinpoint"
    font-weight="700"
    font-stretch="normal"
    units-per-em="1000"
    panose-1="0 0 0 0 0 0 0 0 0 0"
    ascent="900"
    descent="-100"
    x-height="770"
    cap-height="832"
    bbox="-98 -317 1204 1323"
    underline-thickness="30"
    underline-position="-163"
    unicode-range="U+0009-FB02"
  />
<missing-glyph horiz-adv-x="1000" 
 />
    <glyph glyph-name=".notdef" horiz-adv-x="1000" 
 />
    <glyph glyph-name=".null" horiz-adv-x="0" 
 />
    <glyph glyph-name="nonmarkingreturn" unicode="&#xd;" horiz-adv-x="537" 
 />
    <glyph glyph-name="NULL" horiz-adv-x="0" 
 />
    <glyph glyph-name="NULL" horiz-adv-x="0" 
 />
    <glyph glyph-name="HT" unicode="&#x9;" horiz-adv-x="537" 
 />
    <glyph glyph-name="LF" unicode="&#xa;" horiz-adv-x="1000" 
 />
    <glyph glyph-name="DLE" horiz-adv-x="1000" 
 />
    <glyph glyph-name="DC1" horiz-adv-x="1000" 
 />
    <glyph glyph-name="DC2" horiz-adv-x="1000" 
 />
    <glyph glyph-name="DC3" horiz-adv-x="1000" 
 />
    <glyph glyph-name="DC4" horiz-adv-x="1000" 
 />
    <glyph glyph-name="RS" horiz-adv-x="1000" 
 />
    <glyph glyph-name="US" horiz-adv-x="1000" 
 />
    <glyph glyph-name="space" unicode=" " horiz-adv-x="300" 
 />
    <glyph glyph-name="exclam" unicode="!" horiz-adv-x="301" 
d="M221 841l-18 -640h-105l-18 640h141zM215 0h-130v135h130v-135z" />
    <glyph glyph-name="quotedbl" unicode="&#x22;" horiz-adv-x="370" 
d="M310 612h-90v220h90v-220zM150 612h-90v220h90v-220z" />
    <glyph glyph-name="numbersign" unicode="#" horiz-adv-x="627" 
d="M587 262h-116v-129h-111v129h-93v-129h-111v129h-116v104h116v110h-116v104h116v129h111v-129h93v129h111v-129h116v-104h-116v-110h116v-104zM360 366v110h-93v-110h93z" />
    <glyph glyph-name="dollar" unicode="$" horiz-adv-x="640" 
d="M590 250l-209 -151v-199h-114v115l-64 -46l-75 103l267 191l-345 327l217 157v199h114v-116l46 33l77 -101l-260 -185z" />
    <glyph glyph-name="percent" unicode="%" horiz-adv-x="819" 
d="M620 878l-344 -953l-77 32l344 953zM191 380l-176 232l175 241h14l175 -241l-174 -232h-14zM129 614l69 -96l67 96l-68 98zM616 -12l-175 232l174 241h15l174 -241l-173 -232h-15zM554 222l69 -96l68 96l-68 98z" />
    <glyph glyph-name="ampersand" unicode="&#x26;" horiz-adv-x="527" 
d="M497 697l-272 -131l164 -144l-170 -145l277 -138l-53 -104l-125 67v-130h-107v187l-181 96l189 168l-189 167l181 92v184h107v-129l125 63z" />
    <glyph glyph-name="quotesingle" unicode="'" horiz-adv-x="210" 
d="M150 612h-90v220h90v-220z" />
    <glyph glyph-name="parenleft" unicode="(" horiz-adv-x="344" 
d="M304 -118h-99q-71 124 -108 254t-37 284t36.5 284t107.5 254h100q-68 -132 -101.5 -266.5t-33.5 -271.5t33.5 -271.5t101.5 -266.5z" />
    <glyph glyph-name="parenright" unicode=")" horiz-adv-x="344" 
d="M284 420q0 -154 -36.5 -284t-107.5 -254h-100q68 132 101.5 266.5t33.5 271.5t-33.5 271.5t-101.5 266.5h100q71 -124 107.5 -254t36.5 -284z" />
    <glyph glyph-name="asterisk" unicode="*" horiz-adv-x="366" 
d="M352 635l-30 -48l-110 60v-121h-59v121l-109 -60l-30 48l110 61l-110 61l30 48l109 -60v121h59v-121l110 60l30 -48l-110 -61z" />
    <glyph glyph-name="plus" unicode="+" horiz-adv-x="734" 
d="M644 364h-216v-222h-122v222h-216v115h216v231h122v-231h216v-115z" />
    <glyph glyph-name="comma" unicode="," horiz-adv-x="230" 
d="M180 0l-94 -148l-45 27l67 121h-58v130h130v-130z" />
    <glyph glyph-name="hyphen" unicode="-" horiz-adv-x="358" 
d="M338 364h-318v114h318v-114z" />
    <glyph glyph-name="period" unicode="." horiz-adv-x="230" 
d="M180 0h-130v130h130v-130z" />
    <glyph glyph-name="slash" unicode="/" horiz-adv-x="466" 
d="M476 930l-384 -1033l-102 35l384 1034z" />
    <glyph glyph-name="zero" unicode="0" horiz-adv-x="767" 
d="M747 418l-351 -438h-27l-349 438l349 434h27zM578 417l-195 261l-195 -261l195 -262z" />
    <glyph glyph-name="one" unicode="1" horiz-adv-x="446" 
d="M366 0h-130v619l-129 -121l-87 95l316 263h30v-856z" />
    <glyph glyph-name="two" unicode="2" horiz-adv-x="669" 
d="M619 552l-330 -428h325v-124h-584l407 530l-321 225l84 103z" />
    <glyph glyph-name="three" unicode="3" horiz-adv-x="575" 
d="M555 245l-505 -271v150l284 139l-235 179l211 150l-256 124v146l474 -250l-222 -169z" />
    <glyph glyph-name="four" unicode="4" horiz-adv-x="709" 
d="M679 200h-107v-200h-130v200h-432l533 652h29v-533h107v-119zM443 319v227l-184 -227h184z" />
    <glyph glyph-name="five" unicode="5" horiz-adv-x="631" 
d="M596 526l-404 -556l-107 83l268 354h-293l35 425l476 1v-123l-358 -1l-13 -183h396z" />
    <glyph glyph-name="six" unicode="6" horiz-adv-x="735" 
d="M710 477l-341 -499h-29l-315 460l373 420l89 -96l-260 -285h483zM480 359h-251l125 -192z" />
    <glyph glyph-name="seven" unicode="7" horiz-adv-x="619" 
d="M599 832l-413 -857l-121 64l341 669h-376v124h569z" />
    <glyph glyph-name="eight" unicode="8" horiz-adv-x="764" 
d="M739 262l-343 -283h-28l-343 283l238 179l-208 151l313 260h28l312 -260l-208 -153zM517 596l-135 115l-132 -116l132 -94zM541 261l-159 118l-159 -119l159 -136z" />
    <glyph glyph-name="nine" unicode="9" horiz-adv-x="735" 
d="M710 393l-373 -418l-89 97l259 282h-482l341 498h29zM506 473l-125 191l-125 -191h250z" />
    <glyph glyph-name="colon" unicode=":" horiz-adv-x="250" 
d="M190 385h-130v130h130v-130zM190 0h-130v130h130v-130z" />
    <glyph glyph-name="semicolon" unicode=";" horiz-adv-x="250" 
d="M190 385h-130v130h130v-130zM190 0l-94 -148l-45 27l67 121h-58v130h130v-130z" />
    <glyph glyph-name="less" unicode="&#x3c;" horiz-adv-x="572" 
d="M532 266l-65 -95l-427 256l427 258l65 -96l-279 -161z" />
    <glyph glyph-name="equal" unicode="=" horiz-adv-x="714" 
d="M624 484h-534v109h534v-109zM624 249h-534v109h534v-109z" />
    <glyph glyph-name="greater" unicode="&#x3e;" horiz-adv-x="572" 
d="M532 427l-427 -256l-65 95l279 162l-279 161l64 96z" />
    <glyph glyph-name="question" unicode="?" horiz-adv-x="531" 
d="M521 569l-301 -226v-142h-126v198l226 167l-260 201l79 94zM222 0h-130v135h130v-135z" />
    <glyph glyph-name="at" unicode="@" horiz-adv-x="1040" 
d="M1020 410l-382 -382l-383 382l280 276h47v-473l50 -50l247 248l-360 360l-358 -361l429 -429l-71 -70l-499 499l499 500zM501 296l-1 218l-111 -104z" />
    <glyph glyph-name="A" unicode="A" horiz-adv-x="677" 
d="M657 12l-133 -34l-51 160h-265l-55 -162l-133 37l312 828h30zM434 262l-89 283l-95 -283h184z" />
    <glyph glyph-name="B" unicode="B" horiz-adv-x="665" 
d="M645 224l-545 -245h-30v873h30l516 -251l-254 -167zM404 578l-204 98v-221zM428 253l-228 160v-260z" />
    <glyph glyph-name="C" unicode="C" horiz-adv-x="599" 
d="M579 82l-95 -104l-464 443l459 432l96 -103l-372 -328z" />
    <glyph glyph-name="D" unicode="D" horiz-adv-x="647" 
d="M632 420l-532 -440h-30v872h30zM441 420l-241 196v-396z" />
    <glyph glyph-name="E" unicode="E" horiz-adv-x="607" 
d="M577 753l-321 -270h287v-120h-288l319 -274l-85 -111l-469 443l459 434z" />
    <glyph glyph-name="F" unicode="F" horiz-adv-x="579" 
d="M564 708h-363v-224h288v-124h-288v-360h-131v832h494v-124z" />
    <glyph glyph-name="G" unicode="G" horiz-adv-x="673" 
d="M613 -20h-40l-553 440l478 434l99 -97l-388 -331l274 -210v282h130v-518z" />
    <glyph glyph-name="H" unicode="H" horiz-adv-x="700" 
d="M630 0h-131v365h-298v-365h-131v832h131v-342h298v342h131v-832z" />
    <glyph glyph-name="I" unicode="I" horiz-adv-x="292" 
d="M212 0h-132v832h132v-832z" />
    <glyph glyph-name="J" unicode="J" horiz-adv-x="526" 
d="M451 833l-10 -853h-40l-381 336l87 100l213 -190v607h131z" />
    <glyph glyph-name="K" unicode="K" horiz-adv-x="626" 
d="M606 71l-96 -93l-310 323v-302h-130v833h130v-280l291 301l96 -90l-346 -333z" />
    <glyph glyph-name="L" unicode="L" horiz-adv-x="551" 
d="M531 0h-461v832h130v-708h331v-124z" />
    <glyph glyph-name="M" unicode="M" horiz-adv-x="865" 
d="M845 8l-137 -28l-108 476l-149 -466h-36l-149 466l-109 -476l-137 28l215 834h35l163 -496l163 496h34z" />
    <glyph glyph-name="N" unicode="N" horiz-adv-x="659" 
d="M589 -11h-35l-354 496v-485h-130v843h35l354 -493v483h130v-844z" />
    <glyph glyph-name="O" unicode="O" horiz-adv-x="828" 
d="M808 418l-381 -438h-25l-382 438l382 435h25zM639 417l-224 264l-225 -264l225 -265z" />
    <glyph glyph-name="P" unicode="P" horiz-adv-x="648" 
d="M628 473l-428 -282v-191h-130l1 852h30zM419 476l-219 157v-299z" />
    <glyph glyph-name="Q" unicode="Q" horiz-adv-x="828" 
d="M808 418l-161 -188l104 -122l-79 -96l-106 123l-138 -155h-25l-383 438l383 434h25zM639 417l-223 263l-226 -263l226 -265l67 80l-117 136l85 91l112 -131z" />
    <glyph glyph-name="R" unicode="R" horiz-adv-x="658" 
d="M638 61l-97 -83l-238 269l-103 -77v-171h-130l1 853h30l520 -379l-213 -152zM409 474l-209 153v-315z" />
    <glyph glyph-name="S" unicode="S" horiz-adv-x="594" 
d="M574 251l-392 -274l-77 104l268 182l-348 325l386 265l81 -102l-266 -175z" />
    <glyph glyph-name="T" unicode="T" horiz-adv-x="559" 
d="M544 708h-199v-708h-131v708h-199v124h529v-124z" />
    <glyph glyph-name="U" unicode="U" horiz-adv-x="665" 
d="M595 0h-525v832h130v-708h265v708h130v-832z" />
    <glyph glyph-name="V" unicode="V" horiz-adv-x="651" 
d="M631 819l-299 -828h-36l-276 830l140 35l158 -544l173 541z" />
    <glyph glyph-name="W" unicode="W" horiz-adv-x="865" 
d="M845 828l-221 -838h-34l-158 495l-160 -495h-35l-217 838l139 27l104 -492l155 479h30l149 -479l109 492z" />
    <glyph glyph-name="X" unicode="X" horiz-adv-x="638" 
d="M618 33l-125 -56l-174 343l-174 -343l-125 57l219 392l-209 370l125 57l163 -321l165 321l125 -57l-210 -374z" />
    <glyph glyph-name="Y" unicode="Y" horiz-adv-x="644" 
d="M624 796l-236 -476v-320h-131v322l-237 474l126 58l176 -396l176 396z" />
    <glyph glyph-name="Z" unicode="Z" horiz-adv-x="593" 
d="M558 832l-325 -714l304 1v-119h-502l324 713h-303v119h502z" />
    <glyph glyph-name="bracketleft" unicode="[" horiz-adv-x="304" 
d="M359 -118h-299v1076h299v-93h-194v-890h194v-93z" />
    <glyph glyph-name="backslash" unicode="\" horiz-adv-x="466" 
d="M476 -68l-102 -35l-384 1033l102 36z" />
    <glyph glyph-name="bracketright" unicode="]" horiz-adv-x="304" 
d="M244 -118h-299v93h194v890h-194v93h299v-1076z" />
    <glyph glyph-name="asciicircum" unicode="^" horiz-adv-x="602" 
d="M569 456l-84 -47l-184 296l-184 -296l-84 47l253 396h30z" />
    <glyph glyph-name="underscore" unicode="_" horiz-adv-x="623" 
d="M613 -136h-603v87h603v-87z" />
    <glyph glyph-name="grave" unicode="`" horiz-adv-x="385" 
d="M327 963l-63 -63l-188 177l63 63z" />
    <glyph glyph-name="a" unicode="a" 
d="M556 76l-122 -34l-43 136h-207l-48 -138l-121 36l262 701h31zM355 290l-64 209l-69 -209h133z" />
    <glyph glyph-name="b" unicode="b" horiz-adv-x="566" 
d="M60 43v748h35l433 -220l-207 -141l230 -175l-456 -212h-35zM181 463l145 87l-145 72v-159zM181 210l165 73l-165 115v-188z" />
    <glyph glyph-name="c" unicode="c" horiz-adv-x="511" 
d="M496 131l-84 -93l-397 383l393 374l87 -90l-311 -283z" />
    <glyph glyph-name="d" unicode="d" horiz-adv-x="557" 
d="M542 421l-452 -375h-30v744h30zM363 420l-184 153v-304z" />
    <glyph glyph-name="e" unicode="e" horiz-adv-x="522" 
d="M492 134l-87 -95l-390 382l386 375l85 -96l-253 -221h227v-113h-228z" />
    <glyph glyph-name="f" unicode="f" horiz-adv-x="496" 
d="M481 654h-300v-176h238v-115h-238v-301h-121v708h421v-116z" />
    <glyph glyph-name="g" unicode="g" horiz-adv-x="578" 
d="M523 44h-24l-484 374l402 376l91 -87l-319 -282l213 -158v217h121v-440z" />
    <glyph glyph-name="h" unicode="h" horiz-adv-x="597" 
d="M537 62h-121v306h-235v-306h-121v708h121v-287h235v287h121v-708z" />
    <glyph glyph-name="i" unicode="i" horiz-adv-x="262" 
d="M192 62h-122v708h122v-708z" />
    <glyph glyph-name="j" unicode="j" horiz-adv-x="450" 
d="M386 44h-28l-343 293l79 88l171 -153v497h121v-725z" />
    <glyph glyph-name="k" unicode="k" horiz-adv-x="542" 
d="M527 123l-83 -83l-263 264v-243h-121v710h121v-226l252 245l82 -83l-299 -280z" />
    <glyph glyph-name="l" unicode="l" horiz-adv-x="462" 
d="M447 62h-387v708h121v-592h266v-116z" />
    <glyph glyph-name="m" unicode="m" horiz-adv-x="745" 
d="M725 70l-128 -26l-88 396l-118 -387h-38l-115 387l-90 -396l-128 26l186 708h37l130 -408l129 408h37z" />
    <glyph glyph-name="n" unicode="n" horiz-adv-x="562" 
d="M502 53h-36l-285 404v-395h-121v717h36l285 -394v385h121v-717z" />
    <glyph glyph-name="o" unicode="o" horiz-adv-x="700" 
d="M685 418l-326 -372h-22l-322 372l322 371h22zM527 418l-179 211l-178 -211l178 -212z" />
    <glyph glyph-name="p" unicode="p" horiz-adv-x="544" 
d="M529 468l-348 -242v-163h-121l1 726h33zM333 471l-152 116v-226z" />
    <glyph glyph-name="q" unicode="q" horiz-adv-x="701" 
d="M686 418l-137 -160l82 -94l-71 -84l-82 94l-117 -128h-22l-324 372l324 371h22zM528 418l-178 211l-179 -211l179 -212l49 58l-88 104l73 84l87 -102z" />
    <glyph glyph-name="r" unicode="r" horiz-adv-x="555" 
d="M540 113l-90 -78l-200 225l-69 -53v-146h-121l1 729h31l436 -327l-181 -133zM334 460l-153 119v-237z" />
    <glyph glyph-name="s" unicode="s" horiz-adv-x="509" 
d="M494 277l-334 -237l-73 98l221 150l-288 273l327 231l74 -97l-215 -146z" />
    <glyph glyph-name="t" unicode="t" horiz-adv-x="481" 
d="M466 654h-165v-592h-122v592h-164v116h451v-116z" />
    <glyph glyph-name="u" unicode="u" 
d="M511 62h-451v708h121v-595h209v595h121v-708z" />
    <glyph glyph-name="v" unicode="v" horiz-adv-x="554" 
d="M539 757l-256 -702h-32l-236 703l130 32l126 -436l139 437z" />
    <glyph glyph-name="w" unicode="w" horiz-adv-x="735" 
d="M720 762l-189 -707h-32l-131 407l-132 -407h-32l-189 707l130 25l85 -386l122 378h32l123 -369l84 377z" />
    <glyph glyph-name="x" unicode="x" horiz-adv-x="544" 
d="M529 94l-116 -52l-141 276l-141 -276l-116 52l187 330l-179 315l116 52l132 -259l134 259l115 -52l-179 -318z" />
    <glyph glyph-name="y" unicode="y" horiz-adv-x="548" 
d="M533 741l-198 -405v-272h-122v274l-198 403l117 55l142 -324l143 324z" />
    <glyph glyph-name="z" unicode="z" horiz-adv-x="522" 
d="M492 770l-277 -596l251 1v-113h-436l277 595h-251v113h436z" />
    <glyph glyph-name="braceleft" unicode="{" horiz-adv-x="369" 
d="M424 -118h-296v456l-118 83l118 83v454h296v-93h-192v-396l-73 -47l73 -49v-398h192v-93z" />
    <glyph glyph-name="bar" unicode="|" horiz-adv-x="302" 
d="M202 -100h-102v1062h102v-1062z" />
    <glyph glyph-name="braceright" unicode="}" horiz-adv-x="369" 
d="M359 421l-118 -83v-456h-296v93h192v398l72 49l-72 47v396h-192v93h296v-454z" />
    <glyph glyph-name="asciitilde" unicode="~" horiz-adv-x="533" 
d="M508 452l-148 -132l-176 102l-96 -86l-63 56l150 134l175 -102l97 86z" />
    <glyph glyph-name="DEL" horiz-adv-x="1000" 
 />
    <glyph glyph-name="uni00A0" unicode="&#xa0;" horiz-adv-x="300" 
 />
    <glyph glyph-name="exclamdown" unicode="&#xa1;" horiz-adv-x="301" 
d="M215 706h-130v135h130v-135zM221 0h-141l18 640h105z" />
    <glyph glyph-name="cent" unicode="&#xa2;" horiz-adv-x="379" 
d="M339 448l-63 -60l-53 55v-129h-87v221l-96 101l96 107v196h87v-102l36 39l65 -60l-172 -178z" />
    <glyph glyph-name="sterling" unicode="&#xa3;" horiz-adv-x="589" 
d="M514 0h-494v118h69v244h-64v118h64v92l315 291l86 -87l-273 -255v-41h197v-118h-197v-244h297v-118z" />
    <glyph glyph-name="currency" unicode="&#xa4;" horiz-adv-x="616" 
d="M556 399l-85 -89l75 -76l-78 -77l-74 72l-86 -89l-89 93l-76 -75l-78 78l78 77l-83 86l87 91l-75 76l78 78l72 -76l86 90l86 -89l75 75l78 -78l-77 -76zM410 399l-102 107l-102 -107l102 -107z" />
    <glyph glyph-name="yen" unicode="&#xa5;" horiz-adv-x="622" 
d="M592 805l-147 -327l116 -1v-116h-170l-18 -41v-37h188v-116h-188v-167h-123v167h-190v116h190v39l-18 39h-172v116h118l-148 328l117 54l164 -393l164 393z" />
    <glyph glyph-name="brokenbar" unicode="&#xa6;" horiz-adv-x="302" 
d="M202 510h-102v452h102v-452zM202 -100h-102v462h102v-462z" />
    <glyph glyph-name="section" unicode="&#xa7;" horiz-adv-x="539" 
d="M499 412l-139 -116l112 -91l-280 -231l-75 87l186 149l-263 223l139 110l-103 89l275 226l76 -86l-183 -144zM331 415l-68 58l-55 -45l69 -59z" />
    <glyph glyph-name="dieresis" unicode="&#xa8;" horiz-adv-x="573" 
d="M430 932h-102v105h102v-105zM232 932h-102v105h102v-105z" />
    <glyph glyph-name="copyright" unicode="&#xa9;" horiz-adv-x="1049" 
d="M1029 410l-504 -494l-505 494l505 494zM881 410l-356 353l-357 -353l357 -352zM610 620l-223 -209l223 -212l-78 -78l-287 289l289 287z" />
    <glyph glyph-name="ordfeminine" unicode="&#xaa;" horiz-adv-x="364" 
d="M314 369h-30l-259 243l259 230h30v-473zM237 515v185l-98 -89z" />
    <glyph glyph-name="guillemotleft" unicode="&#xab;" horiz-adv-x="504" 
d="M464 546l-130 -125l130 -124l-51 -48l-181 173l181 172zM271 546l-129 -125l129 -124l-50 -48l-181 173l181 172z" />
    <glyph glyph-name="logicalnot" unicode="&#xac;" horiz-adv-x="472" 
d="M447 171h-120v191h-302v104h422v-295z" />
    <glyph glyph-name="softhyphen" unicode="&#xad;" horiz-adv-x="358" 
d="M338 364h-318v114h318v-114z" />
    <glyph glyph-name="registered" unicode="&#xae;" horiz-adv-x="1049" 
d="M1029 410l-504 -494l-505 494l505 494zM881 410l-356 353l-49 -48l244 -236l-113 -105l118 -118zM574 480l-77 77v-154zM657 189l-122 123l-38 -32v-115h-80l108 -107zM405 645l-237 -235l237 -233v468z" />
    <glyph glyph-name="macron" unicode="&#xaf;" horiz-adv-x="606" 
d="M457 959h-296v92h296v-92z" />
    <glyph glyph-name="degree" unicode="&#xb0;" horiz-adv-x="434" 
d="M404 663l-187 -205l-187 205l187 205zM298 663l-81 90l-81 -90l81 -89z" />
    <glyph glyph-name="plusminus" unicode="&#xb1;" horiz-adv-x="734" 
d="M644 447h-216v-222h-122v222h-216v115h216v231h122v-231h216v-115zM644 36h-554v116h554v-116z" />
    <glyph glyph-name="twosuperior" unicode="&#xb2;" horiz-adv-x="507" 
d="M457 623l-203 -262h198v-103h-422l274 348l-193 165l81 85z" />
    <glyph glyph-name="threesuperior" unicode="&#xb3;" horiz-adv-x="473" 
d="M423 438l-373 -201v131l176 85l-155 113l139 93l-157 78v128l354 -190l-150 -109z" />
    <glyph glyph-name="acute" unicode="&#xb4;" horiz-adv-x="385" 
d="M337 1077l-188 -177l-63 63l188 177z" />
    <glyph glyph-name="mu" unicode="&#xb5;" horiz-adv-x="520" 
d="M460 243h-288v-181h-112v708h112v-414h176v414h112v-527z" />
    <glyph glyph-name="paragraph" unicode="&#xb6;" horiz-adv-x="682" 
d="M632 -100h-122v839h-37l1 -839h-122v289l-332 283l411 380h201v-98v-854zM352 353v252l-135 -131z" />
    <glyph glyph-name="periodcentered" unicode="&#xb7;" horiz-adv-x="250" 
d="M190 356h-130v130h130v-130z" />
    <glyph glyph-name="cedilla" unicode="&#xb8;" horiz-adv-x="567" 
d="M432 -81l-156 -205h-89l107 140h-61v149h70v-84h129z" />
    <glyph glyph-name="onesuperior" unicode="&#xb9;" horiz-adv-x="346" 
d="M266 258h-109v395l-67 -55l-70 83l217 175h29v-598z" />
    <glyph glyph-name="ordmasculine" unicode="&#xba;" horiz-adv-x="488" 
d="M463 611l-209 -243h-20l-209 243l210 231h19zM362 611l-119 132l-116 -132l117 -143z" />
    <glyph glyph-name="guillemotright" unicode="&#xbb;" horiz-adv-x="504" 
d="M464 422l-181 -173l-51 48l130 124l-130 125l51 48zM271 422l-180 -173l-51 48l130 124l-130 125l51 48z" />
    <glyph glyph-name="onequarter" unicode="&#xbc;" horiz-adv-x="1003" 
d="M973 133h-70v-133h-115v133h-304l389 462h30v-359h70v-103zM702 925l-384 -1033l-102 36l384 1033zM266 258h-109v395l-67 -55l-70 83l217 175h29v-598zM788 236v103l-83 -103h83z" />
    <glyph glyph-name="onehalf" unicode="&#xbd;" horiz-adv-x="1028" 
d="M978 365l-202 -262h197v-103h-422l274 348l-192 165l81 85zM702 925l-384 -1033l-102 36l384 1033zM266 258h-109v395l-67 -55l-70 83l217 175h29v-598z" />
    <glyph glyph-name="threequarters" unicode="&#xbe;" horiz-adv-x="1098" 
d="M1068 133h-70v-133h-115v133h-304l389 462h30v-359h70v-103zM797 925l-384 -1033l-102 36l384 1033zM423 438l-373 -201v131l176 85l-155 113l139 93l-157 78v128l354 -190l-150 -109zM883 236v103l-83 -103h83z" />
    <glyph glyph-name="questiondown" unicode="&#xbf;" horiz-adv-x="531" 
d="M439 706h-130v135h130v-135zM471 74l-80 -94l-381 292l301 226v142h126v-198l-226 -167z" />
    <glyph glyph-name="Agrave" unicode="&#xc0;" horiz-adv-x="677" 
d="M462 963l-63 -63l-188 177l63 63zM657 12l-133 -34l-51 160h-265l-55 -162l-133 37l312 828h30zM434 262l-89 283l-95 -283h184z" />
    <glyph glyph-name="Aacute" unicode="&#xc1;" horiz-adv-x="677" 
d="M477 1077l-188 -177l-63 63l188 177zM657 12l-133 -34l-51 160h-265l-55 -162l-133 37l312 828h30zM434 262l-89 283l-95 -283h184z" />
    <glyph glyph-name="Acircumflex" unicode="&#xc2;" horiz-adv-x="677" 
d="M519 950l-65 -62l-109 105l-111 -105l-65 62l175 159zM657 12l-133 -34l-51 160h-265l-55 -162l-133 37l312 828h30zM434 262l-89 283l-95 -283h184z" />
    <glyph glyph-name="Atilde" unicode="&#xc3;" horiz-adv-x="677" 
d="M539 1020l-137 -114l-104 67l-76 -63l-66 49l135 113l105 -68l75 64zM657 12l-133 -34l-51 160h-265l-55 -162l-133 37l312 828h30zM434 262l-89 283l-95 -283h184z" />
    <glyph glyph-name="Adieresis" unicode="&#xc4;" horiz-adv-x="677" 
d="M490 932h-102v105h102v-105zM292 932h-102v105h102v-105zM657 12l-133 -34l-51 160h-265l-55 -162l-133 37l312 828h30zM434 262l-89 283l-95 -283h184z" />
    <glyph glyph-name="Aring" unicode="&#xc5;" horiz-adv-x="677" 
d="M506 1056l-160 -160l-160 160l160 159zM657 12l-133 -34l-51 160h-265l-55 -162l-133 37l312 828h30zM412 1056l-66 66l-66 -66l66 -66zM434 262l-89 283l-95 -283h184z" />
    <glyph glyph-name="AE" unicode="&#xc6;" horiz-adv-x="929" 
d="M899 84l-85 -107l-221 206l58 -171l-130 -34l-53 162h-261l-57 -164l-130 37l309 830h30l110 -301l331 313l90 -96l-313 -276h288v-120h-289zM430 256l-88 278l-94 -278h182z" />
    <glyph glyph-name="Ccedilla" unicode="&#xc7;" horiz-adv-x="599" 
d="M579 82l-95 -104l-464 443l459 432l96 -103l-372 -328zM444 -81l-156 -205h-89l107 140h-61v149h70v-84h129z" />
    <glyph glyph-name="Egrave" unicode="&#xc8;" horiz-adv-x="549" 
d="M461 963l-63 -63l-188 177l63 63zM577 753l-321 -270h287v-120h-288l319 -274l-85 -111l-469 443l459 434z" />
    <glyph glyph-name="Eacute" unicode="&#xc9;" horiz-adv-x="607" 
d="M467 1077l-188 -177l-63 63l188 177zM577 753l-321 -270h287v-120h-288l319 -274l-85 -111l-469 443l459 434z" />
    <glyph glyph-name="Ecircumflex" unicode="&#xca;" horiz-adv-x="607" 
d="M478 960l-65 -62l-109 105l-111 -105l-65 62l175 159zM577 753l-321 -270h287v-120h-288l319 -274l-85 -111l-469 443l459 434z" />
    <glyph glyph-name="Edieresis" unicode="&#xcb;" horiz-adv-x="549" 
d="M464 932h-102v105h102v-105zM266 932h-102v105h102v-105zM577 753l-321 -270h287v-120h-288l319 -274l-85 -111l-469 443l459 434z" />
    <glyph glyph-name="Igrave" unicode="&#xcc;" horiz-adv-x="292" 
d="M262 963l-63 -63l-188 177l63 63zM212 0h-132v832h132v-832z" />
    <glyph glyph-name="Iacute" unicode="&#xcd;" horiz-adv-x="292" 
d="M281 1077l-188 -177l-63 63l188 177zM212 0h-132v832h132v-832z" />
    <glyph glyph-name="Icircumflex" unicode="&#xce;" horiz-adv-x="292" 
d="M321 960l-65 -62l-109 105l-111 -105l-65 62l175 159zM212 0h-132v832h132v-832z" />
    <glyph glyph-name="Idieresis" unicode="&#xcf;" horiz-adv-x="292" 
d="M296 932h-102v105h102v-105zM98 932h-102v105h102v-105zM212 0h-132v832h132v-832z" />
    <glyph glyph-name="Eth" unicode="&#xd0;" horiz-adv-x="652" 
d="M632 420l-532 -440h-30v386h-35v110h35v376h30zM441 420l-241 196v-140h81v-110h-81v-146z" />
    <glyph glyph-name="Ntilde" unicode="&#xd1;" horiz-adv-x="659" 
d="M525 1020l-137 -114l-104 67l-76 -63l-66 49l135 113l105 -68l75 64zM589 -11h-35l-354 496v-485h-130v843h35l354 -493v483h130v-844z" />
    <glyph glyph-name="Ograve" unicode="&#xd2;" horiz-adv-x="828" 
d="M523 963l-63 -63l-188 177l63 63zM808 418l-381 -438h-25l-382 438l382 435h25zM639 417l-224 264l-225 -264l225 -265z" />
    <glyph glyph-name="Oacute" unicode="&#xd3;" horiz-adv-x="828" 
d="M561 1077l-188 -177l-63 63l188 177zM808 418l-381 -438h-25l-382 438l382 435h25zM639 417l-224 264l-225 -264l225 -265z" />
    <glyph glyph-name="Ocircumflex" unicode="&#xd4;" horiz-adv-x="828" 
d="M588 960l-65 -62l-109 105l-111 -105l-65 62l175 159zM808 418l-381 -438h-25l-382 438l382 435h25zM639 417l-224 264l-225 -264l225 -265z" />
    <glyph glyph-name="Otilde" unicode="&#xd5;" horiz-adv-x="828" 
d="M608 1020l-137 -114l-104 67l-76 -63l-66 49l135 113l105 -68l75 64zM808 418l-381 -438h-25l-382 438l382 435h25zM639 417l-224 264l-225 -264l225 -265z" />
    <glyph glyph-name="Odieresis" unicode="&#xd6;" horiz-adv-x="828" 
d="M565 932h-102v105h102v-105zM367 932h-102v105h102v-105zM808 418l-381 -438h-25l-382 438l382 435h25zM639 417l-224 264l-225 -264l225 -265z" />
    <glyph glyph-name="multiply" unicode="&#xd7;" horiz-adv-x="706" 
d="M606 258l-83 -83l-170 170l-170 -170l-83 83l170 170l-170 170l83 83l170 -170l170 170l83 -83l-169 -170z" />
    <glyph glyph-name="Oslash" unicode="&#xd8;" horiz-adv-x="818" 
d="M798 418l-380 -438h-26l-68 74l-40 -105l-109 38l63 165l-218 253l3 -3q-1 5 14.5 27t41.5 54.5t59 72.5t68 81q82 96 186 215h26l63 -68l36 98l110 -40l-60 -155zM628 417l-113 135l-140 -366l30 -35zM430 653l-25 30l-226 -266l111 -130z" />
    <glyph glyph-name="Ugrave" unicode="&#xd9;" horiz-adv-x="665" 
d="M451 963l-63 -63l-188 177l63 63zM595 0h-525v832h130v-708h265v708h130v-832z" />
    <glyph glyph-name="Uacute" unicode="&#xda;" horiz-adv-x="665" 
d="M487 1077l-188 -177l-63 63l188 177zM595 0h-525v832h130v-708h265v708h130v-832z" />
    <glyph glyph-name="Ucircumflex" unicode="&#xdb;" horiz-adv-x="665" 
d="M509 960l-65 -62l-109 105l-111 -105l-65 62l175 159zM595 0h-525v832h130v-708h265v708h130v-832z" />
    <glyph glyph-name="Udieresis" unicode="&#xdc;" horiz-adv-x="665" 
d="M483 932h-102v105h102v-105zM285 932h-102v105h102v-105zM595 0h-525v832h130v-708h265v708h130v-832z" />
    <glyph glyph-name="Yacute" unicode="&#xdd;" horiz-adv-x="644" 
d="M456 1077l-188 -177l-63 63l188 177zM624 796l-236 -476v-320h-131v322l-237 474l126 58l176 -396l176 396z" />
    <glyph glyph-name="Thorn" unicode="&#xde;" horiz-adv-x="648" 
d="M628 421l-428 -298v-123h-130v831h130v-118zM419 422l-219 143v-299z" />
    <glyph glyph-name="germandbls" unicode="&#xdf;" horiz-adv-x="564" 
d="M549 246l-336 -199v135l156 91l-155 142l120 122l-152 77v-635l-122 1v809h30l426 -218l-155 -152z" />
    <glyph glyph-name="agrave" unicode="&#xe0;" 
d="M402 923l-63 -63l-188 177l63 63zM556 76l-122 -34l-43 136h-207l-48 -138l-121 36l262 701h31zM355 290l-64 209l-69 -209h133z" />
    <glyph glyph-name="aacute" unicode="&#xe1;" 
d="M422 1037l-188 -177l-63 63l188 177zM556 76l-122 -34l-43 136h-207l-48 -138l-121 36l262 701h31zM355 290l-64 209l-69 -209h133z" />
    <glyph glyph-name="acircumflex" unicode="&#xe2;" 
d="M467 915l-65 -62l-109 105l-111 -105l-65 62l175 159zM556 76l-122 -34l-43 136h-207l-48 -138l-121 36l262 701h31zM355 290l-64 209l-69 -209h133z" />
    <glyph glyph-name="atilde" unicode="&#xe3;" 
d="M481 955l-137 -114l-104 67l-76 -63l-66 49l135 113l105 -68l75 64zM556 76l-122 -34l-43 136h-207l-48 -138l-121 36l262 701h31zM355 290l-64 209l-69 -209h133z" />
    <glyph glyph-name="adieresis" unicode="&#xe4;" 
d="M441 862h-102v105h102v-105zM243 862h-102v105h102v-105zM556 76l-122 -34l-43 136h-207l-48 -138l-121 36l262 701h31zM355 290l-64 209l-69 -209h133z" />
    <glyph glyph-name="aring" unicode="&#xe5;" 
d="M453 1006l-160 -160l-160 160l160 159zM556 76l-122 -34l-43 136h-207l-48 -138l-121 36l262 701h31zM359 1006l-66 66l-66 -66l66 -66zM355 290l-64 209l-69 -209h133z" />
    <glyph glyph-name="ae" unicode="&#xe6;" horiz-adv-x="812" 
d="M782 129l-90 -95l-183 182l48 -142l-122 -33l-44 137h-206l-48 -138l-122 34l262 704h32l96 -258l282 280l88 -95l-259 -226h234v-114h-234zM354 291l-63 195l-67 -195h130z" />
    <glyph glyph-name="ccedilla" unicode="&#xe7;" horiz-adv-x="511" 
d="M496 131l-84 -93l-397 383l393 374l87 -90l-311 -283zM381 -7l-156 -205h-89l107 140h-61v149h70v-84h129z" />
    <glyph glyph-name="egrave" unicode="&#xe8;" horiz-adv-x="522" 
d="M387 923l-63 -63l-188 177l63 63zM492 134l-87 -95l-390 382l386 375l85 -96l-253 -221h227v-113h-228z" />
    <glyph glyph-name="eacute" unicode="&#xe9;" horiz-adv-x="522" 
d="M417 1037l-188 -177l-63 63l188 177zM492 134l-87 -95l-390 382l386 375l85 -96l-253 -221h227v-113h-228z" />
    <glyph glyph-name="ecircumflex" unicode="&#xea;" horiz-adv-x="522" 
d="M446 915l-65 -62l-109 105l-111 -105l-65 62l175 159zM492 134l-87 -95l-390 382l386 375l85 -96l-253 -221h227v-113h-228z" />
    <glyph glyph-name="edieresis" unicode="&#xeb;" horiz-adv-x="522" 
d="M421 862h-102v105h102v-105zM223 862h-102v105h102v-105zM492 134l-87 -95l-390 382l386 375l85 -96l-253 -221h227v-113h-228z" />
    <glyph glyph-name="igrave" unicode="&#xec;" horiz-adv-x="262" 
d="M249 923l-63 -63l-188 177l63 63zM192 62h-122v708h122v-708z" />
    <glyph glyph-name="iacute" unicode="&#xed;" horiz-adv-x="262" 
d="M261 1037l-187 -177l-63 63l187 177zM192 62h-122v708h122v-708z" />
    <glyph glyph-name="icircumflex" unicode="&#xee;" horiz-adv-x="262" 
d="M306 915l-65 -62l-109 105l-111 -105l-65 62l175 159zM192 62h-122v708h122v-708z" />
    <glyph glyph-name="idieresis" unicode="&#xef;" horiz-adv-x="262" 
d="M282 862h-102v105h102v-105zM84 862h-102v105h102v-105zM192 62h-122v708h122v-708z" />
    <glyph glyph-name="eth" unicode="&#xf0;" horiz-adv-x="557" 
d="M542 421l-452 -375h-30v324h-30v102h30v318h30zM363 420l-184 153v-101h65v-102h-65v-101z" />
    <glyph glyph-name="ntilde" unicode="&#xf1;" horiz-adv-x="562" 
d="M477 955l-137 -114l-104 67l-76 -63l-66 49l135 113l105 -68l75 64zM502 53h-36l-285 404v-395h-121v717h36l285 -394v385h121v-717z" />
    <glyph glyph-name="ograve" unicode="&#xf2;" horiz-adv-x="700" 
d="M472 923l-63 -63l-188 177l63 63zM685 418l-326 -372h-22l-322 372l322 371h22zM527 418l-179 211l-178 -211l178 -212z" />
    <glyph glyph-name="oacute" unicode="&#xf3;" horiz-adv-x="700" 
d="M484 1037l-188 -177l-63 63l188 177zM685 418l-326 -372h-22l-322 372l322 371h22zM527 418l-179 211l-178 -211l178 -212z" />
    <glyph glyph-name="ocircumflex" unicode="&#xf4;" horiz-adv-x="700" 
d="M522 915l-65 -62l-109 105l-111 -105l-65 62l175 159zM685 418l-326 -372h-22l-322 372l322 371h22zM527 418l-179 211l-178 -211l178 -212z" />
    <glyph glyph-name="otilde" unicode="&#xf5;" horiz-adv-x="700" 
d="M536 955l-137 -114l-104 67l-76 -63l-66 49l135 113l105 -68l75 64zM685 418l-326 -372h-22l-322 372l322 371h22zM527 418l-179 211l-178 -211l178 -212z" />
    <glyph glyph-name="odieresis" unicode="&#xf6;" horiz-adv-x="700" 
d="M497 862h-102v105h102v-105zM299 862h-102v105h102v-105zM685 418l-326 -372h-22l-322 372l322 371h22zM527 418l-179 211l-178 -211l178 -212z" />
    <glyph glyph-name="divide" unicode="&#xf7;" horiz-adv-x="734" 
d="M432 558h-130v130h130v-130zM644 363h-554v116h554v-116zM432 153h-130v130h130v-130z" />
    <glyph glyph-name="oslash" unicode="&#xf8;" horiz-adv-x="702" 
d="M687 418l-325 -374h-24l-54 61l-36 -94l-99 35l57 145l-191 226l323 373h24l53 -60l34 88l98 -35l-54 -139zM527 417l-83 99l-112 -289l18 -21zM367 608l-17 21l-179 -212l84 -99z" />
    <glyph glyph-name="ugrave" unicode="&#xf9;" 
d="M397 923l-63 -63l-188 177l63 63zM511 62h-451v708h121v-595h209v595h121v-708z" />
    <glyph glyph-name="uacute" unicode="&#xfa;" 
d="M427 1038l-188 -177l-63 63l188 177zM511 62h-451v708h121v-595h209v595h121v-708z" />
    <glyph glyph-name="ucircumflex" unicode="&#xfb;" 
d="M461 915l-65 -62l-109 105l-111 -105l-65 62l175 159zM511 62h-451v708h121v-595h209v595h121v-708z" />
    <glyph glyph-name="udieresis" unicode="&#xfc;" 
d="M433 862h-102v105h102v-105zM235 862h-102v105h102v-105zM511 62h-451v708h121v-595h209v595h121v-708z" />
    <glyph glyph-name="yacute" unicode="&#xfd;" horiz-adv-x="548" 
d="M418 1014l-187 -178l-64 64l188 177zM533 741l-198 -405v-272h-122v274l-198 403l117 55l142 -324l143 324z" />
    <glyph glyph-name="thorn" unicode="&#xfe;" horiz-adv-x="544" 
d="M529 422l-348 -245v-114v0h-121v707h121v-94zM333 422l-152 116v-226z" />
    <glyph glyph-name="ydieresis" unicode="&#xff;" horiz-adv-x="548" 
d="M424 862h-102v105h102v-105zM226 862h-102v105h102v-105zM533 741l-198 -405v-272h-122v274l-198 403l117 55l142 -324l143 324z" />
    <glyph glyph-name="Amacron" unicode="&#x100;" horiz-adv-x="677" 
d="M488 916h-297v92h297v-92zM657 12l-133 -34l-51 160h-265l-55 -162l-133 37l312 828h30zM434 262l-89 283l-95 -283h184z" />
    <glyph glyph-name="amacron" unicode="&#x101;" 
d="M434 852h-296v91h296v-91zM556 76l-122 -34l-43 136h-207l-48 -138l-121 36l262 701h31zM355 290l-64 209l-69 -209h133z" />
    <glyph glyph-name="Abreve" unicode="&#x102;" horiz-adv-x="677" 
d="M507 903h-328v144h80v-62h168v62h80v-144zM657 12l-133 -34l-51 160h-265l-55 -162l-133 37l312 828h30zM434 262l-89 283l-95 -283h184z" />
    <glyph glyph-name="abreve" unicode="&#x103;" 
d="M453 838h-328v144h80v-62h168v62h80v-144zM556 76l-122 -34l-43 136h-207l-48 -138l-121 36l262 701h31zM355 290l-64 209l-69 -209h133z" />
    <glyph glyph-name="Aogonek" unicode="&#x104;" horiz-adv-x="677" 
d="M657 12l-49 -12l-158 -156l43 -43l59 59l60 -59l-119 -118l-162 163l178 177l-36 115h-265l-55 -162l-133 37l312 828h30zM434 262l-89 283l-95 -283h184z" />
    <glyph glyph-name="aogonek" unicode="&#x105;" 
d="M556 76l-38 -11l-169 -166l43 -43l59 59l60 -59l-119 -119l-162 164l189 188l-28 89h-207l-48 -138l-121 36l262 701h31zM355 290l-64 209l-69 -209h133z" />
    <glyph glyph-name="Cacute" unicode="&#x106;" horiz-adv-x="599" 
d="M469 1080l-188 -178l-63 64l187 177zM579 82l-95 -104l-464 443l459 432l96 -103l-372 -328z" />
    <glyph glyph-name="cacute" unicode="&#x107;" horiz-adv-x="511" 
d="M420 1008l-187 -177l-64 63l188 177zM496 131l-84 -93l-397 383l393 374l87 -90l-311 -283z" />
    <glyph glyph-name="Ccircumflex" unicode="&#x108;" horiz-adv-x="609" 
d="M480 962l-65 -62l-109 105l-111 -105l-65 62l175 160zM579 82l-95 -104l-464 443l459 432l96 -103l-372 -328z" />
    <glyph glyph-name="ccircumflex" unicode="&#x109;" horiz-adv-x="511" 
d="M432 895l-65 -62l-109 105l-111 -105l-65 62l175 159zM496 131l-84 -93l-397 383l393 374l87 -90l-311 -283z" />
    <glyph glyph-name="Cdotaccent" unicode="&#x10a;" horiz-adv-x="599" 
d="M375 896h-130v130h130v-130zM579 82l-95 -104l-464 443l459 432l96 -103l-372 -328z" />
    <glyph glyph-name="cdotaccent" unicode="&#x10b;" horiz-adv-x="511" 
d="M319 827h-130v130h130v-130zM496 131l-84 -93l-397 383l393 374l87 -90l-311 -283z" />
    <glyph glyph-name="Ccaron" unicode="&#x10c;" horiz-adv-x="599" 
d="M498 1063l-175 -159l-175 159l65 62l109 -105l111 105zM579 82l-95 -104l-464 443l459 432l96 -103l-372 -328z" />
    <glyph glyph-name="ccaron" unicode="&#x10d;" horiz-adv-x="511" 
d="M438 994l-174 -159l-175 159l65 62l109 -105l111 105zM496 131l-84 -93l-397 383l393 374l87 -90l-311 -283z" />
    <glyph glyph-name="Dcaron" unicode="&#x10e;" horiz-adv-x="652" 
d="M507 1061l-175 -159l-174 159l65 62l109 -105l110 105zM632 420l-532 -440h-30v872h30zM441 420l-241 196v-396z" />
    <glyph glyph-name="dcaron" unicode="&#x10f;" horiz-adv-x="557" 
d="M471 995l-174 -159l-175 159l65 62l109 -105l110 105zM542 421l-452 -375h-30v744h30zM363 420l-184 153v-304z" />
    <glyph glyph-name="Dcroat" unicode="&#x110;" horiz-adv-x="652" 
d="M632 420l-532 -440h-30v386h-35v110h35v376h30zM441 420l-241 196v-140h81v-110h-81v-146z" />
    <glyph glyph-name="dcroat" unicode="&#x111;" horiz-adv-x="557" 
d="M542 421l-452 -375h-30v324h-30v102h30v318h30zM363 420l-184 153v-101h65v-102h-65v-101z" />
    <glyph glyph-name="Emacron" unicode="&#x112;" horiz-adv-x="607" 
d="M474 906h-296v92h296v-92zM577 753l-321 -270h287v-120h-288l319 -274l-85 -111l-469 443l459 434z" />
    <glyph glyph-name="emacron" unicode="&#x113;" horiz-adv-x="522" 
d="M426 852h-296v92h296v-92zM492 134l-87 -95l-390 382l386 375l85 -96l-253 -221h227v-113h-228z" />
    <glyph glyph-name="Ebreve" unicode="&#x114;" horiz-adv-x="607" 
d="M489 905h-328v144h80v-62h168v62h80v-144zM577 753l-321 -270h287v-120h-288l319 -274l-85 -111l-469 443l459 434z" />
    <glyph glyph-name="ebreve" unicode="&#x115;" horiz-adv-x="522" 
d="M418 837h-328v144h80v-62h168v62h80v-144zM492 134l-87 -95l-390 382l386 375l85 -96l-253 -221h227v-113h-228z" />
    <glyph glyph-name="Edotaccent" unicode="&#x116;" horiz-adv-x="607" 
d="M369 905h-130v130h130v-130zM577 753l-321 -270h287v-120h-288l319 -274l-85 -111l-469 443l459 434z" />
    <glyph glyph-name="edotaccent" unicode="&#x117;" horiz-adv-x="522" 
d="M312 827h-130v130h130v-130zM492 134l-87 -95l-390 382l386 375l85 -96l-253 -221h227v-113h-228z" />
    <glyph glyph-name="Eogonek" unicode="&#x118;" horiz-adv-x="607" 
d="M577 753l-321 -270h287v-120h-288l319 -274l-85 -111l-26 25l-161 -159l43 -43l59 59l60 -59l-119 -118l-162 163l218 216l-381 359l459 434z" />
    <glyph glyph-name="eogonek" unicode="&#x119;" horiz-adv-x="522" 
d="M492 134l-87 -95l-24 22l-153 -151l43 -43l59 59l59 -59l-118 -118l-163 163l212 210l-305 299l386 375l85 -96l-253 -221h227v-113h-228z" />
    <glyph glyph-name="Ecaron" unicode="&#x11a;" horiz-adv-x="607" 
d="M516 1062l-175 -159l-175 159l65 62l109 -105l111 105zM577 753l-321 -270h287v-120h-288l319 -274l-85 -111l-469 443l459 434z" />
    <glyph glyph-name="ecaron" unicode="&#x11b;" horiz-adv-x="522" 
d="M446 993l-175 -159l-175 159l65 62l109 -105l111 105zM492 134l-87 -95l-390 382l386 375l85 -96l-253 -221h227v-113h-228z" />
    <glyph glyph-name="Gcircumflex" unicode="&#x11c;" horiz-adv-x="673" 
d="M508 962l-65 -62l-109 105l-111 -105l-65 62l175 159zM613 -20h-40l-553 440l478 434l99 -97l-388 -331l274 -210v282h130v-518z" />
    <glyph glyph-name="gcircumflex" unicode="&#x11d;" horiz-adv-x="578" 
d="M458 895l-65 -62l-109 106l-111 -106l-65 62l175 160zM523 44h-24l-484 374l402 376l91 -87l-319 -282l213 -158v217h121v-440z" />
    <glyph glyph-name="Gbreve" unicode="&#x11e;" horiz-adv-x="673" 
d="M506 901h-328v144h80v-62h168v62h80v-144zM613 -20h-40l-553 440l478 434l99 -97l-388 -331l274 -210v282h130v-518z" />
    <glyph glyph-name="gbreve" unicode="&#x11f;" horiz-adv-x="578" 
d="M429 861h-328v144h80v-62h168v62h80v-144zM523 44h-24l-484 374l402 376l91 -87l-319 -282l213 -158v217h121v-440z" />
    <glyph glyph-name="Gdotaccent" unicode="&#x120;" horiz-adv-x="673" 
d="M364 896h-130v130h130v-130zM613 -20h-40l-553 440l478 434l99 -97l-388 -331l274 -210v282h130v-518z" />
    <glyph glyph-name="gdotaccent" unicode="&#x121;" horiz-adv-x="578" 
d="M326 831h-129v128h129v-128zM523 44h-24l-484 374l402 376l91 -87l-319 -282l213 -158v217h121v-440z" />
    <glyph glyph-name="Gcommacedilla" unicode="&#x122;" horiz-adv-x="673" 
d="M613 -20h-40l-553 440l478 434l99 -97l-388 -331l274 -210v282h130v-518zM406 -180l-86 -133l-42 28l62 105h-55v119h121v-119z" />
    <glyph glyph-name="gcommacedilla" unicode="&#x123;" horiz-adv-x="578" 
d="M523 44h-24l-484 374l402 376l91 -87l-319 -282l213 -158v217h121v-440zM371 -109l-86 -133l-42 28l62 105h-55v120h121v-120z" />
    <glyph glyph-name="Hcircumflex" unicode="&#x124;" horiz-adv-x="700" 
d="M526 963l-65 -62l-109 105l-111 -105l-65 62l175 159zM630 0h-131v365h-298v-365h-131v832h131v-342h298v342h131v-832z" />
    <glyph glyph-name="hcircumflex" unicode="&#x125;" horiz-adv-x="597" 
d="M473 894l-65 -62l-109 105l-111 -105l-65 62l175 159zM537 62h-121v306h-235v-306h-121v708h121v-287h235v287h121v-708z" />
    <glyph glyph-name="Hbar" unicode="&#x126;" horiz-adv-x="700" 
d="M678 566h-48v-566h-131v365h-298v-365h-131v566h-48v102h48v164h131v-164h298v164h131v-164h48v-102zM499 490v76h-298v-76h298z" />
    <glyph glyph-name="hbar" unicode="&#x127;" horiz-adv-x="597" 
d="M579 554h-42v-492h-121v306h-235v-306h-121v492h-42v90h42v126h121v-126h235v126h121v-126h42v-90zM416 483v71h-235v-71h235z" />
    <glyph glyph-name="Itilde" unicode="&#x128;" horiz-adv-x="292" 
d="M313 999l-123 -114l-94 67l-68 -63l-60 49l122 113l94 -68l68 64zM212 0h-132v832h132v-832z" />
    <glyph glyph-name="itilde" unicode="&#x129;" horiz-adv-x="262" 
d="M299 929l-123 -114l-94 67l-68 -63l-60 49l122 113l94 -68l68 64zM192 62h-122v708h122v-708z" />
    <glyph glyph-name="Imacron" unicode="&#x12a;" horiz-adv-x="292" 
d="M294 909h-296v92h296v-92zM212 0h-132v832h132v-832z" />
    <glyph glyph-name="imacron" unicode="&#x12b;" horiz-adv-x="262" 
d="M279 844h-296v92h296v-92zM192 62h-122v708h122v-708z" />
    <glyph glyph-name="Ibreve" unicode="&#x12c;" horiz-adv-x="292" 
d="M310 889h-328v144h80v-62h168v62h80v-144zM212 0h-132v832h132v-832z" />
    <glyph glyph-name="ibreve" unicode="&#x12d;" horiz-adv-x="262" 
d="M295 837h-328v144h80v-62h168v62h80v-144zM192 62h-122v708h122v-708z" />
    <glyph glyph-name="Iogonek" unicode="&#x12e;" horiz-adv-x="292" 
d="M212 0h-30l-158 -156l43 -43l59 59l60 -59l-119 -118l-162 163l175 174v812h132v-832z" />
    <glyph glyph-name="iogonek" unicode="&#x12f;" horiz-adv-x="262" 
d="M192 62h-13l-158 -155l43 -43l59 59l60 -59l-119 -119l-162 164l168 167v694h122v-708z" />
    <glyph glyph-name="Idotaccent" unicode="&#x130;" horiz-adv-x="292" 
d="M211 896h-130v130h130v-130zM212 0h-132v832h132v-832z" />
    <glyph glyph-name="dotlessi" unicode="&#x131;" horiz-adv-x="262" 
d="M192 62h-122v708h122v-708z" />
    <glyph glyph-name="IJ" unicode="&#x132;" horiz-adv-x="766" 
d="M691 833l-10 -853h-40l-381 336l87 100l213 -190v607h131zM212 0h-132v832h132v-832z" />
    <glyph glyph-name="ij" unicode="&#x133;" horiz-adv-x="670" 
d="M606 44h-28l-343 293l79 88l171 -153v497h121v-725zM192 62h-122v708h122v-708z" />
    <glyph glyph-name="Jcircumflex" unicode="&#x134;" horiz-adv-x="526" 
d="M539 961l-65 -62l-109 105l-110 -105l-65 62l175 159zM451 833l-10 -853h-40l-381 336l87 100l213 -190v607h131z" />
    <glyph glyph-name="jcircumflex" unicode="&#x135;" horiz-adv-x="450" 
d="M476 895l-65 -62l-109 106l-110 -106l-65 62l175 160zM386 44h-28l-343 293l79 88l171 -153v497h121v-725z" />
    <glyph glyph-name="Kcommacedilla" unicode="&#x136;" horiz-adv-x="626" 
d="M606 71l-96 -93l-310 323v-302h-130v833h130v-280l291 301l96 -90l-346 -333zM403 -180l-86 -133l-42 28l62 105h-55v119h121v-119z" />
    <glyph glyph-name="kcommacedilla" unicode="&#x137;" horiz-adv-x="542" 
d="M527 123l-83 -83l-263 264v-243h-121v710h121v-226l252 245l82 -83l-299 -280zM351 -112l-86 -133l-41 28l61 105h-54v120h120v-120z" />
    <glyph glyph-name="kgreenlandic" unicode="&#x138;" horiz-adv-x="547" 
d="M527 123l-83 -83l-263 264v-243h-121v710h121v-226l252 245l82 -83l-299 -280z" />
    <glyph glyph-name="Lacute" unicode="&#x139;" horiz-adv-x="551" 
d="M359 1074l-187 -177l-64 63l188 178zM531 0h-461v832h130v-708h331v-124z" />
    <glyph glyph-name="lacute" unicode="&#x13a;" horiz-adv-x="462" 
d="M341 1007l-187 -177l-64 63l188 177zM447 62h-387v708h121v-592h266v-116z" />
    <glyph glyph-name="Lcommacedilla" unicode="&#x13b;" horiz-adv-x="551" 
d="M531 0h-461v832h130v-708h331v-124zM380 -180l-86 -133l-42 28l62 105h-55v119h121v-119z" />
    <glyph glyph-name="lcommacedilla" unicode="&#x13c;" horiz-adv-x="462" 
d="M447 62h-387v708h121v-592h266v-116zM334 -111l-86 -133l-42 28l62 105h-55v120h121v-120z" />
    <glyph glyph-name="Lcaron" unicode="&#x13d;" horiz-adv-x="551" 
d="M441 712l-86 -133l-41 28l61 105h-54v119h120v-119zM531 0h-461v832h130v-708h331v-124z" />
    <glyph glyph-name="lcaron" unicode="&#x13e;" horiz-adv-x="462" 
d="M405 649l-86 -133l-41 28l61 105h-54v120h120v-120zM447 62h-387v708h121v-592h266v-116z" />
    <glyph glyph-name="Ldot" unicode="&#x13f;" horiz-adv-x="551" 
d="M417 357h-130v130h130v-130zM531 0h-461v832h130v-708h331v-124z" />
    <glyph glyph-name="ldot" unicode="&#x140;" horiz-adv-x="462" 
d="M381 355h-130v130h130v-130zM447 62h-387v708h121v-592h266v-116z" />
    <glyph glyph-name="Lslash" unicode="&#x141;" horiz-adv-x="551" 
d="M531 0h-461v291l-35 -21v120l35 21v421h130v-342l93 56v-120l-93 -56v-246h331v-124z" />
    <glyph glyph-name="lslash" unicode="&#x142;" horiz-adv-x="462" 
d="M447 62h-387v250l-30 -17v114l30 17v344h121v-275l83 48v-114l-83 -48v-203h266v-116z" />
    <glyph glyph-name="Nacute" unicode="&#x143;" horiz-adv-x="659" 
d="M465 1074l-187 -177l-64 63l188 177zM589 -11h-35l-354 496v-485h-130v843h35l354 -493v483h130v-844z" />
    <glyph glyph-name="nacute" unicode="&#x144;" horiz-adv-x="562" 
d="M422 1007l-187 -178l-64 64l188 177zM502 53h-36l-285 404v-395h-121v717h36l285 -394v385h121v-717z" />
    <glyph glyph-name="Ncommacedilla" unicode="&#x145;" horiz-adv-x="659" 
d="M589 -11h-35l-354 496v-485h-130v843h35l354 -493v483h130v-844zM408 -180l-86 -133l-42 28l62 105h-55v119h121v-119z" />
    <glyph glyph-name="ncommacedilla" unicode="&#x146;" horiz-adv-x="562" 
d="M502 53h-36l-285 404v-395h-121v717h36l285 -394v385h121v-717zM364 -109l-85 -133l-42 28l62 105h-55v119h120v-119z" />
    <glyph glyph-name="Ncaron" unicode="&#x147;" horiz-adv-x="659" 
d="M486 1062l-175 -159l-175 159l65 62l109 -105l111 105zM589 -11h-35l-354 496v-485h-130v843h35l354 -493v483h130v-844z" />
    <glyph glyph-name="ncaron" unicode="&#x148;" horiz-adv-x="562" 
d="M442 995l-175 -159l-175 159l66 62l108 -105l111 105zM502 53h-36l-285 404v-395h-121v717h36l285 -394v385h121v-717z" />
    <glyph glyph-name="napostrophe" unicode="&#x149;" horiz-adv-x="679" 
d="M619 53h-35l-286 404v-395h-121v717h36l285 -394v385h121v-717zM128 711l-86 -132l-42 27l62 105h-55v120h121v-120z" />
    <glyph glyph-name="Eng" unicode="&#x14a;" horiz-adv-x="659" 
d="M589 -185h-214v158h79v-70h51v155l-305 427v-485h-130v843h35l354 -493v483h130v-816v-28v-174z" />
    <glyph glyph-name="eng" unicode="&#x14b;" horiz-adv-x="562" 
d="M502 -121h-214v158h79v-70h51v155l-237 335v-395h-121v717h36l285 -394v385h121v-689v-28v-174z" />
    <glyph glyph-name="Omacron" unicode="&#x14c;" horiz-adv-x="828" 
d="M558 913h-296v92h296v-92zM808 418l-381 -438h-25l-382 438l382 435h25zM639 417l-224 264l-225 -264l225 -265z" />
    <glyph glyph-name="omacron" unicode="&#x14d;" horiz-adv-x="700" 
d="M495 842h-297v91h297v-91zM685 418l-326 -372h-22l-322 372l322 371h22zM527 418l-179 211l-178 -211l178 -212z" />
    <glyph glyph-name="Obreve" unicode="&#x14e;" horiz-adv-x="828" 
d="M573 911h-328v144h80v-62h168v62h80v-144zM808 418l-381 -438h-25l-382 438l382 435h25zM639 417l-224 264l-225 -264l225 -265z" />
    <glyph glyph-name="obreve" unicode="&#x14f;" horiz-adv-x="700" 
d="M514 842h-328v144h80v-62h168v62h80v-144zM685 418l-326 -372h-22l-322 372l322 371h22zM527 418l-179 211l-178 -211l178 -212z" />
    <glyph glyph-name="Ohungarumlaut" unicode="&#x150;" horiz-adv-x="828" 
d="M594 1072l-82 -180l-72 33l82 181zM451 1072l-82 -180l-72 33l82 181zM808 418l-381 -438h-25l-382 438l382 435h25zM639 417l-224 264l-225 -264l225 -265z" />
    <glyph glyph-name="ohungarumlaut" unicode="&#x151;" horiz-adv-x="700" 
d="M526 1003l-83 -180l-72 33l82 180zM383 1003l-83 -180l-72 33l82 180zM685 418l-326 -372h-22l-322 372l322 371h22zM527 418l-179 211l-178 -211l178 -212z" />
    <glyph glyph-name="OE" unicode="&#x152;" horiz-adv-x="1000" 
d="M970 76l-81 -107l-269 271l-218 -260h-26l-356 425l3 -3q-1 5 14 27.5t39.5 55t56.5 73t65 81.5q78 97 178 216h26l214 -255l259 263l94 -96l-277 -259l20 -25h226v-120h-217l-24 -29zM603 417l-214 266l-216 -266l216 -265z" />
    <glyph glyph-name="oe" unicode="&#x153;" horiz-adv-x="840" 
d="M810 133l-86 -95l-210 215l-176 -208h-21l-302 371l302 373h21l174 -204l208 210l84 -92l-221 -205l16 -19h181v-114h-173l-20 -23zM496 417l-169 211l-171 -211l171 -210z" />
    <glyph glyph-name="Racute" unicode="&#x154;" horiz-adv-x="658" 
d="M471 1073l-187 -178l-64 63l188 178zM638 61l-97 -83l-238 269l-103 -77v-171h-130l1 853h30l520 -379l-213 -152zM409 474l-209 153v-315z" />
    <glyph glyph-name="racute" unicode="&#x155;" horiz-adv-x="555" 
d="M430 1008l-187 -178l-63 64l187 177zM540 113l-90 -78l-200 225l-69 -53v-146h-121l1 726h30l437 -324l-181 -133zM334 460l-153 119v-237z" />
    <glyph glyph-name="Rcommacedilla" unicode="&#x156;" horiz-adv-x="658" 
d="M638 61l-97 -83l-238 269l-103 -77v-171h-130l1 853h30l520 -379l-213 -152zM401 -180l-86 -133l-42 28l62 105h-55v119h121v-119zM409 474l-209 153v-315z" />
    <glyph glyph-name="rcommacedilla" unicode="&#x157;" horiz-adv-x="555" 
d="M540 113l-90 -78l-200 225l-69 -53v-146h-121l1 726h30l437 -324l-181 -133zM350 -109l-86 -132l-41 27l61 105h-54v120h120v-120zM334 460l-153 119v-237z" />
    <glyph glyph-name="Rcaron" unicode="&#x158;" horiz-adv-x="658" 
d="M500 1071l-174 -159l-175 159l65 62l109 -105l110 105zM638 61l-97 -83l-238 269l-103 -77v-171h-130l1 853h30l520 -379l-213 -152zM409 474l-209 153v-315z" />
    <glyph glyph-name="rcaron" unicode="&#x159;" horiz-adv-x="555" 
d="M461 995l-174 -159l-175 159l65 62l109 -105l110 105zM540 113l-90 -78l-200 225l-69 -53v-146h-121l1 726h30l437 -324l-181 -133zM334 460l-153 119v-237z" />
    <glyph glyph-name="Sacute" unicode="&#x15a;" horiz-adv-x="594" 
d="M419 1075l-188 -177l-63 63l187 178zM574 251l-392 -274l-77 104l268 182l-348 325l386 265l81 -102l-266 -175z" />
    <glyph glyph-name="sacute" unicode="&#x15b;" horiz-adv-x="509" 
d="M372 1010l-187 -177l-63 63l187 177zM494 277l-334 -237l-73 98l221 150l-288 273l327 231l74 -97l-215 -146z" />
    <glyph glyph-name="Scircumflex" unicode="&#x15c;" horiz-adv-x="594" 
d="M460 972l-65 -62l-108 105l-111 -105l-65 62l175 159zM574 251l-392 -274l-77 104l268 182l-348 325l386 265l81 -102l-266 -175z" />
    <glyph glyph-name="scircumflex" unicode="&#x15d;" horiz-adv-x="509" 
d="M392 902l-65 -62l-109 105l-111 -105l-65 62l175 159zM494 277l-334 -237l-73 98l221 150l-288 273l327 231l74 -97l-215 -146z" />
    <glyph glyph-name="Scedilla" unicode="&#x15e;" horiz-adv-x="594" 
d="M574 251l-392 -274l-77 104l268 182l-348 325l386 265l81 -102l-266 -175zM455 -81l-157 -205h-89l107 140h-61v149h71v-84h129z" />
    <glyph glyph-name="scedilla" unicode="&#x15f;" horiz-adv-x="509" 
d="M494 277l-334 -237l-73 98l221 150l-288 273l327 231l74 -97l-215 -146zM435 -14l-156 -205h-89l107 140h-61v149h70v-84h129z" />
    <glyph glyph-name="Scaron" unicode="&#x160;" horiz-adv-x="594" 
d="M480 1060l-175 -159l-175 159l65 62l109 -105l111 105zM574 251l-392 -274l-77 104l268 182l-348 325l386 265l81 -102l-266 -175z" />
    <glyph glyph-name="scaron" unicode="&#x161;" horiz-adv-x="509" 
d="M430 995l-175 -159l-175 159l65 62l109 -105l111 105zM494 277l-334 -237l-73 98l221 150l-288 273l327 231l74 -97l-215 -146z" />
    <glyph glyph-name="Tcedilla" unicode="&#x162;" horiz-adv-x="559" 
d="M544 708h-199v-708h-35v-81h129l-156 -205h-90l108 140h-61v146h-26v708h-199v124h529v-124z" />
    <glyph glyph-name="tcedilla" unicode="&#x163;" horiz-adv-x="481" 
d="M466 654h-165v-592h-28v-69h129l-156 -205h-89l107 140h-61v134h-24v592h-164v116h451v-116z" />
    <glyph glyph-name="Tcaron" unicode="&#x164;" horiz-adv-x="559" 
d="M453 1062l-175 -159l-174 159l65 62l108 -105l111 105zM544 708h-199v-708h-131v708h-199v124h529v-124z" />
    <glyph glyph-name="tcaron" unicode="&#x165;" horiz-adv-x="481" 
d="M417 995l-174 -159l-175 159l65 62l109 -105l110 105zM466 654h-165v-592h-122v592h-164v116h451v-116z" />
    <glyph glyph-name="Tbar" unicode="&#x166;" horiz-adv-x="559" 
d="M544 708h-199v-238h164v-100h-164v-370h-131v370h-168v100h168v238h-199v124h529v-124z" />
    <glyph glyph-name="tbar" unicode="&#x167;" horiz-adv-x="481" 
d="M466 654h-165v-186h138v-93h-138v-313h-122v313h-135v93h135v186h-164v116h451v-116z" />
    <glyph glyph-name="Utilde" unicode="&#x168;" horiz-adv-x="665" 
d="M530 1001l-136 -115l-105 67l-76 -63l-66 50l135 112l105 -68l75 65zM595 0h-525v832h130v-708h265v708h130v-832z" />
    <glyph glyph-name="utilde" unicode="&#x169;" 
d="M464 928l-137 -114l-104 67l-76 -63l-67 49l136 113l104 -68l76 64zM511 62h-451v708h121v-595h209v595h121v-708z" />
    <glyph glyph-name="Umacron" unicode="&#x16a;" horiz-adv-x="665" 
d="M479 911h-297v92h297v-92zM595 0h-525v832h130v-708h265v708h130v-832z" />
    <glyph glyph-name="umacron" unicode="&#x16b;" 
d="M435 843h-297v92h297v-92zM511 62h-451v708h121v-595h209v595h121v-708z" />
    <glyph glyph-name="Ubreve" unicode="&#x16c;" horiz-adv-x="665" 
d="M498 913h-328v144h80v-62h168v62h80v-144zM595 0h-525v832h130v-708h265v708h130v-832z" />
    <glyph glyph-name="ubreve" unicode="&#x16d;" 
d="M449 837h-328v144h80v-62h168v62h80v-144zM511 62h-451v708h121v-595h209v595h121v-708z" />
    <glyph glyph-name="Uring" unicode="&#x16e;" horiz-adv-x="665" 
d="M489 1057l-159 -159l-160 159l160 160zM595 0h-525v832h130v-708h265v708h130v-832zM396 1057l-66 66l-66 -66l66 -66z" />
    <glyph glyph-name="uring" unicode="&#x16f;" 
d="M447 987l-159 -160l-160 160l160 159zM511 62h-451v708h121v-595h209v595h121v-708zM354 987l-66 66l-66 -66l66 -66z" />
    <glyph glyph-name="Uhungarumlaut" unicode="&#x170;" horiz-adv-x="665" 
d="M520 1069l-82 -180l-72 33l82 180zM377 1069l-82 -180l-72 33l82 180zM595 0h-525v832h130v-708h265v708h130v-832z" />
    <glyph glyph-name="uhungarumlaut" unicode="&#x171;" 
d="M467 1002l-82 -180l-72 33l82 180zM324 1002l-82 -180l-72 33l82 180zM511 62h-451v708h121v-595h209v595h121v-708z" />
    <glyph glyph-name="Uogonek" unicode="&#x172;" horiz-adv-x="665" 
d="M595 0h-155l-158 -156l43 -43l59 59l60 -59l-119 -118l-162 163l155 154h-248v832h130v-708h265v708h130v-832z" />
    <glyph glyph-name="uogonek" unicode="&#x173;" 
d="M511 62h-114l-152 -150l43 -43l59 60l59 -60l-118 -118l-163 163l149 148h-214v708h121v-595h209v595h121v-708z" />
    <glyph glyph-name="Wcircumflex" unicode="&#x174;" horiz-adv-x="865" 
d="M606 962l-65 -62l-109 105l-111 -105l-65 62l175 159zM845 828l-221 -838h-34l-158 495l-160 -495h-35l-217 838l139 27l104 -492l155 479h30l149 -479l109 492z" />
    <glyph glyph-name="wcircumflex" unicode="&#x175;" horiz-adv-x="735" 
d="M539 894l-65 -62l-108 106l-111 -106l-65 62l175 160zM720 762l-189 -707h-32l-131 407l-132 -407h-32l-189 707l130 25l85 -386l122 378h32l123 -369l84 377z" />
    <glyph glyph-name="Ycircumflex" unicode="&#x176;" horiz-adv-x="644" 
d="M496 962l-65 -62l-109 105l-111 -105l-65 62l175 159zM624 796l-236 -476v-320h-131v322l-237 474l126 58l176 -396l176 396z" />
    <glyph glyph-name="ycircumflex" unicode="&#x177;" horiz-adv-x="548" 
d="M449 895l-65 -62l-109 105l-111 -105l-65 62l175 159zM533 741l-198 -405v-272h-122v274l-198 403l117 55l142 -324l143 324z" />
    <glyph glyph-name="Ydieresis" unicode="&#x178;" horiz-adv-x="644" 
d="M470 932h-102v105h102v-105zM272 932h-102v105h102v-105zM624 796l-236 -476v-320h-131v322l-237 474l126 58l176 -396l176 396z" />
    <glyph glyph-name="Zacute" unicode="&#x179;" horiz-adv-x="593" 
d="M448 1077l-187 -177l-63 63l187 177zM558 832l-325 -714l304 1v-119h-502l324 713h-303v119h502z" />
    <glyph glyph-name="zacute" unicode="&#x17a;" horiz-adv-x="522" 
d="M389 1004l-188 -177l-63 63l187 177zM492 770l-277 -596l251 1v-113h-436l277 595h-251v113h436z" />
    <glyph glyph-name="Zdotaccent" unicode="&#x17b;" horiz-adv-x="593" 
d="M360 898h-130v130h130v-130zM558 832l-325 -714l304 1v-119h-502l324 713h-303v119h502z" />
    <glyph glyph-name="zdotaccent" unicode="&#x17c;" horiz-adv-x="522" 
d="M323 828h-130v130h130v-130zM492 770l-277 -596l251 1v-113h-436l277 595h-251v113h436z" />
    <glyph glyph-name="Zcaron" unicode="&#x17d;" horiz-adv-x="593" 
d="M486 1068l-175 -159l-175 159l65 62l109 -105l111 105zM558 832l-325 -714l304 1v-119h-502l324 713h-303v119h502z" />
    <glyph glyph-name="zcaron" unicode="&#x17e;" horiz-adv-x="522" 
d="M450 998l-175 -159l-175 159l65 62l109 -105l111 105zM492 770l-277 -596l251 1v-113h-436l277 595h-251v113h436z" />
    <glyph glyph-name="longs" unicode="&#x17f;" horiz-adv-x="409" 
d="M404 709l-185 -192v-423l-197 -205l-82 85l162 168v342h-79v116h112l187 194z" />
    <glyph glyph-name="florin" unicode="&#x192;" horiz-adv-x="533" 
d="M518 769l-15 -113h-290l-23 -179l229 1l-15 -113l-228 -1l-39 -302h-122l39 302h-37l14 114h37l38 291h412z" />
    <glyph glyph-name="Aringacute" unicode="&#x1fa;" horiz-adv-x="677" 
d="M502 1259l-187 -177l-64 63l188 178zM657 12l-133 -34l-51 160h-265l-55 -162l-133 37l291 774l-125 125l160 159l159 -159l-124 -124zM412 912l-66 66l-66 -66l66 -66zM434 262l-89 283l-95 -283h184z" />
    <glyph glyph-name="aringacute" unicode="&#x1fb;" 
d="M449 1195l-187 -178l-64 64l188 177zM556 76l-122 -34l-43 136h-207l-48 -138l-121 36l242 647l-124 124l160 159l159 -159l-125 -125zM359 847l-66 66l-66 -66l66 -66zM355 290l-64 209l-69 -209h133z" />
    <glyph glyph-name="AEacute" unicode="&#x1fc;" horiz-adv-x="929" 
d="M687 1072l-187 -177l-63 63l187 177zM899 84l-85 -107l-221 206l58 -171l-130 -34l-53 162h-261l-57 -164l-130 37l309 830h30l110 -301l331 313l90 -96l-313 -276h288v-120h-289zM430 256l-88 278l-94 -278h182z" />
    <glyph glyph-name="aeacute" unicode="&#x1fd;" horiz-adv-x="812" 
d="M616 1006l-188 -177l-63 63l187 178zM782 129l-90 -95l-183 182l48 -142l-122 -33l-44 137h-206l-48 -138l-122 34l262 704h32l96 -258l282 280l88 -95l-259 -226h234v-114h-234zM354 291l-63 195l-67 -195h130z" />
    <glyph glyph-name="Oslashacute" unicode="&#x1fe;" horiz-adv-x="818" 
d="M540 1079l-188 -178l-63 64l187 177zM798 418l-380 -438h-26l-68 74l-40 -105l-109 38l63 165l-218 253l3 -3q-1 5 14.5 27t41.5 54.5t59 72.5t68 81q82 96 186 215h26l63 -68l36 98l110 -40l-60 -155zM628 417l-113 135l-140 -366l30 -35zM430 653l-25 30l-226 -266
l111 -130z" />
    <glyph glyph-name="oslashacute" unicode="&#x1ff;" horiz-adv-x="702" 
d="M472 1007l-187 -178l-63 64l187 177zM687 418l-325 -374h-24l-54 61l-36 -94l-99 35l57 145l-191 226l323 373h24l53 -60l34 88l98 -35l-54 -139zM527 417l-83 99l-112 -289l18 -21zM367 608l-17 21l-179 -212l84 -99z" />
    <glyph glyph-name="Scommacedilla" unicode="&#x218;" horiz-adv-x="594" 
d="M574 251l-392 -274l-77 104l268 182l-348 325l386 265l81 -102l-266 -175zM408 -180l-86 -133l-42 28l62 105h-55v119h121v-119z" />
    <glyph glyph-name="scommacedilla" unicode="&#x219;" horiz-adv-x="509" 
d="M494 277l-334 -237l-73 98l221 150l-288 273l327 231l74 -97l-215 -146zM361 -111l-86 -133l-42 28l62 105h-55v119h121v-119z" />
    <glyph glyph-name="Tcommacedilla" unicode="&#x21a;" horiz-adv-x="559" 
d="M544 708h-199v-708h-131v708h-199v124h529v-124zM342 -180l-86 -133l-42 28l62 105h-55v119h121v-119z" />
    <glyph glyph-name="tcommacedilla" unicode="&#x21b;" horiz-adv-x="481" 
d="M466 654h-165v-592h-122v592h-164v116h451v-116zM303 -108l-86 -133l-42 28l62 105h-54v119h120v-119z" />
    <glyph glyph-name="circumflex" unicode="&#x2c6;" horiz-adv-x="575" 
d="M442 960l-65 -62l-109 105l-111 -105l-65 62l175 159z" />
    <glyph glyph-name="caron" unicode="&#x2c7;" horiz-adv-x="575" 
d="M450 1058l-175 -159l-175 159l65 62l109 -105l111 105z" />
    <glyph glyph-name="breve" unicode="&#x2d8;" horiz-adv-x="575" 
d="M435 905h-328v144h80v-62h168v62h80v-144z" />
    <glyph glyph-name="dotaccent" unicode="&#x2d9;" horiz-adv-x="229" 
d="M184 930h-130v130h130v-130z" />
    <glyph glyph-name="ring" unicode="&#x2da;" horiz-adv-x="438" 
d="M361 1056l-160 -160l-160 160l160 159zM267 1056l-66 66l-66 -66l66 -66z" />
    <glyph glyph-name="ogonek" unicode="&#x2db;" horiz-adv-x="604" 
d="M596 10l-169 -166l43 -43l59 59l60 -59l-119 -118l-162 163l227 225z" />
    <glyph glyph-name="tilde" unicode="&#x2dc;" horiz-adv-x="562" 
d="M515 1020l-137 -114l-104 67l-76 -63l-66 49l135 113l105 -68l75 64z" />
    <glyph glyph-name="hungarumlaut" unicode="&#x2dd;" horiz-adv-x="388" 
d="M382 1072l-82 -180l-72 33l82 180zM239 1072l-82 -180l-72 33l82 180z" />
    <glyph glyph-name="commabelow" unicode="&#x326;" horiz-adv-x="751" 
d="M456 -180l-86 -133l-42 28l62 105h-55v119h121v-119z" />
    <glyph glyph-name="pi" unicode="&#x3c0;" 
d="M526 655h-51v-592h-117v592h-145v-592h-117v592h-51v115h481v-115z" />
    <glyph glyph-name="Bdotaccent" unicode="&#x1e02;" horiz-adv-x="665" 
d="M414 890h-130v130h130v-130zM645 224l-545 -245h-30v873h30l516 -251l-254 -167zM404 578l-204 98v-221zM428 253l-228 160v-260z" />
    <glyph glyph-name="bdotaccent" unicode="&#x1e03;" horiz-adv-x="566" 
d="M352 827h-130v130h130v-130zM60 43v748h35l433 -220l-207 -141l230 -175l-456 -212h-35zM181 463l145 85l-145 72v-157zM181 210l165 73l-165 115v-188z" />
    <glyph glyph-name="Ddotaccent" unicode="&#x1e0a;" horiz-adv-x="652" 
d="M408 889h-130v130h130v-130zM632 420l-532 -440h-30v872h30zM441 420l-241 196v-396z" />
    <glyph glyph-name="ddotaccent" unicode="&#x1e0b;" horiz-adv-x="557" 
d="M362 823h-130v130h130v-130zM542 421l-452 -375h-30v744h30zM363 420l-184 153v-304z" />
    <glyph glyph-name="Fdotaccent" unicode="&#x1e1e;" horiz-adv-x="579" 
d="M378 901h-130v130h130v-130zM564 708h-363v-224h288v-124h-288v-360h-131v832h494v-124z" />
    <glyph glyph-name="fdotaccent" unicode="&#x1e1f;" horiz-adv-x="496" 
d="M340 829h-130v130h130v-130zM481 654h-300v-176h238v-115h-238v-301h-121v708h421v-116z" />
    <glyph glyph-name="Mdotaccent" unicode="&#x1e40;" horiz-adv-x="865" 
d="M497 896h-130v130h130v-130zM845 8l-137 -28l-108 476l-149 -466h-36l-149 466l-109 -476l-137 28l215 834h35l163 -496l163 496h34z" />
    <glyph glyph-name="mdotaccent" unicode="&#x1e41;" horiz-adv-x="745" 
d="M438 831h-130v130h130v-130zM725 70l-128 -26l-88 396l-118 -387h-38l-115 387l-90 -396l-128 26l186 708h37l130 -408l129 408h37z" />
    <glyph glyph-name="Pdotaccent" unicode="&#x1e56;" horiz-adv-x="648" 
d="M385 897h-130v130h130v-130zM628 473l-428 -282v-191h-130l1 852h30zM419 476l-219 157v-299z" />
    <glyph glyph-name="pdotaccent" unicode="&#x1e57;" horiz-adv-x="544" 
d="M341 828h-130v130h130v-130zM529 468l-348 -242v-163h-121l1 725h33zM333 471l-152 116v-226z" />
    <glyph glyph-name="Sdotaccent" unicode="&#x1e60;" horiz-adv-x="594" 
d="M340 901h-130v130h130v-130zM574 251l-392 -274l-77 104l268 182l-348 325l386 265l81 -102l-266 -175z" />
    <glyph glyph-name="sdotaccent" unicode="&#x1e61;" horiz-adv-x="509" 
d="M283 830h-130v130h130v-130zM494 277l-334 -237l-73 98l221 150l-288 273l327 231l74 -97l-215 -146z" />
    <glyph glyph-name="Tdotaccent" unicode="&#x1e6a;" horiz-adv-x="559" 
d="M344 902h-130v130h130v-130zM544 708h-199v-708h-131v708h-199v124h529v-124z" />
    <glyph glyph-name="tdotaccent" unicode="&#x1e6b;" horiz-adv-x="481" 
d="M307 830h-130v130h130v-130zM466 654h-165v-592h-122v592h-164v116h451v-116z" />
    <glyph glyph-name="Wgrave" unicode="&#x1e80;" horiz-adv-x="865" 
d="M550 962l-63 -63l-187 177l63 63zM845 828l-221 -838h-34l-158 495l-160 -495h-35l-217 838l139 27l104 -492l155 479h30l149 -479l109 492z" />
    <glyph glyph-name="wgrave" unicode="&#x1e81;" horiz-adv-x="735" 
d="M477 893l-63 -63l-187 177l63 64zM720 762l-189 -707h-32l-131 407l-132 -407h-32l-189 707l130 25l85 -386l122 378h32l123 -369l84 377z" />
    <glyph glyph-name="Wacute" unicode="&#x1e82;" horiz-adv-x="865" 
d="M561 1073l-188 -177l-63 63l187 177zM845 828l-221 -838h-34l-158 495l-160 -495h-35l-217 838l139 27l104 -492l155 479h30l149 -479l109 492z" />
    <glyph glyph-name="wacute" unicode="&#x1e83;" horiz-adv-x="735" 
d="M493 1009l-188 -177l-63 63l187 178zM720 762l-189 -707h-32l-131 407l-132 -407h-32l-189 707l130 25l85 -386l122 378h32l123 -369l84 377z" />
    <glyph glyph-name="Wdieresis" unicode="&#x1e84;" horiz-adv-x="865" 
d="M580 902h-102v105h102v-105zM382 902h-102v105h102v-105zM845 828l-221 -838h-34l-158 495l-160 -495h-35l-217 838l139 27l104 -492l155 479h30l149 -479l109 492z" />
    <glyph glyph-name="wdieresis" unicode="&#x1e85;" horiz-adv-x="735" 
d="M519 835h-102v106h102v-106zM321 835h-102v106h102v-106zM720 762l-189 -707h-32l-131 407l-132 -407h-32l-189 707l130 25l85 -386l122 378h32l123 -369l84 377z" />
    <glyph glyph-name="Ygrave" unicode="&#x1ef2;" horiz-adv-x="644" 
d="M419 958l-63 -63l-188 177l64 64zM624 796l-236 -476v-320h-131v322l-237 474l126 58l176 -396l176 396z" />
    <glyph glyph-name="ygrave" unicode="&#x1ef3;" horiz-adv-x="548" 
d="M354 893l-63 -63l-187 177l63 64zM533 741l-198 -405v-272h-122v274l-198 403l117 55l142 -324l143 324z" />
    <glyph glyph-name="endash" unicode="&#x2013;" horiz-adv-x="558" 
d="M538 364h-518v114h518v-114z" />
    <glyph glyph-name="emdash" unicode="&#x2014;" horiz-adv-x="708" 
d="M688 364h-668v114h668v-114z" />
    <glyph glyph-name="quoteleft" unicode="&#x2018;" horiz-adv-x="210" 
d="M150 612h-90v220h90v-220z" />
    <glyph glyph-name="quoteright" unicode="&#x2019;" horiz-adv-x="210" 
d="M150 612h-90v220h90v-220z" />
    <glyph glyph-name="quotesinglbase" unicode="&#x201a;" horiz-adv-x="210" 
d="M150 -101h-90v220h90v-220z" />
    <glyph glyph-name="quotedblleft" unicode="&#x201c;" horiz-adv-x="370" 
d="M310 612h-90v220h90v-220zM150 612h-90v220h90v-220z" />
    <glyph glyph-name="quotedblright" unicode="&#x201d;" horiz-adv-x="370" 
d="M310 612h-90v220h90v-220zM150 612h-90v220h90v-220z" />
    <glyph glyph-name="quotedblbase" unicode="&#x201e;" horiz-adv-x="370" 
d="M310 -99h-90v220h90v-220zM150 -99h-90v220h90v-220z" />
    <glyph glyph-name="dagger" unicode="&#x2020;" horiz-adv-x="355" 
d="M305 789h-93v-307h-69v307h-93v67h93v101h69v-101h93v-67z" />
    <glyph glyph-name="daggerdbl" unicode="&#x2021;" horiz-adv-x="355" 
d="M305 583h-93v-101h-69v101h-93v67h93v139h-93v67h93v101h69v-101h93v-67h-93v-139h93v-67z" />
    <glyph glyph-name="bullet" unicode="&#x2022;" horiz-adv-x="334" 
d="M234 304h-234v234h234v-234z" />
    <glyph glyph-name="ellipsis" unicode="&#x2026;" horiz-adv-x="737" 
d="M667 0h-117v117h117v-117zM427 0h-117v117h117v-117zM187 0h-117v117h117v-117z" />
    <glyph glyph-name="perthousand" unicode="&#x2030;" horiz-adv-x="1219" 
d="M620 878l-344 -953l-77 32l344 953zM191 380l-176 232l175 241h14l175 -241l-174 -232h-14zM129 614l69 -96l67 96l-68 98zM616 -12l-175 232l174 241h15l174 -241l-173 -232h-15zM554 222l69 -96l68 96l-68 98zM1016 -12l-175 232l174 241h15l174 -241l-173 -232h-15z
M954 222l69 -96l68 96l-68 98z" />
    <glyph glyph-name="guilsinglleft" unicode="&#x2039;" horiz-adv-x="311" 
d="M271 546l-129 -125l129 -124l-50 -48l-181 173l181 172z" />
    <glyph glyph-name="guilsinglright" unicode="&#x203a;" horiz-adv-x="311" 
d="M271 422l-180 -173l-51 48l130 124l-130 125l51 48z" />
    <glyph glyph-name="fraction" unicode="&#x2044;" horiz-adv-x="466" 
d="M476 930l-384 -1033l-102 35l384 1034z" />
    <glyph glyph-name="tironianet" unicode="&#x204a;" horiz-adv-x="485" 
d="M440 770l-219 -708h-121l184 595h-234v113h390z" />
    <glyph glyph-name="Euro" unicode="&#x20ac;" horiz-adv-x="581" 
d="M531 75l-89 -100l-339 387h-83v119h84l331 374l92 -99l-257 -275h199v-119h-199z" />
    <glyph glyph-name="indianrupeesign" unicode="&#x20b9;" horiz-adv-x="570" 
d="M520 54l-89 -83l-262 299h-119v118h106l92 74h-198v118h191l-101 73h-90v118h463v-118h-171l89 -73h82v-118h-74l-166 -137z" />
    <glyph glyph-name="rublesign" unicode="&#x20bd;" horiz-adv-x="638" 
d="M598 276h-383v-60h282v-118h-282v-98h-119v98h-46v118h46v60h-46v117h46v439h28zM351 393l-139 163l3 -163h136z" />
    <glyph glyph-name="careof" unicode="&#x2105;" horiz-adv-x="1030" 
d="M980 197l-226 -249l-231 249l229 257zM739 925l-385 -1033l-102 36l385 1033zM403 867l-200 -179l200 -185l-77 -82l-276 266l273 261zM843 199l-91 102l-92 -102l93 -100z" />
    <glyph glyph-name="numero" unicode="&#x2116;" horiz-adv-x="1181" 
d="M1126 553l-237 -294h-35l-237 294l238 279h8h26zM1067 88h-391v104h391v-104zM549 -11h-37l-322 504v-493h-120v843h37l322 -492v482h120v-844zM982 551l-111 131l-110 -131l110 -142z" />
    <glyph glyph-name="trademark" unicode="&#x2122;" horiz-adv-x="701" 
d="M661 490l-76 -14l-45 185l-57 -180h-32l-64 187l-47 -192l-76 14l101 365h31l69 -198l64 198h31zM294 787h-91v-302h-72v302h-91v64h254v-64z" />
    <glyph glyph-name="Omega" unicode="&#x2126;" horiz-adv-x="773" 
d="M723 492l-189 -237v-142h176v-113h-299v299l147 192l-173 208l-174 -208l149 -192v-299h-299v113h176v146l-187 233l324 374h23z" />
    <glyph glyph-name="onethird" unicode="&#x2153;" horiz-adv-x="1072" 
d="M1022 183l-373 -202v131l176 86l-155 112l139 94l-157 77v129l354 -190l-150 -110zM702 925l-384 -1033l-102 36l384 1033zM266 258h-109v395l-67 -55l-70 83l217 175h29v-598z" />
    <glyph glyph-name="twothirds" unicode="&#x2154;" horiz-adv-x="1232" 
d="M1182 183l-373 -202v131l176 86l-155 112l139 94l-157 77v129l354 -190l-150 -110zM867 925l-384 -1033l-102 36l384 1033zM457 623l-203 -262h198v-103h-422l274 348l-193 165l81 85z" />
    <glyph glyph-name="partialdiff" unicode="&#x2202;" horiz-adv-x="603" 
d="M553 326l-241 -297h-27l-235 287l180 240l-179 233h144zM404 326l-106 137l-107 -137l107 -137z" />
    <glyph glyph-name="Delta" unicode="&#x2206;" horiz-adv-x="681" 
d="M656 0h-631l292 853h24zM490 124l-157 443l-145 -443h302z" />
    <glyph glyph-name="product" unicode="&#x220f;" horiz-adv-x="621" 
d="M576 773h-56v-833h-121v833h-177v-833h-121v833h-56v120h531v-120z" />
    <glyph glyph-name="summation" unicode="&#x2211;" horiz-adv-x="645" 
d="M600 -59h-525l279 476l-279 476h525v-120h-314l209 -356l-210 -356h315v-120z" />
    <glyph glyph-name="minus" unicode="&#x2212;" horiz-adv-x="734" 
d="M644 363h-554v116h554v-116z" />
    <glyph glyph-name="radical" unicode="&#x221a;" horiz-adv-x="752" 
d="M762 941l-346 -941h-106l-134 355l-107 -37l-39 100l214 73l118 -314l280 764h120z" />
    <glyph glyph-name="infinity" unicode="&#x221e;" horiz-adv-x="641" 
d="M601 419l-177 -173l-104 102l-103 -102l-177 173l177 172l103 -101l104 101zM490 419l-66 65l-66 -65l66 -65zM283 419l-66 65l-67 -65l67 -65z" />
    <glyph glyph-name="integral" unicode="&#x222b;" horiz-adv-x="276" 
d="M306 860h-128v-978h-228v98h129v978h227v-98z" />
    <glyph glyph-name="approxequal" unicode="&#x2248;" horiz-adv-x="706" 
d="M606 258l-83 -83l-170 170l-170 -170l-83 83l170 170l-170 170l83 83l170 -170l170 170l83 -83l-169 -170z" />
    <glyph glyph-name="notequal" unicode="&#x2260;" horiz-adv-x="714" 
d="M624 249h-285l-69 -189l-80 29l58 160h-158v109h197l46 126h-243v109h282l59 163l81 -28l-49 -135h161v-109h-200l-45 -126h245v-109z" />
    <glyph glyph-name="lessequal" unicode="&#x2264;" horiz-adv-x="592" 
d="M542 340l-64 -95l-428 256l428 258l64 -96l-279 -161zM524 79h-464v116h464v-116z" />
    <glyph glyph-name="greaterequal" unicode="&#x2265;" horiz-adv-x="592" 
d="M542 501l-428 -256l-64 95l279 162l-279 161l63 96zM532 79h-464v116h464v-116z" />
    <glyph glyph-name="lozenge" unicode="&#x25ca;" horiz-adv-x="757" 
d="M717 418l-329 -438h-16l-332 438v0l332 437h16zM569 418l-190 259l-191 -259l191 -260z" />
    <glyph glyph-name="apple" unicode="&#xf8ff;" horiz-adv-x="817" 
d="M767 59h-157l-244 359l242 357h159v-716zM317 59h-267v716h265l-243 -356z" />
    <glyph glyph-name="fi" unicode="&#xfb01;" horiz-adv-x="758" 
d="M688 62h-122v708h122v-708zM481 654h-300v-176h238v-115h-238v-301h-121v708h421v-116z" />
    <glyph glyph-name="fl" unicode="&#xfb02;" horiz-adv-x="958" 
d="M943 62h-387v708h121v-592h266v-116zM481 654h-300v-176h238v-115h-238v-301h-121v708h421v-116z" />
    </font>
</defs>
</svg>
