<svg xmlns="http://www.w3.org/2000/svg" viewBox="0 0 77.7 212.64"><defs><style>.cls-1{isolation:isolate;}.cls-2{fill:#ef5476;}.cls-3{fill:#ce4836;}.cls-4{fill:#b23124;}.cls-5{fill:#a0231d;}.cls-6{fill:#ffb882;}.cls-7{fill:#ffebc0;}.cls-8{fill:#f4d095;}.cls-9{fill:#ff9566;}.cls-10{fill:#ffe0ae;}.cls-11{fill:#c94343;opacity:0.6;mix-blend-mode:multiply;}.cls-12{fill:#66423b;}.cls-13{fill:#c14d33;}.cls-14{fill:#ea7b59;}.cls-15{fill:#491d2e;}.cls-16{fill:#ffebeb;}.cls-17{fill:#ef8f6f;}</style></defs><title>APHRODITE</title><g class="cls-1"><g id="Layer_2" data-name="Layer 2"><g id="_1" data-name="1"><path class="cls-2" d="M6.56,62.36C-.67,56.27,2,50.89,3.05,50.48s2,4.65,2,4.65,1.14-2.48,2.69-1.34S6.56,62.36,6.56,62.36Z"/><path class="cls-2" d="M57.42,41.05c5.79-5.84,2.54-9.39,1.52-9.51s-1.14,3.83-1.14,3.83-1.4-1.66-2.67-.53S57.42,41.05,57.42,41.05Z"/><path class="cls-2" d="M4.69,32.48c4.69-4.79,2-7.7,1.22-7.8S5,27.81,5,27.81s-1.14-1.35-2.17-.43S4.69,32.48,4.69,32.48Z"/><path class="cls-2" d="M65.26,57.93c-4.67-1.44-3.48-4.54-2.75-5s1.67,2.21,1.67,2.21.76-1.5,1.9-1.13S65.26,57.93,65.26,57.93Z"/><path class="cls-3" d="M48.39,61.4C49.44,53,55.52,30.21,51,14S38,4.91,38,4.91C34.93-1.41,25-1.41,19.33,3.65.89,20,14.68,39.06,14.68,39.06S9.93,51.19,14.41,53.3s5.48,10.87.57,19.24C6.25,87.41,4.84,98.71,6.53,108.83s13.4,17.28,27.91,4l11.76-1C63.23,105.87,47.33,69.83,48.39,61.4Z"/><path class="cls-4" d="M48.39,61.4c1-8,6.59-29.18,3.18-45.21.87,7.9-9.41-3-16.13-1-5,1.5-13.11,1.3-15.54-.25-3.5-2.22-2-8.47-.46-11.41l-.11.09C.89,20,14.68,39.06,14.68,39.06S9.93,51.19,14.41,53.3s5.48,10.87.57,19.24C6.25,87.41,4.84,98.71,6.53,108.83s13.4,17.28,27.91,4l11.76-1C63.23,105.87,47.33,69.83,48.39,61.4Z"/><path class="cls-5" d="M34.44,112.83l11.76-1c17-5.91,1.13-41.95,2.19-50.38.18-1.49.53-3.44.94-5.71-.26-.11-.53-.23-.8-.33-10.47-3.83-23.26,3.06-33.08,16.32-.16.28-.3.57-.47.86C6.25,87.41,4.84,98.71,6.53,108.83S19.93,126.11,34.44,112.83Z"/><path class="cls-5" d="M31.13,143.37c-15-10.33-22-31.31-22.67-39.85l17.9,4.42C23.6,110.76,24.89,136.27,31.13,143.37Z"/><path class="cls-6" d="M44.89,39.94c-7.54-5.37-10.33-10.22-10.54-14.67A6.71,6.71,0,0,0,30,19.42c-.62,8.06,4.43,15.79.25,20.95Z"/><path class="cls-7" d="M36.93,57C53.46,73.21,69.68,95.63,70.61,104.3s-21.07-2.68-21.07-2.68S45.72,75.89,32.29,66.8C28,58,36.93,57,36.93,57Z"/><path class="cls-8" d="M38.52,58.26c15.12,14.83,28.29,36.29,29.14,44.22S48.39,100,48.39,100,44.9,76.51,32.62,68.2C28.65,60.17,38.52,58.26,38.52,58.26Z"/><path class="cls-8" d="M26.76,188.64a18.52,18.52,0,0,0,13.62,8.86c4.82.69,9.7,9.69,4.92,11.83l31.07,3.31s-10.73-24.1-29.74-30.28c-22.39-7.27-18.55-18.62-15.38-20.14L26,154.92Z"/><path class="cls-6" d="M40.41,42.11c7.84,16,12.45,28.71,15,30.65,3.09,2.33,4.42-.81,3.78-3.31C58.32,65.94,50,46.8,47.92,43,44.57,36.86,40.41,42.11,40.41,42.11Z"/><path class="cls-9" d="M53.46,68.61a17.87,17.87,0,0,1,2-8.75C52.7,53.19,49.17,45.3,47.92,43c-3.35-6.15-7.51-.9-7.51-.9,6.2,12.61,10.37,23.21,13.11,28.06C53.49,69.66,53.46,69.14,53.46,68.61Z"/><path class="cls-8" d="M52.53,61.39C48.63,64.82,50,67.91,50,67.91s-7.07-3.29-5.93-7.32S52.53,61.39,52.53,61.39Z"/><path class="cls-6" d="M44.06,52.86,35.32,60c5.49,12.32.29,22.19-6.34,36.65C17.41,121.9,31.9,155.37,46.49,212h.76s20.44-89,19.08-101.47C64.24,91.3,50.88,88.39,44.06,52.86Z"/><path class="cls-9" d="M32.28,95.6c5.9-14.46,8.85-23.27,3.95-35.59l7.47-6.86L35.32,60c5.49,12.32.29,22.19-6.34,36.65C18.15,120.28,30.16,151.12,43.7,201.4,31.64,151.12,22.63,119.23,32.28,95.6Z"/><path class="cls-9" d="M66.33,110.51C64.24,91.3,50.88,88.39,44.06,52.86l0,0c6.07,35.51,19.2,38.68,21.06,57.88C66.3,123.27,46.86,212,46.86,212h.39S67.69,123,66.33,110.51Z"/><path class="cls-9" d="M58.44,101a14.51,14.51,0,0,1,6.09,1.38c-1.69-4.92-4.26-9-7.11-13.78-7.24,6.39-24.7,11.63-30.17,12.52-4.46,13.53-2.4,29.48,2.63,49.87C32.71,122.38,44.42,101,58.44,101Z"/><path class="cls-9" d="M36.11,79.63c3.71-4.76,7.75-7.4,12-7.4a9.8,9.8,0,0,1,1.33.09,116.07,116.07,0,0,1-5.35-19.46L35.32,60C38.39,66.9,38.11,73,36.11,79.63Z"/><polygon class="cls-9" points="47.02 129.51 46.49 209.98 47.02 210.12 49.02 127.12 47.02 129.51"/><path class="cls-9" d="M66.33,110.51c-1.26-11.58-9.14-16.18-10-13.67-6.92,19.88-23.08,25.22-30.63,19.93a7.48,7.48,0,0,1-.88-.72c-.4,16.37,5.15,36.23,12.42,62q.54-2.26,1.17-4.56c6.63-24.24,17.86-43.19,25.94-44.36C65.81,120.27,66.64,113.38,66.33,110.51Z"/><path class="cls-7" d="M.81,212.64H77.7l-7.87-7.73s-19.75,8.14-38-.54S13.48,192,13.48,192,3.09,200.52.81,212.64Z"/><path class="cls-10" d="M64.61,212.64H77.7a55.32,55.32,0,0,0-8.55-12.11A8.62,8.62,0,0,1,62,207.15,30.33,30.33,0,0,1,64.61,212.64Z"/><path class="cls-10" d="M13.46,192C13,192.39,3,200.81.81,212.64H19.35C13.6,205.38,11.23,197.59,13.46,192Z"/><path class="cls-7" d="M69,119.08c-34.32,34.07-39.36,51.75-38.12,73.86,0,0-9.71-5-6.61-25,0,0-3.09-1.34-.42-17.35,1.24-7.44-9.71-7.44-7.23-18.6S26.49,92.81,63.07,91.7C69.89,91.49,71.76,116.3,69,119.08Z"/><path class="cls-10" d="M52.48,103.84c.11-1.06-.48-2.68-.62-4.18.73-2.06,1.61-4.66,2.47-7.45l-3.78,1.18a48,48,0,0,1-.77,7.1l-.12.26a46.52,46.52,0,0,1-4.33,3.31c-.44.39.11.74,1.59,0,.93-.45,1.38-.83,1.74-1-.19.46-.34.89-.45,1.24-.55,1.3-1.49,3.61-1.14,3.7s1.13-1.28,1.81-2.55a5.3,5.3,0,0,0,.68,0c-.11,1.29-.2,2.94.1,3s.8-1.8,1.07-3.19a5.27,5.27,0,0,0,.6-.2c.12,1.28.34,2.88.65,2.92.52.06.65-2.54.5-4.15Z"/><path class="cls-10" d="M30.86,182.16a5,5,0,0,1-.76-.29c-5.8-2.92-6.1-24.19,1.85-40a51.36,51.36,0,0,1,6.53-9.74c-7.9,4.61-14.81,5.83-17.59,2.45-3.22-3.93-.26-16.85,7-27.55-7.39,8.78-10,19.16-11.33,25-2.48,11.16,8.47,11.16,7.23,18.6-2.67,16,.42,17.35.42,17.35-3.1,20,6.61,25,6.61,25A84.23,84.23,0,0,1,30.86,182.16Z"/><path class="cls-10" d="M63.07,91.7c-1,0-2,.09-3,.16a9.47,9.47,0,0,1,4.06,2.71c3.34,4.07-.36,13.54-8.39,22.91C60.17,115,64,114,66,115c1.35.68,1.9,2.55,1.86,5.2L69,119.08C71.76,116.3,69.89,91.49,63.07,91.7Z"/><path class="cls-6" d="M31.36,54.51c-1.55-10.33-2.39-11.73-2-13.08s5.49-7.27,6.11-7.48,10.12,5.89,10.74,6.92,5.68,13,5.89,14S31.36,54.51,31.36,54.51Z"/><path class="cls-9" d="M43.24,48.31a33.25,33.25,0,0,0,1.45,6.35l1.44.2Z"/><path class="cls-9" d="M31.36,54.51s1.13.09,4.79.26c-.28-1.35-4.8-13-6.87-12.55C29.29,43.57,30.08,46,31.36,54.51Z"/><path class="cls-7" d="M28.46,53.89c-.41,5.06-.62,9.19,3.83,12.91,0,0,6.74-6.75,20.24-5.41,0,0,4-4.19,2.69-8.12C53.84,50.41,30.73,51.21,28.46,53.89Z"/><path class="cls-10" d="M45.89,59.29c-4.78,0-8.66-5.72-9.27-7.44-5.17,0-7.84,1.66-8.16,2-3.15,7.3,3.2,13.57,7.65,17.28a32.11,32.11,0,0,1,16.42-9.78A13.41,13.41,0,0,0,54.26,59C51.83,59.62,49,59.29,45.89,59.29Z"/><path class="cls-10" d="M32.7,57.35,36,60.69c5.93-6.38,17.14-5.28,17.14-5.28S47.29,52.82,32.7,57.35Z"/><path class="cls-6" d="M29.6,41.08c-6.92,11-10,34.09-7.44,37.09s4.13,1,4.86-1.45,2.22-19.52,5.42-25.83S29.6,41.08,29.6,41.08Z"/><path class="cls-9" d="M32.19,49.61C29.16,57.1,25.1,62.9,22,64.67c-1,6.63-1,12.14.18,13.5,2.58,3,4.13,1,4.86-1.45s2.22-19.52,5.42-25.83a7.49,7.49,0,0,0,.89-4.33C33,47.56,32.61,48.58,32.19,49.61Z"/><path class="cls-6" d="M53.21,66c-1.71,6,.51,27.58-2.51,34.48l1.21,1S60.79,78.8,59.32,71C58.24,65.16,53.21,66,53.21,66Z"/><path class="cls-9" d="M51.41,101.1c2.74-8.64,1.63-32.47,3.05-38.93-.8-.07-1.94,3.35-1.94,3.35-1.72,6,1.2,28.1-1.82,35Z"/><path class="cls-6" d="M25.51,77.92C31,75.71,43.44,60.71,50.33,58.16l-.14-1.52s-21.69,8-26.31,14.54C20.47,76,25.51,77.92,25.51,77.92Z"/><path class="cls-9" d="M40.65,63.54c-7.24,5.64-14.3,8.57-15.95,6.66a8.87,8.87,0,0,0-.82,1C20.47,76,25,79.62,25,79.62c5.53-2.2,18.47-18.91,25.36-21.46l-.08-.9A92.43,92.43,0,0,0,40.65,63.54Z"/><path class="cls-9" d="M46.39,89.15c0-.24-.26-.31-.7-.16s-.84.47-.89.71.27.32.7.17S46.34,89.4,46.39,89.15Z"/><path class="cls-5" d="M11.51,129.11C2.42,111.72,4.65,95,8.12,88.08L19.4,104.72C15,106,10.79,117.37,11.51,129.11Z"/><path class="cls-5" d="M0,110.26c.58-19.21,13.71-36.86,20.17-42l-8,26.71C8.55,93.92,2.47,100.76,0,110.26Z"/><path class="cls-11" d="M33.82,42.58A36.33,36.33,0,0,0,44.48,39.4c-.74-.54-1.65-1.16-2.6-1.79-5.28-4.45-7.35-8.55-7.53-12.34A6.71,6.71,0,0,0,30,19.42c-.55,7.13,3.34,14,1.34,19.07a14.61,14.61,0,0,0-2,2.94v0c-.3.49-.6,1-.88,1.57A42,42,0,0,0,33.82,42.58Z"/><path class="cls-6" d="M37.1,30.71a8.08,8.08,0,0,1-7-7.06c-.39-3.31-.59-8.71,3.41-10,4.41-1.38,6.57,2.25,6.62,7.5C40.18,27.4,37.1,30.71,37.1,30.71Z"/><path class="cls-12" d="M38.93,20.67c0-.72-.44-1.29-.88-1.27s-.74.63-.68,1.36.44,1.29.87,1.27S39,21.4,38.93,20.67Z"/><path class="cls-12" d="M34.69,20.88c0-.84-.44-1.52-.91-1.52S33,20,33,20.87s.44,1.52.91,1.52S34.72,21.72,34.69,20.88Z"/><path class="cls-12" d="M32.23,20.65a4.13,4.13,0,0,1,2.7-1,1.14,1.14,0,0,0-1.31-.45C32.68,19.43,32.23,20.65,32.23,20.65Z"/><path class="cls-12" d="M39.45,20a3.64,3.64,0,0,0-2.51-.43A1.06,1.06,0,0,1,38,19C38.9,19,39.45,20,39.45,20Z"/><path class="cls-13" d="M31.82,19.12,31.76,19A3.61,3.61,0,0,1,34,16.9l.11.63A3.32,3.32,0,0,0,31.82,19.12Z"/><path class="cls-13" d="M39.51,18.43a3.31,3.31,0,0,0-2.61-1.12v-.63a3.48,3.48,0,0,1,2.69,1.53Z"/><path class="cls-14" d="M37.21,23.14s0,.05,0,.07a.79.79,0,0,1-1,.58,1,1,0,0,1-.6-.56,1,1,0,0,0,.67,1.05.8.8,0,0,0,1.05-.58A1,1,0,0,0,37.21,23.14Z"/><path class="cls-15" d="M34.67,25.74l3-.07s-.27,1.55-1.49,1.55S34.67,25.74,34.67,25.74Z"/><path class="cls-16" d="M34.88,25.8l2.53-.06s.2.68-1.23.74S34.88,25.8,34.88,25.8Z"/><path class="cls-17" d="M36.83,27.7c0-.19-.26,0-.58,0s-.57-.18-.57,0,.26.34.57.34S36.83,27.89,36.83,27.7Z"/><path class="cls-3" d="M20.86,32.1C18.24,23.77,24.68,20,25.68,16.72c.92-3,1.86-9.2-.91-9.37S17.62,9,18.55,12.59c.85,3.27,3.88,4.12,1.9,7.29C17.08,25.26,18.82,29.83,20.86,32.1Z"/><path class="cls-6" d="M28.58,23.32c-.15-1.86-1.45-2.69-2-1.42a1.92,1.92,0,0,0,.57,2.55C27.81,24.88,28.71,24.84,28.58,23.32Z"/><path class="cls-14" d="M28.23,23.2c-.1-1.21-1-1.76-1.31-.93A1.27,1.27,0,0,0,27.29,24C27.72,24.22,28.31,24.2,28.23,23.2Z"/><path class="cls-6" d="M28.2,23.64c-.07-.88-.69-1.27-.94-.67a.91.91,0,0,0,.27,1.21C27.84,24.38,28.26,24.36,28.2,23.64Z"/><path class="cls-10" d="M31.17,130.49c7-10.55,26.68-19.86,26.68-19.86S45.65,115,41.1,117.87,31.17,130.49,31.17,130.49Z"/><path class="cls-2" d="M72.09,37.3c-1.76-4.56,1.41-5.54,2.21-5.24s-.7,2.68-.7,2.68,1.64-.33,2.07.79S72.09,37.3,72.09,37.3Z"/><path class="cls-6" d="M44.9,60.06c1.9-.63,4.81,0,5.76-.69.74-.57.32-3.48-.31-3.75S44.66,59,44.66,59Z"/><path class="cls-6" d="M46.33,58a31.33,31.33,0,0,0,2.14-4.56c.24-.44.72,0,.46,1.38s-.74,1.73-.21,2.23S45.82,58.66,46.33,58Z"/><path class="cls-6" d="M49.55,57.2c1-.75,3.25-2.47,3-2.86s-3.74,2-3.74,2Z"/><path class="cls-6" d="M50.18,58.18c1.06-.4,3.59-1.33,3.41-1.73s-4,.76-4,.76Z"/><path class="cls-6" d="M50.22,59.58c1.5-.17,3.74-.73,3.55-1.15s-4.21.12-4.21.12Z"/><path class="cls-6" d="M53.58,95.81c-.28,2,1.08,4.65.48,5.86-.47,1-3.82,1.48-4.23.91s2.55-6.65,2.55-6.65Z"/><path class="cls-6" d="M51.62,97.82a40.28,40.28,0,0,1-4.57,3.56c-.43.39.11.74,1.59,0s1.77-1.3,2.41-.94S52.29,97.12,51.62,97.82Z"/><path class="cls-6" d="M51.42,101.24c-.63,1.23-2.15,4.24-2.63,4.12s1.53-4.56,1.53-4.56Z"/><path class="cls-6" d="M52.64,101.56c-.23,1.24-.75,4.27-1.25,4.21s.06-4.49.06-4.49Z"/><path class="cls-6" d="M54.2,101.15c.15,1.62,0,4.21-.5,4.15s-.78-4.49-.78-4.49Z"/></g></g></g></svg>