<svg xmlns="http://www.w3.org/2000/svg" viewBox="0 0 178.83 215.03"><defs><style>.cls-1{isolation:isolate;}.cls-2{fill:#ff9566;}.cls-3{fill:#cc5a29;}.cls-4{fill:#b24119;}.cls-5{fill:#d83688;}.cls-6{fill:#bc1e74;}.cls-7{fill:#ffb882;}.cls-8{fill:#ffe5b0;}.cls-9{fill:#f4d090;}.cls-10{fill:#ed5693;}.cls-11{fill:#e03684;}.cls-12{fill:#f99426;}.cls-13{fill:#825160;}.cls-14{fill:#ffce31;}.cls-15{fill:#e87446;}.cls-16{fill:#ffe771;}.cls-17{fill:#c94343;opacity:0.6;mix-blend-mode:multiply;}.cls-18{fill:#ea7b59;}.cls-19{fill:#5b352d;}</style></defs><title>APOLLO</title><g class="cls-1"><g id="Layer_2" data-name="Layer 2"><g id="_1" data-name="1"><path class="cls-2" d="M21.76,124.21c-.83-5.37-.62-7.7.67-8.43s4.71.68,4.71.68Z"/><path class="cls-2" d="M36.15,128.57c-1.72,3.38-4.13,4.35-6.89,2.35,0,0-4,.55-5-1.66,0,0-4.87,1.45-3.47-3.93S26,119,26,119Z"/><path class="cls-3" d="M61.77,32.72c-2.74,2.63-8.21,1.93-8.21,1.93l-.81-1.53-.31,1.28s-5,3.41-9.39.18-2.78-6.29-2.78-6.29-3-2.59-1.53-5.2a17.85,17.85,0,0,1,4.39-4.75l1.94.12-1.9-1.14a6.07,6.07,0,0,1-.35-5.77A5.85,5.85,0,0,1,47,7.81l1.21.25s-2.46-3.39.21-5.37S56,2.5,56,2.5l.51,1,.38-1.74S59.32-.37,61.83.06s4.69,3.8,4.69,3.8L66,5l1.83-.26a10.09,10.09,0,0,1,1.37,11.68C65.76,23.31,61.77,32.72,61.77,32.72Z"/><path class="cls-4" d="M64.36,9.18,63.07,7.72l.53,2.14a6.09,6.09,0,0,1-3.83,4.34,5.86,5.86,0,0,1-5.58-.29L53,10.47s-2.62,1.95-3.43,1.92A14.64,14.64,0,0,1,44,11.25l.32-1L43.06,11a4,4,0,0,0-.24.51,6.07,6.07,0,0,0,.35,5.77l1.9,1.14-1.94-.12a17.85,17.85,0,0,0-4.39,4.75c-1.45,2.61,1.53,5.2,1.53,5.2s-1.61,3.06,2.78,6.29,9.39-.18,9.39-.18l.31-1.28.81,1.53s5.47.7,8.21-1.93c0,0,4-9.41,7.45-16.35a10.43,10.43,0,0,0,1-7.29A18.68,18.68,0,0,1,64.36,9.18Z"/><path class="cls-5" d="M105.79,35.62c8.63,29.82,13.14,39.54,14.79,40.19s7.18-5.19,8.62-6.48S142,27.13,142,27.13l10-3.61s-2.47,50.56-2.67,52.07-7.8,21.61-10.88,23.33c-1.69,1-19,5.83-23.13,6.24-3.42.33-18.75-6.24-22-9.69C90.17,92.2,105.79,35.62,105.79,35.62Z"/><path class="cls-6" d="M116.83,102.91c-3.53.1-18-7.22-21.45-10.9-2.72-2.94-5.21.19-2.11,3.46,3.29,3.45,18.62,10,22,9.69,4.09-.4,21.21-5.23,23.08-6.21C133,100.3,120.32,102.81,116.83,102.91Z"/><path class="cls-6" d="M118.54,91c8.69-17,21.88-28.2,31.45-27.44.8-15.39,2-40,2-40l-10,3.61S130.64,68,129.2,69.33s-7,7.13-8.62,6.48-6.16-10.37-14.79-40.19c0,0-15.62,56.58-12.52,59.85,2.79,2.93,14.28,8.12,19.77,9.4A76,76,0,0,1,118.54,91Z"/><path class="cls-7" d="M93,29.07C107.64,30.36,134.7,36,134.7,36l2.19,19.73c-4.6,1.87-34.66,3.62-38.77,1.16C94.19,54.52,93,29.07,93,29.07Z"/><path class="cls-2" d="M94.54,45.61c.8,5.41,2,10.29,3.58,11.26,4.11,2.46,34.17.71,38.77-1.16l-1.14-10.32C127.94,47,99,47.93,94.54,45.61Z"/><path class="cls-7" d="M31.86,100.59A182.3,182.3,0,0,1,37.73,60L63.14,88.1S55.8,109.1,50.36,116,31.57,109,31.86,100.59Z"/><path class="cls-2" d="M33.34,86.29l-1.08,3.88a27.2,27.2,0,0,1,13,13l4.32-7S36.67,86.45,33.34,86.29Z"/><path class="cls-2" d="M37.73,60s-.38,1.3-.95,3.65c0,0,9.73,14.53,10.49,20.45.85,6.53-3.14,16.8-8.57,23.71a4.58,4.58,0,0,1-3.51,1.84c4.25,6.2,11.51,11,15.17,6.37C55.8,109.1,63.14,88.1,63.14,88.1Z"/><path class="cls-7" d="M64,121c.59-12.34-3.52-28.2-3.52-28.2S37,69,37,62.11s35.83-33,56-33c0,0,10.47,15,8.12,39.72s3,39.29,3,39.29C89.56,117.79,75.61,124.75,64,121Z"/><path class="cls-2" d="M99.91,68.34c-1.76,23.68,2,38.83,2.59,40.8l1.61-1.06s-4.25-15.13-1.9-39.8S93,29.07,93,29.07c-.69,0-1.41,0-2.14.09C93.52,33.23,101.48,47.16,99.91,68.34Z"/><path class="cls-2" d="M69.89,122c-1.3-18,6-30.78,14.81-34.22C90.6,85.48,99,89,102.41,98.5a140,140,0,0,1-.2-30.22C104.55,43.61,93,29.07,93,29.07,72.83,29.07,37,55.21,37,62.11S60.5,92.8,60.5,92.8,64.61,108.66,64,121A21.57,21.57,0,0,0,69.89,122Z"/><path class="cls-7" d="M92.93,29.79,79.36,59.93l4.1,18.25c15.86.44,23.15-8.51,23.15-8.51S106.59,38.82,92.93,29.79Z"/><path class="cls-7" d="M72.23,39.73,36.15,65.65l23,24.42c15.86-.35,23-10.79,23-10.79S79.79,48.69,72.23,39.73Z"/><path class="cls-7" d="M93.51,132.66a629.11,629.11,0,0,0,43.1,70.17l1-.05L104.51,112.9Z"/><path class="cls-2" d="M114.3,139.52l-9.79-26.62-11,19.76c6,11.46,12.17,22.17,17.87,31.61C110.34,152.87,111.35,143.8,114.3,139.52Z"/><path class="cls-7" d="M81.84,122.47A573.11,573.11,0,0,1,67.34,214l-.62-1.26-2.55-80.86Z"/><path class="cls-2" d="M74.81,178.27a551,551,0,0,0,7-55.8l-17.67,9.4,1.75,55.7C68.65,183.26,71.74,180,74.81,178.27Z"/><path class="cls-8" d="M61.42,169.36c24.29.3,48-28,49-41.59l-5.08-16L63.21,125.65Z"/><path class="cls-9" d="M87.89,152.72c5.08-4.12,13.47-12.46,18.73-14.18,2.23-4,3.58-7.76,3.81-10.77l-5.08-16L63.21,125.65l-1.79,43.71a38.22,38.22,0,0,0,16.73-4C76.33,162.23,81.83,157.64,87.89,152.72Z"/><path class="cls-10" d="M58.83,161.69c15.13,1.76,45.58-18.66,51-38.34,0,0-2.94-17.62-6.3-17.79-1.15,0-19.88,17.07-40,13.53C58.59,118.21,58.83,161.69,58.83,161.69Z"/><path class="cls-11" d="M108,128.25a30.65,30.65,0,0,0,1.86-4.9s-2.94-17.62-6.3-17.79A13.41,13.41,0,0,0,101,107.2C104.92,106.57,107,119.84,108,128.25Z"/><path class="cls-11" d="M66.57,142.42a73.55,73.55,0,0,1,3.78-22.88,32.39,32.39,0,0,1-6.77-.45c-5-.88-4.75,42.6-4.75,42.6a26.53,26.53,0,0,0,10.85-1.52A47.07,47.07,0,0,1,66.57,142.42Z"/><path class="cls-11" d="M106.17,110.92c-5.52,20.35-23.61,39-23.61,39s17.84-14.79,26.13-29.46A74.88,74.88,0,0,0,106.17,110.92Z"/><path class="cls-11" d="M62.83,146.17l-3.6,7.63c18.72-3.17,32.41-24.48,32.41-24.48S78.24,146.46,62.83,146.17Z"/><path class="cls-7" d="M136.4,54.31c7.62-4.48,23.94-24.67,23.94-24.67L153,19S132.25,30.8,128.8,35.55,136.4,54.31,136.4,54.31Z"/><path class="cls-2" d="M153,19s-5.45,3.11-11.23,6.77l-2.1,10.58a134.49,134.49,0,0,1-10.73,10.53c2.44,5,7.5,9,7.5,9,7.63-4.48,23.9-26.23,23.9-26.23Z"/><path class="cls-7" d="M155.57,30a5.54,5.54,0,0,1,4.34,0c1.07.52,6.48,0,7.18-.52A6.33,6.33,0,0,0,170,22.76c-.66-3.84-2.89-5.18-5-4.83s-5.93-3.87-6.75-4c-2-.4-2.52,2.94-5.83,5.51C143.71,26.23,147.4,32.93,155.57,30Z"/><path class="cls-7" d="M153,20c.21-1.36,5.28-7.71,6.81-8.41S164.25,8,165,7.34s2.77,1.77,2.23,2.5-4.49,3.72-5,4.78c-1,2.09,1.4,2.94,2,3.45C163.36,19.46,152.39,23.84,153,20Z"/><path class="cls-7" d="M160.91,17.43c2.43-.12,5.64.08,6.34-.22,1.53-.64,4.52-5.59,5.3-5.57s3.08.8,2.41,2-4.08,6.29-5.23,6.77a35.42,35.42,0,0,1-6.07,1.34C163.23,21.68,160.08,17.47,160.91,17.43Z"/><path class="cls-7" d="M164.59,20.28c2.56.29,6.35,1.25,7.06.77s4.62-4.38,5.13-4.62,2.59,1.93,1.9,2.86-4.59,5.17-5.83,5.57a25.86,25.86,0,0,1-6,.43C166.37,25.15,163.7,20.18,164.59,20.28Z"/><path class="cls-7" d="M165,24.42c2.48,1,5.36,2.26,6.14,2s4.55-2.15,5.1-2.24,2.11,2.38,1.27,3.07-5.75,3.06-7.06,3.1-4.18-.47-6.09-.25C163.86,30.14,164.12,24.08,165,24.42Z"/><path class="cls-7" d="M31.93,128.63c10.67-.9,19.38-8.9,21-17.07S37.33,93.63,31.72,99.14s-8.6,20.43-8.86,21.82C22.43,123.23,30.42,128.76,31.93,128.63Z"/><path class="cls-2" d="M43.37,99.37c0,.24,0,.48,0,.72-.32,10.93-2,13.21-8,15.54-3.35,1.3-7.12.33-10.86-1.63-.59,2.31-2.13,6.31-2.22,6.74-.43,2.27,7.73,8.7,9.24,8.58,10.67-.91,20.71-10.67,22.29-18.84C54.74,105.94,48.87,102,43.37,99.37Z"/><path class="cls-7" d="M42.84,49.45A178.25,178.25,0,0,0,56.49,32l-1-11.81,12.75-.94,8.64,7.67L91.56,28.6C78.61,40.82,59.75,50.62,42.84,49.45Z"/><path class="cls-2" d="M93,29.07l-.69,0C88.77,31.33,70,44.83,50.15,48.22l-.3.07C43.92,52.76,39.42,57.06,37.73,60h0A4.54,4.54,0,0,0,37,62.11a3.8,3.8,0,0,0,0,.46c-.62,2.47-1.57,6.62-2.5,12C68.41,89,95.38,68.1,105,30.59,100.38,29.88,96.63,29.39,93,29.07Z"/><path class="cls-10" d="M34.16,69.54C68.7,84.65,94.23,65.11,103.59,30.8c1.3-4.76-10.8-5.91-12-5.48S70.34,41.12,49,44.77C32.15,47.65,31.86,68.53,34.16,69.54Z"/><path class="cls-11" d="M34.49,67.06c-.73-.32-1.2-2.65-1-5.77-.78,4.31-.28,7.85.63,8.25C68.7,84.65,94.23,65.11,103.59,30.8a2.44,2.44,0,0,0,0-1.34C94,63.05,68.64,82,34.49,67.06Z"/><path class="cls-11" d="M76.22,69.11c-18.21,0-33-9.77-33.67-22C32.13,53.42,32.2,68.68,34.16,69.54c17,7.42,31.75,6.48,43.51-.46C77.19,69.1,76.71,69.11,76.22,69.11Z"/><path class="cls-11" d="M103.09,32.56c.17-.59.34-1.17.5-1.76,1.3-4.76-10.8-5.91-12-5.48a5.55,5.55,0,0,0-.76.46A34.35,34.35,0,0,1,103.09,32.56Z"/><path class="cls-10" d="M143.46,22.82s-3.86,19.41-3.71,19.54,2.84,3,3.05,3.06,6.4.83,6.4.83l3.46,4.44,4.17,1.22L159,49.15l-2.53-35.31S144.31,20.24,143.46,22.82Z"/><path class="cls-12" d="M27.1,84.2l-1.18,2.41c2.29.75,5.34.29,7.64,1.34,16.72,7.68,20.65,19.57,16.11,27.84s-16,12.85-32.75,5.17c-2.3-1-5-3.91-7-5.14l-1,1.86a61.56,61.56,0,0,0,11.24,6.63c18.25,8.38,31.69,4.66,37-5.08S57.1,97,38.85,88.66C34.66,86.74,31.21,85.13,27.1,84.2Z"/><path class="cls-12" d="M.68,117.91c-1.51,2.74.07,6.26,3.52,7.84a8,8,0,0,0,1.37.49,4,4,0,0,1-.37-4.32c1.22-2.22,4.47-3,7.27-1.7a6.59,6.59,0,0,1,1.26.76,6.65,6.65,0,0,0-4.07-5.18C6.2,114.22,2.18,115.16.68,117.91Z"/><path class="cls-12" d="M4.86,126a2.76,2.76,0,0,0,3.58-.84A2.33,2.33,0,0,0,7,122a2.76,2.76,0,0,0-3.58.84A2.33,2.33,0,0,0,4.86,126Z"/><path class="cls-12" d="M22.19,78.65c1.51-2.75,5.53-3.69,9-2.11a8.84,8.84,0,0,1,1.25.71,4.86,4.86,0,0,0-4,2.31c-1.21,2.23.06,5.07,2.86,6.35a6.15,6.15,0,0,0,1.43.47,7.79,7.79,0,0,1-7,.11C22.27,84.91,20.69,81.4,22.19,78.65Z"/><path class="cls-12" d="M31.78,76.88A2.34,2.34,0,0,1,33.19,80a2.77,2.77,0,0,1-3.58.84,2.33,2.33,0,0,1-1.41-3.13A2.77,2.77,0,0,1,31.78,76.88Z"/><polygon class="cls-13" points="45.78 119.76 17.84 105.36 18.19 104.65 46.14 119.05 45.78 119.76"/><polygon class="cls-13" points="49.17 116.77 17.91 100.57 18.27 99.86 49.53 116.06 49.17 116.77"/><polygon class="cls-13" points="50.89 113.1 22.27 98.23 22.63 97.52 51.25 112.39 50.89 113.1"/><path class="cls-14" d="M39.36,88a64.41,64.41,0,0,0-7.9-3l-.3-.12c-2.72-1.25-4-4-2.94-6.16a3,3,0,0,0,1.28,1.1,2.76,2.76,0,0,0,3.58-.84,2.17,2.17,0,0,0-.8-2.75h0a8.84,8.84,0,0,0-1.25-.71c-3.45-1.58-7.47-.64-9,2.11s.07,6.26,3.52,7.84a2,2,0,0,0,.22.09v0l.28.08a8.2,8.2,0,0,0,3.9.51,10.52,10.52,0,0,1,3.45.75c16.73,7.68,20.65,19.57,16.12,27.84s-17.3,12.51-34,4.83a10.35,10.35,0,0,1-2.92-2.28,7,7,0,0,0-2-2,8.39,8.39,0,0,0-.77-.56l-.05.09-.21-.11c-3.45-1.59-7.47-.64-9,2.11s.07,6.26,3.53,7.84a7.63,7.63,0,0,0,1.36.49v0a2.61,2.61,0,0,0,2.89-1.06A2.32,2.32,0,0,0,6.93,121a3.24,3.24,0,0,0-1.71-.28c1.29-2.08,4.42-2.78,7.14-1.53a6.59,6.59,0,0,1,1.26.76s0-.05,0-.08A62.74,62.74,0,0,0,20,123.23c18.26,8.38,31.69,4.66,37-5.08S57.62,96.34,39.36,88Z"/><path class="cls-7" d="M145.39,214.73l-3.75.3a27.6,27.6,0,0,1-3-4.45c-.86-1.85-4.16-.82-4.08-3.63.08-2.63.83-3,.25-6.88l1.19-.82s4.58,8.72,6.65,13.57C142.65,212.82,145.69,213,145.39,214.73Z"/><path class="cls-7" d="M54.1,214.73H67.44s1.73-3.67-.33-4.18S54.1,214.73,54.1,214.73Z"/><path class="cls-15" d="M64.73,86.48c-.3-.79-1.62-1.23-3-1s-2.17,1.12-1.87,1.92,1.61,1.23,3,1S65,87.28,64.73,86.48Z"/><ellipse class="cls-15" cx="102.29" cy="69.52" rx="2.47" ry="1.51" transform="translate(-20.6 55.55) rotate(-27.72)"/><path class="cls-2" d="M84.7,111.5c-.15-.44.59-1.09,1.68-1.44s2.08-.27,2.24.17S88,111.32,87,111.67,84.86,111.94,84.7,111.5Z"/><path class="cls-2" d="M84.44,92.39c.53,9.66-7.82,8.35-7.82,8.35s6.64,1,8.24-2.38C86.08,95.76,84.44,92.39,84.44,92.39Z"/><path class="cls-2" d="M84.4,92.15c2.49,9.44,9.1,4,9.1,4s-5.27,4.31-7.64,1.88C84.05,96.17,84.4,92.15,84.4,92.15Z"/><path class="cls-2" d="M85.19,97.19c.41,11.21-7.92,9.69-7.92,9.69s6.63,1.18,8.27-2.77C86.79,101.09,85.19,97.19,85.19,97.19Z"/><path class="cls-2" d="M85.16,96.9c2.37,11,9,4.64,9,4.64s-5.32,5-7.67,2.18C84.75,101.57,85.16,96.9,85.16,96.9Z"/><path class="cls-16" d="M56.86,118.49a35.74,35.74,0,0,0-4.11-7.61q-.7-1-1.47-2a14.18,14.18,0,0,1-1.71,5.81c-2.43,4.44-7.23,7.71-13.74,8.61,1.32,1.62,2.62,3.14,3.9,4.54C47.73,127.58,53.65,124.06,56.86,118.49Z"/><path class="cls-16" d="M30.9,85.39a9.42,9.42,0,0,0,1.51-.13L31.46,85l-.3-.12c-2.72-1.25-4-4-2.94-6.16a3,3,0,0,0,1.28,1.1,2.76,2.76,0,0,0,3.58-.84,2.17,2.17,0,0,0-.8-2.75h0a8.84,8.84,0,0,0-1.25-.71c-3.08-1.41-6.62-.8-8.41,1.31a7,7,0,0,0-.11,1.13C22.54,82,26.28,85.39,30.9,85.39Z"/><path class="cls-11" d="M42.09,63.17l8.1,3.89C87.13,68.68,96.1,36.38,96.1,36.38,89.51,51.39,72.12,66.41,42.09,63.17Z"/><path class="cls-11" d="M91.74,25.86a12.89,12.89,0,0,0-1.13.71c-6,6.87-19,18.77-39.12,22C71,47.52,84.62,37.47,97.62,26.4A18,18,0,0,0,91.74,25.86Z"/><polygon class="cls-14" points="13.87 119.38 33.34 86.29 35.82 87.15 16.38 120.85 13.87 119.38"/><circle class="cls-13" cx="18.32" cy="100.11" r="1.24"/><path class="cls-13" d="M17.13,105.14a1.25,1.25,0,1,0,1.24-1.25A1.25,1.25,0,0,0,17.13,105.14Z"/><path class="cls-13" d="M21.56,98.06a1.25,1.25,0,1,0,1.24-1.24A1.24,1.24,0,0,0,21.56,98.06Z"/><path class="cls-16" d="M14,118.57a17.24,17.24,0,0,1-1.4-1.31,7,7,0,0,0-2-2,8.39,8.39,0,0,0-.77-.56l-.05.09-.21-.11c-3.45-1.59-7.47-.64-9,2.11a5.05,5.05,0,0,0-.34.8A7.31,7.31,0,0,0,7.3,122.8a7.74,7.74,0,0,0,1.19-.1A2.72,2.72,0,0,0,6.93,121a3.24,3.24,0,0,0-1.71-.28c1.29-2.08,4.42-2.78,7.14-1.53a7.47,7.47,0,0,1,1,.58A6.23,6.23,0,0,0,14,118.57Z"/><polygon class="cls-16" points="21.65 111.72 28.65 99.59 27.71 95.85 20.67 107.81 21.65 111.72"/><path class="cls-11" d="M54.19,57.66C80,56.79,85.41,41.78,85.41,41.78Q72.8,53.58,54.19,57.66Z"/><path class="cls-17" d="M76.22,26.29l-8-7.09-12.75.94,1,11.81s-4,5.85-8.84,11.89C56.35,42.53,66.39,37.35,76.22,26.29Z"/><path class="cls-7" d="M52.44,16.75c3.9,8.16,7.6,10.42,7.6,10.42s9.63,0,13-3.26l1.27-2S67.13,6.51,58.06,8.51,52.44,16.75,52.44,16.75Z"/><path class="cls-4" d="M55.93,21.26a1.58,1.58,0,1,0,2.74-1.56c-1.06-1.27-4.46-1.37-4.46-1.37S49.73,15.57,53,10.47c0,0-5.72,5.65.15,10.75Z"/><path class="cls-7" d="M57.75,22.44c-3.91,1.69-6.1,1.6-7.23-.22s1.38-4.13,3.17-3.57S57.75,22.44,57.75,22.44Z"/><path class="cls-18" d="M56.35,22c-2.42,1.05-3.77,1-4.47-.13s.85-2.56,2-2.22S56.35,22,56.35,22Z"/><path class="cls-7" d="M56.34,22.17c-1.44.49-2.27.43-2.72-.18s.46-1.33,1.14-1.12A4.8,4.8,0,0,1,56.34,22.17Z"/><path class="cls-11" d="M62.94,135a37.09,37.09,0,0,1,23.11-14l-20,2.16Z"/><path class="cls-6" d="M147.09,54c0,.72-.72,20.74-.72,20.74l-10.08,20,7.05-21.61-1.58-15.55Z"/><path class="cls-6" d="M116.41,91.36s14.91-4,16.2-5.72,6.56-12.21,6.56-12.21-6.77,9.22-7.92,10.66S111.8,88,111.8,88Z"/><path class="cls-5" d="M156.44,13.84l-.26.14,1.64,27-1.94,3.38-3.73.08-3.08-3.29s-5.55,1.14-5.74,1.15a33.49,33.49,0,0,1-2.72-2.06c-.1-.06,2-12.13,3-17.65a2.86,2.86,0,0,0-.12.27s-3.86,19.41-3.71,19.54,2.84,3,3.05,3.06,6.4.83,6.4.83l3.46,4.44,4.17,1.22L159,49.15Z"/><path class="cls-5" d="M153.79,47.4c-.33-.44-4-8.21-4-8.21l-.43-17.4-2.59,16.75-1.52,5Z"/><path class="cls-3" d="M58.77,17.49c.94-2.25,4.21-4.18,4.21-4.18s-1.86-2.05-3.18-1.73-2.9,3-2.81,4.07S58.77,17.49,58.77,17.49Z"/><path class="cls-3" d="M66.71,12.18a10.5,10.5,0,0,0-3.53,1s-1.92-1.13-1.49-2.11,3.16-1,3.94-.56A3.42,3.42,0,0,1,66.71,12.18Z"/><path class="cls-18" d="M67.83,16.17a44.18,44.18,0,0,0-5.13-3.28l4.13,3.25-1.59,2Z"/><path class="cls-19" d="M62,15.3c-.77,1.12-1.89,1-1.11.29S62.84,14.14,62,15.3Z"/><path class="cls-19" d="M66,13.25c-.73.59-1.45.32-.79,0S66.77,12.64,66,13.25Z"/><path class="cls-19" d="M66.59,18.15c-1.25,1.24-.62,3.12,0,1.93S67.08,17.65,66.59,18.15Z"/><path class="cls-7" d="M21.66,116.44c.72-2.91,6.93-.12,8,1a2,2,0,0,1-1.27,3.21C26.47,121.2,21.08,118.79,21.66,116.44Z"/><path class="cls-7" d="M22,128c-2.82-1-.28-7.86,1.24-8s3.31-.13,3.66,1.8S24.3,128.85,22,128Z"/><path class="cls-7" d="M26.5,130.09c-2.81-1,.55-7.51,2.07-7.65s2.48-.49,2.83,1.45S28.78,130.92,26.5,130.09Z"/><path class="cls-7" d="M31.67,131.05c-2.81-1,.55-7.51,2.07-7.65s2.48-.48,2.83,1.45S34,131.88,31.67,131.05Z"/></g></g></g></svg>