<svg xmlns="http://www.w3.org/2000/svg" viewBox="0 0 172.16 242.77"><defs><style>.cls-1{isolation:isolate;}.cls-2{fill:#ffb882;}.cls-3{fill:#992525;}.cls-4{fill:#b73434;}.cls-5{fill:#841e1e;}.cls-6{fill:#cc4040;}.cls-7{fill:#843c43;}.cls-8{fill:#b6f2f2;}.cls-9{fill:#91e2e8;}.cls-10{fill:#ff9b40;}.cls-11{fill:#ffd15f;}.cls-12{fill:#5e272f;}.cls-13{fill:#ff9566;}.cls-14{fill:#774a55;}.cls-15{fill:#603642;}.cls-16{fill:#4c2934;}.cls-17{fill:#995e52;}.cls-18{fill:#ffb24d;}.cls-19{fill:#b52d2d;}.cls-20{fill:#e87446;}.cls-21,.cls-28{fill:#c94343;}.cls-21{opacity:0.6;mix-blend-mode:multiply;}.cls-22{fill:#ffdd7d;}.cls-23{fill:#ffc34a;}.cls-24{fill:#ffda66;}.cls-25{fill:#ffac3e;}.cls-26{fill:#ffe05c;}.cls-27{fill:#ffe576;}</style></defs><title>ARES</title><g class="cls-1"><g id="Layer_2" data-name="Layer 2"><g id="_1" data-name="1"><path class="cls-2" d="M144.47,165.28c1,2.69,2,5.31,2,5.31l12.41-.35-2.76-6.75Z"/><path class="cls-2" d="M145.85,165.14c8,5.52,10.82,5.93,14.06,5.93s6.6,2.62,8.14,5c1,1.46,3.73-.93,3.61-2.61,0-.77-4-3.75-6.46-7.44-1.5-2.25-6.62-3.52-8.27-6.57C156.35,158.36,145.85,165.14,145.85,165.14Z"/><path class="cls-3" d="M80.41,32.12c-2.93-15.67.53-27.26,3.38-30.56S89.15-1,87.15,16.15,80.41,32.12,80.41,32.12Z"/><path class="cls-4" d="M79.41,36.61C72.78,21.52,74.88,9.55,77.8,5.87s6.18-3.33,7,14S79.41,36.61,79.41,36.61Z"/><path class="cls-5" d="M75.91,120.23c-7,9.31-13.31,29.69-13.31,29.69l6.49.4Z"/><path class="cls-6" d="M80.88,56.74c-4.28,11.63-12.4,3.2-12.72-6.62-.83-25.23,6.25-38.19,9.75-37.27S84.6,46.61,80.88,56.74Z"/><rect class="cls-7" x="5.84" y="146.14" width="5.31" height="20.06" transform="translate(-46.71 9.84) rotate(-17.56)"/><polygon class="cls-8" points="14.98 164.49 8.81 166.44 28.07 235.57 36.31 242.63 38.99 232.12 14.98 164.49"/><polygon class="cls-9" points="15.14 164.66 8.81 166.44 28.07 235.57 36.31 242.63 14.3 173.96 16.54 169.01 15.14 164.66"/><path class="cls-10" d="M10.78,163.37l-7.23,2.29A2.18,2.18,0,0,0,3,169.59a4.17,4.17,0,0,0,3.6.3l10.9-3.45a5,5,0,0,0,2.69-2.06,2.19,2.19,0,0,0-2.55-3.19Z"/><path class="cls-11" d="M17.46,164.19,5.08,168.11a8.14,8.14,0,0,1-1.64.34A1.79,1.79,0,0,0,4,169a3.72,3.72,0,0,0,3.2.27l9.67-3.06a4.43,4.43,0,0,0,2.39-1.83,1.81,1.81,0,0,0,.27-1.21A6.73,6.73,0,0,1,17.46,164.19Z"/><path class="cls-7" d="M16.87,163.35A1.35,1.35,0,1,0,18.21,162,1.35,1.35,0,0,0,16.87,163.35Z"/><path class="cls-7" d="M3.17,167.69a1.35,1.35,0,1,0,1.34-1.34A1.34,1.34,0,0,0,3.17,167.69Z"/><path class="cls-12" d="M10.36,153.26,8,145.81l-5.06,1.6,3.69,11.65C7.22,155.92,8.65,153.61,10.36,153.26Z"/><circle class="cls-11" cx="5.72" cy="147.4" r="4.24" transform="translate(-56.27 13.55) rotate(-22.63)"/><path class="cls-7" d="M4.05,147.93a1.76,1.76,0,1,0,1.14-2.21A1.76,1.76,0,0,0,4.05,147.93Z"/><path class="cls-2" d="M4,164.61c2.8,1.4,11-.1,21.8-11.61,0,0-7-10.53-8.53-9.54-4.54,2.94-13.36.15-17.13,6.66C-.8,151.69,4,164.61,4,164.61Z"/><path class="cls-13" d="M20.31,158.11l-2.7,2.19s-4.34-8.21-4.89-15.4l3.46-1.26Z"/><ellipse class="cls-14" cx="148.47" cy="205.59" rx="38.04" ry="22.09" transform="translate(-88.68 295.43) rotate(-74.91)"/><ellipse class="cls-15" cx="147.5" cy="205.73" rx="34.74" ry="20.17" transform="translate(-89.53 294.6) rotate(-74.91)"/><path class="cls-16" d="M153.42,171.78c-13.28,0-23.29,15.2-26.56,33.95-.31,1.77-.54,3.5-.71,5.2,4.47-14.59,13.33-25.36,24.51-25.36,12,0,17,12.47,15.44,28.75a69.49,69.49,0,0,0,2-8.59C171.41,187,166.71,171.78,153.42,171.78Z"/><path class="cls-16" d="M156.25,189.63c3.3,7.6-3.75,20.63-9.48,28.47l-.5-.61c9.86-17.14,7.07-28.11,7.07-28.11Z"/><path class="cls-16" d="M148.3,188.93c3.3,7.61-3.75,20.75-9.48,28.59l-.51-.56c9.86-17.14,7.08-28.27,7.08-28.27Z"/><path class="cls-17" d="M145.37,188.65c-7.45,6.62-8.41,20.2-7.45,28.61l1,.27c.41-17.92,9.39-28.6,9.39-28.6Z"/><path class="cls-17" d="M153.29,189.27c-7.44,6.62-8.41,20.2-7.44,28.61l.94.28c.42-17.93,9.4-28.61,9.4-28.61Z"/><path class="cls-2" d="M60,69.19,57.64,119.4c-9.84,6.77-18.73,28-37.3,37.44l-5.88-11.9C34,115.27,26.36,84.36,60,69.19Z"/><path class="cls-13" d="M18.6,154.85l1.74,2c18.57-9.39,28.88-28.43,38.72-35.2L56,91.73C46.92,105,38.75,138.74,18.6,154.85Z"/><path class="cls-13" d="M16.52,141.64c.73,5.06,5.72,13.85,5.72,13.85l10.9-10.06-14.4-7.9Z"/><path class="cls-2" d="M156.92,164.19c-9-35.42-20-93.55-43-97.94L112,122.83c10.9,9.38,26.84,31.15,33.74,43.82Z"/><path class="cls-13" d="M149.26,165.88c-.64-3.13-1.38-6.32-2.22-9.53-8.07-31-28.63-53.39-34-63.93l-1,30.41c10.9,9.38,26.84,31.15,33.74,43.82Z"/><path class="cls-13" d="M131.75,126.54c-2.89-17.37-2.69-48.5-2.69-48.5l-2.38-.72-5.27,37.74Z"/><path class="cls-13" d="M130.18,81.81c.52-1.64-.89-4.09-3.16-5.46s-4.52-1.14-5,.51.9,4.09,3.16,5.46S129.66,83.46,130.18,81.81Z"/><path class="cls-2" d="M97.73,172.88a771.22,771.22,0,0,0,38.57,69.89l.93-.06-28.14-86.45Z"/><path class="cls-13" d="M122.6,206.78a20,20,0,0,1,2.74-.61l-16.25-49.91L97.73,172.88c6.46,13.4,13.16,26.05,19.13,36.8A18.93,18.93,0,0,1,122.6,206.78Z"/><path class="cls-2" d="M81.09,163.21c-15,39.17-33.13,79-33.13,79l-.91-.06,19.8-90.3Z"/><path class="cls-13" d="M65.78,201.24c4.92-11.74,10.29-24.92,15.31-38L66.85,151.85l-10.31,47A55.3,55.3,0,0,1,65.78,201.24Z"/><path class="cls-2" d="M54.92,112.89c5,15.72,11,31.43,10.55,40.53l38.88-8.27,13.23-39.5L85.74,99Z"/><path class="cls-13" d="M68,152.88c0-.71-.07-1.42-.07-2.14,0-14.51,9-26.61,19.65-26.61,8.41,0,15.15,7.73,17.76,18l12.22-36.49L86.36,91.59l-31.44,21.3c5,15.72,11,31.43,10.55,40.53Z"/><path class="cls-13" d="M97,125.3s-12.45,16.13-30.4,21.61l1,1.86c12-.1,34.64-18.82,34.64-18.82Z"/><path class="cls-2" d="M114.76,66.63c-19.23-9.42-38.42-7.39-56.53,3.66-8.48,9.92-10,31.28-4.19,51.13,0,0,20.48,1.59,32.68-6.27,0,0,0-12,.67-19.63.67,7.54,4.43,19.92,4.43,19.92,12.26,6.83,29,4.79,29,4.79C126.61,99.89,123.28,75.84,114.76,66.63Z"/><path class="cls-13" d="M54.78,121.09C49,101.28,51.43,94.9,51.48,86c-2,10.47-1.39,23.48,2.2,35.77,0,0,21,1.6,33.24-6.25,0,0-.2-.39-.2-.4C74.41,122.25,54.78,121.09,54.78,121.09Z"/><path class="cls-13" d="M120.27,119.78s-18.41,1-30.68-5.39a1.27,1.27,0,0,1-.24.77c12.26,6.83,31.75,5.59,31.75,5.59a79.87,79.87,0,0,0,1.37-36.33C120.94,76.81,125.9,100.12,120.27,119.78Z"/><path class="cls-13" d="M125.1,74.63s-17.2,39.74-32.64,47.46l14.3,3.55c13-11.58,21.37-47,21.37-47Z"/><path class="cls-11" d="M60.5,174l-1.13,8.38s35.57,17.47,63.69,15.51l-1.75-7.14Z"/><path class="cls-18" d="M61,179.48c17.32,8.14,37.33,12.63,58.61,15.41l.74,3.13c.91,0,1.81-.07,2.7-.13l-1.75-7.14L60.5,174l-1.13,8.38,1.19.56Z"/><path class="cls-18" d="M86.2,181.08a93.76,93.76,0,0,0,4,12.67,131.61,131.61,0,0,0,17.07,3.51A97.62,97.62,0,0,0,99,184.6Z"/><path class="cls-6" d="M59.47,176.66s38.7,15.23,62.67,16.06L111,153.15l-1.93-2.07-.42-1.52c11.54-6.33,21-48.18,19-74.94l-1.24-.82s-14.48,59.49-63,75.76C63.4,149.56,60.61,158.8,59.47,176.66Z"/><path class="cls-19" d="M127.62,74.62l-1.24-.82a111.46,111.46,0,0,1-4.45,13.74c3.37-1.4,4.41,4.14,4.89,12A133.55,133.55,0,0,0,127.62,74.62Z"/><path class="cls-19" d="M63.47,150.9c31.23,1.18,48.33-21.16,56.49-40.36,0,0-3.72,26.7-24.18,38.77C84,156.28,63.47,150.9,63.47,150.9Z"/><path class="cls-19" d="M109.05,151.08l-.42-1.52c3.18-1.74,7.27-6.59,9.23-13.08-16.78,9.37-43,15.68-54.46,13.08-.92.07-.78.4-.87.62s.68.27.64.36c-.19.5-.52,1-.8,1.8,0,.13-.58.17-.62.31-1.4,4.25-2.06,12.32-2.28,24,0,0,1.2.4,2.21.82,1.93-14.26,9.78-19.44,21.06-19.61,9.3-.14,28.85,14.1,37.42,34.74.67,0,2.67.19,3.32.21L111,153.15Z"/><path class="cls-20" d="M109.1,149.29a58.67,58.67,0,0,1-18.61,3.93l.42,1.18c7.62.27,18.37-3.08,18.37-3.08Z"/><path class="cls-20" d="M63.06,150.44A101.68,101.68,0,0,0,87,153.05v1.22c-9.47.71-24.61-2-24.61-2Z"/><path class="cls-2" d="M94.39,44.4,75.08,46.92c-.2,7.86-3.41,13.75-9,19.85l37.64-4.14C96,60.15,94.39,44.4,94.39,44.4Z"/><path class="cls-2" d="M147.4,242.77H135.75s-1.51-3.52.28-4S147.4,242.77,147.4,242.77Z"/><path class="cls-2" d="M35.92,242.77H48.69s1.65-3.52-.32-4S35.92,242.77,35.92,242.77Z"/><path class="cls-18" d="M130.06,77.73a4.43,4.43,0,0,0-3.72-4.41,3.39,3.39,0,0,0-3.72,3.58,4.43,4.43,0,0,0,3.72,4.42A3.4,3.4,0,0,0,130.06,77.73Z"/><path class="cls-18" d="M93,153.27c0-1.23-1.55-2.22-3.46-2.22s-3.46,1-3.46,2.22,1.55,2.22,3.46,2.22S93,154.5,93,153.27Z"/><path class="cls-11" d="M92.17,153.79c0-.7-1.22-.16-2.71-.16s-2.71-.54-2.71.16S88,155,89.46,155,92.17,154.48,92.17,153.79Z"/><path class="cls-13" d="M81.25,71.18c-6.89-1.51-18.06-1.93-18.61.42S81.25,71.18,81.25,71.18Z"/><path class="cls-13" d="M91.18,71.13c5.79-2.38,15.47-4.21,16.29-2S91.18,71.13,91.18,71.13Z"/><path class="cls-20" d="M64.05,117.65c-.13-.85-1.72-1.47-3.55-1.4s-3.2.82-3.06,1.67,1.73,1.47,3.55,1.4S64.19,118.5,64.05,117.65Z"/><path class="cls-21" d="M102.73,62.21c-5.24-2.61-7.24-11.49-8.24-15.71a67.86,67.86,0,0,0-10.2.54,58.33,58.33,0,0,0-9.35,2.06c-.65,6.33-3.39,11.42-7.85,16.55,1.69,3.91,8.09-4.11,19.06-5.63C94.92,58.8,102.59,65.43,102.73,62.21Z"/><path class="cls-6" d="M77.61,45.47c-3.26-15-2.33-27-1-30.71s2.92-3.41,3.4,13.85S77.61,45.47,77.61,45.47Z"/><path class="cls-2" d="M74.36,34.1c-.21,7,2.51,18.23,3.1,18.75,1,.82,6.52,1.82,9.52,1.31s8.11-4.4,8.22-5.64-2.85-16.6-2.85-16.6Z"/><path class="cls-13" d="M74.36,34.1c-.21,7,2.51,18.23,3.1,18.75a3.05,3.05,0,0,0,.87.42c.12-4.9,1.83-11.8,8.72-10.63,3.52-1.8,5.92.65,6.77,7.66a4.05,4.05,0,0,0,1.38-1.78c.1-1.24-2.85-16.6-2.85-16.6Z"/><path class="cls-13" d="M86.64,40.12A11.39,11.39,0,0,0,86,44.37,2.24,2.24,0,0,0,89,44C88.51,41.56,87.62,40.18,86.64,40.12Z"/><path class="cls-2" d="M87,40.48a10.58,10.58,0,0,0-.29,3.66A1.64,1.64,0,0,0,89,43.73C88.56,41.67,87.79,40.51,87,40.48Z"/><path class="cls-22" d="M82.9,17.89c-1.07-.62-1.7-3.77.82-3.55s1,3.48,1,3.48Z"/><path class="cls-23" d="M72.11,51.9,78,55s-5.41-17,9.21-15.12c5.2-2.26,8.16-.53,7.78,13.43L96.7,52s.07-17-1.66-22.2-7.51-12.2-11.17-13.3c0,0-13.23,5-13.37,16.47A86.81,86.81,0,0,0,72.11,51.9Z"/><path class="cls-24" d="M84.46,16.67a5.37,5.37,0,0,0-.59-.22l-.09,0c2.87,8,3.38,23.37,3.38,23.37a8.94,8.94,0,0,1,3-.82C89.05,30.51,87.24,21.54,84.46,16.67Z"/><path class="cls-25" d="M74.36,34.1c.48-9.79,10-15.88,10-15.88,2.82,1,8,5.88,10.44,11-1.93-5.11-7-11.64-10.93-13.11-3.45.58-13.51,6.67-13.6,16.7-.1,12.09,1.81,19.12,1.81,19.12l3.72,2C75.08,50.81,74.12,39,74.36,34.1Z"/><path class="cls-19" d="M84.91,170.8s-.44,5.11,2.63,15.28c4.95,1.43,10.17,2.79,15.33,3.91C93.69,176.26,84.91,170.8,84.91,170.8Z"/><path class="cls-13" d="M86.56,38.71c-2.48-.13-8.13.14-7.72-1.31s2.41-1.44,4.07-1A12.27,12.27,0,0,1,86.56,38.71Z"/><path class="cls-15" d="M84.37,38.4c-.74,0-2.41,0-2.29-.37s.71-.38,1.2-.25A3.74,3.74,0,0,1,84.37,38.4Z"/><path class="cls-13" d="M87.51,38.55c1.68-.27,5.54-.34,5.16-1.66s-1.74-1.21-2.83-.67A8.9,8.9,0,0,0,87.51,38.55Z"/><path class="cls-6" d="M96.08,158.7c8.48,6.82,17,18.82,18,16.34s-3.71-8.64-8.27-11.79C102.9,161.25,96.08,158.7,96.08,158.7Z"/><path class="cls-26" d="M129.37,77a3.28,3.28,0,0,0-2.71-3.09,2.2,2.2,0,0,0-2.8,2.06A3.28,3.28,0,0,0,126.57,79,2.2,2.2,0,0,0,129.37,77Z"/><path class="cls-11" d="M13.31,143.26c.73,5.07,6.76,16.16,6.76,16.16l12.62-8.79L17.59,138Z"/><path class="cls-27" d="M28.69,147.59l-11-9.23-4,4.87a29.58,29.58,0,0,0,2.05,6.29,15.79,15.79,0,0,0,4.53.67A14.41,14.41,0,0,0,28.69,147.59Z"/><path class="cls-13" d="M87.32,128.33c-.07,3.45-.55,8.27-.55,8.27l1.72-1.79Z"/><path class="cls-13" d="M80.43,137.22a17.19,17.19,0,0,0,6.89-1.93l.14-2.34C86.1,134.85,83.75,136.27,80.43,137.22Z"/><path class="cls-15" d="M88.92,38.12c.57-.08,1.84-.1,1.8-.5s-.49-.35-.88-.19A3.67,3.67,0,0,0,88.92,38.12Z"/><path class="cls-13" d="M89.59,45.92a2.87,2.87,0,0,0-2.24-.62,3.2,3.2,0,0,0-2.24.85c0,.2,1-.37,2.24-.44S89.59,46.11,89.59,45.92Z"/><path class="cls-28" d="M78.78,33.71l-.44,1.55a21.32,21.32,0,0,1,8.15,3.49S85.48,36.29,78.78,33.71Z"/><path class="cls-28" d="M93.19,33.79l.33,1.57a13.39,13.39,0,0,0-6,3.16S88.24,36.1,93.19,33.79Z"/><path class="cls-11" d="M158.07,160.39c-2.32,4-13.33,8.09-13.33,8.09l-8.37-13.07,17.87-3.6Z"/><path class="cls-27" d="M141,154.68l13.09-2.63,3.55,8.21a12.39,12.39,0,0,1-4.69,4C148.72,162.3,142.4,156.88,141,154.68Z"/></g></g></g></svg>