<svg xmlns="http://www.w3.org/2000/svg" viewBox="0 0 201.53 238.2"><defs><style>.cls-1{isolation:isolate;}.cls-2{fill:#ffb882;}.cls-3{fill:#ffdbbb;}.cls-4{fill:#efc09a;}.cls-5{fill:#a5311e;}.cls-6{fill:#b73c20;}.cls-7{fill:#cc5632;}.cls-8{fill:#e25c3d;}.cls-9{fill:#c14629;}.cls-10{fill:#6b2c20;}.cls-11{fill:#f4c9a8;}.cls-12{fill:#ffe5b0;}.cls-13{fill:#a82d2d;}.cls-14{fill:#821e1e;}.cls-15{fill:#ffd04d;}.cls-16{fill:#ffac48;}.cls-17{fill:#841f1f;}.cls-18{fill:#ff9566;}.cls-19{fill:#f9d391;}.cls-20{fill:#c1b036;}.cls-21{fill:#aa9729;}.cls-22{fill:#c94343;opacity:0.6;mix-blend-mode:multiply;}.cls-23{fill:#ea7b59;}.cls-24{fill:#ffe780;}.cls-25{fill:#6d2e2e;}.cls-26{fill:#cc4242;}.cls-27{fill:#66423b;}.cls-28{fill:#491d2e;}.cls-29{fill:#ffebeb;}.cls-30{fill:#ef8f6f;}</style></defs><title>ARTEMIS</title><g class="cls-1"><g id="Layer_2" data-name="Layer 2"><g id="_1" data-name="1"><path class="cls-2" d="M38.84,134c.76-.82,1.19-2,.85-2.35s-2,.13-2.72,1-.73,1.37-.4,1.68A1.79,1.79,0,0,0,38.84,134Z"/><path class="cls-3" d="M189.92,100.55c3.07-.94,6.06-.43,8.22,4.4-1.42-1-3.2-2.08-4.44-1.59-5.66,2.23-6.33,12.2-6.1,17.14.37,8.3,5,13.92,11.27,12.29a6.2,6.2,0,0,0,2.57-1.52c-.85,2-3.92,3.28-6.13,3.61-7.46,1.12-12.42-7.41-13.14-13C180.94,112.24,182.22,102.92,189.92,100.55Z"/><path class="cls-4" d="M201.09,132c.2-.27.59-.81.38-.78a16,16,0,0,1-2.6,1.59c-6.3,1.63-10.9-4-11.27-12.29-.19-4,.37-11.32,3.61-15.11a5.32,5.32,0,0,1,2.58-1.38c-1.37-2.26-3.48-1.63-4.63-.87-3.86,2.54-6.47,11.3-5.65,18.62.62,5.61,1.31,11.73,8.73,13.09A9.43,9.43,0,0,0,201.09,132Z"/><path class="cls-5" d="M101.75,171.56c-1.11,1.5-1.11,4.59,4.19,5.3l1.35-1.9C106.49,169.74,102.85,170.06,101.75,171.56Z"/><path class="cls-5" d="M121.16,173.78c-.91,23.58.62,35.93,7.71,63.94h.93c-.76-15.83,3.57-35.43,7.56-46.45Z"/><path class="cls-6" d="M157.14,172.55c2.54,27.83,5.89,40.52,14.78,65.65h.76c-1.92-13.44-1.23-52.33,1.72-65.21Z"/><path class="cls-7" d="M154.06,151.3c-23.43,2.69-49.74,24.57-49.74,24.57-5.54,15.2,1.22,43.49,8.19,62.33h.95c-.95-12.19,5.22-37.36,5.22-37.36,13.08-8.4,28.82-5.76,46.18-4L174.4,173l-3.64-15.52Z"/><path class="cls-3" d="M175.84,122.63c1.14.84,3.06,4.85,7.54,4.87s8.59-4.12,10.33-10.25c.92-3.22,1-10.29-3.43-12.25.51-2.09,4.23-4.08,5.68-3.33,4.34,3.58,5.31,10.71,3.93,17-1.93,8.87-8.34,15.18-14.86,15.45-8.48.36-13.31-3-14.23-5.9C169.72,124.86,173.71,121.07,175.84,122.63Z"/><path class="cls-4" d="M194.2,113.8c.05-.17.11-.33.16-.5.77-2.71,1.46-8.91-1.91-10.57-1.64-.82-2.66,1.38-2.17,2.27C193.44,106.41,194.3,110.44,194.2,113.8Z"/><path class="cls-4" d="M185.67,130.22c-8.4.36-13.21-2.94-14.19-5.81a4.55,4.55,0,0,0-.68,3.86c.92,2.89,5.75,6.26,14.23,5.9,6.52-.27,12.93-6.58,14.86-15.45a25.65,25.65,0,0,0,.5-3.39C198.32,123.9,192.05,130,185.67,130.22Z"/><path class="cls-7" d="M174.16,172.91c-2.49-17-5.26-26.95-1.58-36.69L166.4,126,146,158.07Z"/><path class="cls-8" d="M104.21,176.2c6.56,1.92,20.25,7.43,29.79,4.22,14.92-5,23.06-22.84,23.35-40.19-1.36,1.91-5.6,8.79-7.5,11.75-22.26,4.54-45.53,23.89-45.53,23.89S104.25,176.09,104.21,176.2Z"/><path class="cls-6" d="M172.58,136.22,166.4,126,160.07,136s-5.83,16.88,8.39,36.4l5.7.56C171.67,155.93,168.9,146,172.58,136.22Z"/><path class="cls-6" d="M172.21,163.67c-3.94,9.8-17,21.74-34.85,28.7-6.83,2.67-13.85,3.52-20.11,4.46a144.46,144.46,0,0,0-2.73,25.37,168.9,168.9,0,0,1,4.64-21c13.08-8.4,28.82-5.35,46.17-3.56L174.4,173Z"/><path class="cls-6" d="M114.57,185.57a29.6,29.6,0,0,1,2.05,15.51l3.88-2.22C119.32,193.35,117.47,188.75,114.57,185.57Z"/><path class="cls-7" d="M139.13,181c1.11,23.59,3.93,29.19,13.18,57.21h.91c-2.08-15.83-1.77-31,1.17-42C158.36,162.65,149.31,173.1,139.13,181Z"/><path class="cls-7" d="M174,120.32c2.61-.49,7.84,6.53,7.84,6.53-3.57,12.46-1.9,31.81-1.9,31.81h-3.68S164.39,144.89,163.55,127C163.55,127,167.93,121.45,174,120.32Z"/><path class="cls-9" d="M169.63,140.9c-1.18-8,5.36-7,1.61-19.74a21.85,21.85,0,0,0-7.69,5.81c.84,17.92,12.71,31.69,12.71,31.69h.07C173.29,154.87,170.74,148.42,169.63,140.9Z"/><path class="cls-10" d="M178.8,159.87a6.62,6.62,0,0,1-2.54-1.21s.79-2.71,1.79-2.57,1.89,2.57,1.89,2.57Z"/><path class="cls-10" d="M171.74,140.06c-1.07-3.41-.08-4.37.44-4.05S172.43,138,171.74,140.06Z"/><path class="cls-10" d="M178.51,140.1c-.77-3.76.2-4.54.66-4.09S179.28,138.14,178.51,140.1Z"/><path class="cls-3" d="M167.06,124.41c-4,2.32-5.43,2.18-8.53,1.68-4.76-.76-7.29-6.75-6.95-13.43.18-3.52,2.29-9.56,6.85-10.15.21-2.25-2.88-5.09-3.6-5.69-5.58,2.07-8.62,8.49-9.4,15.26-1.1,9.47,2.62,17.86,9.09,20.36,8.42,3.26,14.43,1.57,16.34-1C173.12,128.43,169.46,123,167.06,124.41Z"/><path class="cls-4" d="M151.84,110.69c1.77-6.68,5.58-8,6.59-8.18.06-.69-2.51-4.22-2.9-4.94-.68.7-7.25,3.85-7.08,9.39C150.72,104.33,152.08,106.18,151.84,110.69Z"/><path class="cls-4" d="M156.42,129.19c-6.47-2.5-9.75-10.69-8.43-20.13.67-4.84,3.28-6.38,3.94-8.08s1.78-3.06-.94-1.72c-3.17,3-5,7.81-5.56,12.82-1.1,9.47,2.62,17.86,9.09,20.36,8.42,3.26,14.43,1.57,16.34-1a3.64,3.64,0,0,0,.69-2.31A20.33,20.33,0,0,1,156.42,129.19Z"/><path class="cls-3" d="M159,96.16c-3.25-.54-6.62,1.52-9.42,5.28,1.58-1.43,3.77-2.16,5.08-1.81,6,1.58,6.3,13.81,5.8,19.69-.83,9.89-6.06,17.4-12.76,16.66a5,5,0,0,1-2.69-1.32c.81,2.24,4.05,3.14,6.42,3.12,8-.07,13.63-7.43,15.17-17C168.45,109.12,167.16,97.52,159,96.16Z"/><path class="cls-11" d="M147.65,136.43c-1-.13-1.84-1.07-2.64-1.77.81,2.24,4.05,3.14,6.42,3.12,7.46-.06,12.91-6.53,14.83-15.24C164,129.14,156.72,137.69,147.65,136.43Z"/><path class="cls-11" d="M154.46,100.06c6,1.58,6.5,13.38,6,19.26a31.21,31.21,0,0,1-.57,3.88,28.93,28.93,0,0,0,1.5-7.15c.49-5.8.17-17.77-5.57-19.62a8.81,8.81,0,0,0-6.24,5A5.48,5.48,0,0,1,154.46,100.06Z"/><path class="cls-12" d="M63.25,38C57.57,34.48,57,27.51,57,27.51l3.69,4.33-.6-6.18C62.21,29.08,63.91,33.09,63.25,38Z"/><path class="cls-12" d="M58.44,40c-5.68-3.52-6.22-10.49-6.22-10.49l3.69,4.33-.59-6.18C57.4,31.1,59.11,35.1,58.44,40Z"/><path class="cls-12" d="M54.05,42.16c-5.68-3.53-6.22-10.5-6.22-10.5L51.52,36l-.6-6.19C53,33.23,54.71,37.24,54.05,42.16Z"/><path class="cls-12" d="M49.41,44c-6.88-3.62-8.09-11.67-8.09-11.67L46,37l-1.2-7.12C47.47,33.71,49.78,38.22,49.41,44Z"/><polygon class="cls-13" points="65.02 35.38 64.63 38.21 46.96 45.97 44.6 44.34 69.57 93.92 73.58 95 82.7 91 84.62 87.31 65.02 35.38"/><polygon class="cls-14" points="65.02 35.38 64.63 38.21 46.96 45.97 44.6 44.34 47.39 49.88 62.97 42.32 52.71 60.44 69.57 93.92 73.58 95 82.7 91 84.62 87.31 65.02 35.38"/><polygon class="cls-15" points="46.25 48.83 43.64 43.45 65.32 34.03 67.22 39.49 46.25 48.83"/><path class="cls-16" d="M65.32,34l-4.2,1.83A2.82,2.82,0,0,1,62.2,37.6c.39,2.88-4.8,6-11.59,6.91a26.22,26.22,0,0,1-6.4.13l2,4.19,21-9.33Z"/><path class="cls-13" d="M89.61,15.36c-1-5.29-4.9-5.6-4.9-5.6s1.09-3.89-.88-6.82-7-.69-7-.69-1.15-3.34-6-1.88-3.15,3.82-3.15,3.82a3.36,3.36,0,0,0-4.24-.07c-2.57,1.62-.85,6.36-.85,6.36-5.93.92-7.23,6.87-7.17,11.76s5.24,5.4,5.24,5.4c-1.32,2.24,1.63,14,11.77,7.14l7.52.45C90.05,34,87.34,23.3,87.34,23.3S90.66,20.69,89.61,15.36Z"/><path class="cls-17" d="M89.61,15.36a5.84,5.84,0,0,0-.15-.6l-.12,0a3.2,3.2,0,0,1-3.5-1.06s.94,2.11-3.42,2S77.87,13,77.87,13s-4.67.42-5.69-2.18a6.23,6.23,0,0,1,.72-5.19A5,5,0,0,1,70,.65c-3.86,1.48-2.34,3.54-2.34,3.54a3.36,3.36,0,0,0-4.24-.07c-2.57,1.62-.85,6.36-.85,6.36-5.93.92-7.23,6.87-7.17,11.76s5.24,5.4,5.24,5.4c-1.32,2.24,1.63,14,11.77,7.14l7.52.45C90.05,34,87.34,23.3,87.34,23.3S90.66,20.69,89.61,15.36Z"/><path class="cls-2" d="M144,118.94C128.51,92.17,94.61,44.43,92.49,43s-.9,17.52,1.36,20S143,119.43,143,119.43Z"/><path class="cls-18" d="M93,51c-.38-.46-1.25-1.19-1.52.42.32,4.9,1.19,10.35,2.33,11.6C96.12,65.47,143,119.43,143,119.43l-1.18-2.33C130.69,102.83,95.22,53.68,93,51Z"/><path class="cls-2" d="M74.28,19.06,70.5,21.14s4,13.07-1.91,20.83L84.92,38A21.3,21.3,0,0,1,74.28,19.06Z"/><path class="cls-2" d="M92.79,43.3c-.55-.5-12.24-8.74-14.23-8.45s-12.83,9.37-12.83,9.37l18,27.43L98.14,66.9S93.35,43.79,92.79,43.3Z"/><path class="cls-18" d="M67,42.74c-.29.24-1.31,1.48-1.31,1.48l18,27.43L98.14,66.9s-.35-1.7-.63-3Z"/><path class="cls-2" d="M38.21,135.74c7.12-31.66,25.71-90,27.29-92.07s5.56,17.4,4.12,20.57S39.22,136,39.22,136Z"/><path class="cls-18" d="M65.5,43.67A51.53,51.53,0,0,0,63,50.32c-.43,1.25,1,15.4.15,17.41-1.08,2.57-18.24,51.35-24.76,68l.86.18s29-68.54,30.4-71.71S67.08,41.61,65.5,43.67Z"/><polygon class="cls-2" points="69.86 143.47 51.96 237.96 52.67 237.96 90.21 124.95 69.86 143.47"/><path class="cls-18" d="M68.51,190.29,90.21,125,69.86,143.47,59.58,197.74A35,35,0,0,1,68.51,190.29Z"/><polygon class="cls-2" points="115.84 134.68 141.47 237.96 140.75 237.96 98.26 129.46 115.84 134.68"/><path class="cls-18" d="M121.06,155.72l-5.22-21-17.58-5.22,17.95,45.84A96.73,96.73,0,0,1,121.06,155.72Z"/><path class="cls-12" d="M61.13,176.47C85.2,173.14,118.49,139,118.49,139L112,115.45,67.73,135.39Z"/><path class="cls-19" d="M79.5,157.91c9.85-17.71,26.75-27.69,38-22.54L112,115.45,67.73,135.39l-6.6,41.08a46.76,46.76,0,0,0,12.66-4A56.21,56.21,0,0,1,79.5,157.91Z"/><path class="cls-20" d="M92.86,81.8,77.17,89.41c-13.46,28.75-13.65,62.37-13.65,62.37s30.59-7.25,49.9-34C113.42,117.81,106.89,90.05,92.86,81.8Z"/><path class="cls-21" d="M74.86,147.8c1.73-.74,3.6-1.6,5.57-2.59-7.33-21.09,1.81-36.05,1.81-36.05C75.08,119.59,73.93,132.66,74.86,147.8Z"/><path class="cls-21" d="M70.54,143.51c.76-22.83,11.36-44.18,24.13-45.67,8.78-1,15.51,7.59,18.22,20.67l.53-.7s-6.53-27.76-20.56-36L77.17,89.41c-13.46,28.75-13.65,62.37-13.65,62.37a69.76,69.76,0,0,0,7.07-2.27C70.49,147.56,70.48,145.56,70.54,143.51Z"/><path class="cls-12" d="M72.23,97.88l-2,8.15s17.25-5.85,29.6-19.15l-4.08-5Z"/><path class="cls-19" d="M86.75,94.79c4.6-3.1,8.42-5.57,11.16-5.93.66-.64,1.3-1.3,1.94-2l-4.08-5-23.54,16-2,8.15s2.27-.77,5.75-2.39C77.91,100.87,82.16,97.89,86.75,94.79Z"/><path class="cls-20" d="M81.47,68.52c-9.09,21-10.51,33.4-10.51,33.4A74.75,74.75,0,0,0,98.5,84.19s-11.81-10-9.33-18.36S81.47,68.52,81.47,68.52Z"/><path class="cls-21" d="M88.21,80.71A10,10,0,0,1,96.7,82.5c-3.2-3.22-9.39-10.43-7.53-16.67,2.49-8.31-7.7,2.69-7.7,2.69-9.09,21-10.51,33.4-10.51,33.4S75.67,84,88.21,80.71Z"/><path class="cls-20" d="M68.59,69.47c.4,1.64,8.82,9.33,8.82,9.33l13.71-3.35s8.26-7.53,8-8.67-32.8-23.86-32.8-23.86l-.64.68S68.05,67.31,68.59,69.47Z"/><path class="cls-21" d="M66.13,43.53v4.61a3.16,3.16,0,0,0,4.37-1.22Z"/><path class="cls-21" d="M67.58,46.78C70.43,48.32,96,67.49,96.25,68.5s2.13-.83,2.13-.83L67.7,45.29Z"/><path class="cls-21" d="M90.31,69.81c-8.85,1.88-18.45,6-23.27-23-.15-.9-1-.37-1.16-1.33.56,5.6,1.71,22.63,2.15,24.42C68.44,71.51,77,79.6,77,79.6l14.43-3.5s6.36-6.7,7.56-8.77A55,55,0,0,1,90.31,69.81Z"/><path class="cls-15" d="M82.54,7.68A8.33,8.33,0,0,0,80.63,5.5a4.77,4.77,0,0,0,0,2.6c.22.58,1.17.64,1.3.61S82.77,8.27,82.54,7.68Z"/><path class="cls-15" d="M82.44,16.8A7.7,7.7,0,0,1,82.21,14a3.36,3.36,0,0,1,2.09,1.4c.23.54-.57,1.33-.69,1.41S82.67,17.22,82.44,16.8Z"/><path class="cls-15" d="M82.55,13.73a9.93,9.93,0,0,1-1.85-2.36,4.41,4.41,0,0,1,2.68.58c.53.39.28,1.34.22,1.44S83,14,82.55,13.73Z"/><path class="cls-15" d="M81,10.8A7.37,7.37,0,0,1,79.28,9a4.41,4.41,0,0,1,2.82.35c.43.33,0,1.1-.13,1.18S81.35,11,81,10.8Z"/><path class="cls-15" d="M82.83,10.73a8.62,8.62,0,0,1,.61-3.09,6.51,6.51,0,0,1,1.47,2.52c.16.74-.65,1.35-.79,1.39S82.94,11.58,82.83,10.73Z"/><path class="cls-15" d="M83.93,13.9A9.39,9.39,0,0,1,85.38,11,6.63,6.63,0,0,1,86,14c-.1.73-1.06,1-1.19,1S83.84,14.63,83.93,13.9Z"/><path class="cls-15" d="M83.26,17.77a11.52,11.52,0,0,1,2.82-2.33,6.56,6.56,0,0,1-.72,3.16,1.75,1.75,0,0,1-1.66.53C83.56,19.08,82.82,18.45,83.26,17.77Z"/><path class="cls-15" d="M71.65,7.4A9.8,9.8,0,0,1,74.1,5.34a5.31,5.31,0,0,1-.52,2.77c-.36.59-1.35.52-1.47.48S71.28,8,71.65,7.4Z"/><path class="cls-15" d="M69.74,17.12a8.56,8.56,0,0,0,.85-2.92,3.79,3.79,0,0,0-2.47,1.21c-.36.54.3,1.49.41,1.59S69.41,17.54,69.74,17.12Z"/><path class="cls-15" d="M70.31,13.84a11.91,11.91,0,0,0,2.43-2.27,4.7,4.7,0,0,0-2.9.26c-.63.35-.59,1.39-.55,1.51S69.77,14.09,70.31,13.84Z"/><path class="cls-15" d="M72.54,10.93a8.65,8.65,0,0,0,2.18-1.69,4.45,4.45,0,0,0-3,0c-.51.29-.19,1.17-.12,1.27S72.15,11.05,72.54,10.93Z"/><path class="cls-15" d="M70.67,10.61a9.15,9.15,0,0,0,0-3.37,8,8,0,0,0-2.07,2.48,1.48,1.48,0,0,0,.51,1.59A1.25,1.25,0,0,0,70.67,10.61Z"/><path class="cls-15" d="M68.84,13.84A9.66,9.66,0,0,0,68,10.51a7.78,7.78,0,0,0-1.35,3.14c-.06.79.87,1.19,1,1.2S68.78,14.63,68.84,13.84Z"/><path class="cls-15" d="M68.68,18.05a10.66,10.66,0,0,0-2.41-2.86,7.13,7.13,0,0,0,.06,3.46c.3.77,1.45.82,1.6.78S69,18.82,68.68,18.05Z"/><path class="cls-2" d="M42.74,238.2h10s1.3-2.75-.24-3.13S42.74,238.2,42.74,238.2Z"/><path class="cls-2" d="M150.42,238.2h-10s-1.3-2.75.24-3.13S150.42,238.2,150.42,238.2Z"/><path class="cls-21" d="M84.14,84.59s-7.9,4.87-13.14,17c0,.22,0,.33,0,.33a53.32,53.32,0,0,0,5.59-2.29C78.45,91.92,81.36,87.54,84.14,84.59Z"/><path class="cls-12" d="M66.86,45.23S97.06,66.72,97.21,68c.11.8-8.63,4.92-14.95,7.78-3.57,1.62-6.36,2.84-6.36,2.84l1,1s24.59-9.21,22.56-12.76c-.71-1.25-32-23.27-32-23.27Z"/><path class="cls-19" d="M99.59,67.08c-.71.26-1.52.54-2.41.83l0,0c.11.8-8.63,4.92-14.95,7.78-3.56,1.62-6.36,2.84-6.36,2.84-.52.45.34,1.69,1,1.34C76.94,79.92,100.47,70.79,99.59,67.08Z"/><path class="cls-18" d="M72.26,43.22l5.69-1C69.59,41.09,69.65,43.78,72.26,43.22Z"/><path class="cls-18" d="M84,41.22l-4,.85C85,38.39,85.86,40.94,84,41.22Z"/><path class="cls-13" d="M89.23,40.68c-.29-.58-.62-.69-1-.61,2.3,25-13.62,39.17-13.62,39.17l1.19,2.14S93.1,64.23,89.23,40.68Z"/><path class="cls-14" d="M81.36,70.67a40.35,40.35,0,0,1-6.72,8.57l1.19,2.14a51.38,51.38,0,0,0,7.73-10.76A3.27,3.27,0,0,1,81.36,70.67Z"/><path class="cls-22" d="M84,37.39l-.57-.34a21.27,21.27,0,0,1-9.15-18L70.5,21.14S74.39,34,68.73,41.76l-1.14.92a31.58,31.58,0,0,0,7.74-1.31A30.13,30.13,0,0,0,84,37.39Z"/><path class="cls-2" d="M79.55,32.44a13,13,0,0,1-9-11.2c-.35-3.39,2.49-9,5.76-9,4.94,0,6.32,5.39,6.67,9.65C83.4,27.1,79.55,32.44,79.55,32.44Z"/><path class="cls-2" d="M69.61,20.92c-1-1.24-2.49.27-2.09,1.3s2.65,2,2.85,1.39A3.82,3.82,0,0,0,69.61,20.92Z"/><path class="cls-23" d="M69.35,21.38c-.63-.77-1.53.17-1.29.8s1.64,1.22,1.76.86A2.32,2.32,0,0,0,69.35,21.38Z"/><path class="cls-2" d="M69.62,22c-.41-.5-1,.11-.84.52s1.06.79,1.14.55A1.5,1.5,0,0,0,69.62,22Z"/><path class="cls-15" d="M63.9,44.52a3.6,3.6,0,0,0,3.56,3,2.72,2.72,0,0,0,2.85-3,3.61,3.61,0,0,0-3.56-3A2.72,2.72,0,0,0,63.9,44.52Z"/><path class="cls-24" d="M65,44a2.67,2.67,0,0,0,2.63,2.24A2,2,0,0,0,69.71,44a2.66,2.66,0,0,0-2.63-2.23A2,2,0,0,0,65,44Z"/><rect class="cls-25" x="42.04" y="81.21" width="0.59" height="78.27" transform="translate(-85.24 121.9) rotate(-71.32)"/><path class="cls-13" d="M86.65,131.05a7.35,7.35,0,0,1-.79-.22c-8.87-3-15.21,14.21-48.2,3.23C5.07,123.22,10.12,106.11,1.48,102.78c-1.84,1-2.08,2-.07,2.63,8.75,2.91,7.81,23.28,35.12,32.36S75.38,130,84,132.89C86.71,133.78,87.43,133,86.65,131.05Z"/><path class="cls-26" d="M24.76,128.49c.85,1.77,1.81,3.6,2.89,5.46a53.82,53.82,0,0,0,8.88,3.82,47,47,0,0,0,19,2.57c-.47-.9-1-1.81-1.49-2.72a69.6,69.6,0,0,1-16.39-3.56A73,73,0,0,1,24.76,128.49Z"/><path class="cls-27" d="M81.07,20.76c-.14-.81-.67-1.43-1.19-1.38s-.82.76-.68,1.58.67,1.43,1.19,1.38S81.21,21.58,81.07,20.76Z"/><path class="cls-27" d="M76,21.27c-.13-.95-.69-1.69-1.25-1.67s-.91.81-.78,1.76.69,1.69,1.25,1.66S76.14,22.21,76,21.27Z"/><path class="cls-27" d="M73,21.16a4.92,4.92,0,0,1,3.13-1.28,1.46,1.46,0,0,0-1.62-.42C73.44,19.76,73,21.16,73,21.16Z"/><path class="cls-27" d="M81.62,20a4.63,4.63,0,0,0-3.05-.32,1.23,1.23,0,0,1,1.25-.76A2.55,2.55,0,0,1,81.62,20Z"/><path class="cls-13" d="M72.38,19.46l-.09-.19a4,4,0,0,1,2.5-2.45l.2.7A3.79,3.79,0,0,0,72.38,19.46Z"/><path class="cls-13" d="M81.52,18.2a4.24,4.24,0,0,0-3.24-1.11l-.07-.71a4.54,4.54,0,0,1,3.39,1.56Z"/><path class="cls-23" d="M79.26,23.66s0,.05,0,.07a1,1,0,0,1-1.2.73,1.22,1.22,0,0,1-.77-.59A1.15,1.15,0,0,0,78.21,25a.93.93,0,0,0,1.2-.72A1,1,0,0,0,79.26,23.66Z"/><path class="cls-28" d="M76.5,26.75l3.56-.27s-.16,1.77-1.62,1.84S76.5,26.75,76.5,26.75Z"/><path class="cls-29" d="M76.75,26.8l3-.23s.32.76-1.39.91S76.75,26.8,76.75,26.8Z"/><path class="cls-30" d="M79.29,28.82c0-.21-.3,0-.69.05s-.71-.17-.69.05.35.37.73.34S79.31,29,79.29,28.82Z"/><path class="cls-2" d="M139.28,113.79c1,2.08.64,5.38,1.64,6.51.8.89,4.21.38,4.41-.37s-4.85-6.39-4.85-6.39Z"/><path class="cls-2" d="M141.89,115.35a42.89,42.89,0,0,0,5.67,2.39c.56.28.17.83-1.52.53s-2.16-.84-2.65-.24S141,114.79,141.89,115.35Z"/><path class="cls-2" d="M143.31,119c1.05,1.13,3.6,3.91,4,3.62s-3.11-4.46-3.11-4.46Z"/><path class="cls-2" d="M142.26,119.73c.66,1.26,2.25,4.38,2.71,4.15S143.3,119,143.3,119Z"/><path class="cls-2" d="M140.6,119.78c.44,1.8,1.5,4.57,2,4.34s-.86-5.12-.86-5.12Z"/><path class="cls-2" d="M36.63,137.22c.34-1.07.27-2-.16-2.18s-1,.61-1.4,1.68-.07,1.55.36,1.69S36.29,138.28,36.63,137.22Z"/><path class="cls-2" d="M38.34,137.75c.34-1.06.27-2-.16-2.18s-1.06.61-1.4,1.68-.08,1.55.35,1.69S38,138.82,38.34,137.75Z"/><path class="cls-2" d="M40.31,138.18c.35-1.07.28-2-.15-2.18s-1.06.61-1.4,1.68-.08,1.55.35,1.69S40,139.24,40.31,138.18Z"/><path class="cls-2" d="M37.35,134.86c1,.44,2,.45,2.18,0S39,133.79,38,133.35s-1.54-.21-1.71.2S36.31,134.42,37.35,134.86Z"/></g></g></g></svg>