<svg xmlns="http://www.w3.org/2000/svg" viewBox="0 0 152.92 223.78"><defs><style>.cls-1{isolation:isolate;}.cls-2{fill:#ffc248;}.cls-3{fill:#6d5155;}.cls-4{fill:#594044;}.cls-5{fill:#443134;}.cls-6{fill:#896d72;}.cls-7{fill:#49383c;}.cls-8{fill:#d8b5ab;}.cls-9{fill:#c11e1e;}.cls-10{fill:#e0403d;}.cls-11{fill:#cc2323;}.cls-12{fill:#ffe05c;}.cls-13{fill:#ffbf4d;}.cls-14{fill:#ffda73;}.cls-15{fill:#842320;}.cls-16{fill:#a83e36;}.cls-17{fill:#efd9b1;}.cls-18{fill:#ddc699;}.cls-19{fill:#ffb882;}.cls-20{fill:#ff9566;}.cls-21{fill:#e84343;}.cls-22{fill:#d62525;}.cls-23{fill:#ffb03e;}.cls-24{fill:#51202a;}.cls-25{fill:#6b2f38;}.cls-26{fill:#823d4a;}.cls-27{fill:#a55966;}.cls-28{fill:#c1818f;}.cls-29{fill:#c98194;}.cls-30{fill:#d3abb6;}.cls-31{fill:#c94343;opacity:0.6;mix-blend-mode:multiply;}.cls-32{fill:#ea7b59;}.cls-33{fill:#66423b;}.cls-34{fill:#491d2e;}.cls-35{fill:#ffebeb;}.cls-36{fill:#ef8f6f;}</style></defs><title>ATHENA</title><g class="cls-1"><g id="Layer_2" data-name="Layer 2"><g id="_1" data-name="1"><path class="cls-2" d="M135.16,96.2c-.35-.9-2.34-.06-5.88-1l.43,2.72s2.55,2.28,3.84,2.55S135.5,97.1,135.16,96.2Z"/><path class="cls-3" d="M81,60.92c4.9-4.06,6.53-4.78,8-5,.43-1.2,3.19-13.29-1.22-14.73-2-.66-5.5-.72-6.88,3C78.7,49.93,81,60.92,81,60.92Z"/><path class="cls-4" d="M85.84,55.28c-2.5-.34-4.27-4.79-3.94-9.94a17.93,17.93,0,0,1,.55-3.44,5.14,5.14,0,0,0-1.58,2.27C78.7,49.93,81,60.92,81,60.92c3.69-1.54,7.59-4.06,8-5a26.53,26.53,0,0,0,.9-4.3C88.9,54,87.41,55.49,85.84,55.28Z"/><path class="cls-5" d="M80.5,58.08c.24,1.71.48,2.84.48,2.84a33.25,33.25,0,0,0,7.12-4.05,2.27,2.27,0,0,0,.18-1.19c-.85.64-4,2.19-4.63,2.1s-1.92-3.08-1.24-4.33C81.31,54,80.65,57.79,80.5,58.08Z"/><path class="cls-4" d="M88.3,55.64a26.65,26.65,0,0,1-3.52,5.24S82.61,57,82.3,55.15C84.91,56.78,88.3,55.64,88.3,55.64Z"/><path class="cls-6" d="M89.86,45.7c-.13-2.15-1-3.92-2-4s-1.65,1.69-1.52,3.84,1,3.92,2,3.95S90,47.85,89.86,45.7Z"/><path class="cls-6" d="M87.71,45.71c-.13-2.15-1.33-3.92-2.68-4s-2.34,1.69-2.21,3.84,1.32,3.92,2.67,3.95S87.84,47.86,87.71,45.71Z"/><path class="cls-7" d="M85.88,44.55c0-.3-.34-.86-.65-.86s-.54.56-.56.86Z"/><path class="cls-7" d="M89.06,44.55c0-.3-.34-.86-.65-.86s-.54.56-.56.86Z"/><path class="cls-3" d="M82,45.67c-4.38,4.57-1.42,12.81-1.42,12.81s1-3.86,3-4.82Z"/><path class="cls-4" d="M80.57,50.06a9.59,9.59,0,0,1,.2-2.71C77.7,51.66,81,60.92,81,60.92s.36-4.87,1.41-6.26C81.49,54.24,80.71,52.34,80.57,50.06Z"/><path class="cls-3" d="M83.38,53.18a5.89,5.89,0,0,0,.45,2.62,3.79,3.79,0,0,0,.68-2.19Z"/><path class="cls-3" d="M82.47,52.23a6.08,6.08,0,0,0,.45,2.62,3.84,3.84,0,0,0,.69-2.19Z"/><path class="cls-3" d="M84.23,53.79a6.08,6.08,0,0,0,.45,2.62,3.76,3.76,0,0,0,.69-2.19Z"/><path class="cls-3" d="M85,54.42A6.08,6.08,0,0,0,85.45,57a3.76,3.76,0,0,0,.69-2.19Z"/><path class="cls-3" d="M85.93,54.17a5.94,5.94,0,0,0,.45,2.62,3.79,3.79,0,0,0,.68-2.19Z"/><path class="cls-3" d="M86.7,53.45a6.08,6.08,0,0,0,.45,2.62,3.84,3.84,0,0,0,.69-2.19Z"/><path class="cls-3" d="M87.55,52.77A5.94,5.94,0,0,0,88,55.39a3.79,3.79,0,0,0,.68-2.19Z"/><path class="cls-3" d="M88.3,51.71a6.08,6.08,0,0,0,.45,2.62,3.76,3.76,0,0,0,.69-2.19Z"/><path class="cls-4" d="M82.38,49.47a24.16,24.16,0,0,1-.47,6.16l.35-.59.23.82A15.9,15.9,0,0,0,82.38,49.47Z"/><path class="cls-3" d="M87.19,45.12c0-.56-.3-.72-.38-1.09-.17,0-.31.4-.32,1s.16,1.31.38,1.3S87.24,45.79,87.19,45.12Z"/><path class="cls-8" d="M87.46,45.84c-.07-.45-.27-1.57-.65-1.82-.35,0-.43,1.18-.28,1.6Z"/><path class="cls-9" d="M49.06,62.72l-1.43-2.47C46,70.21,43,90.42,44.45,91s1.17-3,4.13-1.92.17,2.26,3.52,2.74-.33-2.91,2.33-2.83S50.71,67.77,49.06,62.72Z"/><path class="cls-10" d="M43.54,33.64c-3.95-7.6-8-18-3.46-22.82S39,2.92,39,2.92C33.24-2.81,23.09-.34,23.48,12.4S37.81,29.89,38.9,39.87s-6.33,12.64-5.64,14c.44.87,3.08-.39,5.14-2.63a1,1,0,0,0,.61.27C41.57,51.82,47.49,41.25,43.54,33.64Z"/><path class="cls-11" d="M39.85,31.8c-4-7.61-4.31-16.14.23-21a6.05,6.05,0,0,0,1.69-2.95c-1,1.86-3.53-5.25-6-4.23-4.68,1.95-9,9.51-10.47,6.06s1-7.49,5.35-9.54c-4,.81-7.44,4.75-7.21,12.24.4,12.75,14.33,17.49,15.42,27.47s-6.33,12.64-5.64,14c.44.87,3.08-.39,5.14-2.63a1,1,0,0,0,.61.27C41.57,51.82,43.8,39.41,39.85,31.8Z"/><path class="cls-12" d="M39.25,4.18c-.92-1.32-2.14-1.57-3-.95s-1.1,1.87-.18,3.19S38.68,8.62,39.57,8,40.18,5.5,39.25,4.18Z"/><path class="cls-12" d="M37.48,6.63c-5.91,19.71,3.85,31.81,18.5,37L66.06,23.46a40.34,40.34,0,0,0-16.82-12C39,7.65,38.76,2.36,37.48,6.63Z"/><path class="cls-13" d="M50.49,24.9C42.67,18.66,37.87,11,37.86,5.6a7,7,0,0,0-.38,1c-5.91,19.71,3.85,31.81,18.5,37l6-12A43.12,43.12,0,0,1,50.49,24.9Z"/><path class="cls-14" d="M41,25.33a36.68,36.68,0,0,1-4.53-10.9,23,23,0,0,0,3.44,16.18Z"/><path class="cls-14" d="M43.08,28.66l-1,4.85a32.07,32.07,0,0,0,5.4,5A85.14,85.14,0,0,0,43.08,28.66Z"/><path class="cls-15" d="M53.38,15.66c-1.38,1.58,7.18,6.72,7.18,6.72l-1.38.46s-6.78-6.06-8.5-5.66-4,4.48,6.66,8.69l6.52-3.13C61.29,19.22,54.77,14.08,53.38,15.66Z"/><polygon class="cls-16" points="146.38 32.76 147.97 32.76 107.33 223.58 105.74 223.58 146.38 32.76"/><polygon class="cls-17" points="152.92 5.76 142.31 34.23 144.98 43.04 151.41 34.23 152.92 5.76"/><polygon class="cls-18" points="152.92 5.76 142.31 34.23 144.98 43.04 145.67 34.08 152.92 5.76"/><polygon class="cls-18" points="147.96 38.95 143.77 39.05 143.67 44.38 145.4 45.93 147.96 38.95"/><path class="cls-15" d="M61.52,49.14c-5.32,4.59-6.35-.08-6.35-.08s-3,.53-4.51-4.17C49.41,41,48.82,29.57,58,26.34S64.78,46.34,61.52,49.14Z"/><path class="cls-15" d="M59.17,47c4.41,4.4,5.67-.08,5.67-.08s2.64.51,4.33-4c1.4-3.76,2.76-14.68-5.2-17.78S56.48,44.34,59.17,47Z"/><path class="cls-19" d="M77.34,53.28c16,13.59,25.64,26,29.19,29s1,8.69-5.33,5.73-22.77-15-24.08-17.53S77.34,53.28,77.34,53.28Z"/><path class="cls-20" d="M106.53,82.28c-.16-.14-.35-.3-.54-.48a7.85,7.85,0,0,1-6.24-.54C89.67,75.33,81.24,56.1,77,55.31c-.13,3.35-.46,14.1.09,15.17C78.43,73.05,94.88,85.05,101.2,88S110.09,85.24,106.53,82.28Z"/><path class="cls-19" d="M28.39,96c2.87-15.31,16-32.3,20.06-35.61s4.84,12.3,4.84,12.3-16,15-19,21.24S28.39,96,28.39,96Z"/><path class="cls-20" d="M31.78,91.34a7.13,7.13,0,0,0-2.34.39A42.33,42.33,0,0,0,28.39,96s3,4.15,5.93-2.07a15.37,15.37,0,0,1,1-1.67A6.79,6.79,0,0,0,31.78,91.34Z"/><path class="cls-20" d="M48.45,60.4c-.7.57-.55,9.24-.55,9.24S33.24,87.18,31,93.71a7.47,7.47,0,0,1-1.77,3.14c1.1.77,3.08,1.25,5.06-2.91,3-6.23,19.53-21.18,19.53-21.18S52.5,57.09,48.45,60.4Z"/><path class="cls-19" d="M60.17,83.24C53.25,77.51,47.76,61.78,48.45,60.4s10.07-9,13.43-9.17,12,.23,14.69,1.51,5,8.7,5.66,10.18S61,83.94,60.17,83.24Z"/><path class="cls-20" d="M50.45,61.74a2,2,0,0,0-2.85-1.07,2.63,2.63,0,0,0-1,3.26A2,2,0,0,0,49.45,65,2.63,2.63,0,0,0,50.45,61.74Z"/><path class="cls-20" d="M74.39,62.29c-1.91-.75-26.17-2.1-26.29-1.85a2.07,2.07,0,0,0,0,1h0a51.08,51.08,0,0,1,12,4.87L55,71.12s-3.79-3.73-6.08-6.57c1.75,5.57,6,15.18,11,19.31.85.71,23.71-18.37,23-19.86C82.69,63.52,74.93,63.64,74.39,62.29Z"/><polygon class="cls-19" points="91.97 129.95 106.25 223.51 105.64 223.51 76.14 126.5 91.97 129.95"/><path class="cls-20" d="M102,195.36,92,130,76.14,126.5l23.2,76.28A30.2,30.2,0,0,1,102,195.36Z"/><polygon class="cls-19" points="52.82 129.95 42.26 223.51 42.85 223.51 68.2 126.5 52.82 129.95"/><polygon class="cls-20" points="44.87 215.79 68.2 126.5 52.82 129.95 43.1 216.06 44.87 215.79"/><path class="cls-12" d="M37,210.41C84.21,198,103.17,182,103.17,182l-3.75-17.19L41.13,184.53Z"/><path class="cls-2" d="M78.55,186c9.18-5.19,18.57-7.07,24.32-5.39l-3.45-15.8L41.13,184.53,37,210.41c9.35-2.47,17.58-5.07,24.79-7.67C63.85,197.21,70,190.77,78.55,186Z"/><path class="cls-21" d="M37,200.14c13.83-1.39,65.39-29.44,65.39-29.44s-6-56-13.1-69.88l-39.85,28C45.34,139.08,40.1,172,37,200.14Z"/><path class="cls-22" d="M61.88,188.87c1.58-23,14.32-55.05,25.55-59.73,3.16-1.32,6.72-1.58,9.8,3.82-2.22-13.3-5-26.38-8-32.14l-39.85,28C45.34,139.08,40.1,172,37,200.14c4.87-.49,14.44-4.3,24.79-9C61.8,190.39,61.83,189.65,61.88,188.87Z"/><path class="cls-21" d="M46.86,132.3c18.18,9.35,49.93-12.25,49.93-12.25s-9.22-31.22-19.1-40.44C70,72.39,62.38,72.36,64.12,84.09a66.07,66.07,0,0,1,.13,14.62C56.83,110.36,50.45,121.71,46.86,132.3Z"/><path class="cls-22" d="M94.22,121.1c-2.3-18.11-9.29-24-9.29-24,2.7,4.1,5,13.62,6.48,24Z"/><path class="cls-22" d="M74.24,124.75c-3.71-16.22-1.34-30.6,5.31-32.13,2.79-.64,5.89,1.1,8.82,4.52-3.13-7.08-6.86-14-10.68-17.53C70,72.39,62.38,72.36,64.12,84.09a66.07,66.07,0,0,1,.13,14.62c-7.42,11.65-13.8,23-17.39,33.59,8.29,4.26,19.4,2.09,29-1.53C75.28,128.85,74.72,126.83,74.24,124.75Z"/><path class="cls-9" d="M83.8,87.93a42.22,42.22,0,0,0-4.84-7L64.28,85.35a67.81,67.81,0,0,1,0,13.36l-.09.14C73.26,87.92,80.08,87.11,83.8,87.93Z"/><path class="cls-9" d="M70.85,130A76,76,0,0,1,69,102.14s-4.57,8.62-1,27.9Z"/><path class="cls-21" d="M54.37,76.19c-1.18,4,10.47,11.62,10.47,11.62s12.52-7,16-4.51c1.31-1.18,7.24-7.77,7-9.75S83.35,62.09,82.16,61.3,60.3,60.65,54.37,76.19Z"/><path class="cls-22" d="M72.5,79.91c-7.42,0-13.84-2.53-17-6.22a22.9,22.9,0,0,0-1.15,2.5c-1.18,4,10.18,13.3,10.18,13.3s11.29-6.78,16.3-6.19a46,46,0,0,0,6-7.3C83.39,78.39,78.24,79.91,72.5,79.91Z"/><path class="cls-21" d="M47.39,60.51l-.68.51a88.84,88.84,0,0,1,30.16,9.9l5.29-9.28A122.33,122.33,0,0,0,47.39,60.51Z"/><path class="cls-22" d="M48.91,61.14l-.37.1a223.4,223.4,0,0,1,25.22,8.05C69,65.79,59.44,62.32,48.91,61.14Z"/><path class="cls-12" d="M108.63,81.57c-9.45,0-18.16,7.64-18.16,7.64s21.71,6.93,40.62,9.22l.91-1.35S114.26,81.56,108.63,81.57Z"/><path class="cls-2" d="M118.71,95.44C107.49,92.74,99,88,98.31,84.2a38.2,38.2,0,0,0-7.84,5s21.71,6.93,40.62,9.22l.77-1.14A64.46,64.46,0,0,1,118.71,95.44Z"/><path class="cls-19" d="M60.2,35.85l-2.7.43s3.87,11.2-1,17.65l16.33-1.85C63.16,46.33,60.2,35.85,60.2,35.85Z"/><path class="cls-16" d="M54.9,35.26c-3.49-6.33-.79-12.78,3.56-14.16s5.53,2,5.53,2,.06-2.1,1.25-2.24a1.53,1.53,0,0,1,1.58.6s-.66-2.84,2.17-1.72,3.49,6.52-1.45,10.74S54.9,35.26,54.9,35.26Z"/><path class="cls-15" d="M59,25.3a4.58,4.58,0,0,1-.48-4.21h0c-4.35,1.38-7.64,8-3.84,14.75,0,0,8-1.19,12.92-5.4a11.84,11.84,0,0,0,1.95-2.11C65.05,29.86,60.66,28.35,59,25.3Z"/><path class="cls-22" d="M80.35,129.2c1.49-.63,2.92-1.27,4.27-1.92-6-9.49-8.36-17.55-8.45-23C76.17,104.31,74.24,114.64,80.35,129.2Z"/><path class="cls-12" d="M48.05,129c-.42,1.1-.82,2.19-1.19,3.27,18.18,9.35,50.39-12,50.39-12a20.08,20.08,0,0,1-1.45-3.43C90.43,120.32,64.44,136.07,48.05,129Z"/><path class="cls-2" d="M75.85,130.17c-.36-.95-.69-1.9-1-2.85-8.93,3.23-19,5.08-26.82,1.71-.42,1.1-.82,2.19-1.19,3.27,8.3,4.27,19.52,2.14,29.27-1.43C76,130.64,75.94,130.41,75.85,130.17Z"/><path class="cls-2" d="M82.71,124.07c-1.19.55-2.43,1.1-3.7,1.63.4,1.14.84,2.3,1.34,3.5h0c1.49-.63,2.92-1.27,4.27-1.91h0C83.94,126.19,83.3,125.12,82.71,124.07Z"/><path class="cls-23" d="M68.69,133.18c.94-.24,1.88-.5,2.81-.78-.36-1.22-.69-2.44-1-3.66-.86.25-1.72.49-2.58.7C68.16,130.64,68.41,131.89,68.69,133.18Z"/><path class="cls-2" d="M91.74,123.61c1-.55,1.85-1,2.6-1.5-.16-1.39-.35-2.72-.56-4-.74.45-1.61,1-2.58,1.51Q91.49,121.61,91.74,123.61Z"/><ellipse class="cls-24" cx="31.37" cy="170.42" rx="55.3" ry="27.78" transform="translate(-140.52 148.44) rotate(-72.28)"/><ellipse class="cls-25" cx="30.58" cy="169.76" rx="52.91" ry="26.58" transform="translate(-140.44 147.23) rotate(-72.28)"/><path class="cls-26" d="M.93,196.94c.74,6.91,2.61,12.75,5.5,16.92C13.69,202,23.8,183.65,35,164.11c8-13.92,15.31-26.35,21-36.34-2.43-4.45-5.79-7.49-10-8.6a12.09,12.09,0,0,0-1.33-.28,172.31,172.31,0,0,0-24.09,32.78A236,236,0,0,0,.93,196.94Z"/><ellipse class="cls-27" cx="26.78" cy="167.36" rx="46.39" ry="21.79" transform="translate(-141.06 143.77) rotate(-72.91)"/><path class="cls-28" d="M41.17,121.86c-12.39-3.26-28.55,14.55-36.09,39.79S1.47,210,13.86,213.25,42.41,198.7,50,173.46,53.56,125.12,41.17,121.86Zm3.3,49.7c-6.45,21.59-20.28,36.83-30.88,34S-.37,183,6.08,161.45s20.28-36.84,30.88-34S50.92,150,44.47,171.56Z"/><path class="cls-29" d="M34.25,154.32A67.17,67.17,0,0,0,42,134.81c-1.52-2.82-3.61-4.73-6.21-5.41-9.17-2.42-21.28,11.31-27,30.65a69.15,69.15,0,0,0-3,18.82C14.23,178.48,25.9,168.78,34.25,154.32Z"/><path class="cls-30" d="M8.59,210.25c1-1.68,2.06-3.46,3.15-5.32-4.44-2.18-7.33-7.67-8.45-15.06-.54,1.52-1,3-1.54,4.49C2.74,201.35,5.06,206.93,8.59,210.25Z"/><path class="cls-30" d="M41.83,122c-1.52,1.69-3.07,3.48-4.63,5.39,5.34,1.51,8.81,7.33,10.08,15.5q2.51-4.28,4.79-8.2C50.12,128.16,46.65,123.57,41.83,122Z"/><path class="cls-24" d="M16.84,214a12.21,12.21,0,0,1-3.08-.39c-3.54-.94-6.46-3.41-8.67-7.35-5.54-9.86-5.68-27-.38-44.74,7.59-25.4,24-43.37,36.56-40,3.54.93,6.46,3.4,8.67,7.34,5.54,9.86,5.68,27,.38,44.74C43.34,196.94,28.89,214,16.84,214Zm21.3-92.16c-11.7,0-25.81,16.86-32.69,39.9-5.16,17.28-5,34.6.31,44.14,2.11,3.75,4.86,6.1,8.2,7,12.17,3.2,28.15-14.53,35.62-39.53,5.16-17.27,5-34.6-.31-44.14-2.11-3.75-4.87-6.1-8.2-7h0A11.48,11.48,0,0,0,38.14,121.86Z"/><path class="cls-19" d="M105.61,223.78H113s-6.59-2.77-7.58-2.57S105.61,223.78,105.61,223.78Z"/><path class="cls-19" d="M44.11,223.78h-9s6.59-3.4,7.89-3.16S44.11,223.78,44.11,223.78Z"/><path class="cls-22" d="M77.36,183.66c-2.34-25.17,8.1-42.14,8.1-42.14-4.27,3.34-14,21.1-19.07,47.46C70.08,187.25,73.79,185.44,77.36,183.66Z"/><path class="cls-12" d="M50.24,59.92a2.23,2.23,0,0,0-3-.88,2.25,2.25,0,0,0-.82,3.06,2.21,2.21,0,0,0,3,.87A2.24,2.24,0,0,0,50.24,59.92Z"/><path class="cls-22" d="M59.44,74.41c7.58,5.14,13.64,6.45,21.41,4.87A55.35,55.35,0,0,1,59.44,74.41Z"/><path class="cls-22" d="M75,74.67c3.84,4.37,6.92,5.07,10.86,2.7A14.85,14.85,0,0,1,75,74.67Z"/><path class="cls-2" d="M49.17,60.52a1,1,0,1,0-1.71,1,1,1,0,0,0,1.34.39A1,1,0,0,0,49.17,60.52Z"/><path class="cls-12" d="M34.92,95C26.8,91.14,17.2,94.9,17.2,94.9s16.7,15.53,32.3,25.45l1.15-.93S39.75,97.26,34.92,95Z"/><path class="cls-2" d="M41,112.19c-7.17-7.1-12.42-14.38-14-18.93A28.61,28.61,0,0,0,17.2,94.9s16.7,15.53,32.3,25.45L50,120A87.5,87.5,0,0,1,41,112.19Z"/><path class="cls-31" d="M50.61,58.2A40.21,40.21,0,0,0,64.78,58c5.93-1.12,9.29-6,7.46-6.25-9.2-5.82-12-15.88-12-15.88l-2.7.43s3.75,10.84-.8,17.34A58.85,58.85,0,0,0,50.61,58.2Z"/><path class="cls-19" d="M65.78,44.15a11.48,11.48,0,0,1-8.28-7.87c-.81-2.85-.81-11,4.16-12s6,5.26,6.79,9.15C69.4,38,65.78,44.15,65.78,44.15Z"/><path class="cls-19" d="M56.18,34.31a1.25,1.25,0,0,0-2.3,1c.43,1.28,2.6,1.8,2.86,1.19S56.44,34.75,56.18,34.31Z"/><path class="cls-32" d="M55.91,34.85a.68.68,0,0,0-1.25.53c.24.7,1.42,1,1.56.65S56.06,35.09,55.91,34.85Z"/><path class="cls-19" d="M56.21,35.48a.47.47,0,0,0-.86.37c.16.49,1,.68,1.08.45S56.32,35.65,56.21,35.48Z"/><path class="cls-33" d="M66.85,32.92c-.18-.86-.72-1.5-1.21-1.44s-.75.81-.57,1.67.71,1.5,1.2,1.43S67,33.77,66.85,32.92Z"/><path class="cls-33" d="M62,33.53c-.17-1-.74-1.77-1.28-1.73s-.83.86-.66,1.85.75,1.76,1.28,1.73S62.19,34.51,62,33.53Z"/><path class="cls-33" d="M59.17,33.46s1.45-1.58,2.93-1.2a1.38,1.38,0,0,0-1.5-.76C59.56,31.73,59.17,33.46,59.17,33.46Z"/><path class="cls-33" d="M67.37,32.35s-1.88-.92-2.94-.28a1.12,1.12,0,0,1,1-.95C66.44,31,67.37,32.35,67.37,32.35Z"/><path class="cls-16" d="M58.1,31.48l0-.2a6.72,6.72,0,0,1,4.48-.88l-.24.78A6.34,6.34,0,0,0,58.1,31.48Z"/><path class="cls-16" d="M67.43,29.86a4,4,0,0,0-3.28,1l-.47-.58a4.19,4.19,0,0,1,3.67-.7Z"/><path class="cls-32" d="M65.26,35.62s0,.05,0,.08a.87.87,0,0,1-1.11.78,1.23,1.23,0,0,1-.77-.61,1.23,1.23,0,0,0,.93,1.18.86.86,0,0,0,1.11-.77A1.25,1.25,0,0,0,65.26,35.62Z"/><path class="cls-34" d="M62.55,38.68l3.4-.34s-.07,1.87-1.46,2S62.55,38.68,62.55,38.68Z"/><path class="cls-35" d="M62.79,38.73l2.89-.28s.34.78-1.29,1S62.79,38.73,62.79,38.73Z"/><path class="cls-36" d="M65.29,41.16c0-.22-.29,0-.66.07s-.68-.17-.65.06.34.38.71.35S65.32,41.39,65.29,41.16Z"/><path class="cls-12" d="M47.64,116.15c.82,2.2.15,5.42,1.08,6.68.74,1,4.29,1,4.56.27s-4.39-7-4.39-7Z"/><path class="cls-12" d="M50.17,118.07a63,63,0,0,0,5.5,3.43c.56.36.2.62-1.51.07s-2.13-1.15-2.7-.63S49.31,117.39,50.17,118.07Z"/><path class="cls-12" d="M51.29,121.88c1,1.27,3.33,4.4,3.79,4.17s-2.78-4.86-2.78-4.86Z"/><path class="cls-12" d="M50.14,122.46c.56,1.35,1.91,4.66,2.4,4.5s-1.26-5-1.26-5Z"/><path class="cls-12" d="M48.44,122.27c.28,1.84,1.11,4.74,1.62,4.58s-.41-5.19-.41-5.19Z"/><path class="cls-12" d="M135.81,96.56c0-.33-.65-.6-1.46-.6s-1.47.27-1.47.6.66.61,1.47.61S135.81,96.9,135.81,96.56Z"/><path class="cls-12" d="M131.63,98.46c.33,0,.66-.8.74-1.81s0-1.38-.32-1.39-.82.33-.89,1.34S131.3,98.45,131.63,98.46Z"/><path class="cls-12" d="M135.37,98.15c0-.33-.66-.6-1.47-.6s-1.46.27-1.46.6.65.6,1.46.6S135.37,98.48,135.37,98.15Z"/><ellipse class="cls-12" cx="133.56" cy="99.39" rx="1.46" ry="0.6"/></g></g></g></svg>