<svg xmlns="http://www.w3.org/2000/svg" viewBox="0 0 146.85 211.45"><defs><style>.cls-1{isolation:isolate;}.cls-2{fill:#ff9566;}.cls-3{fill:#ffefae;}.cls-4{fill:#ffe094;}.cls-5{fill:#ffb882;}.cls-6{fill:#ffad40;}.cls-7{fill:#fc8a35;}.cls-8{fill:#ffdd7d;}.cls-9{fill:#843d44;}.cls-10{fill:#6d2933;}.cls-11{fill:#ffe05c;}.cls-12{fill:#e2632b;}.cls-13{fill:#ffcb4a;}.cls-14{fill:#ffac3e;}.cls-15{fill:#fcdd9a;}.cls-16{fill:#fff1ab;}.cls-17{fill:#ffe576;}.cls-18{fill:#c94343;opacity:0.6;mix-blend-mode:multiply;}.cls-19{fill:#ea7b59;}.cls-20{fill:#66423b;}.cls-21{fill:#491d2e;}.cls-22{fill:#ffebeb;}.cls-23{fill:#ef8f6f;}.cls-24{fill:#fff4c5;}</style></defs><title>DEMETER</title><g class="cls-1"><g id="Layer_2" data-name="Layer 2"><g id="_1" data-name="1"><path class="cls-2" d="M22.73,99.55a.84.84,0,0,0-1,0,.58.58,0,0,0-.18.88.82.82,0,0,0,1,0A.59.59,0,0,0,22.73,99.55Z"/><path class="cls-2" d="M23.31,100.7a.84.84,0,0,0-1,0,.58.58,0,0,0-.18.88.81.81,0,0,0,1,0A.57.57,0,0,0,23.31,100.7Z"/><path class="cls-2" d="M22.2,98.4a.84.84,0,0,0-1,0,.59.59,0,0,0-.19.88.82.82,0,0,0,1,0A.57.57,0,0,0,22.2,98.4Z"/><path class="cls-2" d="M26,96.82c-.95,1-2,4.41-3,4.64-.74.18-1.41-2.19-1.56-2.95s3.35-2.31,3.35-2.31Z"/><path class="cls-3" d="M129.77,71s6.22.26,9.87-2.75C139.64,68.27,131,65,129.77,71Z"/><path class="cls-3" d="M128.68,69s2.14-5.58,6.46-6.92C135.14,62.1,135,71.66,128.68,69Z"/><path class="cls-3" d="M134.28,67.4s4.34.19,6.88-1.92C141.16,65.48,135.13,63.17,134.28,67.4Z"/><path class="cls-3" d="M133,67.44s1.31-4,4.26-5.08C137.22,62.36,137.43,69,133,67.44Z"/><path class="cls-3" d="M136.47,65.41s1.34-2.74,3.6-3.19C140.07,62.22,139.58,67.12,136.47,65.41Z"/><path class="cls-3" d="M126.78,64.45s6.08,1.42,10.15-.87C136.93,63.58,128.92,58.69,126.78,64.45Z"/><path class="cls-3" d="M126,62.27s3-5.1,7.43-5.62C133.45,56.65,131.82,66.05,126,62.27Z"/><path class="cls-3" d="M131.79,61.72s4.24,1,7.07-.6C138.86,61.12,133.28,57.71,131.79,61.72Z"/><path class="cls-3" d="M130.47,61.51s1.91-3.66,5-4.2C135.46,57.31,134.64,63.91,130.47,61.51Z"/><path class="cls-3" d="M134.25,60.17s1.74-2.46,4-2.47C138.29,57.7,137.05,62.44,134.25,60.17Z"/><path class="cls-3" d="M127.32,53.23s6.06,1.54,10.16-.67C137.48,52.56,129.56,47.51,127.32,53.23Z"/><path class="cls-3" d="M126.59,51s3.06-5,7.52-5.47C134.11,45.57,132.32,54.93,126.59,51Z"/><path class="cls-3" d="M132.37,50.61s4.22,1.08,7.08-.47C139.45,50.14,133.93,46.62,132.37,50.61Z"/><path class="cls-3" d="M131.06,50.37s2-3.63,5.06-4.1C136.12,46.27,135.18,52.85,131.06,50.37Z"/><path class="cls-3" d="M134.85,49.1s1.79-2.41,4.09-2.39C138.94,46.71,137.62,51.42,134.85,49.1Z"/><path class="cls-3" d="M125.54,48.35s4.45,1.14,7.46-.49C133,47.86,127.18,44.15,125.54,48.35Z"/><path class="cls-3" d="M125,46.74s2.25-3.7,5.53-4C130.53,42.72,129.21,49.6,125,46.74Z"/><path class="cls-3" d="M129.25,46.42s3.1.8,5.2-.34C134.45,46.08,130.39,43.49,129.25,46.42Z"/><path class="cls-3" d="M128.28,46.25s1.45-2.67,3.72-3C132,43.23,131.31,48.08,128.28,46.25Z"/><path class="cls-3" d="M131.07,45.32s1.31-1.78,3-1.76C134.07,43.56,133.1,47,131.07,45.32Z"/><path class="cls-3" d="M124.59,43.2s5.06,1.73,8.69.25C133.28,43.45,126.86,38.71,124.59,43.2Z"/><path class="cls-3" d="M124.1,41.35s2.94-3.87,6.77-3.87C130.87,37.48,128.74,45,124.1,41.35Z"/><path class="cls-3" d="M129.06,41.45s3.52,1.21,6.06.18C135.12,41.63,130.64,38.32,129.06,41.45Z"/><path class="cls-3" d="M128,41.16s1.91-2.81,4.58-3C132.53,38.2,131.31,43.51,128,41.16Z"/><path class="cls-3" d="M131.27,40.42s1.68-1.84,3.63-1.64C134.9,38.78,133.47,42.53,131.27,40.42Z"/><path class="cls-3" d="M123.36,35.9s3.18-3.53,6.72-3.38C130.08,32.52,127.23,39.5,123.36,35.9Z"/><path class="cls-3" d="M123.83,37.89s4.11,2.75,7.12,1.38C131,39.27,125.8,32.65,123.83,37.89Z"/><path class="cls-3" d="M127.69,36s2.21-2.45,4.68-2.35C132.37,33.65,130.39,38.52,127.69,36Z"/><path class="cls-3" d="M127,36.69s2.81,2.08,5,1.27C131.93,38,128.5,33.17,127,36.69Z"/><path class="cls-3" d="M129.91,36.23s2.17,1.2,3.61.3C133.52,36.53,130.66,33.36,129.91,36.23Z"/><path class="cls-3" d="M126.55,58.6s4.68,1.1,7.81-.67C134.36,57.93,128.2,54.17,126.55,58.6Z"/><path class="cls-3" d="M126,56.93s2.3-3.92,5.72-4.32C131.68,52.61,130.42,59.83,126,56.93Z"/><path class="cls-3" d="M130.4,56.51s3.27.76,5.44-.47C135.84,56,131.55,53.42,130.4,56.51Z"/><path class="cls-3" d="M129.39,56.35s1.47-2.83,3.84-3.24C133.23,53.11,132.6,58.19,129.39,56.35Z"/><path class="cls-3" d="M132.3,55.31s1.34-1.89,3.11-1.9C135.41,53.41,134.45,57.05,132.3,55.31Z"/><path class="cls-4" d="M130.07,74.09s5.56,2.8,9.91,1.55C140,75.64,133.25,69.06,130.07,74.09Z"/><path class="cls-4" d="M129.76,71.82s3.86-4.2,8.23-3.64C138,68.18,134.59,76.81,129.76,71.82Z"/><path class="cls-4" d="M135.41,72.65s3.87,2,6.91,1.09C142.32,73.74,137.63,69.15,135.41,72.65Z"/><path class="cls-4" d="M134.19,72.14s2.54-3.07,5.61-2.86C139.8,69.28,137.71,75.43,134.19,72.14Z"/><path class="cls-4" d="M138.07,71.74s2.16-1.95,4.37-1.42C142.44,70.32,140.32,74.58,138.07,71.74Z"/><path class="cls-4" d="M121.71,77.13s5.36,3.46,9.87,2.7C131.58,79.83,125.4,72.41,121.71,77.13Z"/><path class="cls-4" d="M121.61,74.8s4.3-3.8,8.67-2.75C130.28,72.05,126,80.4,121.61,74.8Z"/><path class="cls-4" d="M127.24,76.29s3.74,2.41,6.88,1.88C134.12,78.17,129.81,73,127.24,76.29Z"/><path class="cls-4" d="M126.05,75.63s2.87-2.82,6-2.25C132,73.38,129.31,79.36,126.05,75.63Z"/><path class="cls-4" d="M130,75.66s2.36-1.72,4.55-.93C134.57,74.73,132,78.79,130,75.66Z"/><path class="cls-4" d="M125.58,75s6.18-.78,9.37-4.38C135,70.57,125.94,68.75,125.58,75Z"/><path class="cls-4" d="M124.22,73.16s1.34-5.87,5.42-7.92C129.64,65.24,130.82,74.71,124.22,73.16Z"/><path class="cls-4" d="M129.54,70.62s4.31-.55,6.53-3.05C136.07,67.57,129.79,66.29,129.54,70.62Z"/><path class="cls-4" d="M128.23,70.89s.74-4.15,3.51-5.74C131.74,65.15,132.87,71.7,128.23,70.89Z"/><path class="cls-4" d="M131.42,68.28s.94-2.93,3.11-3.75C134.53,64.53,134.73,69.45,131.42,68.28Z"/><path class="cls-3" d="M116,38.67s6.21.46,9.94-2.44C125.91,36.23,117.35,32.64,116,38.67Z"/><path class="cls-3" d="M114.94,36.63s2.29-5.5,6.63-6.71C121.57,29.92,121.17,39.47,114.94,36.63Z"/><path class="cls-3" d="M120.58,35.2s4.33.32,6.92-1.7C127.5,33.5,121.54,31,120.58,35.2Z"/><path class="cls-3" d="M119.25,35.19s1.42-3.92,4.4-4.93C123.65,30.26,123.68,36.92,119.25,35.19Z"/><path class="cls-3" d="M122.82,33.27s1.4-2.69,3.68-3.07C126.5,30.2,125.88,35.08,122.82,33.27Z"/><path class="cls-3" d="M107,46.52s5.7-2.48,7.66-6.78C114.68,39.74,105.43,40.54,107,46.52Z"/><path class="cls-3" d="M105.15,45.2s-.53-5.94,2.75-9C107.9,36.17,112,44.82,105.15,45.2Z"/><path class="cls-3" d="M109.48,41.3s4-1.72,5.34-4.72C114.82,36.58,108.37,37.13,109.48,41.3Z"/><path class="cls-3" d="M108.3,41.92s-.57-4.14,1.6-6.42C109.9,35.5,113,41.39,108.3,41.92Z"/><path class="cls-3" d="M110.56,38.56s0-3,1.83-4.43C112.39,34.13,114.12,38.74,110.56,38.56Z"/><path class="cls-3" d="M101,51.89s4.61-2.4,4.22-9.49c0,0-3.78,1.75-4.6,5.4C99.64,52.26,101.58,52.54,101,51.89Z"/><path class="cls-5" d="M23.59,99.24C43.31,80.91,77.25,42.84,78,40.77s-15.05,2.65-16.7,5S23,98.53,23,98.53Z"/><path class="cls-2" d="M61.33,45.82c-.55.8-5,6.9-10.65,14.7.77,3.09,1.22,5.9.92,6.67-.5,1.32-14.32,15.68-28.94,31.09l.93,1C43.31,80.91,77.25,42.84,78,40.77S63,43.42,61.33,45.82Z"/><path class="cls-6" d="M3.85,18.9c.68,4.56,4.4,7.79,8.3,7.2s6.51-4.76,5.83-9.32S13.57,9,9.67,9.57,3.16,14.33,3.85,18.9Z"/><path class="cls-7" d="M13.28,18.58c-3.57.53-7-2.14-8.06-6.1A9.05,9.05,0,0,0,3.85,18.9c.68,4.56,4.4,7.79,8.3,7.2s6.51-4.76,5.83-9.32a10.12,10.12,0,0,0-.25-1.12A6.57,6.57,0,0,1,13.28,18.58Z"/><path class="cls-8" d="M11.28,13.24a6.1,6.1,0,0,1,1.59-2.74,4.88,4.88,0,0,0-2.7-.39,5,5,0,0,0-2.73,1.4,6.08,6.08,0,0,0,3.61,3A7,7,0,0,1,11.28,13.24Z"/><path class="cls-8" d="M13.69,11a7,7,0,0,0-.87,2.73,8.22,8.22,0,0,0,0,1h.26a5,5,0,0,0,2.73-1.4A6.44,6.44,0,0,0,13.69,11Z"/><path class="cls-6" d="M23.65,23.53c-5-1-18.77,1.09-23.24,3.49-.86.45-.25,4.16.71,4.32l4.34.06,7.16,9.26L17,63.55l1.43-.22L16,40.15,20.1,29.2l4.14-1.33C25.1,27.43,24.6,23.72,23.65,23.53Z"/><path class="cls-8" d="M18.88,25.8a50,50,0,0,1,5.21-.22c-.16-.8-.47-1.51-.87-1.58a22.35,22.35,0,0,0-4.64-.18Z"/><path class="cls-8" d="M16.25,24C10.61,24.47,3.81,25.85,1,27.34c-.35.18-.45.9-.38,1.68a96.71,96.71,0,0,1,16-3Z"/><path class="cls-6" d="M25.16,54.5c-3.76-1-14.07.53-17.37,2.61a1,1,0,0,0,.3,1.71l3.25.08L16.57,65l22.7,146.32,1.07-.16L19.08,64.62l3.21-7.36,3.08-1A1,1,0,0,0,25.16,54.5Z"/><path class="cls-7" d="M16.51,58a37.7,37.7,0,0,1-8.94.38.83.83,0,0,0,.52.43l3.25.08L16.57,65l1.66,10.65c.24-1.71.63-2.67,1.17-2.75.29,0,.62.18,1,.63l-1.29-8.91,3.21-7.36,3.08-1a.89.89,0,0,0,.4-.75A35.85,35.85,0,0,1,16.51,58Z"/><path class="cls-8" d="M21.39,56.07c1.47-.31,2.76-.63,3.76-.94a.74.74,0,0,0-.46-.34,15.86,15.86,0,0,0-3.52-.18Z"/><path class="cls-8" d="M18.94,54.76c-4,.39-8.63,1.38-10.62,2.49a.7.7,0,0,0-.33.43,60.69,60.69,0,0,0,8.74-.78c.85-.13,1.68-.26,2.47-.4Z"/><path class="cls-7" d="M1.12,31.34l4.34.06,7.16,9.26.45,2.3c.36-1.09.85-1.77,1.46-1.86s1.08.27,1.65.95L16,40.15,20.1,29.2l4.14-1.33C18,26.2,4.74,28.54,1.12,31.34Z"/><path class="cls-9" d="M92.93,15c-.47-6-4-5.51-4-5.51S88.75,3.05,82.85.68s-6.32,2.23-6.32,2.23-3.43-1.22-6,.49-1.79,5.22-1.79,5.22a6.88,6.88,0,0,0-2.45,5.9c.11,4.05,3.63,6.91,3.63,6.91s2.22,5.91,10,9.07l1.44-.23c9.35-1.62,8.69-6.76,8.69-6.76S93.39,20.78,92.93,15Z"/><path class="cls-10" d="M69.32,9.86a8.31,8.31,0,0,1-.79-1,3.9,3.9,0,0,0-.49.5,6.51,6.51,0,0,0,5,2.82A7.25,7.25,0,0,1,69.32,9.86Z"/><path class="cls-10" d="M76,3.89c1.81,2,2.35,4.6,1.51,6.39a6.28,6.28,0,0,0,.28-7.69,6.5,6.5,0,0,0-.81-1,3.72,3.72,0,0,0-.43,1.3,8.62,8.62,0,0,0-2.17-.4A8,8,0,0,1,76,3.89Z"/><path class="cls-10" d="M92.93,15c-.47-6-4-5.51-4-5.51A11,11,0,0,0,86,2.78a7.14,7.14,0,0,1,.75,3.66,7.83,7.83,0,0,1-3.23,5.94s.38,3.49-2.45,5.24a8.61,8.61,0,0,1-6.43.66s-.71,3.5-4.94,2.93l.25.22s2.22,5.91,10,9.07l1.44-.23c9.35-1.62,8.69-6.76,8.69-6.76S93.39,20.78,92.93,15Z"/><path class="cls-2" d="M107.7,63.46C106.35,59.32,97.21,46.78,85,37l-.75,11.41C88.5,50.53,100.33,62,102,65s2.22,21.47,2.22,21.47l.66.18C105.83,83.79,109,67.6,107.7,63.46Z"/><path class="cls-5" d="M85,37l-.17,2.61c.56,1.66,1.2,4.39,2.51,6.21,3.25,4.46,8.56,5.11,10.37,3.39A106.32,106.32,0,0,0,85,37Z"/><path class="cls-3" d="M116.94,33.45C102.94,42.58,86.61,62,72,90.38l1,11.07c11.53-12.94,58.42-25,58.42-25C140.14,69.11,134.62,36.75,116.94,33.45Z"/><path class="cls-4" d="M89.15,71.57a14.18,14.18,0,0,1-2.88-5.44A235.62,235.62,0,0,0,72,90.38l1,11.07c11.53-12.94,58.42-25,58.42-25a7.93,7.93,0,0,0,1.41-1.57C114.72,82.49,96.47,80.22,89.15,71.57Z"/><path class="cls-5" d="M83.19,61.46C88,53.08,88.71,41,87.17,39a27.59,27.59,0,0,0-7.77-6c-1.75-.71-10.45,1.71-11.19,3.82S62.72,61.66,83.19,61.46Z"/><path class="cls-5" d="M79.37,21.41l4.92-4.75c2.07,8.62-3.39,15.9,1.89,21.94l-16.9-3.2C82.65,32.22,79.37,21.41,79.37,21.41Z"/><path class="cls-2" d="M79.88,53.64c-4,0-13.92-8.86-9.07-18.75-1.34.62-2.37,1.32-2.6,2-.73,2.12-5.49,24.79,15,24.59A42,42,0,0,0,88.34,45C87.53,47.12,83.35,53.64,79.88,53.64Z"/><path class="cls-11" d="M37.47,165.54c0,5.12,3.74,45.86,3.74,45.86H90.33Z"/><path class="cls-12" d="M39.12,165.54c0,5.12,5,45.86,5,45.86H92Z"/><path class="cls-5" d="M43,109.37c-2.52,28.13,3.57,67.11,11.46,102H55l4.35-97.07Z"/><path class="cls-2" d="M55.75,194.64l3.6-80.31-16.38-5c-1.84,20.5.9,46.75,5.57,73A52.56,52.56,0,0,1,55.75,194.64Z"/><path class="cls-11" d="M90.33,211.4H143.8s1.66-1.86.83-2.48-21-5.8-23.28-11-15.93-41.56-19.44-51.28S95.57,81.59,78.61,72.9L83,60.84s-9.07-4-20.4,1.65c-5.61,2.8-11.34,8.75-15.72,17.38-13.24,26.05-9.86,84.58-9.24,86.44S90.33,211.4,90.33,211.4Z"/><path class="cls-13" d="M84.12,159.49c-19.64-20.27-23.57-53.36-23.57-53.36-1.24,32.26,17.71,84.72,37.71,105.27Z"/><path class="cls-13" d="M70.88,191.86C50.79,167.2,45.51,126,45.51,126c-.58,14.81,2.63,33.85,8,52.52C60.75,185.75,70.88,191.86,70.88,191.86Z"/><path class="cls-13" d="M145.68,207.79c-.82-.62-23.3-8.91-25.57-14.08s-14.69-37.32-18.2-47-5.59-65.36-22.54-74L83.78,60.5a28.66,28.66,0,0,0-21.23,2,31.72,31.72,0,0,0-10.37,8.92c2.47-1.16,9.06-1.51,11.74.25,28.87,18.88,5.93,90.52,31.87,139.74h48S146.51,208.41,145.68,207.79Z"/><path class="cls-14" d="M82.29,74.71a13.26,13.26,0,0,0-2.92-2.08L83.78,60.5a28.66,28.66,0,0,0-21.23,2,30.64,30.64,0,0,0-9.44,7.79C62.46,66.75,67.42,70.25,82.29,74.71Z"/><path class="cls-11" d="M70.27,35.06C65.09,48.18,76.49,51.92,84,59.52a2.66,2.66,0,0,1,.48,3.06c-.93,1.84-2.49,4.64-3.75,5.36-1.93,1.1-23.1-3.52-25-4.89s-3.45-6.62-3.45-9,15.86-18.61,17-19S70.27,35.06,70.27,35.06Z"/><path class="cls-13" d="M68.68,35.41c-.74.61-2.16,2-3.88,3.71-2.14,7.22-.6,11.45-.6,11.45S63.14,45,68.68,35.41Z"/><path class="cls-13" d="M58.42,53.6A31.3,31.3,0,0,0,80.71,64.48l3.06-2.13C72.32,63.2,58.42,53.6,58.42,53.6Z"/><path class="cls-13" d="M82.13,63.22c-2.19,1-18.84.36-28.39-6.77a6.42,6.42,0,0,1-1.5-1.71c.23,2.55,1.44,7.18,3.2,8.44C57.37,64.56,79,69.39,81,68.28c1.26-.72,2.55-3.86,3.48-5.7a2.63,2.63,0,0,0,.2-1.8A7.67,7.67,0,0,1,82.13,63.22Z"/><path class="cls-15" d="M98.26,211.4h46.37s3.1-2.38,2-3.42-22.24.94-22.24.94l-36.61-4.14Z"/><path class="cls-16" d="M37.18,161.79a41.27,41.27,0,0,0,.41,4.52c.62,1.86,52.74,45.09,52.74,45.09h7.93C85.55,201.32,43.68,168,37.18,161.79Z"/><path class="cls-2" d="M74.24,33.58c-3.76,3.64,2.29,11.05,11,3.66a1.9,1.9,0,0,1,1.08.79s-5,10.61-12.55,6.89c-7-3.43-1.3-10.29-1.3-10.29A10.81,10.81,0,0,1,74.24,33.58Z"/><path class="cls-3" d="M74,33.67c-3.76,3.65,2.4,10.62,11.08,3.22a1.05,1.05,0,0,1,.93.79s-4.32,10-12.56,6.67c-6.67-2.74-1-10.19-1-10.19A3.87,3.87,0,0,1,74,33.67Z"/><path class="cls-5" d="M85.35,21.29c-.79-2,.64-4.33,1.7-3.54a2.08,2.08,0,0,1,0,3A2.8,2.8,0,0,1,85.35,21.29Z"/><path class="cls-17" d="M76.25,40.11l-1.59,4.53a10.81,10.81,0,0,1-2.48-1.22l2.7-3.83Z"/><path class="cls-17" d="M73.13,37.71l-2.66.42a6.49,6.49,0,0,0-.17,2.1l3.17-1.9Z"/><path class="cls-17" d="M78.52,40.18l.38,4.48a10.69,10.69,0,0,0,2.31-1.26L79.64,40Z"/><polygon class="cls-17" points="82.33 38.94 83.97 40.88 84.78 39.76 83.32 38.39 82.33 38.94"/><polygon class="cls-17" points="72.83 35.57 73.06 34.87 71.98 34.82 71.55 35.67 72.83 35.57"/><path class="cls-18" d="M86.22,38a2.91,2.91,0,0,0-.24-.27h0a1.05,1.05,0,0,0-.93-.79h0l-.13-.11c-.11-.2-.21-.41-.3-.62,0,0,0,0,0,0-.08-.19-.16-.38-.23-.57l0-.08c-.07-.19-.12-.37-.17-.56l0-.09c-.05-.19-.09-.37-.13-.55a.43.43,0,0,0,0-.11c0-.18-.06-.36-.08-.55s0-.07,0-.11l-.06-.55a.49.49,0,0,0,0-.12c0-.18,0-.36,0-.55s0-.08,0-.12v-.68c0-.19,0-.38,0-.57a.49.49,0,0,1,0-.12l0-.57a.57.57,0,0,0,0-.13l.06-.56c0-.05,0-.1,0-.16l.06-.5c0-.07,0-.15,0-.22s0-.21,0-.32c.46-3.58,1.24-7.46.23-11.66l-4.92,4.75a11.47,11.47,0,0,1-.14,6.15h0A10.42,10.42,0,0,1,74,33.67a3.9,3.9,0,0,0-1.56.49l-.09.13c-.29.1-.56.21-.84.32a5.79,5.79,0,0,0-.39,4.87c1.69,4,8.63,4.77,15.49,1.84a25,25,0,0,0,2.26-1.12C88,39.44,87.1,38.69,86.22,38Z"/><path class="cls-5" d="M76.86,29.38c4.49-1.42,7.65-6,7.91-8.62s-.49-9-5.55-9.47-5.63,4.36-5.7,8C73.43,23.52,76.86,29.38,76.86,29.38Z"/><path class="cls-19" d="M85.64,20.83c-.44-1.11.36-2.42,1-2a1.16,1.16,0,0,1,0,1.69A1.53,1.53,0,0,1,85.64,20.83Z"/><path class="cls-5" d="M85.61,20.92c-.29-.73.24-1.59.63-1.3a.75.75,0,0,1,0,1.11A1,1,0,0,1,85.61,20.92Z"/><path class="cls-16" d="M48.76,174.17c-10.24-14.06-10.23-39.76-10.57-58.71-2.56,24.55-1,49.59-.6,50.85l1.38.28Z"/><path class="cls-13" d="M49.72,78c4.83-6.06,14.83-7,21-2.48S78,93.72,78,93.72s-6-16.06-13.58-18.2S49.72,78,49.72,78Z"/><path class="cls-20" d="M75.29,18.47c.1-.79.56-1.4,1-1.36s.76.73.66,1.53S76.41,20,76,20,75.19,19.27,75.29,18.47Z"/><path class="cls-20" d="M79.85,18.9c.09-.92.56-1.65,1.07-1.63s.84.77.75,1.69-.57,1.65-1.07,1.64S79.76,19.82,79.85,18.9Z"/><path class="cls-20" d="M82.51,18.76a4.35,4.35,0,0,0-2.85-1.2,1.25,1.25,0,0,1,1.44-.44C82.11,17.4,82.51,18.76,82.51,18.76Z"/><path class="cls-20" d="M74.77,17.74a3.85,3.85,0,0,1,2.73-.35,1.13,1.13,0,0,0-1.14-.72C75.43,16.66,74.77,17.74,74.77,17.74Z"/><path class="cls-9" d="M83.18,17l.07-.19a3.86,3.86,0,0,0-2.32-2.35l-.15.69A3.5,3.5,0,0,1,83.18,17Z"/><path class="cls-9" d="M74.1,16.21a2.68,2.68,0,0,1,2.26-1.27l0-.7A3.1,3.1,0,0,0,74,16Z"/><path class="cls-19" d="M77,21.26a.22.22,0,0,0,0,.08.85.85,0,0,0,1.09.69,1.06,1.06,0,0,0,.67-.59A1.06,1.06,0,0,1,78,22.56a.86.86,0,0,1-1.1-.68A1.09,1.09,0,0,1,77,21.26Z"/><path class="cls-21" d="M79.57,24.23,76.37,24s.2,1.72,1.51,1.77S79.57,24.23,79.57,24.23Z"/><path class="cls-22" d="M79.35,24.29l-2.72-.19s-.26.74,1.28.87S79.35,24.29,79.35,24.29Z"/><path class="cls-23" d="M77.13,26.29c0-.21.28,0,.62,0s.63-.18.62,0-.3.36-.64.34S77.12,26.5,77.13,26.29Z"/><path class="cls-9" d="M78.68,9.59c-3.55,1-2.69,4.34-1.21,5.23a2.8,2.8,0,0,0,3-.31c-2.24,0-1.62-2.72.21-3.1S78.68,9.59,78.68,9.59Z"/><path class="cls-5" d="M55,211.45H48.34s4.49-2.17,5.53-2S55,211.45,55,211.45Z"/><path class="cls-6" d="M88.59,15.76A6.42,6.42,0,0,0,85.82,14a5.78,5.78,0,0,0,1,3.13,1.35,1.35,0,0,0,1.64.27A1.35,1.35,0,0,0,88.59,15.76Z"/><path class="cls-6" d="M90.39,14.41a6.07,6.07,0,0,0-1.08-2.89,5.47,5.47,0,0,0-1.06,2.89,1.07,1.07,0,1,0,2.14,0Z"/><path class="cls-6" d="M90.31,18.2a4.67,4.67,0,0,0-.17-2.53,10.59,10.59,0,0,0-1.55,3.09c-.18.75.42.88.59.82A2.33,2.33,0,0,0,90.31,18.2Z"/><path class="cls-6" d="M88.3,12.47a6.12,6.12,0,0,0-1.47-2.71,5.43,5.43,0,0,0-.64,3,1.07,1.07,0,1,0,2.11-.31Z"/><path class="cls-6" d="M86.11,8.7a6.22,6.22,0,0,0-2-2.32,5.45,5.45,0,0,0,0,3.09,1.27,1.27,0,0,0,1.41.67A1.25,1.25,0,0,0,86.11,8.7Z"/><path class="cls-6" d="M83.29,7.85A7.24,7.24,0,0,0,80.61,5.7a6.42,6.42,0,0,0,.77,3.35A1.39,1.39,0,0,0,83,9.53,1.39,1.39,0,0,0,83.29,7.85Z"/><path class="cls-6" d="M85.13,11a6.16,6.16,0,0,0-3.09-.2,5.42,5.42,0,0,0,2.23,2.15,1.26,1.26,0,0,0,1.47-.51A1.27,1.27,0,0,0,85.13,11Z"/><path class="cls-6" d="M72.87,10.87a10.25,10.25,0,0,0,1-3.6,5.17,5.17,0,0,0-2.33,2,2.06,2.06,0,0,0,0,1.9A.86.86,0,0,0,72.87,10.87Z"/><path class="cls-6" d="M71.27,12.89a5.63,5.63,0,0,0-.9-2.61,8.48,8.48,0,0,0-.76,3.21.77.77,0,0,0,.86.84A1.79,1.79,0,0,0,71.27,12.89Z"/><path class="cls-6" d="M71.34,14.2a4.34,4.34,0,0,1,1.64-2,10,10,0,0,1-.29,3.63.63.63,0,0,1-1.06.32A2.59,2.59,0,0,1,71.34,14.2Z"/><path class="cls-6" d="M71.47,16.86a4.94,4.94,0,0,0-1.74-1.93,9.88,9.88,0,0,0,.66,3.39c.32.72.9.47,1,.32A2.31,2.31,0,0,0,71.47,16.86Z"/><path class="cls-6" d="M71.73,20.32a6.36,6.36,0,0,1,.32-2.47,11.16,11.16,0,0,1,.78,2.71c.08.7-.28,1-.39,1A1.48,1.48,0,0,1,71.73,20.32Z"/><path class="cls-4" d="M120.2,77.26s4.34,2.2,7.74,1.22C127.94,78.48,122.68,73.32,120.2,77.26Z"/><path class="cls-4" d="M120,75.48s3-3.29,6.44-2.85C126.39,72.63,123.73,79.4,120,75.48Z"/><path class="cls-4" d="M124.37,76.14s3,1.53,5.4.85C129.77,77,126.1,73.39,124.37,76.14Z"/><path class="cls-4" d="M123.41,75.74s2-2.41,4.39-2.25C127.8,73.49,126.17,78.31,123.41,75.74Z"/><path class="cls-4" d="M126.45,75.42s1.68-1.53,3.41-1.11C129.86,74.31,128.21,77.65,126.45,75.42Z"/><path class="cls-4" d="M125.47,75.09s4.34,2.2,7.74,1.22C133.21,76.31,128,71.15,125.47,75.09Z"/><path class="cls-4" d="M125.23,73.31s3-3.29,6.43-2.86C131.66,70.45,129,77.23,125.23,73.31Z"/><path class="cls-4" d="M129.64,74s3,1.53,5.4.85C135,74.82,131.37,71.22,129.64,74Z"/><path class="cls-4" d="M128.69,73.57s2-2.41,4.38-2.25C133.07,71.32,131.44,76.14,128.69,73.57Z"/><path class="cls-4" d="M131.72,73.25s1.69-1.53,3.41-1.11C135.13,72.14,133.48,75.47,131.72,73.25Z"/><path class="cls-4" d="M101.48,79.64s4.34,2.2,7.74,1.22C109.22,80.86,104,75.7,101.48,79.64Z"/><path class="cls-4" d="M101.24,77.86s3-3.29,6.43-2.86C107.67,75,105,81.78,101.24,77.86Z"/><path class="cls-4" d="M105.65,78.52s3,1.53,5.4.85C111.05,79.37,107.38,75.77,105.65,78.52Z"/><path class="cls-4" d="M104.7,78.12s2-2.41,4.38-2.25C109.08,75.87,107.45,80.69,104.7,78.12Z"/><path class="cls-4" d="M107.73,77.8s1.69-1.53,3.41-1.11C111.14,76.69,109.49,80,107.73,77.8Z"/><path class="cls-4" d="M95.78,79.2s4.86-.27,7.31-2.82C103.09,76.38,96,74.54,95.78,79.2Z"/><path class="cls-4" d="M94.68,77.78s1-4.36,4.14-5.69C98.82,72.09,99.91,79.28,94.68,77.78Z"/><path class="cls-4" d="M98.83,76.14s3.39-.19,5.1-2C103.93,74.17,99,72.89,98.83,76.14Z"/><path class="cls-4" d="M97.8,76.27s.52-3.08,2.67-4.14C100.47,72.13,101.48,77.12,97.8,76.27Z"/><path class="cls-4" d="M100.27,74.47s.69-2.16,2.4-2.67C102.67,71.8,102.91,75.52,100.27,74.47Z"/><path class="cls-4" d="M87.3,71.89s4.26-2.37,5.35-5.73C92.65,66.16,85.43,67.62,87.3,71.89Z"/><path class="cls-4" d="M85.69,71.09s-1-4.34,1.24-6.93C86.93,64.16,91.05,70.16,85.69,71.09Z"/><path class="cls-4" d="M88.71,67.8s3-1.65,3.73-4C92.44,63.81,87.41,64.83,88.71,67.8Z"/><path class="cls-4" d="M87.84,68.37s-.88-3,.6-4.89C88.44,63.48,91.52,67.53,87.84,68.37Z"/><path class="cls-4" d="M89.28,65.67s-.32-2.24,1-3.45C90.27,62.22,92.11,65.47,89.28,65.67Z"/><path class="cls-4" d="M87.62,77.31s4.87,0,7.49-2.32C95.11,75,88.11,72.67,87.62,77.31Z"/><path class="cls-4" d="M86.61,75.82s1.26-4.29,4.52-5.4C91.13,70.42,91.73,77.67,86.61,75.82Z"/><path class="cls-4" d="M90.87,74.46s3.39,0,5.22-1.62C96.09,72.84,91.21,71.23,90.87,74.46Z"/><path class="cls-4" d="M89.83,74.52s.73-3,3-4C92.78,70.57,93.44,75.62,89.83,74.52Z"/><path class="cls-4" d="M92.42,72.9s.84-2.11,2.57-2.51C95,70.39,95,74.12,92.42,72.9Z"/><path class="cls-3" d="M93.8,61.8s3.68-3.18,4.08-6.69C97.88,55.11,91.1,58,93.8,61.8Z"/><path class="cls-3" d="M92.06,61.35s-1.89-4.05-.19-7C91.87,54.31,97.12,59.35,92.06,61.35Z"/><path class="cls-3" d="M94.35,57.51s2.57-2.21,2.84-4.66C97.19,52.85,92.47,54.86,94.35,57.51Z"/><path class="cls-3" d="M93.61,58.24s-1.47-2.75-.4-4.91C93.21,53.33,97.05,56.68,93.61,58.24Z"/><path class="cls-3" d="M94.48,55.32s-.77-2.14.27-3.58C94.75,51.74,97.21,54.54,94.48,55.32Z"/><path class="cls-4" d="M109.12,81.37s4.18,2.72,7.71,2.13C116.83,83.5,112,77.67,109.12,81.37Z"/><path class="cls-4" d="M109,79.55s3.35-3,6.77-2.16C115.81,77.39,112.48,83.94,109,79.55Z"/><path class="cls-4" d="M113.44,80.71s2.92,1.9,5.37,1.48C118.81,82.19,115.45,78.13,113.44,80.71Z"/><path class="cls-4" d="M112.51,80.2s2.24-2.21,4.64-1.77C117.15,78.43,115.05,83.12,112.51,80.2Z"/><path class="cls-4" d="M115.61,80.23s1.85-1.35,3.55-.74C119.16,79.49,117.17,82.68,115.61,80.23Z"/><path class="cls-4" d="M116.3,80.11s4.83-.61,7.32-3.43C123.62,76.68,116.58,75.25,116.3,80.11Z"/><path class="cls-4" d="M115.24,78.71s1.05-4.61,4.23-6.22C119.47,72.49,120.39,79.92,115.24,78.71Z"/><path class="cls-4" d="M119.39,76.71s3.37-.42,5.1-2.39C124.49,74.32,119.59,73.32,119.39,76.71Z"/><path class="cls-4" d="M118.37,76.92s.58-3.25,2.74-4.5C121.11,72.42,122,77.56,118.37,76.92Z"/><path class="cls-4" d="M120.86,74.88s.74-2.3,2.43-2.94C123.29,71.94,123.45,75.8,120.86,74.88Z"/><path class="cls-24" d="M124.94,65a4.68,4.68,0,0,0,1.33-3.25,12.23,12.23,0,0,0,.86,2,5.25,5.25,0,0,0,1-2.4,17,17,0,0,0,.76,1.79,8,8,0,0,0,1.84-4.46l-.29-.1.3.05a14.47,14.47,0,0,0,.11-1.56,8.08,8.08,0,0,0,2.1-1.66,5.43,5.43,0,0,0-.81.75,10.15,10.15,0,0,0,.32-2,4.31,4.31,0,0,0-2.21,1.08,10.58,10.58,0,0,0,.21-1.08,3.82,3.82,0,0,0,.46-.21l-.39-.24,0-.27-.43.06-.56-.25a4.25,4.25,0,0,0,.78-1.79,2.94,2.94,0,0,0-2.17,1.12,7.41,7.41,0,0,0,.18-.86,6.79,6.79,0,0,0,1.26-.38,15,15,0,0,0-3.18-1.77,7.85,7.85,0,0,0,4.71,0,11.13,11.13,0,0,0-1.53-.92,4.26,4.26,0,0,0,1.08-1.87,3.43,3.43,0,0,0-2.64,1,7.78,7.78,0,0,0,.41-1.58,3.58,3.58,0,0,0-1.75.55l-.13-.15c.06-.18.11-.35.15-.5a2.54,2.54,0,0,0,1.16-.16,13.15,13.15,0,0,0-1.24-1.38,2.89,2.89,0,0,0,2.58,0,6.23,6.23,0,0,0-1.92-1.42,7.7,7.7,0,0,0,.62-1.42,5,5,0,0,0-3.58,1.65,10.43,10.43,0,0,0,1.38-2.8,5.33,5.33,0,0,0-2.87.68,11.61,11.61,0,0,0-1.32-.38,6.25,6.25,0,0,0,.7-2.64,4.12,4.12,0,0,0-2.65,2.07,11.09,11.09,0,0,0,0-2.07,4.61,4.61,0,0,0-2,1.5,14.35,14.35,0,0,0,.06-1.86,7.64,7.64,0,0,0-4.13,3.52q-1.66,1.21-3.35,2.68a8.2,8.2,0,0,0-.58-2.24,4.73,4.73,0,0,0-1.3,3.27,12.39,12.39,0,0,0-.87-2,5.13,5.13,0,0,0-1,2.4,16,16,0,0,0-.77-1.78A7.86,7.86,0,0,0,103.93,48l.31.11-.32-.05a15.88,15.88,0,0,0-.13,1.76,6.74,6.74,0,0,0-1.32.93,10.56,10.56,0,0,0-.29,1.76,4.42,4.42,0,0,0,2.23-1.06c-.1.4-.17.77-.23,1.07a3.68,3.68,0,0,0-.45.21l.38.24,0,.27c.15,0,.29,0,.43-.06a5.09,5.09,0,0,0,.57.26,4.06,4.06,0,0,0-.8,1.78,2.91,2.91,0,0,0,2.18-1.1,5.53,5.53,0,0,0-.18.86,5.91,5.91,0,0,0-1.26.37,14.9,14.9,0,0,0,3.16,1.79,7.83,7.83,0,0,0-4.71-.05A10.67,10.67,0,0,0,105,58a4.24,4.24,0,0,0-1.09,1.85,3.44,3.44,0,0,0,2.65-.95,7.87,7.87,0,0,0-.43,1.58,3.67,3.67,0,0,0,1.76-.53l.13.14c-.06.18-.11.35-.15.5a2.66,2.66,0,0,0-1.16.15,12,12,0,0,0,1.23,1.39,2.94,2.94,0,0,0-2.59,0,6.33,6.33,0,0,0,1.92,1.44,7.16,7.16,0,0,0-.63,1.41,5,5,0,0,0,3.6-1.62,10.19,10.19,0,0,0-1.41,2.79,5.47,5.47,0,0,0,2.88-.66,13,13,0,0,0,1.32.39,6.18,6.18,0,0,0-.72,2.63,4.16,4.16,0,0,0,2.67-2,11.15,11.15,0,0,0-.06,2.07,4.62,4.62,0,0,0,2-1.49,15.87,15.87,0,0,0-.07,1.87A7.69,7.69,0,0,0,121,65.41c1.11-.8,2.24-1.68,3.37-2.65A8.14,8.14,0,0,0,124.94,65Zm-11.15-1c.27-.26.49-.48.65-.66a13,13,0,0,0,1.8.37h0A11.29,11.29,0,0,0,113.79,64Zm6.38-20.61a12,12,0,0,0-1.8-.35h0a11.36,11.36,0,0,0,2.45-.3C120.54,43,120.33,43.2,120.17,43.38Z"/><path class="cls-3" d="M120.06,50.15a2.75,2.75,0,0,0,.59-1.71,6.06,6.06,0,0,0,.39,1,2.93,2.93,0,0,0,.45-1.25,9.08,9.08,0,0,0,.34.93,4.52,4.52,0,0,0,.83-2.33l-.13,0,.13,0a7.81,7.81,0,0,0,0-.81,3.89,3.89,0,0,0,1-.87,2.24,2.24,0,0,0-.37.39,6,6,0,0,0,.15-1,1.89,1.89,0,0,0-1,.56,5.64,5.64,0,0,0,.1-.56l.21-.11-.18-.13c0-.09,0-.14,0-.14l-.2,0-.25-.13a2.33,2.33,0,0,0,.35-.93,1.25,1.25,0,0,0-1,.58c0-.17.06-.32.08-.45a2.88,2.88,0,0,0,.56-.2,6.76,6.76,0,0,0-1.42-.93,3,3,0,0,0,2.11,0,4.72,4.72,0,0,0-.69-.48,2.43,2.43,0,0,0,.49-1,1.45,1.45,0,0,0-1.19.51,5,5,0,0,0,.19-.83,1.54,1.54,0,0,0-.79.28l-.06-.07c0-.1,0-.18.07-.26a1,1,0,0,0,.52-.09,6.25,6.25,0,0,0-.56-.72,1.12,1.12,0,0,0,1.16,0,2.89,2.89,0,0,0-.86-.74,5.2,5.2,0,0,0,.28-.74,2.1,2.1,0,0,0-1.61.86,5.79,5.79,0,0,0,.62-1.47,2.23,2.23,0,0,0-1.29.36,5,5,0,0,0-.59-.2,3.72,3.72,0,0,0,.32-1.38,1.94,1.94,0,0,0-1.19,1.08,7.34,7.34,0,0,0,0-1.08,2.11,2.11,0,0,0-.89.79c0-.56,0-1,0-1A3.63,3.63,0,0,0,115,37.76q-.75.65-1.5,1.41A4.83,4.83,0,0,0,113.2,38a2.69,2.69,0,0,0-.59,1.71,6.51,6.51,0,0,0-.39-1,3,3,0,0,0-.45,1.26,9.08,9.08,0,0,0-.34-.93,4.36,4.36,0,0,0-.8,2.23l.14.06-.15,0c0,.32-.05.64-.06.92a3.58,3.58,0,0,0-.59.49,6,6,0,0,0-.13.92,1.84,1.84,0,0,0,1-.55c0,.21-.08.4-.1.56l-.2.11.17.12c0,.09,0,.15,0,.15l.2,0a1.48,1.48,0,0,0,.25.14,2.41,2.41,0,0,0-.36.93,1.26,1.26,0,0,0,1-.57c0,.16-.06.32-.08.45a2.25,2.25,0,0,0-.57.19,6.51,6.51,0,0,0,1.43.94,3,3,0,0,0-2.12,0,4.75,4.75,0,0,0,.68.49,2.43,2.43,0,0,0-.49,1,1.41,1.41,0,0,0,1.19-.5,4.81,4.81,0,0,0-.19.83,1.54,1.54,0,0,0,.79-.28l.06.07c0,.09,0,.18-.07.26a1.14,1.14,0,0,0-.52.08,6,6,0,0,0,.55.73,1.15,1.15,0,0,0-1.16,0,2.87,2.87,0,0,0,.86.75,4,4,0,0,0-.28.75,2.15,2.15,0,0,0,1.61-.86,6,6,0,0,0-.63,1.47,2.15,2.15,0,0,0,1.29-.35,5.06,5.06,0,0,0,.6.21,3.53,3.53,0,0,0-.33,1.37,2,2,0,0,0,1.2-1.07,7.44,7.44,0,0,0,0,1.08,2.05,2.05,0,0,0,.9-.78c0,.56,0,1,0,1a3.59,3.59,0,0,0,1.87-1.83c.5-.42,1-.88,1.51-1.38A5,5,0,0,0,120.06,50.15Zm-5-.53c.12-.13.22-.25.29-.34a4.8,4.8,0,0,0,.81.19h0A4.93,4.93,0,0,0,115.05,49.62Zm2.86-10.79a4.69,4.69,0,0,0-.8-.19h0a4.41,4.41,0,0,0,1.1-.16C118.08,38.61,118,38.74,117.91,38.83Z"/><path class="cls-3" d="M117.06,75.38a2.75,2.75,0,0,0,.59-1.71,6.06,6.06,0,0,0,.39,1,2.93,2.93,0,0,0,.45-1.25,7.73,7.73,0,0,0,.35.93,4.6,4.6,0,0,0,.82-2.33l-.13,0,.13,0a7.94,7.94,0,0,0,.06-.81,3.71,3.71,0,0,0,.94-.87,2.24,2.24,0,0,0-.37.39,6,6,0,0,0,.15-1,1.83,1.83,0,0,0-1,.56c0-.21.07-.4.09-.56l.21-.11-.18-.13c0-.09,0-.14,0-.14l-.2,0a1.48,1.48,0,0,0-.25-.14,2.33,2.33,0,0,0,.35-.93,1.25,1.25,0,0,0-1,.58c0-.16.06-.32.08-.45a2.88,2.88,0,0,0,.56-.2,6.5,6.5,0,0,0-1.42-.92,3.05,3.05,0,0,0,2.11,0,4.72,4.72,0,0,0-.69-.48,2.43,2.43,0,0,0,.49-1,1.45,1.45,0,0,0-1.19.51,5,5,0,0,0,.19-.83,1.54,1.54,0,0,0-.79.28l-.06-.07c0-.09,0-.18.07-.26a1,1,0,0,0,.52-.09,6.25,6.25,0,0,0-.56-.72,1.12,1.12,0,0,0,1.16,0,2.89,2.89,0,0,0-.86-.74,3.79,3.79,0,0,0,.28-.74,2.1,2.1,0,0,0-1.61.86,5.8,5.8,0,0,0,.62-1.46,2.15,2.15,0,0,0-1.29.35,5,5,0,0,0-.59-.2,3.72,3.72,0,0,0,.32-1.38,2,2,0,0,0-1.19,1.08,6.64,6.64,0,0,0,0-1.08,2.08,2.08,0,0,0-.9.79c0-.56,0-1,0-1A3.61,3.61,0,0,0,112,63c-.49.42-1,.89-1.5,1.4a4.83,4.83,0,0,0-.26-1.17,2.63,2.63,0,0,0-.58,1.71,7.14,7.14,0,0,0-.4-1,3,3,0,0,0-.45,1.26,9.08,9.08,0,0,0-.34-.93,4.45,4.45,0,0,0-.8,2.24l.14,0-.14,0a7.59,7.59,0,0,0-.06.92,4.08,4.08,0,0,0-.6.49,7.92,7.92,0,0,0-.13.92,1.84,1.84,0,0,0,1-.55c0,.21-.07.4-.1.56l-.2.11.17.12c0,.09,0,.15,0,.15l.19,0,.25.13a2.41,2.41,0,0,0-.36.93,1.25,1.25,0,0,0,1-.57c0,.16-.06.32-.08.45a2.31,2.31,0,0,0-.56.19,6.31,6.31,0,0,0,1.42.94,3,3,0,0,0-2.12,0,5.56,5.56,0,0,0,.68.49,2.43,2.43,0,0,0-.49,1,1.41,1.41,0,0,0,1.19-.5,4.81,4.81,0,0,0-.19.83,1.54,1.54,0,0,0,.79-.28l.06.07c0,.1,0,.18-.07.26a1.14,1.14,0,0,0-.52.08,6,6,0,0,0,.55.73,1.12,1.12,0,0,0-1.16,0,2.89,2.89,0,0,0,.86.74,5.07,5.07,0,0,0-.28.75,2.1,2.1,0,0,0,1.61-.86,6.19,6.19,0,0,0-.63,1.47,2.2,2.2,0,0,0,1.3-.35,4.84,4.84,0,0,0,.59.21,3.57,3.57,0,0,0-.33,1.38,2,2,0,0,0,1.2-1.08,6.64,6.64,0,0,0,0,1.08,2.22,2.22,0,0,0,.9-.77,9.43,9.43,0,0,0,0,1,3.59,3.59,0,0,0,1.87-1.83c.5-.41,1-.88,1.51-1.38A4.83,4.83,0,0,0,117.06,75.38Zm-5-.53c.12-.13.22-.25.29-.34a5,5,0,0,0,.81.19h0A4.94,4.94,0,0,0,112.05,74.85Zm2.86-10.79a4.69,4.69,0,0,0-.8-.19h0a4.41,4.41,0,0,0,1.1-.16C115.08,63.84,115,64,114.91,64.06Z"/><path class="cls-3" d="M101.83,78.34a2,2,0,0,0,.46-1.31,5.74,5.74,0,0,0,.3.79,2.27,2.27,0,0,0,.36-1,7.45,7.45,0,0,0,.26.73,3.56,3.56,0,0,0,.64-1.81l-.1,0,.1,0a4.64,4.64,0,0,0,0-.63,2.86,2.86,0,0,0,.73-.68,2,2,0,0,0-.28.31,4.43,4.43,0,0,0,.11-.81,1.4,1.4,0,0,0-.77.44c0-.17.06-.32.08-.44a.65.65,0,0,0,.16-.09l-.14-.09a.87.87,0,0,0,0-.11l-.15,0-.19-.1a1.83,1.83,0,0,0,.27-.72,1,1,0,0,0-.76.45c0-.13.05-.25.07-.35a1.69,1.69,0,0,0,.43-.15,5.16,5.16,0,0,0-1.1-.72,2.34,2.34,0,0,0,1.63,0,4.15,4.15,0,0,0-.52-.37,1.91,1.91,0,0,0,.37-.76,1.12,1.12,0,0,0-.92.4,3.82,3.82,0,0,0,.15-.65,1.09,1.09,0,0,0-.61.23l0-.06a1.94,1.94,0,0,0,0-.2.83.83,0,0,0,.41-.07,5.48,5.48,0,0,0-.43-.56.86.86,0,0,0,.89,0,2.27,2.27,0,0,0-.66-.57,3.28,3.28,0,0,0,.21-.58,1.64,1.64,0,0,0-1.24.67,4.91,4.91,0,0,0,.48-1.13,1.64,1.64,0,0,0-1,.27,2.76,2.76,0,0,0-.46-.15,2.78,2.78,0,0,0,.25-1.07,1.52,1.52,0,0,0-.93.84,5,5,0,0,0,0-.84,1.62,1.62,0,0,0-.69.61c0-.43,0-.76,0-.76a2.79,2.79,0,0,0-1.44,1.43c-.38.33-.77.69-1.16,1.08a3.76,3.76,0,0,0-.2-.9,2.12,2.12,0,0,0-.46,1.32,5.74,5.74,0,0,0-.3-.79,2.26,2.26,0,0,0-.35,1,6.26,6.26,0,0,0-.27-.72,3.47,3.47,0,0,0-.61,1.73l.1,0-.11,0a5.85,5.85,0,0,0,0,.71,2.4,2.4,0,0,0-.46.37,4.13,4.13,0,0,0-.1.72,1.45,1.45,0,0,0,.77-.43c0,.16-.06.31-.08.43l-.15.09.13.1a.75.75,0,0,0,0,.11l.15,0,.19.11a1.78,1.78,0,0,0-.27.72,1,1,0,0,0,.75-.45,2.86,2.86,0,0,0-.06.35,1.76,1.76,0,0,0-.44.15,5.43,5.43,0,0,0,1.1.73,2.27,2.27,0,0,0-1.63,0,3.65,3.65,0,0,0,.52.38,1.91,1.91,0,0,0-.38.75,1.1,1.1,0,0,0,.92-.39,3.28,3.28,0,0,0-.14.64,1.09,1.09,0,0,0,.61-.21l0,0c0,.08,0,.15,0,.21a.77.77,0,0,0-.4.06,4.64,4.64,0,0,0,.42.56.88.88,0,0,0-.89,0,2.11,2.11,0,0,0,.66.58,3.89,3.89,0,0,0-.22.58,1.65,1.65,0,0,0,1.25-.66,4.52,4.52,0,0,0-.49,1.13,1.64,1.64,0,0,0,1-.27,4,4,0,0,0,.46.16,3,3,0,0,0-.25,1.07,1.54,1.54,0,0,0,.93-.83,4.92,4.92,0,0,0,0,.83,1.67,1.67,0,0,0,.7-.6,6.87,6.87,0,0,0,0,.76,2.83,2.83,0,0,0,1.45-1.42c.38-.32.77-.68,1.17-1.07A3.86,3.86,0,0,0,101.83,78.34ZM98,77.94l.22-.27a3.87,3.87,0,0,0,.63.15h0A3.67,3.67,0,0,0,98,77.94Zm2.21-8.36a3.76,3.76,0,0,0-.62-.14h0a3.83,3.83,0,0,0,.85-.13Z"/><path class="cls-5" d="M23,99.43c-.79-2.48-.83-3-.54-3.35S25,95.76,25,95.76s.56,2.28-.35,2.4-1.36-.87-1.36-.87S23.65,101.44,23,99.43Z"/><path class="cls-5" d="M20.79,98.51c.56-.66,1-1,1.2-.41s-.43,1.52-.85,1.27S20.55,98.79,20.79,98.51Z"/><path class="cls-5" d="M21.39,99.55c.8-.42,1.41-.57,1.4,0s-.93,1.2-1.3.88S21.05,99.73,21.39,99.55Z"/><path class="cls-5" d="M21.9,100.67c.74-.48,1.32-.68,1.36-.13s-.81,1.3-1.2,1S21.58,100.89,21.9,100.67Z"/><path class="cls-2" d="M104,86.69c-1.29-.59-1.72-1.38-.82-2.07s1.93-2.13,2.76-1S106.08,87.62,104,86.69Z"/><path class="cls-2" d="M105.32,84.7C104.14,82.35,103,81,104,81.35s2.07,2.51,2.07,2.51Z"/><path class="cls-2" d="M104.56,85.08c-2.14-1.51-3.76-2.13-2.71-2.33s3,1.22,3,1.22Z"/><path class="cls-2" d="M103.74,86.51c-2.09-1.6-3.69-2.3-2.62-2.45s2.95,1.36,2.95,1.36Z"/></g></g></g></svg>