<svg xmlns="http://www.w3.org/2000/svg" viewBox="0 0 174 201.3"><defs><style>.cls-1{isolation:isolate;}.cls-2{fill:#723f35;}.cls-3{fill:#592923;}.cls-4{fill:#ff9566;}.cls-5{fill:#8b933f;}.cls-6{fill:#797c31;}.cls-7{fill:#ffb882;}.cls-8{fill:#fc8456;}.cls-9{fill:#f9d58c;}.cls-10{fill:#f2c679;}.cls-11{fill:#914343;}.cls-12{fill:#a84e4e;}.cls-13{fill:#752f2f;}.cls-14{fill:#7f3636;}.cls-15{fill:#ffc248;}.cls-16{fill:#ffdb80;}.cls-17{fill:#aaaf4e;}.cls-18{fill:#c94343;opacity:0.6;mix-blend-mode:multiply;}.cls-19{fill:#ea7b59;}.cls-20{fill:#7d358e;}.cls-21{fill:#9347a5;}.cls-22{fill:#3d2522;}</style></defs><title>DIONYSUS</title><g class="cls-1"><g id="Layer_2" data-name="Layer 2"><g id="_1" data-name="1"><path class="cls-2" d="M61.49,1.28c.59-.79,1.71-.07,1.71-.07S62-.54,60.51.17c-1.92.94-1.64,4.08.47,5.25l3.82-2.5C62.11,3.7,60.85,2.15,61.49,1.28Z"/><path class="cls-3" d="M80.59,13.93c-1.15-1.32-2.65-1.9-3.35-1.29s-.35,2.18.79,3.5,2.65,1.91,3.35,1.3S81.73,15.26,80.59,13.93Z"/><path class="cls-4" d="M153.43,51.85c3.29-3.11,4-3.93,4.34-5.19s.27-4.2.81-4.64a1.87,1.87,0,0,1,2.7.84c.58,1.35-.18,4.93-.27,5.86s-3.84,5.69-3.84,5.69Z"/><path class="cls-4" d="M152.16,45.21C154.5,41.33,155,40.33,155,39s3.52.2,3.68,1.11-2.18,6.52-2.18,6.52Z"/><path class="cls-4" d="M148.14,45.68c2.18-4,2.64-5,2.54-6.28s-1-4.07-.66-4.66,1.34-2.05,2.31-1,1.86,5.67,2.06,6.58-1.91,6.6-1.91,6.6Z"/><path class="cls-4" d="M144.07,49c-1.43-3.66-1.87-5-1.81-6.35s-.24-5.36-.09-6a2.07,2.07,0,0,1,3-.65c1.38,1.17.65,5.53,2,7.13a21.18,21.18,0,0,1,3,5.56Z"/><path class="cls-4" d="M146.32,46.68c3.44-4.69,6.53-6.45,8.6-4.86s4.08,11.89,2,12.65-7.58,4.76-7.58,4.76Z"/><path class="cls-5" d="M153.62,46.89l-1.43,0c.12-3.32.66-5.14,1.76-5.89s2.76-.3,4.74.37a15,15,0,0,0,7.18,1.1c3.31-.48,6.26-3.92,7.26-7.32.82-2.76.5-5.88-.58-6.82-.7-.61-2.23-.62-3.62,0-3.75,1.68-4.66,4-4.69,4.93a2.91,2.91,0,0,0,1.68,2.22,1.41,1.41,0,0,0,1.53-.07s-.52,1-1.9.19c-1-.56-1.69-1.09-1.65-2.33s.72-3.38,4.86-5.24c2.12-1,3.35-.47,4,.1,1.36,1.18,1.62,3.88.69,7-1,3.38-3.65,7.24-7.57,7.82a15.62,15.62,0,0,1-7.45-.84c-1.76-.6-2.76-.79-3.62-.2S153.74,43.89,153.62,46.89Z"/><path class="cls-6" d="M1.73,128.1s.07,2.84.24,3.78a27.18,27.18,0,0,0,1,3l1.72.52,2-.74.86-2.11-.29-1.95a26.06,26.06,0,0,0-2.67-1.78A20.46,20.46,0,0,0,1.73,128.1Z"/><path class="cls-6" d="M15.68,128.22a35.82,35.82,0,0,0-3.87-.5,23.88,23.88,0,0,0-3.2.59l-.85,1.89.39,2.45,2,1.43,2,0a29.38,29.38,0,0,0,2.29-2.72A26,26,0,0,0,15.68,128.22Z"/><path class="cls-6" d="M3.38,142.89a19.16,19.16,0,0,0,2.71.59,14.21,14.21,0,0,0,2.3-.45l.72-1.74L9,139l-1.3-1.41-1.43-.11A28.52,28.52,0,0,0,4.48,140,29.35,29.35,0,0,0,3.38,142.89Z"/><path class="cls-3" d="M70.35,5.46c5.43-3.38,5.31,2.75,5.31,2.75s7,3.86,1.31,6.34S64.35,9.18,70.35,5.46Z"/><path class="cls-7" d="M93.89,33.87C110.4,39.37,134.07,62,133.5,73.2c-.55,10.87-31.44,7-36.43,3.45Z"/><path class="cls-4" d="M93.89,34l3.18,42.67c5,3.53,35.88,7.42,36.43-3.45.08-1.68-11-1.69-11.92-3.78C118,56.71,100.2,36.13,93.89,34Z"/><path class="cls-4" d="M87.49,131.41c-.79,36.87-12.19,68.93-12.19,68.93H74.23l-11-71.29Z"/><path class="cls-7" d="M103.56,133.74c18.48,37.72,49.65,66.6,49.65,66.6h1L130.6,127.4Z"/><path class="cls-4" d="M144.9,171.51,130.6,127.4l-27,6.34C114.41,155.89,129.63,175,140.35,187,140.26,180.51,141.94,174.89,144.9,171.51Z"/><path class="cls-7" d="M54.15,37.37c4.55-7.58,6.34-11,6.34-11l-1.93-7s8.08-13.53,14-10.78,8.6,9.4,8.6,9.4l2.14,9.93L91.84,33Z"/><path class="cls-7" d="M67.18,121.13C58.7,104.79,51.05,74,51.05,74L42,45.85S56.84,29.51,71.73,29.51s23.78,5.17,23.78,5.17l15.31,60.81Z"/><path class="cls-4" d="M72.28,80.19C66,79.45,65.46,64,54.16,49.27a13.11,13.11,0,0,0-8.37-.09L51.05,74s7.65,30.81,16.13,47.15l.62-.37c0-.08,5.79-2,5.79-2,0-23.19,9.79-44.4,24.13-44.4,5.43,0,6.5,6.91,10.67,11.52l-4.17-16.56C93.86,68.67,77.45,80.8,72.28,80.19Z"/><path class="cls-4" d="M95.51,34.68s.28,0-1.38-.69.19,12.74.76,19.51C96,66.08,98.43,90.92,97.17,94.59c-2.62,7.58-13.75,12.11-18.07,12.13C72.42,106.76,59.53,76,58.68,59c-.17-3.44-11.7,5.89-12.29,2.9-1.65,24.71,17,51.94,20.79,59.25l43.64-25.64Z"/><ellipse class="cls-8" cx="55.22" cy="75.94" rx="6.96" ry="18.61"/><path class="cls-7" d="M126.53,91.76c17.2-3,26.89-37,26.89-37l-7.13-7.42s-22,13.11-26.47,18.32S112.37,94.22,126.53,91.76Z"/><path class="cls-4" d="M132.53,69.63c-6.11,1.06-9.43-.36-12.41-4.33-.1.11-1.56-.32-1.65-.21-4.43,5.21-6.1,29.13,8.06,26.67,17.2-3,26.89-37,26.89-37L150.73,52C146.16,61.24,141.6,68.06,132.53,69.63Z"/><path class="cls-9" d="M67.18,190.62c39.09,6,79.41-27.71,79.41-27.71l-12.2-31.44.42-6.62L123.84,92l.42-9.51S101.51,42.6,95.7,34.06c-.6-.87-1.82-1.27-1.76-.34.58,8.72,9.25,58.29,4.67,63.83-5.91,7.16-18.82,15.1-32.47,18C64,116,67.18,190.62,67.18,190.62Z"/><path class="cls-10" d="M73.82,149.53l10.65,14.79c-4.9-26.25,7.22-43.72,7.22-43.72S77,133,73.82,149.53Z"/><path class="cls-10" d="M94.43,151.63s8.91-.55,12.51-6.24a96.86,96.86,0,0,1,17.27-20.51S104.83,136.36,94.43,151.63Z"/><path class="cls-10" d="M83.17,121.05c6.62-9.18,32.78-22.65,41.42-26.83L123.84,92l.39-8.83c-1.14,7.45-17,17.93-25.3,13.92C86.41,108,77.5,110.81,65.32,115.86c-1.49,7.55,1.86,74.76,1.86,74.76a61.72,61.72,0,0,0,6.89.65C75.45,168.9,70.35,138.84,83.17,121.05Z"/><path class="cls-10" d="M134.76,125.52c-3.13,4.5-9.28,9-14.16,11.53-21.23,11.15-39.81,19.64-46.17,7.5-2-3.8-3.14-15.48-3.28-30.29-2.11.36-3.43.95-5,1.29-2.11.44,1,75.07,1,75.07a67.17,67.17,0,0,0,17.28.29c-.53-.61-9.63-27,32.42-49.39,6.31-3.36,12.11-6.86,17.87-9.13l-.36-.92Z"/><path class="cls-6" d="M75.1,139a26.35,26.35,0,0,0-3.24-1.29,14.06,14.06,0,0,0-2.56.08l-.6,1.69.26,2.11L70.18,143l1.29.43a18.48,18.48,0,0,0,1.94-1.62A30.56,30.56,0,0,0,75.1,139Z"/><path class="cls-11" d="M64.92,108.78,29.46,100.7C10.76,121.6-3.92,156.93,3.88,201.17H65.4C76.9,167.66,71.62,129.37,64.92,108.78Z"/><path class="cls-12" d="M66,122.55c-4.22-4.36-9.52-7-15.13-7-12.33,0-21.46,12.77-20.37,28.54s12,28.54,24.3,28.54c6.18,0,11.56-3.22,15.24-8.4A171.45,171.45,0,0,0,66,122.55Z"/><path class="cls-13" d="M22.26,109.8c5.19,2.39,14.68,4,25.53,4a90.17,90.17,0,0,0,18.14-1.7c-.33-1.15-.67-2.26-1-3.31L29.46,100.7A99.13,99.13,0,0,0,22.26,109.8Z"/><path class="cls-13" d="M59.11,198.27c6.41-27.51,6.41-64.52,2.07-83.76C62.1,145.64,61.81,174.35,59.11,198.27Z"/><path class="cls-13" d="M51.54,115.57c4.56,27,2.12,62.37-3.46,80.2C51,166.17,52.65,138.73,51.54,115.57Z"/><path class="cls-13" d="M16,189.81c1.14-28.73,9.48-65.58,17.24-83.8C25.52,136.79,19.28,165.44,16,189.81Z"/><path class="cls-13" d="M34.18,195.34c.24-27.51,4.8-65.18,9.32-85.06C41.34,141.91,37.56,171,34.18,195.34Z"/><path class="cls-13" d="M46.84,189.45c-15.46,0-34.33-14.2-31.43-53.36A75.9,75.9,0,0,1,22,110.19C7.13,131.55-2.84,163,3.88,201.17H65.4a132.05,132.05,0,0,0,6.67-38.77C67.5,181.69,57.85,189.45,46.84,189.45Z"/><path class="cls-7" d="M43.59,44.22C31.26,53.83,18.87,84.5,22.09,95.38s32.53-10.58,36-16C67.28,65.08,52,37.7,43.59,44.22Z"/><path class="cls-4" d="M24.58,94c-2.19-7.37,1.94-24.47,9.23-38.25C25.26,69.17,18.65,88.2,21,96.18c1.46,4.93,8.5,3.06,16.09-1C30.6,98.24,25.86,98.38,24.58,94Z"/><path class="cls-4" d="M52.25,77.83C45.12,87.84,37,95.16,30,98.54c10.17-2.83,25.46-13.68,28-17.39,3.4-4.9,4-11.63,2.85-18.14A88.35,88.35,0,0,1,52.25,77.83Z"/><path class="cls-7" d="M23,99.76c14.36,9.93,47.36,11.87,47.36,11.87l4.45-14.08s-20.8-15-27.34-17S13.34,93.06,23,99.76Z"/><path class="cls-4" d="M25.33,93.62c-.53-.34-1.24-1.86-1.33-5.3,0-.69-1.63,1.17-2.53,2.48-1.49,2.36-1,7.22,1.55,9,14.36,9.93,47.36,11.87,47.36,11.87S38.2,102,25.33,93.62Z"/><path class="cls-2" d="M57.32,20.55C53.39,14.49,55.46,8.9,59,7.39c0,0,.89-4.62,4.61-4.35,0,0,1.11-3.38,4.21-2.62s2.89,5.17,2.89,5.17Z"/><path class="cls-3" d="M64.06,8.53c-1.43,2.37-4.46,2.34-4.85-2a5.69,5.69,0,0,0-.23.82c-3.52,1.51-5.59,7.1-1.66,13.16L67.92,8.69C67.32,8.78,64.39,8,64.06,8.53Z"/><path class="cls-2" d="M75.26,10.11c3.17-5.52-2.43-10.48-5.62-8.46-1.33.84-6.87,4.91-10,21.45l.25.89C63.2,15.14,70.14,6.52,75.26,10.11Z"/><path class="cls-13" d="M66.63,117.68l-43.4-9.22c-.82,1.08-1.62,2.2-2.41,3.34l47.56,10C68.07,120.45,67,119,66.63,117.68Z"/><path class="cls-14" d="M9.2,144.91s-7.38,17.6-2.29,56.26H27.17C9.45,166.18,8.38,156,9.2,144.91Z"/><path class="cls-15" d="M67.26,117l-43-10c-1.05.07-2.52,1.86-2.36,3.27L68.21,121C68.73,121,68.06,117.28,67.26,117Z"/><path class="cls-15" d="M67.87,192.89,2.53,191.56A2.9,2.9,0,0,0,3,195.27l63.87,1.31C67.94,195.47,68.56,194.28,67.87,192.89Z"/><path class="cls-5" d="M65.26,201.15a12.78,12.78,0,0,0-.71-5.73,19,19,0,0,0-2.81-5,46.21,46.21,0,0,0-8.35-8.06c-6.17-4.81-12.91-8.89-19.55-13.2-3.34-2.15-6.68-4.33-9.93-6.69-1.62-1.19-3.22-2.42-4.77-3.72s-3.05-2.71-4.48-4.19A29.69,29.69,0,0,1,7.92,144,17.48,17.48,0,0,1,7,137.69a17.94,17.94,0,0,1,1.48-6.17l.16.06a17.67,17.67,0,0,0,.37,12,29.5,29.5,0,0,0,6.83,9.71c1.39,1.41,2.87,2.75,4.39,4s3.07,2.53,4.65,3.73c3.15,2.42,6.41,4.69,9.68,6.93,6.54,4.44,13.24,8.31,19.36,13.3a51.74,51.74,0,0,1,8.71,8.79,19.76,19.76,0,0,1,2.73,5.23,13.25,13.25,0,0,1,.56,5.87Z"/><path class="cls-7" d="M161.07,201.3h-9s-.55-3.24.48-3.79S161.07,201.3,161.07,201.3Z"/><path class="cls-7" d="M68,201.3h8.86s-.33-3.37-1.5-3.94S68,201.3,68,201.3Z"/><path class="cls-4" d="M97.41,71.59A44.39,44.39,0,0,0,90,61.35s2.92,6.8,2.16,11.79Z"/><path class="cls-10" d="M121.16,89c-.93-8.58-15.83-32.67-15.83-32.67S117.85,87.94,116,96.73Z"/><path class="cls-10" d="M114.26,152.36s9.38,19.16,3.3,28.61a150.42,150.42,0,0,0,13.69-7.4C123.78,163.25,114.26,152.36,114.26,152.36Z"/><path class="cls-16" d="M61.87,115.75l-34.45-8c-.6,1.09-1.18,2.22-1.74,3.41l37.06,8.6C62.48,118.38,62.19,117,61.87,115.75Z"/><path class="cls-16" d="M55.61,192.64l-38.29-.78c.3,1.28.62,2.53,1,3.73l35.73.73C54.56,195.13,55.09,193.91,55.61,192.64Z"/><path class="cls-17" d="M0,146.91a35.59,35.59,0,0,1,3.55-1.82,21.47,21.47,0,0,1,3.25-.42l1.38,1.78.39,2.8-1.45,2.22-1.92.73a31.44,31.44,0,0,1-3-2.22A30.43,30.43,0,0,1,0,146.91Z"/><path class="cls-5" d="M25.62,172.77l-.24-.39A6.81,6.81,0,0,1,23,174.75l1,.63S24.48,173.36,25.62,172.77Z"/><path class="cls-5" d="M37.29,188.79l.39-.24a6.86,6.86,0,0,1-2.31-2.42l-.65,1S36.72,187.63,37.29,188.79Z"/><path class="cls-5" d="M29.64,190.13l-.44.13a6.81,6.81,0,0,1,1.63,2.92l.88-.78S29.9,191.39,29.64,190.13Z"/><path class="cls-5" d="M26.32,186.23s2.35.51,3.09.81a19.25,19.25,0,0,1,2.22,1.39V190l-1.13,1.62-2,.42L27,191.49a21.68,21.68,0,0,1-.81-2.62A19.21,19.21,0,0,1,26.32,186.23Z"/><path class="cls-17" d="M40.72,193.8s.08-2.54,0-3.38a23.68,23.68,0,0,0-.74-2.65l-1.44-.44-1.72.7-.84,1.9.16,1.73a20.44,20.44,0,0,0,2.19,1.56A15.33,15.33,0,0,0,40.72,193.8Z"/><path class="cls-17" d="M30.45,169.89s-2.55-.07-3.39,0a22.45,22.45,0,0,0-2.64.76L24,172.13l.71,1.72,1.9.82,1.74-.17a19.54,19.54,0,0,0,1.54-2.19A15.65,15.65,0,0,0,30.45,169.89Z"/><path class="cls-17" d="M14.76,138a25.19,25.19,0,0,0-3.08,1.71,19.38,19.38,0,0,0-1.88,2.4l.64,2.34,1.89,2.2,2.34.29,1.48-1.09a37.37,37.37,0,0,0-.17-4A38.76,38.76,0,0,0,14.76,138Z"/><path class="cls-5" d="M54.67,182.69C43,169.9,38.08,159.21,39.18,150.48a12.08,12.08,0,0,1,5.39-8.88C50.14,138,56.89,140,62.25,141c3.63.69,6.9,1.19,9.1.1.49.19.56.48.06.92-2.44,1.2-5.54.5-9.31-.23-5.21-1-11.12-2.12-16.41,1.35a11.16,11.16,0,0,0-5,8.31c-1.07,8.48,4.66,20.1,16.13,32.72Z"/><path class="cls-4" d="M76.35,36.93c-7.63,4.17-14,3.82-12,1.93S76.35,36.93,76.35,36.93Z"/><path class="cls-4" d="M80.12,36c6.27-.58,8.22-2.31,7.56-2.82C86.81,32.48,80.12,36,80.12,36Z"/><path class="cls-10" d="M104.06,65.77C98.37,54.19,96.72,39.2,96.72,39.2A59,59,0,0,1,104.06,65.77Z"/><path class="cls-8" d="M78.31,74.57c-.31-.66-2-.7-3.73-.08S71.66,76.14,72,76.8s2,.7,3.73.08S78.63,75.23,78.31,74.57Z"/><path class="cls-18" d="M46.5,41.49c5.07,1.42,12.75,1.2,21-1,8.81-2.32,16-6.26,19.68-10.27l-3.91-2.37-2-9.53c-13.46,10.43-10.62-.41-17.09,1.13q-2.67.63-5.16,1.47l1.48,5.41S59.12,29,55.74,34.69A65.65,65.65,0,0,0,46.5,41.49Z"/><path class="cls-3" d="M61.94,21.27c4,2.82.2,2.71-1.82,5.77,0,0-2.25,1.49-3.53-1.29S55,15.1,59.46,14.69,61.94,21.27,61.94,21.27Z"/><path class="cls-2" d="M61,16.69c.69,11.72,5.86,13.72,9,14.48S75.11,29,75.11,29s3.51,2.55,6.75,0c0,0,3.1,2.83,5.86.07a7,7,0,0,0,2.07-7.31,3.07,3.07,0,0,0,.55-3.93c-1.31-2.41-2.89-1.58-2.89-1.58s-3.62-3.93-6.11-.14a17.71,17.71,0,0,0-9,3.21c-1,.69-3.2-1.66-4.65-7.41C65.44,3,61,16.69,61,16.69Z"/><path class="cls-3" d="M84.15,25.06c-3.39,2.3-7.06-.53-7.06-.53a5,5,0,0,1-5.33,1.81c-3.15-.95-8.63-4.24-9.75-14.51a16.26,16.26,0,0,0-1,4.86c.69,11.72,5.38,14.13,8.55,14.89s5.72-2,5.72-2a5.57,5.57,0,0,0,6.48-.31s3.55,2.66,6.31-.1A7.67,7.67,0,0,0,89.73,26C87,27.75,84.15,25.06,84.15,25.06Z"/><path class="cls-7" d="M63.3,19.17c-2.19,1.54-4.26.37-3.24-1.44a1.52,1.52,0,0,1,1.32-.87,1.87,1.87,0,0,1,1.85,1.7Z"/><path class="cls-3" d="M90.8,19.34c-.6,2.18-3,2.44-5.11,1a5,5,0,0,0,4.42,3.23,7.28,7.28,0,0,0-.32-1.86A3,3,0,0,0,90.8,19.34Z"/><path class="cls-3" d="M72.8,22.52c4.65,0,3.58,3.62,2.2,4.82l3.9-1.57C78.82,22,75.5,21.38,72.8,22.52Z"/><path class="cls-3" d="M69.21,19.7c-2.19,4.11-4.88,1.46-5.29-.33l-.45,4.19C66.8,25.25,68.94,22.63,69.21,19.7Z"/><path class="cls-3" d="M66.54,13.89c-4.29,1.82-4.6-1.31-3.76-2.75l-3,2.7C61.16,16.6,64.45,15.79,66.54,13.89Z"/><path class="cls-19" d="M62.45,18.78c-1.13.8-2.19.2-1.67-.74a.77.77,0,0,1,.68-.44,1,1,0,0,1,.95.87Z"/><path class="cls-7" d="M62.65,19c-.73.51-1.42.12-1.08-.48a.52.52,0,0,1,.44-.29.62.62,0,0,1,.61.57Z"/><path class="cls-5" d="M3.5,201.17c-1.88-10.62-.15-18.83,4.44-23.24,3.62-3.48,9-4.47,16-2.94,8.16,1.78,10.89,6.14,11.47,8.55a10,10,0,0,1-3.29,9.63,6.14,6.14,0,0,1-6.37.78c-5-2.31-5.28-6.75-4.25-9.17.78-1.82,2.26-2.71,3.6-2.19l-.09.23c-1.07-.43-2.66.8-3.16,2-1.09,2.55,0,6.48,4.24,8.42a4.74,4.74,0,0,0,5.12-.89,8.82,8.82,0,0,0,2.87-8.64c-.92-3.85-4.59-6.65-10.31-7.9-6.72-1.46-11.86-.55-15.27,2.74-4.39,4.21-4.75,12.3-2.92,22.65Z"/><path class="cls-5" d="M13.35,172.58c-2.36,0-5.36-.91-6.66-3.26A8,8,0,0,1,7.51,161c3-3.35,8-3.54,16.65-.14l1.44,2.07c-11.76-4.65-16-2.25-17.33-.79-1.46,1.66-1.58,4.64-.37,6.83,1.75,3.16,6.29,3.25,8.89,2.11.6-.26,2.92-1.35,2.41-2.88-.68-2-2-3.76-3.14-4.13a2.94,2.94,0,0,0-2.34.5l-.2-.28a3,3,0,0,1,2.7-.49c1.39.46,2.57,2,3.33,4.26.49,1.45-.45,2.89-2.43,3.76A9.7,9.7,0,0,1,13.35,172.58Z"/><path class="cls-5" d="M40.07,157.19c-2.74-6.61-1-12.67.37-17.54,1.08-3.81,2-7.09.6-9.58-1-1.83-3.38-3.21-7.12-4.21-4.29-1.13-7.38-.33-8.52,2.61-1.5,3.89.83,10.33,3.39,11.66,1.53.8,2.72.76,3.55-.1,1.49-1.57,1.78-5.5.92-7a1.49,1.49,0,0,0-1.29-.62l-.12-.47c.38-.09,1.11-.1,1.71.93a7.09,7.09,0,0,1-1,7.33c-.76.79-1.89,1.49-4.24.27-2.93-1.52-5.53-8.1-3.83-12.51.75-1.93,3.37-5.19,9.69-3.52,4,1.07,6.34,3.14,7.51,5.2,1.58,2.78.61,6.22-.53,10.2-1.42,5-3,10.66-.39,17Z"/><path class="cls-5" d="M41.05,121.05a8.78,8.78,0,0,1-2.32-.35c-5.37-1.52-11.39-7.59-12.5-16.24.09-1.31.44-1.58,1-1,1.06,8.3,6.69,14.5,11.81,16,2.23.63,4.11.77,5.07-.42,1.79-2.22,1.57-4.67.41-5.73a2.4,2.4,0,0,0-3.23,0l-.33-.17a2.76,2.76,0,0,1,3.94-.16c1.44,1.32,1.79,4-.31,6.64A4.38,4.38,0,0,1,41.05,121.05Z"/><path class="cls-5" d="M56.92,140.79l-.73,0,.05-.81c5.35.3,8.22-3.05,9.06-6s-.13-5.68-2.37-6.88c-3-1.63-6.25-1.74-8.16-.29a4.07,4.07,0,0,0-1.33,4.4,3,3,0,0,0,2.85,2.12c1.62.15,3-.46,3.3-1.1.14-.31,0-.66-.47-1l.2-.38c1,.84.88,1.24.72,1.62-.5,1.18-2.22,1.46-3.86,1.31-1.91-.17-3-1-3.31-2.62-.49-2.19-.27-4.27,1.28-5.44,2.16-1.65,6-1.65,9.34.13,2.58,1.39,3.51,5.1,2.59,8.39A9.14,9.14,0,0,1,56.92,140.79Z"/><path class="cls-5" d="M61.19,179c-4.66,0-10.76-4-16.72-11l-.65-2.16c6.49,7.62,14.31,13.19,18.82,12.17a5.44,5.44,0,0,0,4.08-4.31A9,9,0,0,0,63.59,164c-1.71-1.15-3.63-1.36-5.13-.23-2.46,1.84-2.94,5.26-1.91,7,.67,1.12,1.81,1.39,3.22.75l.13.28c-1.78.81-2.91.36-3.79-1.12-1.23-2.09-.91-5.26,1.93-7.39a5,5,0,0,1,6,0A9.76,9.76,0,0,1,67.5,174a6.28,6.28,0,0,1-4.68,4.89A7.21,7.21,0,0,1,61.19,179Z"/><path class="cls-5" d="M11.13,149.36a20.45,20.45,0,0,1-3.93-.31l.25.14a12.51,12.51,0,0,1,5.1,2.41Z"/><path class="cls-5" d="M12,149.67s.26-3.48.35-4.79l.3.43c-.61,3.84.55,5.3.55,5.3Z"/><path class="cls-17" d="M75.48,150.25a35.72,35.72,0,0,0,.49-3.79,22.22,22.22,0,0,0-.61-3l-1.93-.65-2.49.58-1.45,2,0,2a25.83,25.83,0,0,0,2.78,2A25.12,25.12,0,0,0,75.48,150.25Z"/><path class="cls-5" d="M69.44,142.11s1.85,1.44,2.55,2l-.44.07c-1.83-1.82-3.42-1.48-3.42-1.48Z"/><path class="cls-17" d="M45.92,121.32a35.12,35.12,0,0,0,1,3.68,22.07,22.07,0,0,0,1.76,2.56l2-.15,2.06-1.51.54-2.43-.72-1.82a25.65,25.65,0,0,0-3.34-.74A25.91,25.91,0,0,0,45.92,121.32Z"/><path class="cls-5" d="M54.65,126.46l-3.11-.82.38-.24c2.4,1,3.72,0,3.72,0Z"/><path class="cls-17" d="M55.85,150.54a35.74,35.74,0,0,0,1.92-3.3,21.52,21.52,0,0,0,.61-3.05l-1.52-1.34-2.52-.43-2.12,1.31-.8,1.78a26.56,26.56,0,0,0,1.79,2.91A26.29,26.29,0,0,0,55.85,150.54Z"/><path class="cls-5" d="M53.44,140.7,55,143.5l-.43-.11C53.61,141,52,140.7,52,140.7Z"/><path class="cls-17" d="M30.55,155.86a37,37,0,0,1,3.13-2,24.27,24.27,0,0,1,3-.75L38,154.44l.53,2.28-1.18,2-1.71.85a25.6,25.6,0,0,1-2.92-1.46A23.68,23.68,0,0,1,30.55,155.86Z"/><path class="cls-5" d="M40.28,157.44l-2.81-1.27.12.39c2.38.74,2.75,2.18,2.75,2.18Z"/><path class="cls-17" d="M66.94,157.63A25.2,25.2,0,0,0,64.59,159a16.63,16.63,0,0,0-1.49,1.7l.4,1.35,1.33,1.13,1.74-.1,1.13-.85a19.91,19.91,0,0,0,0-2.42A17.61,17.61,0,0,0,66.94,157.63Z"/><path class="cls-5" d="M64.73,164.6s.07-1.66.1-2.29l.21.22a2.77,2.77,0,0,0,.53,2.55Z"/><path class="cls-17" d="M49.77,165.64S51.36,167,52,167.31a17.28,17.28,0,0,0,2.13.75l1.11-.87.55-1.65L55,164l-1.2-.74a18.28,18.28,0,0,0-2.26.88A16.72,16.72,0,0,0,49.77,165.64Z"/><path class="cls-5" d="M57.07,165.13l-2.17.75.13-.28c1.8-.39,2.17-1.43,2.17-1.43Z"/><path class="cls-17" d="M60.37,169.29A16.8,16.8,0,0,1,58.58,168a11.1,11.1,0,0,1-1-1.5l.52-1.18,1.27-1,1.45.11.84.76a18.35,18.35,0,0,1-.32,2.12A18.26,18.26,0,0,1,60.37,169.29Z"/><path class="cls-5" d="M59.45,163.16s-.16,1.46-.23,2l.21-.19a2.81,2.81,0,0,1,.79-2.23Z"/><path class="cls-17" d="M23.71,146.52a28.28,28.28,0,0,0,2.87-.66,17.1,17.1,0,0,0,2-1.27l0-1.56-1.1-1.65-1.85-.5-1.43.5a21.15,21.15,0,0,0-.69,2.54A19.56,19.56,0,0,0,23.71,146.52Z"/><path class="cls-5" d="M28,140l-.73,2.37-.17-.31a3.1,3.1,0,0,0,.15-2.86Z"/><path class="cls-17" d="M19.42,122.15a26.67,26.67,0,0,0,.06,2.95,16,16,0,0,0,.83,2.25l1.54.27,1.83-.73.87-1.72-.19-1.5A21.42,21.42,0,0,0,22,122.48,19.86,19.86,0,0,0,19.42,122.15Z"/><path class="cls-5" d="M25,127.65l-2.18-1.2.34-.1a3.11,3.11,0,0,0,2.77.73Z"/><path class="cls-17" d="M30.9,133.46a25.91,25.91,0,0,1-2.8.07,16.57,16.57,0,0,1-2.2-.72l-.39-1.51.54-1.85,1.56-.94,1.43.13a22,22,0,0,1,1.33,2.27A19.71,19.71,0,0,1,30.9,133.46Z"/><path class="cls-5" d="M25.21,128.21l1.33,2.1.07-.33a3.24,3.24,0,0,1-.93-2.72Z"/><path class="cls-17" d="M39.08,112.89a24.75,24.75,0,0,1-1.43,2.4,16.37,16.37,0,0,1-1.78,1.49l-1.49-.47-1.28-1.45,0-1.81.87-1.16a22.83,22.83,0,0,1,2.63.09A21.45,21.45,0,0,1,39.08,112.89Z"/><path class="cls-5" d="M31.61,114.92h2.48l-.25-.24a3.26,3.26,0,0,1-2.79-.65Z"/><path class="cls-17" d="M52,134a24.41,24.41,0,0,0-2.44.88,14.61,14.61,0,0,0-1.65,1.31l.2,1.37,1.12,1.32,1.68.25,1.2-.58a16.83,16.83,0,0,0,.33-2.29A17.25,17.25,0,0,0,52,134Z"/><path class="cls-5" d="M48.92,140.2l.4-2.15.18.25a2.71,2.71,0,0,0,.16,2.52Z"/><path class="cls-17" d="M74.57,124.22a36.46,36.46,0,0,0-3.66-1.11,21.21,21.21,0,0,0-3.1.11l-1,1.78.16,2.56,1.76,1.76,1.93.37a26.48,26.48,0,0,0,2.41-2.41A25.54,25.54,0,0,0,74.57,124.22Z"/><path class="cls-5" d="M65.54,128.83l2.37-2.19v.45c-2.1,1.51-2,3.12-2,3.12Z"/><path class="cls-20" d="M152.22,57.17c-4.05-12.91,2-11.65,1.62-13.39-.24-1.07-7.12-1.3-10.33,4.14-2.25,3.8-4.94,16.84,2.35,18.92C149.39,67.85,154.12,63.21,152.22,57.17Z"/><path class="cls-20" d="M144,64.64a1.43,1.43,0,1,0-1.56,1.3A1.43,1.43,0,0,0,144,64.64Z"/><path class="cls-20" d="M143.18,62a1.44,1.44,0,1,0-1.56,1.29A1.42,1.42,0,0,0,143.18,62Z"/><path class="cls-20" d="M143,59.46a1.43,1.43,0,1,0-1.56,1.3A1.43,1.43,0,0,0,143,59.46Z"/><path class="cls-20" d="M143.16,56.5a1.43,1.43,0,1,0-1.56,1.29A1.44,1.44,0,0,0,143.16,56.5Z"/><path class="cls-20" d="M143.44,54a1.43,1.43,0,1,0-1.56,1.29A1.44,1.44,0,0,0,143.44,54Z"/><path class="cls-20" d="M144,51.39a1.44,1.44,0,1,0-1.56,1.3A1.44,1.44,0,0,0,144,51.39Z"/><path class="cls-20" d="M145,48.79a1.44,1.44,0,1,0-1.56,1.3A1.44,1.44,0,0,0,145,48.79Z"/><path class="cls-20" d="M146.6,46.83a1.44,1.44,0,1,0-1.56,1.3A1.44,1.44,0,0,0,146.6,46.83Z"/><path class="cls-20" d="M148.56,45.28a1.43,1.43,0,1,0-1.56,1.3A1.43,1.43,0,0,0,148.56,45.28Z"/><path class="cls-20" d="M152.22,48.88a1.44,1.44,0,1,0-1.56,1.3A1.44,1.44,0,0,0,152.22,48.88Z"/><path class="cls-20" d="M152.43,51.74A1.43,1.43,0,1,0,150.87,53,1.44,1.44,0,0,0,152.43,51.74Z"/><path class="cls-20" d="M153.26,54.21a1.44,1.44,0,1,0-1.56,1.3A1.44,1.44,0,0,0,153.26,54.21Z"/><path class="cls-20" d="M153.73,56.94a1.44,1.44,0,1,0-1.56,1.3A1.44,1.44,0,0,0,153.73,56.94Z"/><path class="cls-20" d="M153.82,59.64a1.44,1.44,0,1,0-1.56,1.29A1.44,1.44,0,0,0,153.82,59.64Z"/><path class="cls-20" d="M153.24,62.22a1.43,1.43,0,0,0-1.3-1.55,1.43,1.43,0,0,0-.26,2.85A1.44,1.44,0,0,0,153.24,62.22Z"/><path class="cls-20" d="M152.22,64.43a1.43,1.43,0,0,0-1.3-1.55,1.43,1.43,0,0,0-.26,2.85A1.44,1.44,0,0,0,152.22,64.43Z"/><path class="cls-20" d="M150.25,66a1.44,1.44,0,1,0-1.56,1.29A1.42,1.42,0,0,0,150.25,66Z"/><path class="cls-20" d="M148.14,67.08a1.44,1.44,0,1,0-1.56,1.3A1.44,1.44,0,0,0,148.14,67.08Z"/><path class="cls-20" d="M146,66.07a1.43,1.43,0,1,0-1.56,1.3A1.43,1.43,0,0,0,146,66.07Z"/><path class="cls-21" d="M148.12,65.24a1.28,1.28,0,1,0-1.39,1.33A1.36,1.36,0,0,0,148.12,65.24Z"/><path class="cls-21" d="M148.86,61.72A1.44,1.44,0,1,0,147.3,63,1.43,1.43,0,0,0,148.86,61.72Z"/><path class="cls-21" d="M152,62.19a1.44,1.44,0,1,0-1.56,1.3A1.44,1.44,0,0,0,152,62.19Z"/><path class="cls-21" d="M152,57.36A1.22,1.22,0,1,0,151,59,1.35,1.35,0,0,0,152,57.36Z"/><path class="cls-21" d="M145.28,63.75a1.44,1.44,0,0,0-1.3-1.56,1.42,1.42,0,0,0-1.56,1.29,1.44,1.44,0,0,0,2.86.27Z"/><path class="cls-21" d="M144.17,56.45a1.43,1.43,0,1,0-1.56,1.29A1.42,1.42,0,0,0,144.17,56.45Z"/><path class="cls-21" d="M143,59.18a1.16,1.16,0,0,0-2.3-.21,1.1,1.1,0,0,0,1.05,1.18A1.12,1.12,0,0,0,143,59.18Z"/><path class="cls-21" d="M145.87,59.22a1.17,1.17,0,1,0-1.27,1.22A1.25,1.25,0,0,0,145.87,59.22Z"/><path class="cls-21" d="M147.61,54.59a1.23,1.23,0,1,0-.76,1.66A1.29,1.29,0,0,0,147.61,54.59Z"/><path class="cls-21" d="M148.76,57.9a1.23,1.23,0,1,0-.76,1.66A1.29,1.29,0,0,0,148.76,57.9Z"/><path class="cls-21" d="M150.82,53.11a1.23,1.23,0,1,0-.76,1.66A1.29,1.29,0,0,0,150.82,53.11Z"/><path class="cls-21" d="M146.5,48.93a1.44,1.44,0,1,0-1.56,1.3A1.44,1.44,0,0,0,146.5,48.93Z"/><path class="cls-21" d="M147.73,51.69A1.43,1.43,0,1,0,146.17,53,1.42,1.42,0,0,0,147.73,51.69Z"/><path class="cls-21" d="M144.3,51.81a1.21,1.21,0,1,0-2.41-.22,1.21,1.21,0,1,0,2.41.22Z"/><path class="cls-5" d="M149.29,38.94l-.58-.31a11,11,0,0,1,2.09,3.08l1.48,1.11Z"/><path class="cls-5" d="M156.72,53.12a49.22,49.22,0,0,0,1.57-4.8,29.58,29.58,0,0,0-.06-4.11l-2.34-1.31-3.37.14-2.39,2.28-.54,2.54a34.41,34.41,0,0,0,3.13,3.25A33.2,33.2,0,0,0,156.72,53.12Z"/><path class="cls-5" d="M150.87,41.07l2.83,3.18-.6,0c-1.93-2.82-4.06-2.76-4.06-2.76Z"/><path class="cls-17" d="M153.66,47.23a7.74,7.74,0,0,0,4.68-.87c0-1.08-.11-2.15-.11-2.15l-2.34-1.31-3.37.14-2.39,2.28-.16.77A8.73,8.73,0,0,0,153.66,47.23Z"/><path class="cls-5" d="M138.56,46.66a46.5,46.5,0,0,1,1.72-4.75,28.41,28.41,0,0,1,2.6-3.18l2.7.44,2.61,2.25.49,3.3L147.54,47a35,35,0,0,1-4.53.57A33.93,33.93,0,0,1,138.56,46.66Z"/><path class="cls-5" d="M146.58,35.31s2,.62,2.61.94a21,21,0,0,1,1.9,1.39l0,1.4-.87,1.35-1.63.23L147.33,40a22.55,22.55,0,0,1-.77-2.38A18,18,0,0,1,146.58,35.31Z"/><path class="cls-5" d="M150.74,40.92s-3.08.52-4.24.7L147,42c3.3-1,5,.41,5,.41Z"/><path class="cls-17" d="M150.8,39.58l.34-.54,0-1.4a21,21,0,0,0-1.9-1.39c-.63-.32-2.61-.94-2.61-.94a18,18,0,0,0,0,2.31,1.49,1.49,0,0,0,.06.25,5.9,5.9,0,0,0,1,.8A5.08,5.08,0,0,0,150.8,39.58Z"/><path class="cls-17" d="M148.43,45.22l.25-.5-.49-3.3-2.61-2.25-2.7-.44a28.41,28.41,0,0,0-2.6,3.18.17.17,0,0,1,0,.05,8.55,8.55,0,0,0,2.43,2.35C144.84,45.7,147.19,46,148.43,45.22Z"/><polygon class="cls-17" points="154.5 45.13 153.73 45.72 156.06 51.33 154.5 45.13"/><polygon class="cls-17" points="144.13 43.3 143.46 43.07 139.21 46.15 144.13 43.3"/><polygon class="cls-17" points="143.55 43.35 143.2 42.84 139.56 43.63 143.55 43.35"/><polygon class="cls-17" points="143.86 43.15 143.33 43.45 143.82 47.14 143.86 43.15"/><polygon class="cls-17" points="154.31 46.34 154.3 46.9 157.68 47.84 154.31 46.34"/><polygon class="cls-17" points="154.07 46.56 153.63 46.2 150.79 48.27 154.07 46.56"/><path class="cls-3" d="M72.48,8.21c-2,0-4.49,1-4.88,3.5,2.48-2.23,5.47-2.91,7.75-1.53A4.91,4.91,0,0,0,73.18,3.4C75,4.52,74.9,8.21,72.48,8.21Z"/><path class="cls-4" d="M71.48,100.71c0,1.62,6.1,7.72,9.62,9.68,3.22,1.79,5.61-3,3.06-6.57-1.12-1.58-6-5.53-8.17-6.25S71.48,100.71,71.48,100.71Z"/><path class="cls-4" d="M74,106.38c-.09,1.65,2.54,5.42,5.7,7.51,2.88,1.91,6.32-2.1,5.84-4s-5.28-5.79-7.24-6.58S74,106.38,74,106.38Z"/><path class="cls-4" d="M69.49,108.9c-.21,1.47,2.34,4.92,5.4,7.07s7.08-.71,6.72-2.43-5.45-6.3-7.44-7.12S69.49,108.9,69.49,108.9Z"/><path class="cls-4" d="M65.2,111c-.21,1.47,2.35,4.92,5.4,7.07s7.09-.71,6.72-2.43-5.45-6.3-7.44-7.12S65.2,111,65.2,111Z"/><path class="cls-7" d="M74.7,97.58c3,1.75,10.5,8.89,10.78,11.27s-10.28,9.76-14.16,8.49c-1.93-.63-8-7.92-8.59-10.08S74.7,97.58,74.7,97.58Z"/><path class="cls-7" d="M153.73,39.48a4.06,4.06,0,0,1,2.7-1.69c.48.1,2.27,1.8,2.11,2.43A4,4,0,0,1,156.45,42C155.7,42.24,153.39,40.14,153.73,39.48Z"/><path class="cls-22" d="M77.63,14c-.63.1-1.1.55-.93.63s1.63-.12,1.7-.39A.84.84,0,0,0,77.63,14Z"/><path class="cls-19" d="M74.75,14.14A19.24,19.24,0,0,0,76,17.38a8.8,8.8,0,0,0,3.11-.1c.72-.28.69-1.45.69-1.45L75.51,13Z"/><path class="cls-7" d="M73.87,13.77A18.94,18.94,0,0,0,75,17.06a8.85,8.85,0,0,0,3.1,0c.74-.24.75-1.41.75-1.41L74.68,12.4Z"/><path class="cls-2" d="M70.62,15.43a7,7,0,0,0,4.88-1.94s-.33-1.74-1.29-1.92-4.21,1.61-4.37,2S70.62,15.43,70.62,15.43Z"/><path class="cls-2" d="M76.17,13.41c-.07-.05-1-1.22-.87-1.73a1.77,1.77,0,0,1,2.55-.41c.91.83,1.14,1.93.73,2.09A13.49,13.49,0,0,1,76.17,13.41Z"/><path class="cls-22" d="M73.8,15c-.78.21-1.35.75-1.14.8s2-.42,2.07-.7A1,1,0,0,0,73.8,15Z"/></g></g></g></svg>