<?xml version="1.0" encoding="utf-8"?>
<!-- Generator: Adobe Illustrator 22.0.0, SVG Export Plug-In . SVG Version: 6.00 Build 0)  -->
<svg version="1.1" id="Layer_1" xmlns="http://www.w3.org/2000/svg" xmlns:xlink="http://www.w3.org/1999/xlink" x="0px" y="0px"
	 viewBox="0 0 247.3 279.3" style="enable-background:new 0 0 247.3 279.3;" xml:space="preserve">
<style type="text/css">
	.st0{fill:#A4EDC5;}
	.st1{fill:#BDB0CC;}
	.st2{fill:#D1C5DD;}
	.st3{fill:#B9F9D4;}
	.st4{fill:#564D60;}
	.st5{fill:#684770;}
	.st6{fill:#463756;}
	.st7{fill:#9D7CA5;}
	.st8{fill:#92709B;}
	.st9{fill:#8A6393;}
	.st10{opacity:0.6;fill:#86628C;enable-background:new    ;}
	.st11{fill:#342635;}
	.st12{fill:#4B394C;}
	.st13{fill:#AEA0BA;}
	.st14{fill:#A5EFE1;}
	.st15{fill:#8FA7BC;}
	.st16{fill:#917EA5;}
	.st17{fill:#7E5987;}
	.st18{fill:#A686AD;}
	.st19{fill:#342E3D;}
	.st20{fill:#312C3A;}
	.st21{fill:#443C4F;}
	.st22{fill:#FFCB48;}
	.st23{fill:#E3FFEF;}
	.st24{fill:#BACEDD;}
</style>
<title>HADES</title>
<g>
	<g id="Layer_2_1_">
		<g id="_1">
			<path class="st0" d="M247.1,43.1c-0.2-0.2-0.4-0.4-0.6-0.6c-0.2-0.4-0.4-0.8-0.4-1.3c-0.1-2.2-0.2-4.4-0.4-6.6
				c-0.2-3-0.4-2.5-1.9-5.2s-4.3-4.6-4.9-7.6c-1-0.3-1.7-1.2-2.1-2.3c-0.3-1.1-0.6-2.1-0.7-3.2c-0.6-2.6-1.6-4.9-3.1-6.9
				c0.6,1.3,0.8,2.8,0.7,4.3c-0.1,2.1-0.4,4.3,0.5,6.2c-0.6,0.6-1.1,1.1-1.6,1.7c0.3,0.9,0.5,1.7,0.8,2.5c0.2,0.6,0.4,1.3,0.4,1.9
				c0,0.5-0.2,1-0.4,1.5c-0.3,0.9-0.7,1.9-1,2.8c-0.1,0.4-0.3,0.9-0.7,1c-0.2,0-0.4,0.1-0.6,0.1c-0.7,0.1-1,1.1-1.3,1.9
				c-0.3,0.8-0.9,1.6-1.5,1.3c-0.2-0.1-0.3-0.3-0.4-0.5c-1-1.7-1-3.9-0.5-5.9c-1.9,2.8-3.7,6.2-3.2,9.9c0.2,2.1,1.1,4.6,0,6.1
				c-0.2,0.3-0.6,0.6-0.8,0.9c-0.3,0.7-0.5,1.5-0.4,2.3c0,0.8-0.1,1.6-0.5,2.2c-0.5,0.6-1.2,0.6-1.7,0.1c0,0-0.1-0.1-0.1-0.1
				c-0.1-0.3-0.2-0.7-0.2-1c0-0.7,0.1-1.5,0.3-2.1c-1,2.7-1.3,5.7-0.8,8.6c0.9,4.3,3.8,7.8,6.9,10.7c1.1,0.9,2.1,2,3,3.2
				c-0.8,2.4-0.5,5.3-0.1,8c0.4,3.2,0.9,1.4,1.3,4.6l0.4-1c0-0.5,0.1-1,0.3-1.5c0.5-0.9,1.6-1,2.5-1.2c1.8-0.5,3.2-2.1,3.8-4.1
				c0.5-2,0.2-4.3,1-6.2c0.6-1.5,1.7-2.6,2.7-3.7c1.3-1.5,2.4-6.8,3.3-8.7c0.3-0.5,0.5-1.2,0.5-1.9c-0.1-0.8-0.7-1.5-0.7-2.3
				c-0.1-0.8,0.5-1.4,0.9-2c0.9-1.3,1.5-2.8,1.6-4.5C247.4,43.8,247.3,43.4,247.1,43.1z"/>
			<path class="st1" d="M211.7,112c8.6,3.7,12.8,2.5,12.8,2.5l1.1,3.6c0,0-3.1,3.2-3.4,4.5c-0.3,1.3,0.4,4.3,2.4,3.8
				c2-0.5,7.5-6.9,7.3-9.5c-0.2-2.6-4-8.7-4-8.7l-16.1,1.2L211.7,112z"/>
			<path class="st1" d="M205.8,108.5c8.6,3.7,12.8,2.5,12.8,2.5l1.1,3.5c0,0-3.1,3.2-3.4,4.5c-0.3,1.3,0.4,4.3,2.4,3.8
				c2-0.5,7.5-6.9,7.3-9.5c-0.2-2.6-4.1-8.7-4.1-8.7l-16.1,1.2L205.8,108.5z"/>
			<path class="st2" d="M216.4,99.7c7.7,2.2,13.3,1.7,14.5,2.9s5.4,12.1,5,14.2c-0.4,2.1-7.2,12.4-8.4,12.2s-2.5-2.3-2.4-4.4
				c0.1-2.1,5.4-7.3,5.5-8.2c0.1-1-2.3-6.3-2.4-6.7c-0.2-0.4-12.6,4.8-16.6,1.8C207.5,108.5,216.4,99.7,216.4,99.7z"/>
			<path class="st1" d="M58.5,153.4c-2,0.7-9.4,1.1-10.6,2.2c-1.2,1.1-5,9.2-5.4,9.8c-0.5,0.6,1.4,4,2.5,2.2
				c1.1-1.7,4.5-6.4,5.2-7.3s3.1,1,6.3-0.4C57.3,159.5,60.5,152.7,58.5,153.4z"/>
			<path class="st1" d="M52.8,157.7c-0.7,1-4.4,7.7-4.1,8.3s2.1,2.3,2.8,1.5s2.4-5.3,3.1-6.1c1.5-1.2,3.1-2.4,4.7-3.4L52.8,157.7z"
				/>
			<path class="st0" d="M229.6,76.9l-0.6-7c0.1,0.2,0.2,0.5,0.4,0.7C230.2,72.6,229.9,74.8,229.6,76.9z"/>
			<path class="st3" d="M243.7,45.5l0.2-1.9c0.2-1.3,0.2-2.6,0.1-3.9c-0.4-2.5-1.8-4.4-3.1-6.4c-1.2-1.9-2.3-3.8-3.3-5.9
				c-1-1.9-1.7-3.9-2.2-6.1c-0.6-2.9-0.2-6-1.1-8.8c-0.2-0.6-0.4-1.3-0.7-1.9c0.2,0.9,0.3,1.9,0.2,2.9c-0.1,2.1-0.4,4.3,0.5,6.2
				c-0.6,0.6-1.1,1.1-1.6,1.7c0.3,0.9,0.5,1.7,0.8,2.5c0.2,0.6,0.4,1.3,0.4,1.9c0,0.5-0.2,1-0.4,1.5c-0.3,0.9-0.7,1.9-1,2.8
				c-0.1,0.4-0.3,0.9-0.7,1c-0.2,0-0.4,0.1-0.6,0.1c-0.7,0.1-1,1.1-1.3,1.9c-0.3,0.8-0.9,1.6-1.5,1.3c-0.2-0.1-0.3-0.3-0.4-0.5
				c-1-1.7-1-3.9-0.5-5.9c-0.8,1.2-1.6,2.5-2.2,3.8c0.1,0.2,0.1,0.5,0.2,0.7c0.2,1.8-0.8,3.8-0.1,5.4c0.4,0.9,1.2,1.4,1.8,2.1
				c1.1,1.4,1.2,3.6,0.8,5.5c-0.4,1.9-1.2,3.6-1.7,5.5c-0.6,2.1-0.6,4.3-0.1,6.4c0.5,2.1,1.8,3.9,3.5,4.8c0.6,0.3,1.3,0.5,1.9,0.9
				c0.6,0.3,1.1,1,1.2,1.8c0.6-0.9,1.2-1.8,1.7-2.7c-0.1,1.2,1.2,2,2.1,1.6c0.9-0.5,1.6-1.4,2-2.5c1-2.3,1.8-4.7,2.4-7.2
				c0.1-0.6,0.3-1.2,0.5-1.8c0.2-0.3,0.4-0.6,0.6-0.9C243.2,49.9,243.5,47.6,243.7,45.5z"/>
			<polygon class="st4" points="230.3,80.1 206.1,278.1 208.5,278.1 231.6,80.2 			"/>
			<path class="st2" d="M150.6,90.2c17.2,9.2,27.4,9,30.5,9.2s16.5-7.8,16.9-9.6c0.3-1.7-19.5-36.9-40.1-42.7S150.6,90.2,150.6,90.2
				z"/>
			<path class="st1" d="M150.6,90.2c17.2,9.2,27.4,9,30.5,9.2c1.1,0.1,3.6-1,6.4-2.4c-7.5-11.3-20.2-26.7-33.2-30.3
				c-3.4-1-5.9-0.4-7.6,1.2C147.3,75.4,148.7,82.9,150.6,90.2z"/>
			<path class="st5" d="M143.7,107.1c11.2,11.1,22.1,23.2,22.1,23.2l-7.2,12.4l-11-15.8L143.7,107.1z"/>
			<polygon class="st6" points="179.8,239.1 150.6,240 133.1,279 198.8,279 			"/>
			<polygon class="st2" points="140.9,172.8 180.3,274.8 181.3,274.1 165.7,171.4 			"/>
			<path class="st2" d="M161.5,134c0,0-9.4-21.8-4.7-39.4l-42-25.3C122.1,90.5,142.4,131.1,161.5,134z"/>
			<path class="st1" d="M139.9,106.3c5.2-2.3,11.5,1.2,16.3,8.5c-1-6.4-1.2-13.6,0.6-20.2l-42-25.3c5.3,14.8,12.2,28.8,20.5,41.5
				C136.4,108.8,138,107.2,139.9,106.3z"/>
			<path class="st1" d="M134.4,103.6c13.6,19.6,16.5,21.7,20.8,23.4s-4,11.4-4,11.4l-19-27.6L134.4,103.6z"/>
			<path class="st1" d="M146.9,135.6c9.8-15.6,8.8-24.5,8.8-24.5l5.6,23.9L146.9,135.6z"/>
			<path class="st2" d="M158.4,96.5c-1,1-23.1,1.7-24.3,0.8S130.5,80,130.5,80s0.2,16.5-0.7,17.2c-0.8,0.8-25,0.2-26.2-1
				c-1.2-1.2-5.2-37.2-4.1-39.8c4.6-10.9,26.7-20.1,29.6-20.1c2.9,0,30.5,9.7,33.3,13.8C164,52.4,159.4,95.5,158.4,96.5z"/>
			<path class="st2" d="M173.1,92.3c7.2,14,8.7,14.2,8.7,14.2s22.2,2.1,28.2,4.9c6,2.9,11.1-8,8.7-9.9c-5.7-4.3-10.8-21.5-30-24.2
				S173.1,92.3,173.1,92.3z"/>
			<path class="st1" d="M175.2,81.4c-2.9-3.8-3.5,11.5-3.5,11.5c7.5,13.4,9.8,13.9,9.8,13.9s22.2,1.9,28.4,4.8
				C213.3,113.1,186.6,96.4,175.2,81.4z"/>
			<path class="st2" d="M85,113.9c5.8-27,8.3-53.8,17.2-61.4s10.2,56.8,1.3,71.2S85,113.9,85,113.9z"/>
			<path class="st1" d="M107.4,49.4c-6.2,3.1-12.4,51.3-21.9,62.1c-0.4,8.3,8.1,8.4,8.5,15.5c2.8,2.1,6.2,2,9.7-3.5
				C112.9,109.5,115.1,49.2,107.4,49.4z"/>
			<path class="st2" d="M100.1,123.7l-7.2-18.6c0,0-13.3,9.5-18.5,14s-8.7,12.5-16.7,31.1l6.4,8c6.2-9.4,18.1-11.5,25-13.8
				C96.1,142.1,100.1,123.7,100.1,123.7z"/>
			<path class="st1" d="M101.9,122.1l-9-17c0,0-4.4,3.1-9.1,6.6c3.8-0.8,6.6-0.3,7.9,1.8c2.9,4.9-4,16.6-15.4,26.1
				c-6.6,5.5-13.3,9-18.4,10.1l-0.2,0.5l6.4,8c6.2-9.4,18.1-11.5,25-13.8C96.1,142.1,101.9,122.1,101.9,122.1z"/>
			<path class="st1" d="M140.4,114.5C124.6,90,125,59.9,125,59.9l-12.7-5.7c0,0,0.2,12.2,7,29.7S140.4,114.5,140.4,114.5z"/>
			<path class="st7" d="M73.2,279h66c0,0,21.2-0.9,24.6-9.5c3.4-8.6,8.3-24.7,11.7-25.3c3.4-0.5,20.4,34.7,20.4,34.7h9.4l2.7-5.4
				l-11.2-10.6c0,0-17-48.5-18-59.7s-7.3-27.8-7.3-27.8s4.1-23.5-5.6-45c0,0-19.5,6.9-37.5-39.9s-14.8-51.4-14.8-51.4
				c-2.3-1.2-5,0.1-6.1,2.8c-0.1,0.3-0.2,0.6-0.2,0.9c-1.6,6-9.6,48.2-9.6,50.8c0,2.6,2.7,6,2.7,6s-6.1,21.5-5.6,25.3
				c0.3,2.2,0.9,4.3,1.7,6.3c0,0-9.4,57.4-10,60.8c-0.5,3.5,2.9,39,2.9,39s-7,13.7-8.3,18.6c-1.5,5.7-1.7,17.8-1.7,17.8
				s-3.7,0.3-4.6,1.2S73.2,279,73.2,279z"/>
			<path class="st8" d="M122.8,170.1c-5.3-17.4-9.3-35.4-12.1-53.6c-0.2-1.1,8.6,5.8,8.4,4.7c-6.3-29.3-13.8-62.4-11.4-79.3
				c-0.1,0.3-0.2,0.6-0.3,1c-1.8,5.9-9.7,48.2-9.7,50.7c0,2.6,2.7,6,2.7,6s-6.1,21.5-5.6,25.3c0.3,2.2,0.9,4.3,1.7,6.3
				c0,0-9.4,57.4-10,60.8c-0.5,3.5,2.9,39,2.9,39s-7,13.7-8.3,18.6c-1.5,5.7-1.7,17.8-1.7,17.8s-3.7,0.3-4.6,1.2S73.2,279,73.2,279
				h66c0,0,21.2-0.9,24.6-9.5c0.1-0.2,0.2-0.5,0.3-0.8c-10.4-18.5-19.5-37.9-27.2-58.1C109.1,207.3,112.6,180.3,122.8,170.1z"/>
			<path class="st9" d="M189,239.7c-5.5-2.6-12.4-5.6-15.3-5.7c-3.8-0.2-34,29.5-49.5,45.1h15c3.4-0.2,6.7-0.6,10-1.2
				c18.7-32.7,23.6-38.2,25.5-37.7c1.9,0.5,17.4,17.5,22,22.6C196.1,260.7,192.7,250.9,189,239.7z"/>
			<path class="st9" d="M92.5,154.3c-5.5,37.8,68.3,29.3,72.3,29.3c5.6,0,8.2-4,7.8-5.2c-0.7-1.9-1-3-1-3l0.1-0.4
				c-21.6,1.9-64.3-62.7-63.7-133.9c-0.3,0.5-0.5,1.1-0.6,1.7c-0.4,1.2-1,4.1-1.8,7.8c0.4,20.7,10.4,60,10.7,64.8
				c0.3,4.8-7.9-4.7-18.2-25.4c-0.2,1.2-0.4,2.4-0.5,3.6c0,2.6,2.7,6,2.7,6s-0.4,1.3-0.9,3.4c23.3,38,44.5,59.2,41.1,59.4
				c-3.1,0.1-31.6-18.7-45.6-36.6c0.3,1.8,0.8,3.6,1.6,5.3C96.3,131.2,94.6,141.9,92.5,154.3z"/>
			<path class="st9" d="M178.6,201.4c-12.4-6.9-11-7.1-14.2-7.4c-3.2-0.3-72.9,39.2-78.2-1c0,6.7,3,38.1,3,38.1s-7,13.7-8.3,18.7
				c-1.5,5.7-1.7,17.8-1.7,17.8s-3.7,0.3-4.6,1.2S73.2,279,73.2,279h48.4c28.7-35.8,40.2-74.6,45.3-76.3c3.5-1.2,9.1,2.8,12.9,6.2
				c-0.5-1.8-0.8-3.7-1-5.6C178.8,202.7,178.7,202,178.6,201.4z"/>
			<path class="st2" d="M179.6,279.3H199c0.7-3.7-7.1-2.3-10.5-4.5s-7.8-5.2-8.9-3.6C178.6,272.8,179.6,279.3,179.6,279.3z"/>
			<path class="st10" d="M130.9,65c0.4,1.2,1.9,1.4,3.1,1.4c1,0.1,2,0,3-0.2c0.9-0.2,1.7-1.1,2-2.2c0.9-0.2,1.7-0.7,2.5-1.3
				c0.7-0.6,1-1.7,0.6-2.6c1.3,0.5,2.7,0.2,3.7-0.7c1-0.9,1.8-2,2.4-3.3c0.7-1.1,1.2-2.4,1.5-3.8c0.3-1.4,0-2.8-0.9-3.8
				c-0.3-0.4-0.8-0.7-0.8-1.2c0-0.5,0.3-0.9,0.4-1.3c0.1-0.5-0.5-1-0.8-0.7c0.7-0.4,1.4-1.1,1.8-1.9c-8.7-3.4-18.5-6.8-20.2-6.8
				c-1.7,0-8.6,2.5-15.5,6.5c-0.5-3.3,0-3.9,0-3.9c-0.9-0.4-1.9-0.5-2.9-0.3l0,0c-0.6,0.2-1,1-0.8,1.7c0,0.1,0.1,0.2,0.1,0.3
				c-0.5-0.4-1.1-0.5-1.7-0.4c-0.2,0.3-0.4,0.6-0.5,1l0,0l-0.1,0.3l-0.1,0.2l-0.1,0.2c0,0.2-0.1,0.3-0.1,0.5c0,0.2,0,0.2-0.1,0.3
				v0.1v0.2v0.1c0,0.1,0,0.1-0.1,0.2v0.2l-0.3,0.3V44c0,0.1,0,0.2,0,0.2l-0.1,0.4c0,0.1,0,0.1,0,0.2l-0.1,0.3v0.2l-0.1,0.4v0.2
				c0,0.1-0.1,0.3-0.1,0.4v0.1c-0.1,0.3-0.1,0.6-0.2,0.9c0.1,0.4,0.3,0.8,0.4,1.1c0.1,0.2,0.2,0.5,0.3,0.7c0.3,0.3,0.7,0.5,1,0.6
				l1.8,0.6c-0.9,0-1.4,1.2-1.4,2.2c-0.2,1.2,0,2.5,0.4,3.6c0.5,1.2,1.5,2,2.7,1.9c-0.4,0.9,0.7,1.7,1.6,1.8c0.9,0.1,2,0,2.6,0.8
				c0.3,0.6,0.4,1.2,0.4,1.9c0.3,1.4,1.2,2.5,2.4,2.9c1.2,0.4,2.8-0.7,3.6-0.3C122.5,69.7,131,70.3,130.9,65z"/>
			<path class="st11" d="M147.9,46c-0.3-0.4-0.7-0.8-0.8-1.2c0-0.5,0.3-0.9,0.4-1.4c0.1-0.5-0.4-1.1-0.7-0.7c1.5-1,2.3-2.9,2.2-4.9
				c-0.2-2-1.4-3.6-3-4.2c0.5-0.6,0.4-1.6-0.1-2.2c-0.1-0.1-0.2-0.2-0.3-0.2c0.8-1.7,1.1-3.7,0.9-5.6c0-0.5-0.1-1-0.4-1.4
				c-0.3-0.4-0.8-0.7-1.3-0.9l-2.8-1.2c-0.5-0.8-0.9-1.7-1-2.6c-0.2-0.9-0.8-2-1.7-1.9c0.2-1.1-0.2-2.2-1-2.8
				c-0.8-0.6-1.9-0.7-2.7-0.1c-0.7-2.7-2.5-4.8-4.8-5.7c-2.4-0.8-4.9-0.7-7.2,0.3c-1.6,0.6-3.1,1.7-4.2,3.2
				c-1.1,1.5-1.6,3.5-1.4,5.5c-0.4,0-0.7,0.1-1,0.2c-0.1,0.5,0.1,1.1,0.5,1.3c-0.3,0-0.7,0.2-0.7,0.6c0,0.4,0.2,0.7,0.5,0.8
				c0,0,0,0,0,0c-0.2,0.2-0.3,0.4-0.3,0.7c-0.8-1-2.3-0.4-3.3,0.4c-1.6,1.1-2.8,2.7-3.5,4.7c-0.6,2-0.1,4.2,1.3,5.5l-0.7,0.5
				c0.1,0.4,0.3,0.7,0.6,1c-0.6,0.4-0.8,1.2-0.5,1.9c0.1,0.2,0.3,0.4,0.5,0.6c-0.7,0.3-1,1.1-0.8,1.9c0,0.1,0,0.1,0.1,0.2
				c-0.9-0.7-2.1-0.6-2.9,0.2c-0.9,1-1.4,2.4-1.3,3.8c0.1,1.4,0.4,2.8,0.9,4.1c0.1,0.3,0.2,0.5,0.3,0.7c0.3,0.3,0.6,0.5,1,0.6
				l1.7,0.6c-0.9,0-1.3,1.2-1.4,2.3c-0.2,1.2-0.1,2.5,0.3,3.7c0.4,1.2,1.4,2,2.5,2c-0.4,0.9,0.7,1.8,1.5,1.9c0.9,0.1,1.9,0,2.5,0.8
				c0.3,0.6,0.4,1.3,0.4,1.9c0.2,1.4,1.1,2.6,2.3,3c1,0.4,2.6-0.7,3.4-0.3c0.3,4.8,8.5,5.3,8.5-0.2c0.4,1.2,1.8,1.4,2.9,1.5
				c1,0.1,1.9,0,2.9-0.3c0.9-0.3,1.7-1.2,1.9-2.3c0.9-0.3,1.7-0.7,2.4-1.4c0.7-0.6,1-1.8,0.6-2.7c1.2,0.5,2.6,0.2,3.6-0.7
				c1-0.9,1.8-2.1,2.4-3.4c0.7-1.2,1.2-2.5,1.5-4C149.1,48.6,148.8,47.1,147.9,46z"/>
			<path class="st12" d="M145.3,37.9c-0.3-0.4-0.6-0.7-0.7-1.2c0-0.5,0.2-0.9,0.3-1.3c0.1-0.5-0.4-1-0.6-0.7
				c0.9-0.8,1.5-1.9,1.8-3.2c-0.1-0.2-0.3-0.3-0.5-0.4c0.2-0.5,0.4-0.9,0.5-1.4c-0.2-1.7-1.2-3.1-2.6-3.7c0.4-0.7,0.3-1.7-0.3-2.2
				c0,0-0.1-0.1-0.1-0.1c0.1-0.4,0.3-0.8,0.4-1.2l-1.4-0.6c-0.5-0.8-0.9-1.7-1-2.6c-0.2-0.9-0.8-2-1.7-1.9c0.2-1.1-0.2-2.2-1-2.8
				c-0.8-0.6-1.9-0.7-2.7-0.1c-0.7-2.7-2.5-4.8-4.8-5.7c-2.4-0.8-4.9-0.7-7.2,0.3c-1.6,0.6-3.1,1.8-4.2,3.3
				c-0.3,0.4-0.6,0.9-0.8,1.4c0.1,0,0.1,0.1,0.2,0.1c-0.2,0.2-0.3,0.4-0.2,0.7c-0.1-0.1-0.1-0.2-0.2-0.2c-0.4,1.1-0.5,2.3-0.3,3.5
				c-0.4,0-0.7,0.1-1,0.2c-0.1,0.5,0.1,1.1,0.5,1.3c-0.3,0-0.7,0.2-0.7,0.6c0,0.4,0.2,0.7,0.5,0.8c0,0,0,0,0,0
				c-0.2,0.2-0.3,0.4-0.3,0.7c-0.8-1-2.3-0.4-3.3,0.4c-0.3,0.2-0.6,0.4-0.8,0.7c0.2,0.8,0.6,1.5,1.2,2l-0.6,0.5
				c0.1,0.4,0.3,0.7,0.5,1c-0.5,0.5-0.7,1.4-0.3,2c0.1,0.1,0.2,0.2,0.3,0.3c-0.6,0.3-0.9,1.2-0.6,1.9c0,0,0,0,0,0.1
				c-0.8-0.6-1.8-0.5-2.5,0.2c-0.1,0.1-0.2,0.2-0.3,0.4c0.2,0.4,0.6,0.8,0.9,1.1l-0.7,0.5c0.1,0.4,0.3,0.7,0.6,1
				c-0.6,0.4-0.8,1.2-0.5,1.9c0.1,0.2,0.3,0.4,0.5,0.6c-0.7,0.3-1,1.1-0.8,1.9c0,0.1,0,0.1,0.1,0.2l-0.2-0.1v0.2
				c0.1,0.2,0.1,0.5,0.3,0.7c0.2,0.3,0.5,0.5,0.8,0.6l1.5,0.6c-0.8-0.1-1.1,1.2-1.2,2.1c-0.1,1.2,0,2.4,0.3,3.6
				c0.3,1.1,1.2,1.9,2.2,1.9c-0.3,0.9,0.6,1.7,1.3,1.8s1.7,0,2.1,0.8c0.2,0.6,0.4,1.2,0.4,1.9c0.2,1.3,0.9,2.4,2,2.9
				c0.9,0.4,2.3-0.7,2.9-0.3c0.3,4.5,7.3,5.1,7.3-0.2c0.3,1.1,1.5,1.4,2.5,1.4c0.8,0.1,1.6,0,2.4-0.2c0.8-0.3,1.4-1.2,1.6-2.2
				c0.8-0.3,1.4-0.7,2-1.3c0.6-0.7,0.8-1.7,0.5-2.6c1,0.5,2.2,0.2,3.1-0.7c0.9-0.9,1.6-2,2-3.3c0.6-1.2,1-2.4,1.2-3.7
				C146.3,40.4,146,39,145.3,37.9z"/>
			<path class="st11" d="M138,19.7c0.1,0,0.2-0.2,0.2-0.3c0,0,0,0,0,0c0-0.1-0.1-0.3-0.1-0.4c-0.4-0.6-0.9-1.2-1.4-1.5
				c-0.4-0.2-0.7-0.3-1.1-0.3c-0.7-0.1-1.4-0.1-2.1-0.1c-0.8-0.1-1.6,0-2.4,0.1c-0.8,0.1-1.6,0.4-2.4,0.6c-0.9,0.1-1.8,0.1-2.6,0
				c-1.2,0-2.4-0.2-3.6-0.4c-0.8-0.3-1.6-0.4-2.4-0.2c-0.2,0.1-0.3,0.2-0.4,0.3c-0.2,0.3-0.1,0.7,0.2,0.9c0.1,0,0.2,0.1,0.2,0.1
				c-0.5,0.2-0.7,0.9-0.7,1.5c0,0.5,0.1,0.9,0.4,1.2c0.3,0.2,0.6,0.2,0.9,0l0.2-0.1c0.1,0,0.3-0.1,0.4-0.2l0.1-0.1l0.2-0.2h-0.1
				c0.1-0.2,0.1-0.3,0.2-0.4c0.1-0.1,0.2-0.2,0.4-0.3c0.5-0.3,1.1-0.5,1.6-0.7c1.3-0.5,2.6-0.7,3.9-0.7c0.7,0,1.4,0.3,2.1,0.3
				c0.7-0.1,1.5-0.1,2.2,0c0.8,0.2,1.6,0.7,2.4,0.8c0.3,0,0.5,0.1,0.8,0.2c0.3,0.3,0.4,0.8,0.6,1.2c0.3,0.4,0.7,0.6,1.1,0.6
				c-0.3,0.2-0.1,0.7,0.2,0.8c0.3,0,0.6-0.2,0.8-0.4C138.1,21.3,138.3,20.4,138,19.7z"/>
			<path class="st13" d="M123.2,17.9h10.6l-0.1,0.4c-0.4,1.9-1.8,2.8-3,1.9l-1.8-1.2h-0.8l-1.9,1.2C124.9,21,123.5,19.9,123.2,17.9
				L123.2,17.9z"/>
			<polygon class="st11" points="131.1,19.7 129.4,17.7 133,17.4 			"/>
			<polygon class="st14" points="131.1,18.7 129.9,17.9 132.5,17.8 			"/>
			<polygon class="st11" points="126.2,19.5 124.5,17.6 128.1,17.2 			"/>
			<polygon class="st14" points="126.2,18.9 125.1,17.7 127.5,17.7 			"/>
			<path class="st15" d="M118.2,7.4l0.6,6.2L139,15l-0.3-12.9c0,0-2.6,7.2-6.3,6.4c-3.7-0.8-5.7-8.5-5.7-8.5s-1,8.9-4.3,9.5
				C119.3,10,118.2,7.4,118.2,7.4z"/>
			<path class="st4" d="M231.7,68.3c0,0-6.1-9.1-5.9-10.5s4-19.5,4.5-19.3c0.5,0.2-0.4,16.1-0.4,16.1s2.8,4.1,3.8,4.4
				c1,0.3,5.6-3.6,5.6-3.6s2.9-17.9,3.2-18.1c0.3-0.2,0.3,21.3,0.3,21.3L232,70.6L231.7,68.3z"/>
			<path class="st2" d="M65.2,155.2c-4.2,8.1-6.5,11-6.5,11.7c0,0.6,0.7,6.9-1.4,9.7c0,0-3.3-0.7-3.1-1.8c0.2-1.1,1-4.2,0-6.2
				s0.4-7.2-1-8.9c-1.9-2.4,4.8-6.2,8.5-6.9C65.8,152.2,65.2,155.2,65.2,155.2z"/>
			<path class="st2" d="M60.6,145.7c-2.8,3.6-6,6.1-8.4,6.6c-2.4,0.5-6.3,0-7.8,0.9s-6.2,9.4-6.8,9.9c-0.6,0.5,1.6,4.5,3,2.8
				c1.4-1.7,4.4-6.2,5.2-7c0.9-0.8,7.3-0.1,8.9,2.1c0.7,0.9,9.4-5,9.8-5.4C64.7,155.3,60.6,145.7,60.6,145.7z"/>
			<polygon class="st4" points="54.1,149.7 58.7,142.2 68.3,156.1 62.5,162 			"/>
			<path class="st7" d="M156.3,92.5c0-1.1-1.3-2-3-2s-3,0.9-3,2s1.3,2,3,2S156.3,93.6,156.3,92.5z"/>
			<path class="st1" d="M154.8,92.5c0-0.6-0.7-1-1.5-1s-1.5,0.4-1.5,1c0,0.6,0.7,1,1.5,1S154.8,93,154.8,92.5z"/>
			<polygon class="st16" points="127.9,17.9 127.6,20.8 128.9,21.7 129.9,20.8 129.1,17.9 			"/>
			<polygon class="st13" points="128.1,17.7 127.8,20.6 128.9,21.4 129.7,20.6 129.1,17.8 			"/>
			<path class="st12" d="M118.4,16.4c4.1,2.3,11,1.5,11,1.5c-0.3-0.8-0.8-1.3-1.5-1.6c-0.6-0.3-1.2-0.1-1.6,0.5c0,0-1.1-2.2-2.3-1.9
				c-0.7,0.1-1.2,0.7-1.3,1.5C120.4,14.4,118.9,14,118.4,16.4z"/>
			<path class="st12" d="M139.2,16.4c-3.8,2.3-10.1,1.5-10.1,1.5c0.2-0.7,0.7-1.3,1.4-1.6c0.5-0.2,1.1-0.1,1.5,0.5
				c0,0,1-2.2,2.2-1.9c0.6,0.1,1.1,0.8,1.2,1.5C137.3,14.4,138.7,14,139.2,16.4z"/>
			<path class="st12" d="M136.9,57.6c-0.4-1.7-1.7-2.9-3.2-2.8c-1.6,0-2.7,1.2-2.6,2.8c0.4,1.7,1.7,2.9,3.2,2.8
				C136,60.4,137.1,59.2,136.9,57.6z"/>
			<path class="st11" d="M127.8,42.7c0.1,0.1,0.2,0.2,0.2,0.3C127.9,42.9,127.8,42.8,127.8,42.7z"/>
			<path class="st11" d="M130.1,48.6c0,0.6,0.1,1.2,0.3,1.8C130.3,49.8,130.2,49.2,130.1,48.6z"/>
			<path class="st11" d="M131.8,43.4c-1.2,0.7-2.7,0.5-3.8-0.4c0.7,0.9,0.8,2.3,0.1,3.3c0.9,0,1.6,0.7,2,2.3
				C130,46.7,130.6,44.8,131.8,43.4z"/>
			<path class="st11" d="M141.1,38.2l0.2-0.1C141.2,38.1,141.1,38.1,141.1,38.2z"/>
			<path class="st11" d="M144.6,37.3c0.3,0,0.7,0,1,0C145.3,37.2,145,37.2,144.6,37.3z"/>
			<path class="st11" d="M142,35.2c0.2,1-0.1,2.1-0.8,2.8c0.6-0.4,1.4-0.2,1.8,0.4c0.1-0.7,0.6-1.1,1.5-1.2
				C143.6,37,142.6,36.3,142,35.2z"/>
			<path class="st11" d="M116.4,42.7c0,0.1,0,0.3,0,0.4C116.4,42.9,116.4,42.8,116.4,42.7z"/>
			<path class="st11" d="M113.9,48.5c-0.4,0.4-0.8,0.8-1,1.3C113.2,49.4,113.5,49,113.9,48.5z"/>
			<path class="st11" d="M118.4,46.8c-1.2-0.7-2-2.1-2.1-3.7c-0.2,1.2-1.1,2.1-2.1,2.2c0.6,0.9,0.5,1.9-0.3,3.3
				C115.1,47.2,116.7,46.6,118.4,46.8z"/>
			<path class="st11" d="M120.9,49.5c0,0-3-2.6-3.3,2.6l2.1,2.5C117.9,51.4,119.7,49,120.9,49.5z"/>
			<path class="st11" d="M121.9,57.2l-2.2-2.6C120.3,55.6,121,56.5,121.9,57.2z"/>
			<path class="st17" d="M144.3,215.5c-8.3,7.8-51.8,15.7-51.8,15.7c-1.8-5.1-3.3-10.3-4.6-15.6c0.7,8.3,1.4,15.5,1.4,15.5
				s-7,13.7-8.3,18.6c-1.5,5.7-1.7,17.8-1.7,17.8c-1.4,0.1-2.9,0.4-4.3,0.9C107.4,264.3,152.3,207.9,144.3,215.5z"/>
			<path class="st18" d="M165.9,130.4c0,0-19.5,6.9-37.5-39.9c-2.3-6-4.2-11.2-5.9-15.9c0,0.5,0,1,0,1.5
				c1.6,29.5,26.9,71.8,47.2,65.1C168.8,137.4,167.5,133.8,165.9,130.4z"/>
			<path class="st2" d="M205.1,107.3c3.1,4.4,7.3,7.5,12.1,8.9c3.4,1,6.6,8.2,8.1,9.3c1.8,1.2,4.6-1.9,4.4-3.5
				c-0.3-1.9-4.3-6.4-6.4-11.8c-0.9-2.5-4-7.6-8.9-8C209.6,101.8,205.1,107.3,205.1,107.3z"/>
			<path class="st1" d="M180.5,82.1c-0.8,2.8-0.8,5.7-0.2,8.5l14.4,10.5C181.2,86.1,180.5,82.1,180.5,82.1z"/>
			<path class="st17" d="M115.9,170.5c23.4,8.2,46.6,5.7,46.6,5.7l-17.7-13.6C154.1,175.2,140.5,175.8,115.9,170.5z"/>
			<path class="st19" d="M2.5,174.7c-1.2-5.1-1.1-10.5,0.5-15.4c0,0,3.7,5.8,5.1,8.5S2.5,174.7,2.5,174.7z"/>
			<path class="st4" d="M74.9,186.7c1.6-1.4,2.9-3.1,3.9-5.1l0.5-7.4l-4.3,5.2C75.1,179.5,74.3,184.3,74.9,186.7z"/>
			<path class="st4" d="M83,241.6h-0.4c-7.5-0.4-9.7-5.3-11.8-10.9c-2.1-5.6-3.8-10.6-12.1-12.7l0.2-3.4c9,2.3,11.3,9.4,13.5,15.2
				c2,5.3,3.7,9.9,10.3,10.2c3.2,0.2,6.2-2.1,7.2-5.7c2.6-7.3,0.9-21.3-7.1-29.9c-12.4-13.4-7.5-21.3-5.7-25.1l0.4,0.5l0,0
				c-1.8,3.7-5.6,11.5,5.9,24c8.4,9.1,10.6,23.2,7.8,31.1C89.6,239.2,86.7,241.6,83,241.6z"/>
			<path class="st20" d="M23.9,248.9c-5.1-13.4-9.9-22.5-8.5-31.4s15.7,13.2,16.2,22.7c0.2,4.1-4.3,5.3-1.7,14.5
				c-1,9.9-1.9,23.9-1.9,23.9h-2C26,278.6,27.3,257.9,23.9,248.9z"/>
			<path class="st20" d="M49.4,239.1c0.1-1.2,1.9-16.4-0.7-20.8s-11.3-9.3-12.7-4.4c-1.3,4.9-1.8,19.4,11.1,39.1
				c1.7,2.6,1.5,19.5-1.8,26.3h3.8c0.6-12.2,4.3-31.7,4.3-31.7S49.3,240.4,49.4,239.1z"/>
			<path class="st20" d="M28.1,279.2h-5c0,0,1.8-4.1,3.2-4.9C27.8,273.5,28.1,279.2,28.1,279.2z"/>
			<path class="st20" d="M49.1,279.2h-5c0,0,1.1-3.7,2.4-4.4S49.1,279.2,49.1,279.2z"/>
			<path class="st4" d="M59,214.4c-4.6-1.4-9.3-2.5-14.1-3.1c-0.6-6.8-2-13.5-4.2-19.8L14.8,194c-0.4,8.8-0.3,17.6,0.3,26.4
				c1.1,6.3,3.3,12.2,6.5,17.3c2.9,4.9,7.2,8.5,12.1,10c1.8-0.6,22.9-8.7,25.9-12.8S59,214.4,59,214.4z"/>
			<path class="st21" d="M59,214.4c-4.4-1.8-9-3-13.6-3.6c-0.5-6.7-2.1-13.3-4.6-19.3l-7.3,2.8c-0.1,7.4,6.7,38.8-4.5,44.3
				c-4.8,2.3-10.6-6.9-13.8-18.6c0,0.1,0,0.3,0.1,0.4c1.1,6.3,3.3,12.2,6.5,17.3c2.9,4.9,7.2,8.5,12.1,10
				c1.8-0.6,22.9-8.7,25.9-12.8S59,214.4,59,214.4z"/>
			<path class="st19" d="M59,214.4c-2.5-1-5-1.8-7.5-2.5c-1.1,5.3-2.7,10.4-4.8,15.2c-3.1,7.7-7.5,14.6-12.7,20.5
				c2.9-1,22.7-8.7,25.7-12.7C62.6,230.9,59,214.4,59,214.4z"/>
			<path class="st4" d="M4.7,180.5c8.9,11,10.2,16.9,10,26.6c0,0,10.3-8.4,10.1-18.4c-0.2-10-10.4-16.6-13.6-17.4
				C7.9,170.4,4.7,180.5,4.7,180.5z"/>
			<path class="st21" d="M18.9,210.9c2.8-3.4,6-16.7,5.9-22.3c-0.2-10-10.4-16.6-13.6-17.4c-3.3-0.8-6.5,9.3-6.5,9.3
				c4.9,6,7.5,10.5,8.8,14.9C14,194.2,18.9,194.4,18.9,210.9z"/>
			<path class="st19" d="M14.6,191.1c3.3-0.1,6.7,3.8,8.5,9.1c1-3.8,1.6-7.7,1.7-11.6c-0.2-10-10.4-16.6-13.6-17.4
				c-3.3-0.8-6.5,9.3-6.5,9.3c2.9,3.4,5.5,7.3,7.5,11.5C12.9,191.4,13.7,191.1,14.6,191.1z"/>
			<path class="st21" d="M44.9,210.7c-1.4-12.4-1.4-22.1,1.9-28.3l-3-13.6c0,0-9.1,0.2-11.7,25C32.1,193.8,32.8,211.1,44.9,210.7z"
				/>
			<path class="st19" d="M46.8,182.4v-0.2l-7.3-8.2l-1.2-1.1c-2.1,3-4.3,8.1-5.6,17l1.1,11.7c5.7-11.2,9.8-10.2,8.8,0.8l1.5-3.5
				C43.9,192.2,44.7,186.5,46.8,182.4z"/>
			<path class="st4" d="M4.5,202.2l-2.7-0.1c0,0-6.5-27.5,5.1-35c2.4-1.6,9.2,2.6,11,8.7C18.4,179.9,4.5,202.2,4.5,202.2z"/>
			<path class="st21" d="M17.8,175.7c-1.8-6-7.2-9.5-9.7-7.9c-1,0.7,4.3,12.4,4.3,12.4s-6.7,16.2-9.3,22l1.3,0.1
				C4.5,202.3,18.4,179.9,17.8,175.7z"/>
			<path class="st4" d="M6.6,170.2c0.6-4.9,2.4-9.5,5-13.4c0,0,0.4,7.4,0.4,10.7C12.2,170.8,6.6,170.2,6.6,170.2z"/>
			<path class="st21" d="M8.2,170.4c0.3-3.5,1.3-6.8,2.9-9.7c0,0,0.3,5.2,0.3,7.5C11.5,170.4,8.2,170.4,8.2,170.4z"/>
			<path class="st21" d="M40.5,172.5c0-5.2,1-10.3,3.1-14.8c0,0,1.5,7.2,2.1,10.4S40.5,172.5,40.5,172.5z"/>
			<path class="st19" d="M44.9,171c2-4.6,5-8.5,8.7-11.4c0,0-1.6,7.2-2.4,10.3C50.4,173,44.9,171,44.9,171z"/>
			<path class="st4" d="M37.8,248.8c-4.7-13.5-0.3-20.3,1.4-29.3c1.6-9,13-10.6,9.4,11.1c-0.6,4-7.3,14.7-5,24
				c-1.3,9.9-2.5,24-2.5,24h-2C39.1,278.7,40.9,257.8,37.8,248.8z"/>
			<path class="st21" d="M39.1,219.5v0.1c2.2,2.3,4.1,7.9,4.6,14.7c0.5,6.1-4.3,10.3-7.7,7.4c-0.3,1.7,1.2,5.7,2.3,9.3
				c2.2,9.8,0.7,27.5,0.7,27.5h2c0,0,1.2-14.1,2.5-24c-2.4-9.2,4.4-19.9,5-24C52.1,208.9,40.8,210.6,39.1,219.5z"/>
			<path class="st19" d="M48.9,226.9c-2.4,11.9-7.2,20.8-10.7,19.8c-0.6-0.2-1.1-0.6-1.5-1.2c0.3,1.1,0.4,2.4,0.8,3.5
				c1.5,4.2,2.1,10.7,2.1,16.8c0.6-1.2,1.2-1.8,1.9-1.7c0.4,0.1,0.8,0.4,1,0.8c0.4-3.5,0.8-7.1,1.2-10.3c-2.4-9.2,4.6-19.4,5.2-23.4
				c0.2-1.9,0.3-3.8,0.3-5.8L48.9,226.9z"/>
			<path class="st4" d="M42.9,279.2h-5c0,0,1-4.6,2.3-5.4S42.9,279.2,42.9,279.2z"/>
			<path class="st21" d="M65.1,239.1c0.1-1.2,2-16.4-0.7-20.8c-2.7-4.5-12-6.6-13.4-1.7c-1.3,4.9-1.1,16.7,11.8,36.4
				c1.7,2.6,1.5,19.5-1.8,26.3h3.8c0.6-12.2,4.3-31.7,4.3-31.7S65,240.4,65.1,239.1z"/>
			<path class="st19" d="M65.1,239.1c0.1-1.2,2-16.4-0.7-20.8c-0.6-0.9-1.3-1.6-2.1-2.2c0.9,2.8,1.6,5.8,2,8.8
				c1.5,11-0.5,20.5-4.4,21.3c-0.4,0.1-0.8,0.1-1.2,0c1.2,2.2,2.6,4.4,4.2,6.8c1.7,2.6,1.5,19.5-1.8,26.3h3.8
				c0.6-12.2,4.3-31.7,4.3-31.7S65,240.4,65.1,239.1z"/>
			<path class="st4" d="M64.7,279.2h-5c0,0,1-3.7,2.4-4.4C63.5,274.1,64.7,279.2,64.7,279.2z"/>
			<path class="st19" d="M48.4,235.5c-0.3-7-3.1-10.3-3.1-10.3c1.4,4.5,1.5,10.7-1,19.2L48.4,235.5z"/>
			<path class="st19" d="M45.4,210.8c-0.2-2.7-0.6-5.4-1.2-8c-0.4-7.1-0.1-13.1,1.4-17.7v-0.2c-3,12.2-5.6,23.8-6.8,33.7
				c1.3-3.7,4-6.5,7.2-7.7L45.4,210.8z"/>
			<path class="st4" d="M52.7,200.2l2.7-0.4c0,0,4.6-28.1-7.6-34.4c-2.6-1.3-9.1,3.5-10.5,9.7C37.1,179.2,52.7,200.2,52.7,200.2z"/>
			<path class="st21" d="M47.8,165.4c-2.6-1.3-9.1,3.5-10.5,9.7c-0.1,2,3.4,7.8,7.1,13.3c0-0.1,0-0.3,0-0.4
				c-0.9-8.2-1.3-13.6,0.9-12.1c3.7,2.5,7.8,2.7,8.9,10.8c0.8,5.3,0.5,10.2-0.4,13.3l1.6-0.2C55.4,199.7,59.9,171.7,47.8,165.4z"/>
			<path class="st19" d="M44.6,188.8c-4.5-7.1-5.2-17.7-4.1-20c-2.7,2.6-4.6,6.2-5.4,10.3C34.2,185.5,44.6,188.8,44.6,188.8z"/>
			<path class="st19" d="M41.4,170.8c0-3.2,0.6-6.3,1.9-9.2c0,0,0.9,4.4,1.3,6.4S41.4,170.8,41.4,170.8z"/>
			<path class="st22" d="M49.3,177.1c-0.6-1.5-1.3-2.9-2.2-4.2c0,0-1.3,1.4-1.3,1.7C46.9,175.6,48.1,176.4,49.3,177.1z"/>
			<polygon class="st22" points="53.3,173.2 53.1,175.6 54.3,175.3 			"/>
			<polygon class="st19" points="52.7,200.2 56.6,203.2 57.8,198.2 56.1,188.9 54.5,188.6 			"/>
			<path class="st21" d="M52.7,200.2c0.1,0.1-7.3-18.9-7.3-18.9l-5,0.8C40.3,182.1,48.2,195.2,52.7,200.2z"/>
			<polygon class="st19" points="2.4,192.1 0.5,193.7 0.1,205.7 4.5,202.2 			"/>
			<polygon class="st21" points="16.9,184.6 9.7,181.6 4.2,199.9 			"/>
			<path class="st22" d="M4,181.3c0.4-2.2,0.9-4.3,1.5-6.4l2.8,0.5L4,181.3z"/>
			<path class="st4" d="M34.3,174.7l-12.4-0.7C21,189.4,22,196,22,196s3.1,16.3,8,15.5C34.8,210.8,36,192.9,34.3,174.7z"/>
			<path class="st21" d="M22.3,211.7c1-7.8,3.7-8.7,4.9-8.7c3.8,0,6.2,4.3,6.1,11.5c2.7-7.1,2.2-26.6,1-39.8L21.9,174
				C20.1,187,18.9,202.2,22.3,211.7z"/>
			<path class="st19" d="M35,203c1-8.5,0.4-23.1-0.7-28.2l-12.4-0.7c-1.4,3.8-2.7,14.2-1.7,22.3C22,193.3,33.7,192.3,35,203z"/>
			<path class="st21" d="M35.5,169.2c-1.7-5.7-13.3-5.2-14.7-0.6c-4,12.8,5.5,32.4,5.5,32.4l2.8-0.1C29.1,200.9,39,178.3,35.5,169.2
				z"/>
			<path class="st4" d="M33.4,171c-1.5-5.4-11.1-4.9-12.2-0.6c-3,12,5.4,30.6,5.4,30.6l2.3-0.1C28.9,200.9,36.6,179.6,33.4,171z"/>
			<polygon class="st21" points="20.6,172.5 26.1,178.9 28.5,178.9 34.1,172 34.5,177.6 34.4,179.6 34.5,182.1 30.1,197.6 
				28.7,192.6 27.7,180.6 26.5,180.6 20.5,177.5 			"/>
			<path class="st4" d="M22,156.7c0,0-3.1,8.9-1.1,16.1l5-4.6C23.3,165.2,21.9,161,22,156.7z"/>
			<path class="st21" d="M34.8,156.3c0,0,2.8,7.9,1.2,15.2l-5.5-4.9C32.6,163.6,34,160,34.8,156.3z"/>
			<path class="st19" d="M35.1,159.9c0.7,3.4,0.9,7,0.5,10.5l-2.2-1.4C34.2,166,34.8,163,35.1,159.9z"/>
			<path class="st21" d="M21.7,161c0,0-1.7,5.3-0.3,9.6l2.3-2.3C22.1,166.5,21.3,163.7,21.7,161z"/>
			<polygon class="st22" points="25,179 21.8,174.5 21.7,177.6 			"/>
			<polygon class="st22" points="30.4,179.2 33.8,174.5 33.3,178.4 			"/>
			<polygon class="st19" points="24.9,198.1 26.3,193.6 28.7,193.6 30.5,197.8 27.7,202.8 			"/>
			<path class="st23" d="M238,52.6c0-2.1-1.4-3.7-3.2-3.7c-1.7,0-3.2,1.7-3.2,3.7s1.4,3.7,3.2,3.7l0,0C236.6,56.3,238,54.6,238,52.6
				z"/>
			<path class="st23" d="M237,54.5c0,0.1-0.1,0.2-0.1,0.3C236.9,54.7,236.9,54.6,237,54.5z"/>
			<path class="st23" d="M238.3,52.3l-1.1,0.8l0.3-0.9c0.3-0.7,0.4-1.6,0.4-2.4c-0.1-0.6-0.3-1.2-0.6-1.8c-0.4-1-0.9-2-1.4-3
				c-0.7-1.2-1.4-2.4-1.9-3.8c-0.2-0.8-0.3-1.6-0.2-2.4c0.1-0.7,0.2-1.4,0.4-2.1c0.2-0.9,0.4-1.7,0.7-2.5c-0.4,1.6-1.1,3-1.5,4.6
				c-0.4,1.2-0.5,2.6-0.3,3.9c0.4,1.9,1.6,3.5,1.7,5.3c0,0.7-0.1,1.6,0.4,2.1c0.2,0.2,0.5,0.3,0.7,0.5c0.6,0.4,0.9,1.1,1,1.8
				c0.1,0.6,0,1.3-0.1,1.9C237.3,53.6,237.7,52.8,238.3,52.3z"/>
			<path class="st23" d="M230.8,40.6c-0.1-0.3-0.3-0.6-0.5-0.9c-0.4-0.5-0.6-1.1-0.7-1.7c0,0.8,0.3,1.5,0.7,2.1
				c0.2,0.4,0.4,0.8,0.5,1.2C230.9,41,230.9,40.8,230.8,40.6z"/>
			<path class="st23" d="M236.3,50.6c-0.8-1.2-2.1-1.7-3.3-1.3c-0.4,0.2-0.8,0.3-1.2,0.3c-0.4,0-0.7-0.3-0.8-0.7
				c0-0.3,0-0.5,0.1-0.8c0.5-2.3,0.4-4.7-0.3-7c0,0.1,0,0.2,0,0.3c-0.1,1.5-0.4,3.1-1,4.5c-0.3,0.7-0.6,1.5-0.9,2.2
				c-0.2,1-0.2,2.1,0.1,3c0.7,2.6,2.4,4.7,4.6,5.7l-0.9-1.4c0.7,0.7,1.7,0.8,2.4,0.1c0.9-0.8,1.4-1.9,1.5-3.2
				C236.8,51.8,236.6,51.1,236.3,50.6z"/>
			<path class="st3" d="M228.3,52l-0.1,0.2l0,0C228.3,52.2,228.3,52,228.3,52z"/>
			<path class="st3" d="M231.9,65.2c0.3-0.6,0.4-1.4,0.4-2.1c-0.1-0.3-0.2-0.7-0.4-0.9c-0.4-0.6-0.8-1.2-1.2-1.8
				c-0.2-0.3-0.4-0.5-0.6-0.7c-0.3-0.1-0.6-0.3-0.9-0.4c-0.6-0.4-1.2-0.9-1.5-1.6c-0.3-0.4-0.5-0.8-0.6-1.4c0-0.4,0-0.8,0.1-1.2
				c0.3-1.1,0.7-2.1,1.2-3c-0.1,0-0.1-0.1-0.1-0.2c-0.2-0.7-0.2-1.4-0.4-2.1c-0.3-1.1-0.7-2.1-1.1-3.2c-0.4-1-0.5-2.2-0.3-3.3
				c-0.4,0.5-0.3,1.3-0.2,2c0.2,1.2,0.3,2.4,0.3,3.7c0.1,1.4-0.3,2.8-1,3.9c-0.3,0.4-0.7,0.7-1.1,1.1c-0.8,1-1.2,2.3-1.1,3.7
				c0.1,0.9,0.3,1.7,0.6,2.5c0.1,0.4,0.3,0.8,0.5,1.1c0.5,0.7,1.4,0.7,2.1,1.2c0.3,0.4,0.7,0.7,1.1,0.9c0.2,0.1,0.5,0.1,0.7,0.2
				c0.6,0.3,0.7,1.1,0.9,1.8c0.3,1,1.1,1.8,1.2,2.9c0,0.6-0.1,1.1-0.1,1.6c0,0.3,0.2,1.3,0.6,1.2c0.4-0.1,0.2-1.5,0.2-1.8
				C231.2,67.9,231.5,66.5,231.9,65.2z"/>
			<path class="st0" d="M241.3,19.3c0.2-1.3,0.3-2.6,0.5-3.8c0-0.2,0.1-0.4,0.1-0.6c0.1-0.1,0.1-0.3,0.2-0.4
				c1.2-1.6,1.9-3.8,1.9-5.9c0.3,1.8,0,3.6-0.7,5.2c-0.2,0.3-0.4,0.7-0.5,1.1c-0.1,0.4-0.1,0.7-0.1,1.1c-0.1,2.2,0.1,4.4,0.7,6.5
				c0.4,1.2,1-1.4,1.5-0.2c0.5,1.2,1,2.9,0.6,4.1c-0.1-0.5-0.3-1-0.5-1.5c-0.4-0.6-0.8,2.7-1.2,2.1s-0.5-1.2-0.8-1.8
				c-0.6-1.2-1.4-2-1.7-3.3C241.2,20.9,241.2,20.1,241.3,19.3z"/>
			<path class="st24" d="M138.8,2.6V2.1c0,0-2.6,7.2-6.3,6.4S126.8,0,126.8,0s-1,8.9-4.3,9.5c-0.6,0.1-1.2,0.1-1.8,0
				c0.9,1.8,2.2,3.4,3.7,4.6l7.8,0.5C135.6,12.6,138.1,8.1,138.8,2.6z"/>
			<polygon class="st15" points="126.8,12.9 127.4,7.4 128.9,13.3 			"/>
		</g>
	</g>
</g>
</svg>
