<svg xmlns="http://www.w3.org/2000/svg" viewBox="0 0 203.05 180.27"><defs><style>.cls-1{isolation:isolate;}.cls-2{fill:#ffb882;}.cls-3{fill:#ff9566;}.cls-4{fill:#a33d2f;}.cls-5{fill:#f2e1c2;}.cls-6{fill:#ddc699;}.cls-7{fill:#4d2b82;}.cls-8{fill:#97c9c0;}.cls-9{fill:#789b94;}.cls-10{fill:#843c43;}.cls-11{fill:#ffd15f;}.cls-12{fill:#f4b545;}.cls-13{fill:#662a33;}.cls-14{fill:#7c271e;}.cls-15{fill:#872e25;}.cls-16{fill:#4f5859;}.cls-17{fill:#5b6768;}.cls-18{fill:#6a7777;}.cls-19{fill:#3c4242;}.cls-20{fill:#72675d;}.cls-21{fill:#5b5046;}.cls-22{fill:#7f736a;}.cls-23{fill:#512a28;}.cls-24{fill:#8e61c1;}.cls-25{fill:#6f46aa;}.cls-26,.cls-34{fill:#ffe05c;}.cls-26{opacity:0.65;mix-blend-mode:overlay;}.cls-27{fill:#683a36;}.cls-28{fill:#592f2d;}.cls-29{fill:#ffebc0;}.cls-30{fill:#f7cda9;}.cls-31{fill:#ea7b59;}.cls-32{fill:#869392;}.cls-33{fill:#ffc152;}</style></defs><title>HEPHAESTUS</title><g class="cls-1"><g id="Layer_2" data-name="Layer 2"><g id="_1" data-name="1"><path class="cls-2" d="M189,106.64c-.44-.76-6.3,1.31-5.47,3.48s2.71,4.51,2.87,5.64-5.21,2.29-5,3.66l1.87,5.6a15.71,15.71,0,0,0,7.93-8.47C192,114.2,189.45,107.41,189,106.64Z"/><path class="cls-3" d="M177.26,119.32c-2.33-.17-2.83-3.67-1.7-4.09s3.32-.89,3.79-1.55.65-5.15.65-5.15l3.78-.57.56,8.36S179.4,119.49,177.26,119.32Z"/><path class="cls-3" d="M181.37,123.64c-2.37-.3-3.8-2.93-2.92-3.81s2.72-2.27,2.9-3.08-1.39-4.91-1.39-4.91l3.27-2.2L187,116.9Z"/><path class="cls-3" d="M185.74,109.8c-.38-.66-4.57-.22-3.85,1.67s2.36,3.93,2.5,4.91-4.53,2-4.33,3.19l2,4.08c3.86-1.77,5.36-3.79,6-5.84S186.13,110.47,185.74,109.8Z"/><path class="cls-2" d="M178.75,98.68c4.76,2.62,9.65,6.48,10.34,7.93s-1.72,5.93-4.48,4.69-7.79-10.83-7.79-10.83Z"/><path class="cls-3" d="M63.1,98.7c-1.47-2.23-3.85-5.76-5.2-4.91s-1.16,5.76.31,8,5.1,3.13,6.45,2.28S64.56,100.94,63.1,98.7Z"/><polygon class="cls-4" points="23.18 94.23 20.57 93.92 17.72 172.52 19.05 172.68 23.18 94.23"/><polygon class="cls-5" points="18.63 91.54 21.68 96.67 25.64 92.36 22.91 77.24 18.63 91.54"/><polygon class="cls-6" points="23.74 94.75 20.08 94.32 19.85 98.75 23.51 99.18 23.74 94.75"/><path class="cls-7" d="M93.92,137.53c42.92,27.92,52.43-5.07,52.43-5.07l-9.2-7.44Z"/><polygon class="cls-8" points="33.18 116.72 28.7 116.3 20.75 165.25 23.91 171.92 28.67 165.98 33.18 116.72"/><polygon class="cls-9" points="30.48 121.96 30.02 121.91 24.23 166.19 23.91 171.92 25.04 166.27 30.48 121.96"/><path class="cls-9" d="M32.61,123l.57-6.24-4.48-.42-.94,5.75A12.68,12.68,0,0,1,32.61,123Z"/><polygon class="cls-10" points="34.51 103.04 30.83 102.7 29.09 116.44 32.76 116.78 34.51 103.04"/><path class="cls-11" d="M31.14,114.91l-5.24-.49a1.54,1.54,0,0,0-1.48,2.35,2.85,2.85,0,0,0,2.2,1.16l7.91.73a3.53,3.53,0,0,0,2.3-.59,1.47,1.47,0,0,0-.69-2.7Z"/><path class="cls-12" d="M37.15,116.71a3.53,3.53,0,0,1-2.3.59l-7.91-.73a2.83,2.83,0,0,1-2.2-1.16,1.38,1.38,0,0,1-.19-.41,1.44,1.44,0,0,0-.13,1.77,2.85,2.85,0,0,0,2.2,1.16l7.91.73a3.53,3.53,0,0,0,2.3-.59,1.45,1.45,0,0,0,.61-1.62A1.84,1.84,0,0,1,37.15,116.71Z"/><path class="cls-13" d="M34.51,103l-3.68-.34-1,8.09c1.38-1.33,2.62-1.32,3.67.34Z"/><path class="cls-11" d="M29.66,103.17a2.82,2.82,0,0,0,2.57,3.17,3.06,3.06,0,0,0,3.3-2.63A2.81,2.81,0,0,0,33,100.54,3.06,3.06,0,0,0,29.66,103.17Z"/><path class="cls-12" d="M33.13,103.89a2.82,2.82,0,0,1-2.56-2.49,3,3,0,0,0-.91,1.77,2.82,2.82,0,0,0,2.57,3.17,3.06,3.06,0,0,0,3.3-2.63,3.09,3.09,0,0,0,0-.68A3,3,0,0,1,33.13,103.89Z"/><path class="cls-10" d="M31.09,103.3a1.46,1.46,0,0,0,1.32,1.63,1.56,1.56,0,0,0,1.69-1.35A1.44,1.44,0,0,0,32.79,102,1.57,1.57,0,0,0,31.09,103.3Z"/><polygon class="cls-4" points="5 74.85 2.38 74.85 15.42 177.54 16.75 177.54 5 74.85"/><polygon class="cls-5" points="0 72.04 4.02 78.25 7.03 72.04 1.31 52.78 0 72.04"/><polygon class="cls-6" points="5.65 75.44 1.98 75.44 2.65 81.23 6.32 81.23 5.65 75.44"/><polygon class="cls-4" points="13.39 98.94 10.77 98.94 17.4 177.54 18.73 177.54 13.39 98.94"/><path class="cls-14" d="M14.61,116.86,13.39,98.94H10.77l2.64,31.29C13.48,124.11,13.89,119.37,14.61,116.86Z"/><path class="cls-14" d="M17,172.29l.44,5.25h.73C17.73,176,17.34,174.27,17,172.29Z"/><polygon class="cls-5" points="8.56 96.79 12.2 101.54 15.6 96.79 11.08 82.05 8.56 96.79"/><polygon class="cls-6" points="14.01 99.39 10.34 99.39 10.64 103.82 14.31 103.82 14.01 99.39"/><polygon class="cls-6" points="8.56 96.79 12.2 101.54 15.6 96.79 12.2 98.34 8.56 96.79"/><polygon class="cls-4" points="32.74 147.76 8.91 148.72 12.73 180.27 30.88 180.27 32.74 147.76"/><path class="cls-15" d="M24.16,175c-6.63-.05-12.54-11.19-13.1-25.54,0-.27,0-.55,0-.82l-2.12.08,3.81,31.56H30.88l.6-10.42C29.48,173.09,27,175,24.16,175Z"/><polygon class="cls-12" points="32.13 158.52 32.3 155.45 9.84 156.39 10.22 159.54 32.13 158.52"/><path class="cls-16" d="M132.49,130.23l2.48-7.18H23.3c5,24.38,43.1,28.38,47.23,34.73,8,12.27-27.59,19.25-27.59,19.25l82.73-1.74s-27,.21-28.13-14.6C96.51,147.63,132.49,130.23,132.49,130.23Z"/><path class="cls-17" d="M48.87,127.46c0,11.65,10.87,21.1,24.27,21.1s24.26-9.45,24.26-21.1a18.42,18.42,0,0,0-.53-4.41H49.41A18.43,18.43,0,0,0,48.87,127.46Z"/><path class="cls-18" d="M24.2,126.33c4.53.37,9.71.58,15.23.58,15.44,0,28.32-1.66,31.28-3.86H23.3A24.31,24.31,0,0,0,24.2,126.33Z"/><polygon class="cls-19" points="94.03 123.05 54.22 123.05 72.42 126.88 77.9 147.56 94.13 146.73 95.36 135.57 103.02 140.53 115.12 136.91 94.03 123.05"/><path class="cls-19" d="M70.53,157.78c3.6,5.52-1.63,10-8.47,13.2,7.24-1.16,14-5.6,22.66-5.6,6.19,0,13.48,4.13,19,4.75-3.37-2.14-5.87-5.16-6.21-9.44-1-13.06,35-30.46,35-30.46l.59-1.7c-10.07,7-31.68,11.89-56.74,11.89-19.71,0-37.3-3-48.8-7.72C38.92,148.68,67,152.38,70.53,157.78Z"/><polygon class="cls-20" points="181.92 109.61 180.58 109.61 184.51 165.14 188.13 165.14 181.92 109.61"/><path class="cls-21" d="M183.85,155.88l.66,9.26h3.61l-1.6-14.32C185.77,153.56,184.85,155.37,183.85,155.88Z"/><polygon class="cls-20" points="198.77 162.06 174.58 162.55 172.51 164.83 172.6 177.44 173.44 179.72 202.09 179.72 203.05 177.23 201.15 164.93 198.77 162.06"/><path class="cls-22" d="M176.89,179.72h9.63c1.92-7.33,4.12-13.23,6.61-17.54l-8.41.17C183.42,167.43,180.58,173.35,176.89,179.72Z"/><polygon class="cls-21" points="177.16 177.65 176.69 162.51 174.58 162.55 172.51 164.83 172.6 177.44 173.44 179.72 202.09 179.72 202.88 177.65 177.16 177.65"/><path class="cls-23" d="M81.76,28c-3.38-3.44-3.93-9.3-3-10.89s4.62-2.2,4.62-2.2-1.93-1.8-.48-3.24,5.52-.84,5.52-.84S91.48,17.54,90,21,81.76,28,81.76,28Z"/><path class="cls-23" d="M75,38.9c-3-3.75-3-9.63-1.93-11.12S77.84,26,77.84,26s-1.76-2-.18-3.27,5.57-.31,5.57-.31,2.38,7,.62,10.31S75,38.9,75,38.9Z"/><path class="cls-23" d="M101.4,13.89c4.52-2,6.23-1.53,7.41-.55a4.13,4.13,0,0,1,1.24,5,1.86,1.86,0,0,1,2.27,1.23c.49,1.67-2,5-2,5s-7.08.71-9.21-1.53S101.4,13.89,101.4,13.89Z"/><path class="cls-2" d="M117.81,75.62c17.37,12.58,52.32,30.47,52.32,30.47l9.1-7.48c-18.3-16.92-36.91-56.11-52.32-65.18C119.91,29.31,117.81,75.62,117.81,75.62Z"/><path class="cls-3" d="M123.7,41.67c-1.4,11.07-6.2,35.06-6.2,35.06,17.37,12.58,52.63,29.36,52.63,29.36l3.78-2.46C166,96.66,132.8,65,123.7,41.67Z"/><path class="cls-3" d="M125.39,96c0-6.07,2.9-18.06,2.9-18.06L109,60.6,77,77l3.31,25.37Z"/><path class="cls-2" d="M108.3,81.83c-7.6,0-16.83,6.35-19.68,12.77-.86,2,35.94-1.4,35.78-2C123.16,87.42,117.1,81.83,108.3,81.83Z"/><path class="cls-3" d="M109.59,92.88c0-.3-.72-.47-1.61-.38s-1.62.4-1.62.7.73.47,1.62.38S109.59,93.18,109.59,92.88Z"/><path class="cls-3" d="M108.71,79.85c-.56,2.71-.2,6.3-5.42,6.64,0,0,3.15.4,4.76-.67C109,85.18,108.71,79.85,108.71,79.85Z"/><path class="cls-3" d="M108.66,79.44c.35,2.68-.21,6.56,5,6.9,0,0-3.16.39-4.67-.67C108,85,108.66,79.44,108.66,79.44Z"/><path class="cls-3" d="M108.61,83.6c-.5,3.44,0,7.61-5.22,8,0,0,3.16.5,4.74-.86C109.07,90,108.61,83.6,108.61,83.6Z"/><path class="cls-3" d="M108.61,83.73c.42,3.41-.07,7.29,5.09,7.72,0,0-3.14.49-4.68-.86C108.11,89.8,108.61,83.73,108.61,83.73Z"/><polygon class="cls-18" points="127.53 179.72 38.4 179.72 37.98 176.2 130.63 174.55 127.53 179.72"/><path class="cls-2" d="M153.73,177.82l.34-.76s1.46-55.42.41-57.83-18-9.41-18-9.41-1.33,12.4-1,13.92S153.73,177.82,153.73,177.82Z"/><path class="cls-3" d="M148.2,148.7c-1.62-16.45.57-26.86,4.16-31.23-5.68-3.26-15.85-7.65-15.85-7.65s-1.33,12.4-1,13.92,18.72,55.63,18.72,55.63l.24-.19A152.91,152.91,0,0,1,148.2,148.7Z"/><path class="cls-24" d="M85.24,118.92c14.27,15.3,35.67,31.08,54.49,13.85,4.86-4.44,11.27-17.47,11-18.92s-17.89-11.17-18.4-12-3.83-8.17-5.17-8.06S82.32,96.41,80,99.68C63,123.26,54.11,115.09,54.22,123.26H80.69Z"/><path class="cls-25" d="M97.33,130.18c21.51,12.93,35.37,2.13,39.77-1.92,0,0-28.77,16.08-41.39-13.31C93.83,110.57,97.33,130.18,97.33,130.18Z"/><path class="cls-25" d="M140.66,130.19c-18.82,17.22-40.22,1.44-54.49-13.86l-4.55,4.34H55.15c0-.23,0-.46,0-.67a4.42,4.42,0,0,0-.94,3.26H80.69l4.55-4.34c14.27,15.3,36.5,33.29,54.49,13.85,4.13-4.45,10.28-15.48,10.91-18.37C148.7,118.92,144.26,126.9,140.66,130.19Z"/><path class="cls-25" d="M109.33,104.85c11.33.5,24.38,2.11,36.71,10a4.94,4.94,0,0,1,1.85,5.92c1.77-3.42,2.94-6.31,2.8-7-.31-1.45-17.47-11.34-18-12.17,1.65-.89-2.34-8-5.35-7.85,6.82,15-45,2.58-47.39,5.85C63,123.26,54.11,115.09,54.22,123.26h34L98,130.65C95.05,110.64,93.61,104.16,109.33,104.85Z"/><path class="cls-24" d="M72.27,109.76c-10.74,10.58-16.69,7.64-17.45,12.48,1.06.06,2.16.09,3.29.09C67.08,122.33,74.58,112.37,72.27,109.76Z"/><path class="cls-26" d="M145.67,110.13c-2.24,4.31-5.41,9.42-8.11,11.89-18.83,17.22-30.71-.73-45.81-16.13-3.66-3.74-17,1.13-23.4,6.61a33.19,33.19,0,0,1-7,4.45c9.21-2.79,23.43-14.85,28.86-8.89,14.27,15.3,29.88,35.63,48.7,18.4,3.3-3,7.3-10,9.45-14.58C147.58,111.35,146.66,110.76,145.67,110.13Z"/><path class="cls-2" d="M89,110.24c-1.06-1-9.29-1.38-10.74-.39C75.9,111.5,74,117.08,74.11,120s7,21.49,13.22,48l.61-.1s4.11-39.63,4.33-43.35S90.87,112,89,110.24Z"/><path class="cls-3" d="M86.37,114.23c2.32,0,4.44,4.14,5.88,10.61a2.58,2.58,0,0,1,0-.32c.22-3.68-1.4-12.5-3.23-14.28-1.06-1-9.29-1.38-10.74-.39C75.9,111.5,74,117.08,74.11,120c.09,1.64,2.33,8.33,5.38,18.64C79.77,124.84,82.67,114.23,86.37,114.23Z"/><path class="cls-2" d="M76.65,35.16c-6.84,5.32-1.53,43.87-.08,44.9s24.9,3.08,30.46-.86c2.21-1.56,3.64-21.19,2.71-28-.59-4.4-5.66-15.68-15.2-18.82C89.25,30.62,79.45,33,76.65,35.16Z"/><path class="cls-3" d="M64.47,100.24c-9.21-15.4-9.15-52.77,11.87-57.92,3.73-.91,10.66,30,6,43.09C77,100.61,64.47,100.24,64.47,100.24Z"/><path class="cls-2" d="M123.91,34.74c12.1,8.79,9.85,41.23,9,42.5-1.66,2.49-18.51,5-22.13,1.45-1-.93-2.49-20.89-1.76-27.71C109.49,46.59,121.42,32.93,123.91,34.74Z"/><path class="cls-2" d="M60,99.74c-7.34-17.27-4.68-59,17-64.8,3.83-1,9.62,30.72,1.14,47.16S60,99.74,60,99.74Z"/><path class="cls-3" d="M64.37,44.5C54.1,59.44,53.2,86.9,58.78,100a70.66,70.66,0,0,0,7-1.9C60.29,85.05,56,60.14,64.37,44.5Z"/><path class="cls-2" d="M58.78,100c5.21,9.74,41.06,7.15,48.25,10.09L112.34,99S88.1,80,77,80.81,58.78,100,58.78,100Z"/><path class="cls-3" d="M62.75,90.14c-1.2,2.37-4,9.89-4,9.89,5.21,9.74,41.06,7.15,48.25,10.09C102.21,104.74,66.74,99.62,62.75,90.14Z"/><polygon class="cls-3" points="106.23 109.23 111.77 97.37 97.25 88.56 85.75 106.13 106.23 109.23"/><path class="cls-3" d="M100.23,29.42a62.82,62.82,0,0,0-24.37,5.85,6.12,6.12,0,0,0,2.8,3.53c.11,9.51,9.11,21.26,17.79,22.78,0,0,5.27,5.31,16.46,2S124,54.35,124,54.35s5.83-3.79,6-10.09C130.25,36,126.26,33,126.26,33S110.29,29.16,100.23,29.42Z"/><path class="cls-27" d="M81.1,36.4c.1,9.51,8.58,21.2,16.75,22.64,0,0,5,5.28,15.51,1.87s10.45-9.31,10.45-9.31a10.73,10.73,0,0,0,5.27-9.2c-.1-6.31-3-9.62-3-9.62S126,29.57,124.43,28c-6.93-7-13.67-6.92-13.67-6.92s-1.49-4.51-4.86-4.56c0,0,.68-1.35-1-3.06a6.7,6.7,0,0,0-3.79-1.89L87.72,13.24S84,15.1,83.58,17,85,21.82,85,21.82s-4.76,1.45-4.14,5.69a5.24,5.24,0,0,0-2.17,3.61C78.62,34,81.1,36.4,81.1,36.4Z"/><path class="cls-28" d="M97.67,18c.46,1.41,1,2.32,2.61,2.14,1.31-.14.76-2.36.76-2.36Z"/><path class="cls-28" d="M116.17,23a18,18,0,0,1,2.76.75,17.59,17.59,0,0,0-8.17-2.62,8.16,8.16,0,0,0-.43-1,5.89,5.89,0,0,1-.61,2.23c-.13.25-.28.48-.43.71A16.49,16.49,0,0,1,116.17,23Z"/><path class="cls-28" d="M126.08,32.78a10.81,10.81,0,0,0-.26-1.82,2.58,2.58,0,0,1,0,.38,3.78,3.78,0,0,1-.58,1.39c2.16,3.19,1.61,8.56-1.56,12.9a14.45,14.45,0,0,1-3,3,2.94,2.94,0,0,1,1.28,2c.28,2.74-4.59,5.47-10.87,6.11-4.73.48-8.91-.37-10.81-2-7.8-.95-13.67-5-13.67-9.77,0-2.49,1.58-4.76,4.19-6.51-4.42-1-7.39-2.73-7.39-4.76a3.47,3.47,0,0,1,1.9-2.69,4.94,4.94,0,0,1-1.9-3.67c0-2,1.59-3.88,4.11-5.11a15.62,15.62,0,0,1-3.89-4A11.85,11.85,0,0,0,85,21.82s-4.76,1.45-4.14,5.69a5.24,5.24,0,0,0-2.17,3.61c-.1,2.9,2.38,5.28,2.38,5.28.1,9.51,8.58,21.2,16.75,22.64,0,0,5,5.28,15.51,1.87s10.45-9.31,10.45-9.31a10.73,10.73,0,0,0,5.27-9.2C129,36.09,126.08,32.78,126.08,32.78Z"/><path class="cls-28" d="M127.53,41.19a4.65,4.65,0,0,1-.22,1.17c-1.21,3.54-6.42,5-11.63,3.19a13,13,0,0,1-5.62-3.64,12.52,12.52,0,0,0,5.45,5.38c4.86,2.59,10.23,2,12-1.29A5.61,5.61,0,0,0,127.53,41.19Z"/><path class="cls-28" d="M91.07,51.53a5.88,5.88,0,0,0,.76.83c2.73,2.37,7.6,2,10.88-.92A8,8,0,0,0,105.38,47a7.83,7.83,0,0,1-1.67,5.71c-2.59,3.4-7.17,4.51-10.21,2.49A5.7,5.7,0,0,1,91.07,51.53Z"/><path class="cls-28" d="M83.34,24.7a4.33,4.33,0,0,0-.15,1c0,3.4,3.67,6.21,8,6a7.37,7.37,0,0,0,4.52-1.67A7.9,7.9,0,0,1,91,33.4c-4.37,1.18-8.61-.95-9-4.59A5.46,5.46,0,0,1,83.34,24.7Z"/><path class="cls-27" d="M86.66,11.93c-2.53-1.34-2-2.81-1.62-3.72s2-1,2-1a2.15,2.15,0,0,1,.66-2.43,3.16,3.16,0,0,1,2.87-.24,2.37,2.37,0,0,1,1.62-2.46,3,3,0,0,1,3.63,1.87S98-.44,101.37,0s1.86,4.5,1.86,4.5,1.91-1.57,2.48,1.29-1.38,5.93-4,5.89S86.66,11.93,86.66,11.93Z"/><path class="cls-28" d="M100.05,9s-4,2.92-6.74,1,.34-4.86.34-4.86-2.4.54-1.64-2.26a4.47,4.47,0,0,1,.31-.82l-.17,0a2.37,2.37,0,0,0-1.62,2.46,3.16,3.16,0,0,0-2.87.24A2.15,2.15,0,0,0,87,7.2s-1.58.1-2,1-.91,2.38,1.62,3.72c0,0,11.15-.23,14.55-.22A3,3,0,0,1,100.05,9Z"/><polygon class="cls-29" points="104.28 12.9 103.99 11.1 85.73 11.33 86.04 14.24 104.28 12.9"/><path class="cls-30" d="M102.82,12.2a1.34,1.34,0,0,1-.34.83l1.8-.13L104,11.1l-1.75,0A1.47,1.47,0,0,1,102.82,12.2Z"/><path class="cls-30" d="M90.68,12.2a1.4,1.4,0,0,1,.43-.94l-5.38.07L86,14.24l6-.44C91.19,13.36,90.68,12.81,90.68,12.2Z"/><path class="cls-2" d="M93.49,17.45l6.38.87L103.43,17s-.16-2.3-1-2.05a27.4,27.4,0,0,1-8.48.39C93.21,15.26,93.49,17.45,93.49,17.45Z"/><path class="cls-3" d="M93.71,16.18c1.52.18,4.88.64,5.83-.6a4,4,0,0,0,3.4.21.49.49,0,0,1,.27,0c-.15-.5-.4-.95-.8-.83a27.4,27.4,0,0,1-8.48.39c-.33,0-.45.42-.48.91A.33.33,0,0,1,93.71,16.18Z"/><path class="cls-2" d="M89.49,16.36c-.33-1.79-2.66-1.6-2.91-.61s.94,3.52,2,2.72A2.07,2.07,0,0,0,89.49,16.36Z"/><path class="cls-3" d="M131.14,76.1c-.09-.39-.92-.52-1.86-.29s-1.61.73-1.52,1.12.93.51,1.87.29S131.24,76.49,131.14,76.1Z"/><path class="cls-3" d="M89.26,79c0-.4-.76-.74-1.72-.77s-1.75.28-1.76.68.76.74,1.72.77S89.25,79.39,89.26,79Z"/><path class="cls-31" d="M89,16.64c-.23-1.13-1.83-1-2-.39s.65,2.22,1.38,1.71A1.23,1.23,0,0,0,89,16.64Z"/><path class="cls-2" d="M89,17.17c-.16-.79-1.28-.7-1.41-.27s.46,1.55,1,1.2A.87.87,0,0,0,89,17.17Z"/><polygon class="cls-32" points="60.42 179.72 94.89 179.72 100.2 175.09 65.01 175.72 60.42 179.72"/><polygon class="cls-33" points="175.37 162.54 176.13 179.72 178.41 179.72 177.65 162.49 175.37 162.54"/><polygon class="cls-33" points="195.75 162.12 196.53 179.72 198.8 179.72 198.02 162.08 195.75 162.12"/><path class="cls-34" d="M180.84,108.84h0a1.37,1.37,0,0,0-1,1.38l.51,12.52a1.37,1.37,0,0,0,1.6,1.29l1.22-.2a1.38,1.38,0,0,0,1.13-1.54L182.55,110A1.37,1.37,0,0,0,180.84,108.84Z"/><path class="cls-28" d="M114.85,36.47c3.72-7,11.78-1.45,11.78-1.45l-.82-3a8.75,8.75,0,0,0-7-1.18C116.16,31.57,114.85,36.47,114.85,36.47Z"/><path class="cls-2" d="M99.5,15.55a13.07,13.07,0,0,0-.41,2.75s.55,1.47,1.55,1.45c1.43,0,1.21-2.16.43-2.9A12.68,12.68,0,0,0,99.5,15.55Z"/><path class="cls-31" d="M101.07,16.85a12.68,12.68,0,0,0-1.57-1.3c0,.12,0,.22-.07.32.26.21.59.49,1,.85.75.71,1,2.72-.28,2.89a1,1,0,0,0,.52.14C102.07,19.73,101.85,17.59,101.07,16.85Z"/><path class="cls-30" d="M86.08,13l-.21-.62c-5.32,2.25-3.41,10.6-3.1,13.75s-4.65,6.1-4.65,6.1l4.55,3.72s3.2-4.34,2.79-9.3S81,15.51,86.08,13Z"/><ellipse class="cls-30" cx="85.24" cy="12.7" rx="1" ry="0.95"/><path class="cls-29" d="M78.12,32.21l4.55,3.72s3.2-4.34,2.79-9.3a28.22,28.22,0,0,0-1.09-5,5.37,5.37,0,0,0-2.17-2.21,49.8,49.8,0,0,0,.57,6.65C83.08,29.26,78.12,32.21,78.12,32.21Z"/><path class="cls-30" d="M84.92,12.94l.08-.49c-5.79-.82-7.63,5.29-8.7,7.42s-6.83,1.9-6.83,1.9L72,26.07s4.76-1.4,6.52-4.73S79.25,12.39,84.92,12.94Z"/><path class="cls-29" d="M69.47,21.77,72,26.07s4.76-1.4,6.52-4.73a16.2,16.2,0,0,0,1.13-3.61,4,4,0,0,0-1-2.33,28.38,28.38,0,0,0-2.33,4.47C75.23,22,69.47,21.77,69.47,21.77Z"/><path class="cls-2" d="M164.55,179.72H152.9s-.55-4,1.38-4.55S164.55,179.72,164.55,179.72Z"/><path class="cls-2" d="M89.41,177.68c2.2-.13-.07-3.44-.07-11.1,0-.6-.6-2.11-1.55-2.05s-1,.44-1.42,1.37-1.32,5.82-.48,8.34C86.37,175.67,88.52,177.61,89.41,177.68Z"/><path class="cls-34" d="M175.37,162.54l.38,8.46c.73.26,1.5.5,2.3.72l-.4-9.23Z"/><path class="cls-34" d="M195.75,162.12l.45,10.14c.77-.15,1.52-.32,2.25-.52l-.43-9.66Z"/><path class="cls-21" d="M176.68,176.89a.49.49,0,1,0,.48-.48A.48.48,0,0,0,176.68,176.89Z"/><path class="cls-21" d="M176,164.1a.49.49,0,1,0,.48-.48A.49.49,0,0,0,176,164.1Z"/><path class="cls-21" d="M197.09,176.68a.48.48,0,1,0,.48-.48A.48.48,0,0,0,197.09,176.68Z"/><path class="cls-21" d="M196.4,163.9a.48.48,0,1,0,.48-.49A.48.48,0,0,0,196.4,163.9Z"/><polygon class="cls-15" points="16.58 176.93 13.79 150.76 17.24 167.41 16.58 176.93"/><polygon class="cls-15" points="26.5 177.38 28.78 150.79 29.01 167.81 26.5 177.38"/><polygon class="cls-15" points="20.61 177.38 20.51 159.58 23.3 177.55 20.61 177.38"/><path class="cls-3" d="M111,101.48c.79,1.41,9.13,3.67,13.16,3.61,3.68,0,3.38-5.37-.61-7.22-1.76-.81-8-1.81-10.2-1.36S111,101.48,111,101.48Z"/><path class="cls-3" d="M116,105.13c.74,1.47,4.9,3.44,8.68,3.69,3.45.22,4.44-5,3.09-6.37s-7.46-2.4-9.56-2.11S116,105.13,116,105.13Z"/><path class="cls-3" d="M113.33,109.57c.55,1.38,4.48,3.11,8.2,3.45s5.79-4.13,4.62-5.44-7.86-2.76-10-2.49S113.33,109.57,113.33,109.57Z"/><path class="cls-3" d="M110.64,113.5c.55,1.38,4.48,3.11,8.2,3.45s5.79-4.14,4.62-5.45-7.86-2.75-10-2.48S110.64,113.5,110.64,113.5Z"/><path class="cls-2" d="M112.23,97.17c3.51,0,13.52,2.48,15,4.41s-4.07,13.58-8.07,14.41c-2,.41-10.92-2.88-12.47-4.49S112.23,97.17,112.23,97.17Z"/><path class="cls-20" d="M108.42,109.5l4.7-9.79A2.85,2.85,0,0,0,112,96l-12.3-7.47L89,109.79l15,2A4.2,4.2,0,0,0,108.42,109.5Z"/><path class="cls-21" d="M104.37,103.09a33.13,33.13,0,0,1-11.06-1.78L89,109.79,105.12,112a2.74,2.74,0,0,0,2.84-1.53l3.91-8.13A35.54,35.54,0,0,1,104.37,103.09Z"/><polygon class="cls-34" points="91.01 110.06 93.46 110.4 103.35 90.76 101.34 89.54 91.01 110.06"/><polygon class="cls-33" points="95 102.12 91.01 110.06 93.46 110.4 97.44 102.49 95 102.12"/><path class="cls-34" d="M104.64,110.06a1,1,0,1,0,1-1A1,1,0,0,0,104.64,110.06Z"/><path class="cls-34" d="M110.3,98.54a1,1,0,1,0,1-1A1,1,0,0,0,110.3,98.54Z"/><path class="cls-2" d="M171,107.71c6.34,4.9,6.9,4.14,8.89,4.83s1.38,7.31,3.38,8.41,3.86.21,3.93-1.24-.9-9.45-2.83-11.86-3.31-6.82-6.06-7S171,107.71,171,107.71Z"/><polygon class="cls-3" points="171.4 107.24 179.04 99.44 170.07 88.49 156.16 99.12 171.4 107.24"/><path class="cls-20" d="M173.05,108.06l6.42-6.4a2.4,2.4,0,0,0,.16-3.2L172,89.18l-14.29,13.74L169,108.69A3.49,3.49,0,0,0,173.05,108.06Z"/><path class="cls-21" d="M171.64,101.89a27.46,27.46,0,0,1-8.2-4.46l-5.71,5.49,12,6.17a2.28,2.28,0,0,0,2.66-.41l5.33-5.32A29.33,29.33,0,0,1,171.64,101.89Z"/><polygon class="cls-34" points="159.2 103.67 161.04 104.62 174.26 91.91 173.01 90.39 159.2 103.67"/><polygon class="cls-33" points="164.54 98.54 159.2 103.67 161.04 104.62 166.36 99.5 164.54 98.54"/><path class="cls-34" d="M169.93,107.45a.86.86,0,1,0,1.1-.53A.86.86,0,0,0,169.93,107.45Z"/><path class="cls-34" d="M177.56,100a.86.86,0,1,0,1.1-.53A.87.87,0,0,0,177.56,100Z"/><path class="cls-23" d="M97.21,16.36c0-.24-.39-.1-.93-.1s-1-.14-1,.1.44.44,1,.44S97.21,16.61,97.21,16.36Z"/><path class="cls-23" d="M102.64,16c0-.24-.36-.08-.86,0s-1-.07-1,.17.4.41.9.38S102.64,16.24,102.64,16Z"/></g></g></g></svg>