<svg xmlns="http://www.w3.org/2000/svg" viewBox="0 0 137.84 209.98"><defs><style>.cls-1{isolation:isolate;}.cls-2{fill:#ff9566;}.cls-3{fill:#eabf7a;}.cls-4{fill:#f48938;}.cls-5{fill:#f9c553;}.cls-6{fill:#ffb882;}.cls-7{fill:#e5a457;}.cls-8{fill:#af5528;}.cls-9{fill:#ffdc9f;}.cls-10{fill:#efac41;}.cls-11,.cls-19{fill:#ffefae;}.cls-12{fill:#843d44;}.cls-13{fill:#662932;}.cls-14{fill:#ea7b59;}.cls-15{fill:#f9dca0;}.cls-16{fill:#f2c37e;}.cls-17{fill:#ffe05c;}.cls-18{fill:#ffeda1;}.cls-19{opacity:0.6;mix-blend-mode:overlay;}.cls-20{fill:#66423b;}.cls-21{fill:#491d2e;}.cls-22{fill:#ffebeb;}.cls-23{fill:#ef8f6f;}</style></defs><title>HERA</title><g class="cls-1"><g id="Layer_2" data-name="Layer 2"><g id="_1" data-name="1"><path class="cls-2" d="M123.37,37.18c.68-1.35,1.52-1.94,2.66-1.91s3.34-.56,3.76-.28-2.21.59-3.08,1.21A5.92,5.92,0,0,1,123.37,37.18Z"/><path class="cls-2" d="M43.82,118c-.21-.26-.72-.19-1.15.15s-.59.85-.38,1.11.72.19,1.15-.16S44,118.3,43.82,118Z"/><path class="cls-2" d="M44.23,119.33c-.21-.26-.72-.19-1.14.16s-.6.84-.39,1.1.73.19,1.15-.16S44.44,119.59,44.23,119.33Z"/><path class="cls-2" d="M43.46,116.73c-.21-.26-.73-.19-1.15.15s-.59.85-.38,1.11.72.19,1.14-.16S43.67,117,43.46,116.73Z"/><path class="cls-3" d="M11.17,201.71C7.76,202.13,0,210,0,210H27.09S14.58,201.3,11.17,201.71Z"/><path class="cls-4" d="M72.54,39.5c1.1,41.44-3.31,58.31-5.77,65.24-2.24,6.33-5.94,16.94-5.94,16.94S59,81.92,58.66,67.91C58.22,51.27,72.54,39.5,72.54,39.5Z"/><path class="cls-5" d="M119.26,40.63c5.17,28.65,4.21,53.85-11.1,54.26S82.41,82.28,79.72,67,93,44.23,93,44.23s.31,25,14.67,30.61c8.75,3.4,8.66-11.79,8.08-22.75C115.12,41,119.26,40.63,119.26,40.63Z"/><path class="cls-4" d="M113.58,73.13c3.65-3.34,3.49-13.95,3.06-22.18-.28-5.35.53-8.19,1.44-9.72-1.17,1-2.75,3.69-2.37,10.86C116.1,59.54,116.27,68.94,113.58,73.13Z"/><path class="cls-4" d="M109.09,93.76c-15.3.41-25.75-12.62-28.43-27.92a18.58,18.58,0,0,1,3.78-15A18.91,18.91,0,0,0,79.72,67c2.69,15.3,13.14,28.33,28.44,27.91a11.07,11.07,0,0,0,9-4.73A11,11,0,0,1,109.09,93.76Z"/><path class="cls-4" d="M108,75.87c8.75,3.4,8.66-11.79,8.08-22.75-.5-9.56,2.47-11.15,3.33-11.4-.07-.37-.13-.72-.19-1.09,0,0-4.14.32-3.55,11.46.58,11,.37,25.77-8.38,22.36C102,72.39,98.92,68,96.76,62.88,98.89,68.42,102.37,73.66,108,75.87Z"/><path class="cls-4" d="M80.14,68C77.69,54.08,90.66,46.66,93,45.44c0-.77-.05-1.21-.05-1.21S77,51.67,79.72,67a44,44,0,0,0,2.62,9A43.43,43.43,0,0,1,80.14,68Z"/><path class="cls-4" d="M115.34,67.92a5,5,0,0,1,3.31-.75,5.34,5.34,0,0,1,3.41,2.32,153.59,153.59,0,0,0-2.8-28.86s-4.14.32-3.55,11.46C116,57.22,116.14,63.27,115.34,67.92Z"/><path class="cls-4" d="M104.77,90.44a51.84,51.84,0,0,1,4.61-15.16,7.12,7.12,0,0,1-1.75-.44C93.27,69.25,93,44.23,93,44.23S77,51.67,79.72,67c2.46,14,11.37,26,24.53,27.72C104.37,93.3,104.54,91.88,104.77,90.44Z"/><path class="cls-6" d="M64.41,42.88c-9.36,21.48-17.1,66.61-19.63,72.79l.61.73s24-48.89,26-59.93S64.41,42.88,64.41,42.88Z"/><path class="cls-2" d="M45,115.12c-.07.2-.14.4-.21.55l.61.73.17-.35Q45.27,115.6,45,115.12Z"/><path class="cls-2" d="M64.41,42.88a146.93,146.93,0,0,0-5.8,16.61c3,2.31,5.53,6.72,7.26,12.45,2.84-6.77,5-12.49,5.55-15.47C73.51,45.43,64.41,42.88,64.41,42.88Z"/><path class="cls-2" d="M64.41,42.88c-.11.27-.23.55-.35.82,2.54,1.43,4.14,5.67,2.67,13.45-1.6,8.49-21.2,57.89-21.62,58.92l.28.33S70,68,72.11,57,64.41,42.88,64.41,42.88Z"/><path class="cls-6" d="M126.3,34.33c-10.24,7.47-20,23-20,23s1.81,8.82,4.37,8.82,9.63-25,16.41-31.08Z"/><path class="cls-2" d="M126.3,34.33a54,54,0,0,0-7.16,6.44C114.6,50.19,110.62,62,108.83,62a1.61,1.61,0,0,1-1.49-.69c.77,2.35,1.93,4.88,3.3,4.88,2.56,0,9.63-25,16.41-31.08Z"/><path class="cls-2" d="M116.62,52.75l2.68-7.53c-.58-1.81-1.19-2.93-1.73-2.51-2.89,2.27-3.26,4.62-3.13,10A4.9,4.9,0,0,1,116.62,52.75Z"/><path class="cls-6" d="M86.65,37.7c13.34,8.27,20.79,17.8,22.13,20s4.14,9.1,1.35,8.37S88.16,54.91,86.82,53,86.65,37.7,86.65,37.7Z"/><path class="cls-2" d="M110,60.85c-2.85-1-17.8-17.23-22.14-20.76,0,3-1.63,12-1.07,12.86,1.34,2,20.51,12.37,23.31,13.09,1.87.49,2.06-2.2,1-4.86C111.07,61.17,110.14,60.88,110,60.85Z"/><path class="cls-6" d="M67.94,40.81c4.44-5.17,8.06-7.13,9.41-7.44s7.93,4.16,9.27,5.6,9.24,10.43,9.44,12.6-19.33,1.76-22.75-.93S67.94,40.81,67.94,40.81Z"/><path class="cls-2" d="M91.45,40.89l-1.9-1.45L77.83,50l5.24,2.42S89.29,45.8,91.45,40.89Z"/><path class="cls-7" d="M100,189.92c11.58-3.79,12.41-6.52,10.51-15.65-2.1-10.13-11.62-22.61-11.62-22.61C88.17,153,33.16,210,33.16,210h84.51C116.16,200.88,96.68,191,100,189.92Z"/><path class="cls-8" d="M101.91,192.88c-1.89-1.57-2.86-2.64-1.88-3,11.58-3.79,12.41-6.52,10.51-15.65-2.1-10.13-11.62-22.61-11.62-22.61C88.17,153,33.16,210,33.16,210H85.21C118,210,115.61,206.88,101.91,192.88Z"/><path class="cls-6" d="M87.69,104.44c-5.59,26-21.37,70.32-32,105.54h-.52l15.76-96.77Z"/><path class="cls-6" d="M81.83,88.72C83.68,116,88.43,171.15,92.31,210h.55c2.68-42.34,4.32-86.77,5.58-112.08Z"/><path class="cls-2" d="M95.17,168.68c1.4-28,2.42-53.71,3.27-70.78L81.83,88.72c1.48,21.78,4.8,61.29,8,96.11C91.12,177.31,93.08,171.37,95.17,168.68Z"/><path class="cls-9" d="M8.89,210H41.64c13.86-4.88,19.72-22.33,30.12-25.23,0,0,14.16-23.27,26.47-30,0,0,12,15.14,12.41,20.75,0,0-4.44-54.42-10.64-66.13-6-11.38-25.68-13.91-46.9,24C53,140.69,39.81,149,35.09,193,16.39,200.72,18.55,207,8.89,210Z"/><path class="cls-10" d="M36.61,180.72c7.12-12.3,25.92-17.54,25.92-17.54L59.61,155s-18.25,6.48-20.83,13.82S36.61,180.72,36.61,180.72Z"/><path class="cls-11" d="M106.17,136c-14.27,1.05-35.49,21-39.95,38.28a50.82,50.82,0,0,0-1.4,8c1.31.11,2.67.28,4.06.51s2.5.48,3.68.77c3.15-4.68,15.09-21.76,25.67-27.53,0,0,12,13.9,12.41,19.51C110.64,175.52,110.51,154.49,106.17,136Z"/><path class="cls-9" d="M100,136s.27,12.47-1.62,21.43l2.73,3A88.6,88.6,0,0,0,100,136Z"/><path class="cls-11" d="M69.69,184c-7.65-3-20.23,1.54-31,9.64a45.33,45.33,0,0,0-13.57,15.92h16.2C54.21,205,60.28,187.48,69.69,184Z"/><path class="cls-12" d="M87.79,17.47s2.47-2.63-1.36-4.75c-.24-.13-.47-.24-.7-.34l0-.1a4.61,4.61,0,0,0-4.83-4s.53-2.8-3.1-2.65a6.44,6.44,0,0,0-2.58.66,2.12,2.12,0,0,0-.45-.11,4.43,4.43,0,0,0-3.61,1A3.06,3.06,0,0,0,68,8a5.89,5.89,0,0,0-1.57,3.54S64,11.43,63.9,15.14a4.61,4.61,0,0,0,.48,2.23,3,3,0,0,0-1.06,1.45,7.17,7.17,0,0,0,.12,4.41s-2.43.86-.77,4.7a4.72,4.72,0,0,0,5,3.16s-.09,2.38,3.06,2a5.58,5.58,0,0,0,1.69-.45A6.29,6.29,0,0,0,77,32.36a4.18,4.18,0,0,0,4.27.11,8.79,8.79,0,0,0,3.6-4s3.21.9,5.11-4C92,19.42,87.79,17.47,87.79,17.47Z"/><path class="cls-13" d="M89.25,20.61A5.62,5.62,0,0,1,88.16,22c-2.33,2.16-3.67.2-3.67.2a4.74,4.74,0,0,1-5.87.42c-3.63-2.1-2.18-4.23-2.18-4.23a7.08,7.08,0,0,1-2.73-3.46,2.9,2.9,0,0,1,0-1.8c-.93.44-2.46.55-3-.21-2.16-3,1.09-5.86,1-6a4.69,4.69,0,0,0-.54.4A3.06,3.06,0,0,0,68,8a5.89,5.89,0,0,0-1.57,3.54S64,11.43,63.9,15.14a4.61,4.61,0,0,0,.48,2.23,3,3,0,0,0-1.06,1.45,7.17,7.17,0,0,0,.12,4.41s-2.43.86-.77,4.7a4.72,4.72,0,0,0,5,3.16s-.09,2.38,3.06,2a5.58,5.58,0,0,0,1.69-.45A6.29,6.29,0,0,0,77,32.36a4.18,4.18,0,0,0,4.27.11,8.79,8.79,0,0,0,3.6-4s3.21.9,5.11-4a5.94,5.94,0,0,0,.24-4.32A5.9,5.9,0,0,1,89.25,20.61Z"/><path class="cls-14" d="M77.62,21.44l-3.1-4.91c-2.87,8.38,1.87,16.15-4,21.66l16.84.21C84,34.92,75.66,33.16,77.62,21.44Z"/><path class="cls-11" d="M108.16,127.05c-1.24,8.07-22.61,9.65-45.63,36.13,0,0-10.21-7-4.83-38.4s17.37-52.35,22.54-60C88.1,53.22,102.78,96.45,108.16,127.05Z"/><path class="cls-15" d="M85.83,68.19s12.76,27.16,13.64,64.73l-3.24,2C98,112.55,85.83,68.19,85.83,68.19Z"/><path class="cls-15" d="M84,69.74s-7.23,37.6-1.43,75.24l3-5.55C79.86,117.78,84,69.74,84,69.74Z"/><path class="cls-15" d="M79.68,74.15s-12.05,40.22-11.09,80.48l3.72-5.93C69.42,125.54,79.68,74.15,79.68,74.15Z"/><path class="cls-5" d="M57.81,155.7c1.75,5.68,4.72,7.48,4.72,7.48,23-26.48,44.6-27.44,45.84-35.51-.11-.6-.43-1.83-.54-2.45C101.58,131,80.37,134.64,57.81,155.7Z"/><path class="cls-15" d="M84.17,70.18C88,69,90,70.8,92.37,73.82c-4.17-10.36-9.18-14.74-12.44-9.95C74.76,71.5,63.08,93.34,57.7,124.78c-.59,3.45-1,6.6-1.23,9.48C62.94,107.53,76.47,72.47,84.17,70.18Z"/><path class="cls-16" d="M71.21,57.15c5.86,8.55,5.08,12.71,5.08,12.71,4.34-3.91,8.83-6,12.33-3.43l3.13-13.28Z"/><path class="cls-11" d="M63.49,43.64c5.93,10.62,7.72,17.37,9.79,19.3s24.4-7,24.4-7-.17-5.2-1-6.31-8.92-.86-15.54-4.44c-4.72-2.56-9.24-8.41-11.58-7.59S63.49,43.64,63.49,43.64Z"/><path class="cls-15" d="M87.22,47.51,84,46.36,70.25,54.6l5.11,3.16S83.83,51.57,87.22,47.51Z"/><path class="cls-15" d="M77.55,58.19c-2.19-1.81-4.11-7.12-11.3-17.95a39.42,39.42,0,0,0-2.76,3.4c4.83,10.27,7.51,18.06,9.58,20s24.61-7.72,24.61-7.72,0-.38,0-.94C91.06,57,79.14,59.49,77.55,58.19Z"/><path class="cls-17" d="M113.09,32.65c.31,1.15,9.82,3,12.37,3s12.07-1.84,12.38-3Z"/><path class="cls-18" d="M114.8,33.6h21.32c1-.33,1.64-.67,1.72-1H113.09C113.16,32.93,113.82,33.27,114.8,33.6Z"/><path class="cls-17" d="M115.89,50.05C115.81,42.54,117,40,119.2,39.81s4,13.76,4.19,15.76-1.82-3.86-3.87-4.9A5.58,5.58,0,0,0,115.89,50.05Z"/><path class="cls-6" d="M97.34,210H92.17s.14-1.44.79-1.68S97.34,210,97.34,210Z"/><path class="cls-6" d="M50.79,210H56.3s0-1.62-.67-1.86S50.79,210,50.79,210Z"/><path class="cls-17" d="M60,55.11c18.61,5.11,30.6-13.73,31.26-15.34s-5.47-6.72-7.88-6.25S74,37.84,68.42,36.83C62.69,35.78,60,55.11,60,55.11Z"/><path class="cls-5" d="M64.11,53c-1.24-16.41,12.41-7,18.13-19.12-2.82.86-10.94,3.08-13.94,2.54-5.74-1-8.95,19.08-8.95,19.08a23.5,23.5,0,0,0,21.34-4.29C75.22,54.19,64.3,55.41,64.11,53Z"/><path class="cls-5" d="M99.48,151.35c-12.85,6.72-29.92,30-29.92,30-9.63,2.56-18.23,20.29-32.45,28.6h4.53c13.86-4.88,19.72-22.33,30.12-25.23,0,0,14.27-20.58,26.58-27.3,0,0,11.86,12.46,12.3,18.07,0,0-.33-4-.93-10.12A87.68,87.68,0,0,0,99.48,151.35Z"/><path class="cls-19" d="M88.78,36.17a16.66,16.66,0,0,0-2.12-1.55c-4,5.17-12.88,13.85-25.07,12.53-.25,1-.48,1.91-.67,2.79C75.29,52.57,85.36,41.11,88.78,36.17Z"/><path class="cls-5" d="M120.4,43.5a2.69,2.69,0,0,1,.92.18c-.62-2.27-1.34-3.93-2.12-3.87-2.12.17-3.29,2.55-3.31,9.43C116.66,45.86,118.38,43.5,120.4,43.5Z"/><polygon class="cls-15" points="97.5 53.27 84.74 54.05 97.32 51.78 97.5 53.27"/><path class="cls-10" d="M101.42,153.62c-1.16-1.4-1.94-2.27-1.94-2.27l-.21.12c-.23,2.05-.53,4.1-.93,6h0s1.14,1.2,2.73,3h0C101.29,158.09,101.39,155.79,101.42,153.62Z"/><path class="cls-9" d="M74.93,153.94s-7.93,16.87-6,32c.83-1.25,1.75-1.73,2.79-1.17C70.59,175.24,74.93,153.94,74.93,153.94Z"/><path class="cls-10" d="M71.61,178.67c-1.3,1.68-2,2.71-2,2.71-.3.08-.6.17-.9.28a40.48,40.48,0,0,0,.31,4.26h0a13.42,13.42,0,0,1,2.78-1.16A39.14,39.14,0,0,1,71.61,178.67Z"/><path class="cls-12" d="M73.44,11.63c-2.91,2.63-5.67,1.21-5.16-1.58,0,0-3.16,4.24.82,6A5.26,5.26,0,0,0,74,15.57Z"/><path class="cls-13" d="M89.47,21.58a2.65,2.65,0,0,0-2.17-2.51c.93.73,2,2.23.59,5.1Z"/><polygon class="cls-17" points="37.91 4.97 35.57 4.97 36.4 19.1 38.74 19.1 37.91 4.97"/><path class="cls-17" d="M34.53,2.21A2.21,2.21,0,1,0,36.74,0,2.21,2.21,0,0,0,34.53,2.21Z"/><polygon class="cls-17" points="39.29 17.51 35.93 17.51 36 19.72 39.36 19.72 39.29 17.51"/><polygon class="cls-17" points="38.4 4.73 35.04 4.73 35.11 6.93 38.47 6.93 38.4 4.73"/><path class="cls-6" d="M79.81,28.63a10.27,10.27,0,0,1-7-7.3c-.44-2.39.39-9,5-9.55s4.87,4.72,5.17,8C83.36,24.5,79.81,28.63,79.81,28.63Z"/><path class="cls-6" d="M72.26,21.33c-.75-1.16-2.19-.82-2.08,1s2.17,2.62,2.48,2.11C73.13,23.63,72.64,21.91,72.26,21.33Z"/><path class="cls-14" d="M72.12,22.13c-.43-.66-1.25-.47-1.19.56s1.24,1.5,1.42,1.21A2.22,2.22,0,0,0,72.12,22.13Z"/><path class="cls-6" d="M72.25,23c-.28-.43-.81-.31-.77.36s.81,1,.92.78A1.41,1.41,0,0,0,72.25,23Z"/><path class="cls-20" d="M81.41,18.72c-.12-.8-.57-1.41-1-1.37s-.68.72-.55,1.52.57,1.4,1,1.36S81.54,19.51,81.41,18.72Z"/><path class="cls-20" d="M77.2,19.1c-.12-.92-.59-1.65-1.06-1.64s-.75.77-.64,1.69.59,1.65,1.06,1.64S77.31,20,77.2,19.1Z"/><path class="cls-20" d="M74.72,18.94a3.71,3.71,0,0,1,2.6-1.18A1.15,1.15,0,0,0,76,17.32C75,17.59,74.72,18.94,74.72,18.94Z"/><path class="cls-20" d="M81.87,18a3.44,3.44,0,0,0-2.55-.37,1,1,0,0,1,1-.72C81.22,16.9,81.87,18,81.87,18Z"/><path class="cls-12" d="M74.15,17.28l-.07-.19a3.43,3.43,0,0,1,2.07-2.33l.16.68A3.12,3.12,0,0,0,74.15,17.28Z"/><path class="cls-12" d="M81.77,16.23a3.31,3.31,0,0,0-2.71-1.14L79,14.4A3.68,3.68,0,0,1,81.83,16Z"/><path class="cls-14" d="M79.93,21.49a.22.22,0,0,1,0,.08.75.75,0,0,1-1,.67,1.06,1.06,0,0,1-.64-.59,1.14,1.14,0,0,0,.76,1.13.76.76,0,0,0,1-.68A1.08,1.08,0,0,0,79.93,21.49Z"/><path class="cls-21" d="M77.65,24.43l3-.18S80.49,26,79.28,26,77.65,24.43,77.65,24.43Z"/><path class="cls-22" d="M77.86,24.49l2.52-.16s.27.74-1.16.86S77.86,24.49,77.86,24.49Z"/><path class="cls-23" d="M80,26.51c0-.21-.26,0-.58,0s-.59-.18-.57,0,.29.36.6.34S80,26.72,80,26.51Z"/><path class="cls-12" d="M79.28,10.43a2.16,2.16,0,0,1,.49,3.91c-1.83,1.13-3-1.08-3-1.08S78.93,14.72,79,13c.09-1.53-2.11-1.14-2.11-1.14Z"/><path class="cls-2" d="M47,113.1c-.9,1.81-1.65,5.68-2.6,6.64-.75.76-1.71-2.14-1.92-2.82s3.35-4.08,3.35-4.08Z"/><polygon class="cls-17" points="37.64 11.17 36.4 11.17 48.81 209.98 50.74 209.98 37.64 11.17"/><path class="cls-6" d="M44.2,117.6c-1-2-1.1-2.55-.82-3.1A17.17,17.17,0,0,1,46,112.19s.75,2-.18,2.79-1.48.14-1.48.14S45,119.22,44.2,117.6Z"/><path class="cls-6" d="M41.87,117.12c.76-.91,1.36-1.38,1.42-.72s-.78,1.93-1.21,1.71A.59.59,0,0,1,41.87,117.12Z"/><path class="cls-6" d="M42.33,118.28c1-.66,1.68-1,1.57-.3s-1.29,1.65-1.63,1.32A.6.6,0,0,1,42.33,118.28Z"/><path class="cls-6" d="M42.67,119.56c.92-.73,1.61-1.07,1.54-.41s-1.16,1.73-1.53,1.43A.59.59,0,0,1,42.67,119.56Z"/><path class="cls-2" d="M125.2,36.41c1-1.15,2.85-1.93,3.13-1.79s-1.28,1.18-1.28,1.18Z"/></g></g></g></svg>