<svg xmlns="http://www.w3.org/2000/svg" viewBox="0 0 213 221.22"><defs><style>.cls-1{isolation:isolate;}.cls-2{fill:#683a36;}.cls-3{fill:#eac68c;}.cls-4{fill:#ffebc0;}.cls-5{fill:#ffb882;}.cls-6{fill:#ff9566;}.cls-7{fill:#f4d8a2;}.cls-8{fill:#ef7443;}.cls-9{fill:#c94343;opacity:0.6;mix-blend-mode:multiply;}.cls-10{fill:#664239;}.cls-11{fill:#512927;}.cls-12{fill:#ea7b59;}.cls-13{fill:#ffe05c;}.cls-14{fill:#ffeb99;}.cls-15{fill:#ffc550;}.cls-16{fill:#ffdcae;}.cls-17{fill:#ffc648;}.cls-18{fill:#fff48d;}</style></defs><title>HERMES</title><g class="cls-1"><g id="Layer_2" data-name="Layer 2"><g id="_1" data-name="1"><path class="cls-2" d="M66.4,26.93c-2.19,1.55,0,3.46,0,3.46a3.36,3.36,0,0,0,.27,2.9,5.07,5.07,0,0,0,2.51,1.51l5-1.46A8.93,8.93,0,0,0,72.49,28C69.33,24.05,66.4,26.93,66.4,26.93Z"/><path class="cls-3" d="M93.24,73.81c11,17.14,11.91,26.89,19.9,37.29l-12.59,4Z"/><path class="cls-4" d="M178.72,192.34c-1.16-.07-16.71-.87-17.44-.43s-1.31,1.38-2.47,8.42l.51.37c.22-.88,2.51-2.89,4.25-3,5.88-.49,3.87-1.63,3.87-1.63,7.08-.49,4.41-1.85,4.41-1.85C176.21,193.89,179.88,192.41,178.72,192.34Z"/><path class="cls-4" d="M88.45,166.73c-1.16-.07-16.71-.87-17.44-.43s-1.3,1.38-2.47,8.42l.51.37c.22-.87,2.51-2.89,4.25-3,5.89-.49,3.87-1.63,3.87-1.63,7.08-.49,4.41-1.85,4.41-1.85C85.94,168.28,89.61,166.81,88.45,166.73Z"/><path class="cls-5" d="M64.62,78.32c-19.33-21.07-49-60.88-49-60.88l2.91-6.69L67.38,42.43Z"/><path class="cls-6" d="M16.31,15.92l-.66,1.52s29.64,40.68,49,61.75l1-13.32C46.84,48.47,24.42,24.65,16.31,15.92Z"/><path class="cls-5" d="M108.21,120.89c-5.38-16.13-3.63-23.54-.44-30.08,1.89-3.85-.23-18.27-10.46-31.09C90.2,50.8,78.13,47.51,66.51,41.41c0,0-10.9,25.72,1.16,47.8S108.21,120.89,108.21,120.89Z"/><path class="cls-6" d="M101.25,118l5.12-3.36c-3-11.92-.84-17.76,1.91-23.39.49-1,.2-3.16.08-5.37L97.6,80.41s-.43,9.49-1.32,35.09C98.07,116.46,99.76,117.3,101.25,118Z"/><path class="cls-6" d="M101.64,93.21c-4.93,2.61-16,1-24.52-13.4-8.3-14-10.79-30.08-6.78-36.49-1.28-.61-2.56-1.24-3.83-1.91,0,0-10.9,25.72,1.16,47.8s40.54,31.68,40.54,31.68C105.11,111.59,101.09,98.22,101.64,93.21Z"/><path class="cls-5" d="M67.74,174.87c-14.09-24-28.62-58.77-27.17-63.13a4.68,4.68,0,0,1,3.49-3c8.35-1.1,34.11,2,48.75,5.8l4.43,21.5c-13.37-1.3-38.48-8.92-38.5-7.91-.08,3.05,3.77,31.31,9,44.31Z"/><path class="cls-6" d="M58.91,130.62c-.12-1.2-.18-2.06-.17-2.47,0-1,25.13,6.62,38.5,7.92l-4.43-21.5c-14.64-3.81-40.4-6.9-48.75-5.8a.7.7,0,0,0-.14,0C48.35,112,53.77,120,58.91,130.62Z"/><path class="cls-5" d="M98.11,141.67c11.19,17,20.63,31.09,23,33S158,201,161.32,204l.58-.72s-29.06-32.55-30.37-34-16-34.3-16-34.3Z"/><path class="cls-6" d="M121.07,174.65c.12.1.34.27.62.47a101.58,101.58,0,0,1,18.92,4.31c-4.79-5.36-8.62-9.65-9.08-10.15-1.31-1.46-16-34.3-16-34.3l-17.44,6.69C109.3,158.67,118.74,172.76,121.07,174.65Z"/><path class="cls-4" d="M54.3,106.51c6.4,17.14,28.79,38.48,32.41,41.12,10.75,7.84,49.83,25.13,49.83,25.13s-5.52-16-12.06-26.73c0,0,4.63-.1-3.63-9.74-4.36-5.08-6.1-5.08-5.67-7s4.36.29,1.75-5.52c-1.11-2.46-2-4.61-2.73-6.39-1-2.45,3.15-.46-1.06-6.31,0,0-54.6-22.41-45-68.32a1.47,1.47,0,0,0-.52-1.47L67,40.89a1.75,1.75,0,0,0-2.42.48c-4.11,6.09-18.06,31.19,7.56,60.34L71.45,104s-4.65-3.64-3.92,2.32C67.53,106.36,52.73,102.28,54.3,106.51Z"/><path class="cls-7" d="M120.85,136.29c-4.36-5.08-6.1-5.08-5.67-7a1.08,1.08,0,0,1,.62-.75c-32.25-15.2-32.59-24.73-45.46-29,.59.73,1.2,1.45,1.84,2.18L71.45,104s-4.65-3.64-3.92,2.32c0,0-14.8-4.08-13.23.15,6.25,16.75,27.77,37.5,32.12,40.9C70.5,131.28,61.49,116,65.76,111.23c4.91-5.42,16.07,11.4,36.53,29.93-37.92-45.23,20.54,4.57,24.9,9.7-.87-1.67-1.78-3.31-2.71-4.83C124.48,146,129.11,145.93,120.85,136.29Z"/><path class="cls-7" d="M62.73,67A41.4,41.4,0,0,1,68.09,42.2a1.54,1.54,0,0,0-.52-.89L67,40.89a1.76,1.76,0,0,0-1.21-.27C61.46,50.27,61.64,60.2,62.73,67Z"/><path class="cls-7" d="M124.48,146s-11.75-9.29-20-18.93c-4.36-5.08,10.28,4.11,10.71,2.22s4.36.29,1.75-5.52l-.84-1.88c-10.74,2.37-30.45-9.72-42.53-24C57.28,78.72,57.68,61.46,60.88,48.26,56.22,59,51.8,79.16,71.61,101.71l-.38,1.8s-4.87-3.56-4.14,2.4c0,0-9.15-2.19-12.07-1,8.88.58,26.78,8.21,39.75,19.38s32,29.31,39.81,47.62l2,.87S131,156.78,124.48,146Z"/><path class="cls-5" d="M89,52.38c-6.25-4.87-7.48-10.24-7.34-14.31S67,45,67,45s5.67,1.75,5.31,6.48C79.22,56.23,86,54.85,89,52.38Z"/><path class="cls-5" d="M89.68,53l8.5,36.84c20.06,9,32.88,18.16,42,26.73l7.33-7.58S114.81,65.45,89.68,53Z"/><path class="cls-6" d="M97.4,86.38,98,90.32c20.06,9,33.08,17.64,42.24,26.21C140.22,116.53,131,101.42,97.4,86.38Z"/><path class="cls-8" d="M89.19,88.11c.34-.51-.11-1.4-1-2S86.33,85.49,86,86s.1,1.39,1,2S88.85,88.62,89.19,88.11Z"/><path class="cls-6" d="M100.76,89.18c-5.66-3.6-7.84-16-7.84-16S93,88.09,101.64,97Z"/><path class="cls-5" d="M72.65,176.58c-1.73-2.09-2.84-1.09-7.09-8.39l.44,3.05c5.78,9.7,5.45,24.52,6.87,24.84.73.17,1.35-3.63.65-8.5C73.14,184.91,75,179.41,72.65,176.58Z"/><path class="cls-5" d="M165.09,202.94c-2.33-1.38-3-.07-9.51-5.5l1.45,2.72c8.72,7.17,13.43,21.23,14.87,21.06.76-.09,0-3.88-2.26-8.22C168.38,210.61,168.26,204.81,165.09,202.94Z"/><polygon class="cls-4" points="66.49 173.55 68.67 171.89 70.96 174.45 68.23 176.9 66.49 173.55"/><polygon class="cls-4" points="159.76 202.95 161.06 200.99 158.38 198.92 157.83 201.5 159.76 202.95"/><path class="cls-7" d="M108.14,144.57c9.22,12.79,24.48,21.65,24.48,21.65l2.11,4.58C125.86,164.19,113.88,154.24,108.14,144.57Z"/><path class="cls-7" d="M66.33,80.35c8.93,19.18,30.51,40.32,46.64,44l3.25-2.17C95.75,113.61,78.27,100.83,66.33,80.35Z"/><path class="cls-9" d="M103.78,62.47A79.07,79.07,0,0,0,89.68,53h0l-.78-.5.13-.09c-5.1-4-6.86-8.28-7.25-11.94a27.13,27.13,0,0,0-8.92.51c-1.13.72-2.21,1.45-3.13,2.08l-.7-.36A6.82,6.82,0,0,0,67,45a11.94,11.94,0,0,1,4.4,2.73C72.32,54.74,82.13,68,103.78,62.47Z"/><path class="cls-4" d="M75.81,25.16c5.11-4.33,6.36-9,7.15-9.29s15.4,8.84,22.29,9.69-4,3.12-10.33-.25c0,0,11.31,7.42-7.86,0,0,0,13.53,6.15-4.45.88-2.49-.73-5.18-.75-6.26,0S74.67,26.13,75.81,25.16Z"/><path class="cls-7" d="M76.93,25.39c5.12-4.33,6.19-7.35,7-7.63s14.45,7,21.34,7.8-4,3.12-10.33-.25c0,0,11.31,7.42-7.86,0,0,0,13.53,6.15-4.45.88-2.49-.73-5.18-.75-6.26,0S75.79,26.36,76.93,25.39Z"/><path class="cls-5" d="M67,45c2.83.8,10.47,3.13,12.87-.28s2.39-8.06,2.47-8.86-12.52-9-13.3-8.07C67.67,29.35,67,45,67,45Z"/><path class="cls-10" d="M70.28,34.05l-2-.83a.68.68,0,0,1,1-.36A5.56,5.56,0,0,1,70.28,34.05Z"/><path class="cls-6" d="M70.71,38.69l-2.55-1.63S70.47,33.34,71,33.2,70.71,38.69,70.71,38.69Z"/><path class="cls-5" d="M71.37,38.52l-2.58-1.63s2.35-3.75,2.91-3.9S71.37,38.52,71.37,38.52Z"/><path class="cls-10" d="M73.72,36.39,71.81,35.3a.68.68,0,0,1,1-.23A5.5,5.5,0,0,1,73.72,36.39Z"/><polygon class="cls-2" points="74.67 35.28 71.56 33.84 71.66 33.23 74.83 34.22 74.67 35.28"/><polygon class="cls-2" points="70.77 32.99 68.25 31.79 68.33 31.18 70.9 31.91 70.77 32.99"/><path class="cls-11" d="M82.93,47.74C85.62,48.9,85.47,46,85.47,46s1.82-.37,2-1.82a5.8,5.8,0,0,0-.72-3.12L82,37.57A7.11,7.11,0,0,0,79.51,42,5.08,5.08,0,0,0,82.93,47.74Z"/><path class="cls-2" d="M77.59,33.94c-2.3,1.63.22,3.28.22,3.28A2.83,2.83,0,0,0,78.32,40a5.92,5.92,0,0,0,2.89,1.24l5.45-1.75a7.75,7.75,0,0,0-2.27-4.91C80.62,31,77.59,33.94,77.59,33.94Z"/><path class="cls-5" d="M78.55,41.45c.3-2.63,2.21-4.06,3-2.19C82.73,42.18,78.55,41.45,78.55,41.45Z"/><path class="cls-12" d="M79.22,40.8c.16-1.44,1.21-2.22,1.63-1.2C81.51,41.2,79.22,40.8,79.22,40.8Z"/><path class="cls-5" d="M79,40.93c.11-.9.76-1.39,1-.75C80.42,41.18,79,40.93,79,40.93Z"/><path class="cls-9" d="M82.2,37.73c.1-.94.12-1.65.15-1.91,0-.51-5-4-8.95-6.25A7,7,0,0,0,72.49,28c-3.16-4-6.09-1.1-6.09-1.1a2.15,2.15,0,0,0-.93,1.19c4.68,5.16,13.66,14.64,19.92,18.68a3.18,3.18,0,0,0,.08-.8s1.82-.37,2-1.82a5.8,5.8,0,0,0-.72-3.12Z"/><path class="cls-13" d="M66,25.7c12.93,8.84,13.35,15,22.3,18.76C91.67,45.88,86.56,42,88,34.09S83.44,20.78,78.5,20.88c-5.39.12-8,4.53-11.06,3.59C65.07,23.74,65,25,66,25.7Z"/><path class="cls-14" d="M74.57,22.2c-1.72.76-3.1,1.79-4.39,2.33a2.56,2.56,0,0,1,.94.73c1-.54,2.14-1.28,3.45-1.88Z"/><path class="cls-14" d="M78.46,21.3a9.67,9.67,0,0,0-2,.26v1.15a9.16,9.16,0,0,1,2.16-.3c3.76-.08,8.16,3.15,9.16,8.27C87.24,24.92,82.48,21.22,78.46,21.3Z"/><path class="cls-15" d="M88,34.09a11.52,11.52,0,0,0-1.59-8.56,2.2,2.2,0,0,1,0,1c-.64,2.66-6.28,3.6-12.6,2.08a20.67,20.67,0,0,1-8.44-3.9,1.2,1.2,0,0,0,.62,1c12.93,8.84,13.35,15,22.3,18.76C91.67,45.88,86.56,42,88,34.09Z"/><path class="cls-13" d="M88,34.09a12.21,12.21,0,0,0,.19-1.54c0,.2,0,.4-.08.61-.09.53-.16,1-.2,1.53Z"/><path class="cls-13" d="M88.41,43.54c-9-3.78-9-10-21.89-18.88-.19-.12-.74-.16-.85-.31-.52.25-.32.91.33,1.35,12.93,8.84,13.35,15,22.3,18.76,1.3.55,1.34.31,1-.64A3.55,3.55,0,0,1,88.41,43.54Z"/><path class="cls-13" d="M82.45,29.89a1.84,1.84,0,0,0-3.56,0,1.84,1.84,0,0,0,3.56,0Z"/><path class="cls-15" d="M82.65,31.92a4.48,4.48,0,0,0-1.74-2.12c-.37-.2-.65-.19-.75,0a2.3,2.3,0,0,0,.28,1.95C81.53,33.33,83.25,33.65,82.65,31.92Z"/><path class="cls-4" d="M81,29.13c6.49-2.59,8.39-7.35,9.26-7.35s13.41,15.2,20,18.61-5,1.75-10.25-4.07c0,0,8.94,11.85-7.84-2.9,0,0,11.55,11.35-4.73-.73C85.25,31,82.56,30,81.26,30.37S79.59,29.71,81,29.13Z"/><path class="cls-4" d="M87.94,118.15c-10.54-3.76-19-11.58-16.13-12.35S87.94,118.15,87.94,118.15Z"/><path class="cls-16" d="M112.25,41.75c-2.73.16-8.54-3-14.37-8-.87-.75-1.69-1.5-2.47-2.26a3.3,3.3,0,0,0,.22.3c2.87,4,5,6.27,3.51,6s-5.45-3.41-8.86-7c-1.55-1.62-2.86-2.92-2.12-1.87,2.87,4,5,6.26,3.51,6s-6.79-5.4-9.51-5.13c-1.56.16-2.21,1-.9.64s4,.65,6.24,2.32c16.28,12.08,4.73.73,4.73.73,16.78,14.75,7.84,2.9,7.84,2.9C104.36,41.09,112.94,43.07,112.25,41.75Z"/><path class="cls-6" d="M69.25,39.23l.72.67c1.22.25,3.88.75,3.88.75A44.07,44.07,0,0,1,69.25,39.23Z"/><polygon class="cls-6" points="75.16 66.8 75.48 79.44 72.87 74.65 75.16 66.8"/><path class="cls-6" d="M145.41,104.62c3.91,4.11,8.82,7.48,8.58,10.34s-9.34,8.37-11.59,7.53S135.64,112,135.64,112C142.74,112.78,144.51,109.06,145.41,104.62Z"/><path class="cls-17" d="M167.42,93.69a7.7,7.7,0,1,1,11.22.28A7.94,7.94,0,0,1,167.42,93.69Zm9.65-9.75a6,6,0,1,0,.32,8.8A6.23,6.23,0,0,0,177.07,83.94Z"/><path class="cls-17" d="M157.81,103.42a7.7,7.7,0,1,1,10.6-.33A7.52,7.52,0,0,1,157.81,103.42Zm9.65-9.76a6.06,6.06,0,1,0-.3,8.19A5.81,5.81,0,0,0,167.46,93.66Z"/><polygon class="cls-17" points="185.66 77.33 183.59 75.28 135.16 125.68 135.8 126.31 185.66 77.33"/><path class="cls-13" d="M150.34,111c-2.13-2.11-1.92-5.77.46-8.18s6-2.65,8.17-.55,1.92,5.77-.46,8.18S152.47,113.07,150.34,111Zm7.47-7.55c-1.44-1.43-4-1.15-5.76.6s-2,4.35-.55,5.77,4,1.15,5.77-.61S159.25,104.84,157.81,103.42Z"/><path class="cls-13" d="M178.24,82.76a9.7,9.7,0,0,0-1.06-.88,11.13,11.13,0,0,1,1.57,4.8,6,6,0,0,1-1.36,6.06,6.24,6.24,0,0,1-8.8-.22,6.92,6.92,0,0,1-.67-.78,19.35,19.35,0,0,1-2.33-.71,8.45,8.45,0,0,0,1.83,2.66,7.7,7.7,0,1,0,10.82-10.93Z"/><path class="cls-13" d="M181.68,73.6a4,4,0,1,0,5.65,0A4,4,0,0,0,181.68,73.6Z"/><path class="cls-17" d="M184.11,77.34a4,4,0,0,1-.67-4.76,3.89,3.89,0,0,0-1.76,1,4,4,0,1,0,5.68,5.62,4,4,0,0,0,.65-.9A4,4,0,0,1,184.11,77.34Z"/><path class="cls-13" d="M158.6,101.83a6.08,6.08,0,0,1,8.86-8.17,4.78,4.78,0,0,1,.88,1.18,9.34,9.34,0,0,1,2.2,1.17,7.08,7.08,0,0,0-1.92-3.53,7.69,7.69,0,1,0-9.29,12.07A9,9,0,0,1,158.6,101.83Z"/><path class="cls-17" d="M152.05,104a4.46,4.46,0,0,1,4.88-1.19,6.17,6.17,0,0,0-.7-2,6.34,6.34,0,0,0-5.43,1.91,6.2,6.2,0,0,0-1.65,6.25,6.36,6.36,0,0,0,2.12.46C150.12,108,150.42,105.67,152.05,104Z"/><path class="cls-13" d="M178.3,81.89l.4-.53c-8.23-8.14,2.36-16.62,6.37-18,.65-.22.54-1,.13-2.17-.76-3.72-2.9-13.67-3.93-13.13-.75.39-1.05,1.63-.65,4.88l-.12.09c-.62-1.55-1.18-2.59-1.5-2.36-.57.41-.75,1.4-.3,3.8l-.19.16c-.56-1-1-1.56-1.3-1.31-.48.47-.64,1.27-.35,2.85-.08.08-.17.16-.25.25-.54-1.07-1-1.73-1.3-1.51-.58.44-.77,1.34-.36,3.34-.08.09-.15.19-.22.28-.56-.77-1-1.19-1.28-.93-.55.53-.7,1.4-.26,3.06l-.13.22c-.72-.84-1.28-1.33-1.43-1-.28.5-.21,1.27.5,2.73l-.16.32c-.5-.41-.87-.57-1-.31a2.45,2.45,0,0,0,.28,2.06c0,.14-.08.28-.13.42-.55-.53-1-.78-1.11-.52-.31.59-.22,1.4.62,2.9l0,.23c-.64-.46-1.12-.66-1.26-.33-.32.78,0,1.59,1.3,3.17h0c-.78-.65-1.38-1-1.49-.72-.26.72.21,1.58,2.23,3.72v0c-.82-.58-1.45-.9-1.41-.45.11,1.14.91,2,4,4.6A28.25,28.25,0,0,0,178.3,81.89Z"/><path class="cls-17" d="M178.7,81.36c-7.8-7.72,1.69-15.89,6.08-17.88a38.68,38.68,0,0,1-2.71-6.94,37.16,37.16,0,0,1-1.61-6.47,17.1,17.1,0,0,0,.16,2.89l-.12.09c.28,1.78,2.87,8.8,2.07,9s-3-5.84-3.87-7.57l-.19.16c1.83,5,3.16,7.9,2.6,8.22-.92.5-2.3-2.69-4.25-6.68-.08.08-.17.16-.25.25,1.06,2.05,3.83,6.88,3,7.46s-2.48-2.66-4.67-5.63c-.08.09-.15.19-.22.28,1.8,2.75,4.09,7.1,3.82,7.36-.54.54-3.43-3-5.36-5.23l-.13.22c3.28,4.15,4.14,6.05,4,6.33-.29.51-1.76-1.07-4.92-4.65l-.16.32c3.56,3.9,4.24,5.23,4.13,5.49-.2.5-1.28-.15-4.82-3.74,0,.14-.08.28-.13.42,3.08,3.05,4.38,5.07,4.24,5.33-.31.59-2.16-1-4.73-3l0,.23c3.61,3.06,4.21,4.32,4.08,4.65-.32.79-2.34-.68-4-1.81h0c3.64,3.09,3.91,3.82,3.8,4.12-.26.73-1.65-.14-3.06-1.12v0c2.46,1.93,3.72,3.4,3.78,3.85.11.72-.95.29-1.2.3a28.25,28.25,0,0,0,4.3,4.18Z"/><path class="cls-13" d="M179.21,82.79l.53-.4c8.23,8.14,16.59-2.55,17.91-6.57.21-.66,1-.56,2.16-.15,3.73.71,13.7,2.74,13.17,3.78-.38.75-1.61,1.06-4.87.7l-.09.12c1.56.61,2.61,1.15,2.38,1.47-.41.58-1.4.77-3.8.35l-.16.19c1,.55,1.58,1,1.33,1.28-.46.48-1.27.66-2.84.38l-.25.26c1.08.52,1.74,1,1.52,1.29-.43.58-1.34.78-3.34.39l-.27.23c.78.54,1.2,1,.94,1.26-.53.55-1.39.72-3.06.29l-.22.14c.85.71,1.35,1.26,1.07,1.42-.5.29-1.26.22-2.73-.48l-.32.17c.41.5.58.86.32,1a2.49,2.49,0,0,1-2.07-.26l-.41.13c.53.55.79,1,.53,1.11-.59.32-1.4.23-2.9-.59l-.24,0c.47.63.68,1.12.35,1.26-.78.32-1.59.06-3.19-1.27h0c.66.78,1,1.38.74,1.49-.72.27-1.58-.2-3.75-2.19l0,0c.59.82.93,1.45.47,1.41-1.14-.1-2.05-.89-4.64-3.94A27.88,27.88,0,0,1,179.21,82.79Z"/><path class="cls-17" d="M179.74,82.39c7.8,7.71,15.87-1.87,17.8-6.28a39.18,39.18,0,0,0,7,2.63,38.31,38.31,0,0,0,6.5,1.54,16.59,16.59,0,0,1-2.9-.13l-.09.12c-1.78-.26-8.83-2.77-9-2s5.87,3,7.61,3.79l-.16.19c-5-1.78-7.93-3.07-8.24-2.51-.5.93,2.71,2.27,6.73,4.17l-.25.26c-2.07-1-6.92-3.76-7.5-2.93s2.69,2.45,5.68,4.61l-.27.23c-2.77-1.77-7.15-4-7.41-3.75-.53.55,3.08,3.4,5.29,5.3l-.22.14c-4.18-3.24-6.09-4.08-6.37-3.92-.5.29,1.09,1.74,4.71,4.86l-.32.17c-3.94-3.52-5.28-4.18-5.54-4.07-.49.21.16,1.28,3.79,4.78l-.41.13c-3.08-3-5.12-4.32-5.38-4.18-.58.32,1,2.15,3,4.7l-.24,0c-3.09-3.57-4.36-4.16-4.69-4-.78.33.71,2.34,1.85,4h0c-3.13-3.6-3.86-3.86-4.16-3.75-.72.27.16,1.64,1.15,3l0,0c-2-2.43-3.44-3.67-3.89-3.73-.72-.1-.28,1-.28,1.2a27.88,27.88,0,0,1-4.23-4.25Z"/><path class="cls-18" d="M185.38,73.33c-.56.37-.55,1.52,0,2.57s1.5,1.61,2.07,1.24.55-1.51,0-2.57S186,73,185.38,73.33Z"/><path class="cls-5" d="M142.22,102.17c5.56,3.86,7.48,6.17,7.55,7.93s-5.24,5.65-5.75,6.17-3.42-.52-2.72-2a11.62,11.62,0,0,1,2.91-3.21s-4.22-1.79-3.24-5C141.71,103.62,142.22,102.17,142.22,102.17Z"/><path class="cls-5" d="M149,113.11c1.25.34,4.17,2.2,4.39,3s-1.57,2.35-2.7,2-3.46-2.14-3.63-2.91S148.36,113,149,113.11Z"/><path class="cls-5" d="M145.3,116c1.2.34,4.08,2.24,4.32,3.07s-1.38,2.42-2.46,2.1-3.4-2.18-3.6-3S144.73,115.79,145.3,116Z"/><path class="cls-5" d="M141.8,117.79c1.19.41,3.95,2.47,4.14,3.32s-1.51,2.33-2.57,2-3.27-2.37-3.43-3.18S141.25,117.6,141.8,117.79Z"/><path class="cls-5" d="M18.57,20.13a5,5,0,0,0-3.74-.61c-1,.28-5.58-.95-6.1-1.44a5.08,5.08,0,0,1-1.42-6C8.52,9,10.65,8.25,12.41,8.84s5.74-2.34,6.48-2.36c1.78-.05,1.69,2.77,4.11,5.36C29.41,18.69,25.13,23.68,18.57,20.13Z"/><path class="cls-5" d="M22.46,12.26c.05-1.16-3.27-7.09-4.48-7.89S14.74.75,14.17.13,11.5,1.2,11.84,1.88s3.25,3.69,3.5,4.63c.51,1.86-1.69,2.22-2.33,2.54C13.6,10.34,22.33,15.49,22.46,12.26Z"/><path class="cls-5" d="M16.05,9c-2.07-.44-4.87-.73-5.43-1.08C9.41,7.19,7.65,2.7,7,2.6s-2.78.23-2.4,1.3S7.05,9.65,8,10.21a30.28,30.28,0,0,0,5,1.95C13.34,12.18,16.75,9.16,16.05,9Z"/><path class="cls-5" d="M12.41,10.84c-2.25-.13-5.68.13-6.21-.38S2.94,6.21,2.54,5.94,0,7.16.43,8s3.1,4.9,4.11,5.41a22.77,22.77,0,0,0,5.14,1.21C10.07,14.59,13.19,10.88,12.41,10.84Z"/><path class="cls-5" d="M11.38,14.18c-2.29.44-5,1.1-5.62.77s-3.57-2.42-4-2.56S-.48,14,.14,14.73s4.45,3.33,5.56,3.55,3.69.21,5.3.65C11.4,19,12.18,14,11.38,14.18Z"/></g></g></g></svg>