<svg xmlns="http://www.w3.org/2000/svg" viewBox="0 0 258.07 234.79"><defs><style>.cls-1{isolation:isolate;}.cls-2{fill:#ff9566;}.cls-3{fill:#495d6d;}.cls-4{fill:#232d35;}.cls-5{fill:#84cbf7;}.cls-6{fill:#69a2cc;}.cls-7{fill:#ffb882;}.cls-8{fill:#2d5268;}.cls-9{fill:#557999;}.cls-10{fill:#436e8e;}.cls-11{fill:#3c4956;}.cls-12{fill:#9dc6c0;}.cls-13,.cls-17,.cls-20{mix-blend-mode:overlay;}.cls-14,.cls-20{fill:#c7f3ff;}.cls-15{fill:#63bae5;}.cls-16{fill:#a3e1ef;}.cls-17{fill:#e1f9ff;opacity:0.47;}.cls-18{fill:#5f7a7a;}.cls-19{fill:#81aaa2;}.cls-21{fill:#e87446;}.cls-22{fill:#bde0da;}</style></defs><title>POSEIDON</title><g class="cls-1"><g id="Layer_2" data-name="Layer 2"><g id="_1" data-name="1"><path class="cls-2" d="M204.21,113.59c6.82,2.8,14.44,4.17,15.68,7.69s-6.62,14.89-9.72,15.1-12.72-8.59-12.72-8.59Z"/><path class="cls-3" d="M103.1,17.63c3.45-2.5-.06-4-.06-4s2.28,1.63-.5,3.06c-1.92,1-5.68,3.45-1.59,7.71l5.37-.82C102.51,23.48,100,19.87,103.1,17.63Z"/><path class="cls-4" d="M82.06,32.33c-1.21-1-3.1,2.62-.68,3,3.75.65,3.06-4.45,10.51-6.41l-4.75,8.74s-4.76,7.47-8.31,2.3C75,34.38,80.64,30.26,82.06,32.33Z"/><path class="cls-4" d="M109.08,28.22c7.17-.24,7.9,4.84,11.07,3.16,2-1.09-.6-4-1.41-2.72.72-2.39,6.87-.05,4.91,6.43-1.8,6-8,.16-8,.16Z"/><path class="cls-3" d="M95.59,24.32c5.64-3.86,8.68,1.08,10.41-2.27,1.12-2.16-2.42-3.91-2.44-2.12-.57-2.86,5.49-3.51,7,4.23,1.43,7.12-6.37,4.2-6.37,4.2Z"/><path class="cls-3" d="M106.26,23c-5.14-2.85-8,.65-9.58-1.77-1-1.57.88-2.35,2.29-1.49-.66-3.15-9.36-1.67-7,6.19,1.51,5.08,6.25-.15,6.25-.15Z"/><path class="cls-4" d="M117.32,34.53c10.41,2.66,11.14,11.3,15,8.66s.51-5.33-1.31-4.23c2.22-2.31,9.54,2.78,3.91,7.32-6.43,5.19-11.64-1.41-11.64-1.41Z"/><path class="cls-5" d="M187.94,234.51H31.2s19.41-32.72,52.71-28.45S187.94,234.51,187.94,234.51Z"/><path class="cls-6" d="M187.94,234.51h-145s17.7-26,48.54-22.58S187.94,234.51,187.94,234.51Z"/><path class="cls-6" d="M128.59,234.51h92s-23.89-4.28-34.8-21C148.55,156.28,128.59,234.51,128.59,234.51Z"/><path class="cls-7" d="M210.76,119.73C182,85.54,143.67,55.61,131,48.88l5.87,49.74,64.33,31.15Z"/><polygon class="cls-2" points="134.39 81.55 135.06 99.9 201.16 129.77 207.17 125 134.39 81.55"/><path class="cls-4" d="M137.52,66.75c-6.62-14.06-18.71-36.86-28.63-41.88s3,35.91,3,35.91Z"/><path class="cls-4" d="M69.34,67.15c6.78-14.06,15.39-36.69,25.55-41.71S92.3,60.78,92.3,60.78Z"/><path class="cls-7" d="M58.31,110.75C57.91,86.88,65.19,63,79.76,52.89l4.86,53.21s-11.13,23.67-20.44,25.7S58.42,116.83,58.31,110.75Z"/><path class="cls-2" d="M79.76,52.89C76.7,55,73.69,73.69,73.69,81.22c0,19.55-5.34,35.4-11.94,35.4a5.33,5.33,0,0,1-3.64-1.68c-.55,7.4-1.56,18.51,6.07,16.86,9.31-2,20.44-25.7,20.44-25.7Z"/><path class="cls-7" d="M137.42,141.51a52.73,52.73,0,0,1-3-23.67s10.11-35.75,12.54-47.35c0,0-5.12-22.93-34-29.13s-42.62,24-42.62,24S66.54,84.52,83,113.12,137.42,141.51,137.42,141.51Z"/><path class="cls-2" d="M110.18,99.71c-18-2.43-34-30.57-26.44-50,3.46-8.91,5.92-15.14,9-19.2,1.06-5.86,7.74-6.58,11.69-6.58,2.46,0,8.64,2.23,7.86,6,5.13,7.17,9.63,19.41,9.81,29.12.27,14.67-18.48,26.19-12.68,32.77s11.19,0,8.76-5.62C123,92.31,120.29,101.09,110.18,99.71Z"/><path class="cls-2" d="M123.75,44.72c-.2.46-1,.17-1.63.48-2.9,1.39-2.45-6.22-9.7-11.7L116,44.91s2.26,6.27,7.2,3.23a3.62,3.62,0,0,0,2-2.62Z"/><path class="cls-2" d="M113.49,34.68C125.14,50,120.13,65.36,126.9,64.82s4.34-8.52,1.22-8.52c4.47-1.62,9.21,11.22-1.22,13.11C115,71.57,114,58.33,114,58.33Z"/><path class="cls-2" d="M134.27,117.84s9.7-25.09,10.64-39.12c-3.64,13.22-11,21.28-13.47,22.73-3.43,2-23-2.23-28.47-4.86S100.75,64,101,42.37c0,0,1.12-.77,2.9-1.82-16.58.68-20.31,51-24.63,57.86-9.68-15.07.4,6.88,3.75,14.71,1.53,3.57,4.17,6.33,6.61,8.94,1.44-10.4,7.62-21.85,17-20.41,11.12,1.7,22.09,18.91,23.07,32.62a28.67,28.67,0,0,1-.27,6.61,64.63,64.63,0,0,0,7.9.63A52.9,52.9,0,0,1,134.27,117.84Z"/><path class="cls-2" d="M71.8,87.49C69.88,72,75.94,56,75.94,56l4.73-4.27-3.61,52.4Z"/><path class="cls-8" d="M65.46,234.51c46.94-26.44,80.93,0,80.93,0H200s-38.24-3.24-54.16-46.13S65.46,234.51,65.46,234.51Z"/><path class="cls-7" d="M127.26,167.37C144,210,161.84,234.31,161.84,234.31h1L142.35,152Z"/><path class="cls-2" d="M159.62,221.34,142.35,152l-15.09,15.41a373.49,373.49,0,0,0,24.66,51.35A47.35,47.35,0,0,1,159.62,221.34Z"/><path class="cls-2" d="M103.47,160.57C98.36,206.64,87.4,233,87.4,233h-1L84.82,143.9Z"/><path class="cls-9" d="M135.06,136.05C120,121.48,75.71,78.85,82.19,47.83L79,51.07C66.27,84,90.78,163.45,73.08,216,63.57,244.19,37,220.82,37,220.82s8.7,14,29.94,14c14,0,18.72-22.67,70.85-26.18,35.17-2.36,20.77,26.17,66.36,26.17C163.93,234.24,150.17,150.61,135.06,136.05Z"/><path class="cls-10" d="M88.26,102.73c12,17.8,17.13,27.52,17.13,47.75s7.55,48.15,7.55,48.15S102.49,172.52,101.75,151C100.77,122.72,88.26,102.73,88.26,102.73Z"/><path class="cls-10" d="M135.06,136.05C120,121.48,75.71,78.85,82.19,47.83l-2.52,2.52-.52,14.08s-1,7.21-3.8,24.92c1.54,38.18,10.33,89.23-2.27,126.61C63.57,244.19,37,220.82,37,220.82s8.7,14,29.94,14c8.52,0,13.6-8.34,27.91-15.69-.63-1.18-1.24-2.43-1.84-3.74C77.91,182.2,79.09,88,81.65,86.81s46.67,40.55,61.74,73.71c8.49,18.69,12.5,37,11.91,50.55,14.18,6.64,13.56,23.71,48.82,23.71C163.93,234.24,150.17,150.61,135.06,136.05Z"/><path class="cls-7" d="M62.16,130.48c-12.83-1.66-27.55-22.87-28.8-41-.27-3.91,11.53-9.62,14-5.77,4.08,6.5,21.52,6.44,24.63,25.46S67.44,131.17,62.16,130.48Z"/><path class="cls-2" d="M72.78,109.74a40,40,0,0,0-1.62-6.07c-1.85,6.57-7,8.66-10.41,8.21-8.86-1.15-17.44-6.9-20.27-21.52-.18-1-5-2.07-7.12-.85,1.25,18.1,15.78,40.74,28.61,42.4C67.25,132.59,75.88,128.76,72.78,109.74Z"/><path class="cls-11" d="M113.89,32.65c11.65,15.28,6.64,30.68,13.41,30.14s4.34-8.51,1.22-8.51c4.47-1.62,9.22,11.22-1.22,13.11-11.89,2.16-12.87-11.08-12.87-11.08Z"/><path class="cls-11" d="M112.05,30c7.79,5.81,7.49,14,10.71,12.79s.92-4.74-.59-4.31c1.94-1.4,6,4.18,1.23,6.54-5.49,2.7-7.8-3.6-7.8-3.6Z"/><path class="cls-11" d="M88.62,33.53C80.52,41.1,82,50.29,78.15,49.36s-1.73-5.22.07-4.94c-2.43-1.33-6.33,5.5-.49,7.54,6.66,2.33,8.42-5.08,8.42-5.08Z"/><path class="cls-3" d="M109,96.52C91,94.13,75.44,66.24,83,47.09c3.45-8.77,5.51-14.69,8.54-18.68,1.07-5.77,7.74-6.48,11.69-6.48,2.46,0,8.65,2.2,7.86,5.89,5.13,7,9.63,19.09,9.81,28.64.27,14.44-18.48,25.77-12.68,32.24s11.2,0,8.77-5.53C121.84,89.24,119.15,97.87,109,96.52Z"/><path class="cls-11" d="M97.15,37.66c1.77,1.2,4,1.26,6.86-.07l-1.63-3.44H98.74Z"/><path class="cls-11" d="M93.32,34.14s4,.28,7.58.29a36.12,36.12,0,0,0,7.49-.79s-1.19,4.25-7.72,2.16C93.66,38.39,93.32,34.14,93.32,34.14Z"/><path class="cls-11" d="M113.82,32.15a40.84,40.84,0,0,0-2.73-4.33c-11,2.51-19.39-.26-19.55.59a29.84,29.84,0,0,0-2.37,3.74Z"/><path class="cls-11" d="M108.22,88.7c-5.8-6.47,13.69-17.53,13.42-32-.1-5.52-2-13.28-4.68-17.89a48.55,48.55,0,0,1,.7,8.32c0,16.09-7.52,29.13-16.79,29.13s-16.79-13-16.79-29.13c0-1.36,0-2.7.16-4-.53,1.31-1.07,2.69-1.65,4.14C75,66.45,91,94.13,109,96.52c10.12,1.35,12.81-7.28,8-13.35C119.42,88.7,114,95.18,108.22,88.7Z"/><path class="cls-7" d="M93.29,33.9s4.07-.1,7.63,0a38,38,0,0,0,7.5-.31s-1.29,3.59-7.84,1.37C93.56,37.45,93.29,33.9,93.29,33.9Z"/><path class="cls-2" d="M100.59,34.43a12,12,0,0,0,7.11.1,2.79,2.79,0,0,0,.72-1,38,38,0,0,1-7.5.31c-3.56-.05-7.63,0-7.63,0a2,2,0,0,0,.37.88C94.66,35.17,98.1,35,100.59,34.43Z"/><path class="cls-2" d="M98.42,37.24c1.12,1,2.54,1,4.32-.06l-1-2.8H99.42Z"/><path class="cls-7" d="M99.05,37c.76.74,1.74.78,3,0l-.71-2.14a1.48,1.48,0,0,0-1.58,0Z"/><path class="cls-11" d="M82.94,47.36c-6.88,18,2.47,31.26-4.26,32.74S72,73.26,75,72.34c-4.82-.23-5.69,13.43,5,12.15C92.2,83,89.29,70.1,89.29,70.1Z"/><path class="cls-11" d="M115.2,66.9c-3.15-10.36,2.67-17.28-1.08-18.43s-4.06,3.49-2.38,4.15c-2.73-.1-2.67-7.75,3.31-6.53,6.83,1.39,4.66,8.45,4.66,8.45Z"/><path class="cls-11" d="M86.77,61.72c-3.62-10.95-1.87-17.4,1.83-18S92,47.81,90.35,48.2c2.6.31,3.5-7.23-2.33-6.94-6.66.34-5.49,7.63-5.49,7.63C82.73,52.23,84.7,56.94,86.77,61.72Z"/><path class="cls-7" d="M171.88,234.44H160.15s-.81-3.91.94-4.45S171.88,234.44,171.88,234.44Z"/><path class="cls-7" d="M77.11,234.44H88.78s.8-3.91-.94-4.45S77.11,234.44,77.11,234.44Z"/><path class="cls-12" d="M112.05,18.32s.07,8.5-1.82,9.05a14.22,14.22,0,0,1-1.94.25,46.4,46.4,0,0,0-1.64-10.48,97.23,97.23,0,0,1-1.05,10.64l-2.39.07c-.62-2.37-1.41-5.31-1.41-5.31a40.89,40.89,0,0,0-.88,5.34c-1.15,0-2.28,0-3.33-.05-1.25-5.32-1.87-10.5-1.87-10.5a44.44,44.44,0,0,0-.44,10.38,7.37,7.37,0,0,1-2.71-.5c-1.38-1-1.28-10.48-1.28-10.48a27.2,27.2,0,0,0-1.24,13.69l23.46.71C113.61,26.58,113.64,22.36,112.05,18.32Z"/><path class="cls-10" d="M90.89,98.41c27.4,27.67,39.86,52.2,39.86,52.2A338.09,338.09,0,0,1,90.89,98.41Z"/><path class="cls-10" d="M141.75,208.48c-21.59-33.1-31.84-52.4-31.84-52.4s6.92,31.14,19.8,53.27q3.82-.45,8-.74C139.17,208.52,140.49,208.48,141.75,208.48Z"/><g class="cls-13"><path class="cls-14" d="M187.31,229.15c-26.27-6-20-26.61-50.16-24.58-52.13,3.5-56.8,26.18-70.85,26.18a43.74,43.74,0,0,1-8.68-.85C47.46,230,37,220.82,37,220.82s8.7,14,29.94,14c14,0,18.18-22.67,70.31-26.18,35.17-2.36,21.31,26.17,66.9,26.17A29.83,29.83,0,0,1,187.31,229.15Z"/></g><path class="cls-5" d="M68.27,234.79H28.67c-17.55,0-26.77-4.71-28.47-19.12-2-16.7,11.49-25.16,11.49-25.16s9.16-13.07,22.81-9,15.21,14.82,15.21,14.82,2.3-2.53,5.63.2C62.24,202.21,49.88,227.77,68.27,234.79Z"/><path class="cls-15" d="M58.18,222.58c-7,7.19-19.93,11.24-34.24,9.74A51.48,51.48,0,0,1,3.66,226c4.36,6.47,12.6,8.83,25,8.83h39.6C62,232.38,59.27,227.8,58.18,222.58Z"/><path class="cls-15" d="M55.34,196.56a5.18,5.18,0,0,0-2.46-1.21c-5.49,1.91-7.6,13.37-4.68,26.15,1.17,5.11,4.35,13.29,10.92,13.29h9.15C49.88,227.77,62.24,202.21,55.34,196.56Z"/><path class="cls-14" d="M28.54,217.68c.82,3.32,1.45,6.87,3.67,9.47a3.68,3.68,0,0,0,3.18,1.57c1.22-.19,2.07-1.91,1.14-2.73a3.06,3.06,0,0,0,1.62-3.76c1,1.37,2.33,2.89,4,2.68a38.14,38.14,0,0,1-1.73-13c.16-3.63,1.3-7.84,4.69-9.15a1.36,1.36,0,0,1,1.24,0,1.5,1.5,0,0,1,.52.94c1.86,7.21.43,15.36,4.25,21.76a4.36,4.36,0,0,0,2,1.94,1.83,1.83,0,0,0,2.38-.82,2.46,2.46,0,0,0,0-1.32,11.66,11.66,0,0,0-1.58-4.1c1.3,1.21,1.66,3.11,2.43,4.71a9.49,9.49,0,0,0,5.75,4.85c-9-9.91-.83-29.31-6.74-34.15-3.33-2.73-5.63-.2-5.63-.2s-1.56-10.73-15.21-14.82-22.81,9-22.81,9S-1.78,199,.2,215.67A25,25,0,0,0,2.49,224c.59.59,1.17,1.19,1.78,1.76a2,2,0,0,0,1.64.78c.74-.14,1.07-1,1.26-1.72a28.68,28.68,0,0,0,1.14-5.85,2.92,2.92,0,0,0,.92,2c.82.66,2.45,0,2.17-1a9.84,9.84,0,0,0,2.24,3.7,37.39,37.39,0,0,0,.16-5.6,41.89,41.89,0,0,0,9,9.49c1.13.86,2.48,1.71,3.88,1.44a30.49,30.49,0,0,1-4.45-15.89,5.37,5.37,0,0,1,1.22-4C26.41,210.83,27.72,214.36,28.54,217.68ZM6,210.65c-.36-1.54.12-3.47,1.6-4l.51,9.5A9.65,9.65,0,0,0,7.82,215C7.3,213.52,6.37,212.18,6,210.65Z"/><path class="cls-14" d="M28.54,217.68c.82,3.32,1.45,6.87,3.67,9.47a3.68,3.68,0,0,0,3.18,1.57c1.22-.19,2.07-1.91,1.14-2.73a3.06,3.06,0,0,0,1.62-3.76c1,1.37,2.33,2.89,4,2.68a38.14,38.14,0,0,1-1.73-13c.16-3.63,1.3-7.84,4.69-9.15a1.36,1.36,0,0,1,1.24,0,1.5,1.5,0,0,1,.52.94c1.86,7.21.43,15.36,4.25,21.76a4.36,4.36,0,0,0,2,1.94,1.83,1.83,0,0,0,2.38-.82,2.46,2.46,0,0,0,0-1.32,11.66,11.66,0,0,0-1.58-4.1c1.3,1.21,1.66,3.11,2.43,4.71a9.49,9.49,0,0,0,5.75,4.85c-9-9.91-.83-29.31-6.74-34.15-3.33-2.73-5.63-.2-5.63-.2s-1.56-10.73-15.21-14.82-22.81,9-22.81,9S-1.78,199,.2,215.67A25,25,0,0,0,2.49,224c.59.59,1.17,1.19,1.78,1.76a2,2,0,0,0,1.64.78c.74-.14,1.07-1,1.26-1.72a28.68,28.68,0,0,0,1.14-5.85,2.92,2.92,0,0,0,.92,2c.82.66,2.45,0,2.17-1a9.84,9.84,0,0,0,2.24,3.7,37.39,37.39,0,0,0,.16-5.6,41.89,41.89,0,0,0,9,9.49c1.13.86,2.48,1.71,3.88,1.44a30.49,30.49,0,0,1-4.45-15.89,5.37,5.37,0,0,1,1.22-4C26.41,210.83,27.72,214.36,28.54,217.68ZM6,210.65c-.36-1.54.12-3.47,1.6-4l.51,9.5A9.65,9.65,0,0,0,7.82,215C7.3,213.52,6.37,212.18,6,210.65Z"/><path class="cls-16" d="M55.34,196.56a5.51,5.51,0,0,0-2.16-1.15,8.36,8.36,0,0,0-.83.32c-2.89,1.4-4.6,4.85-5.13,9.52,1.33,6.81.36,14.26,3.9,20.2a4.36,4.36,0,0,0,2,1.94,1.83,1.83,0,0,0,2.38-.82,2.46,2.46,0,0,0,0-1.32,11.66,11.66,0,0,0-1.58-4.1c1.3,1.21,1.66,3.11,2.43,4.71a9.49,9.49,0,0,0,5.75,4.85C53.05,220.8,61.25,201.4,55.34,196.56Z"/><path class="cls-17" d="M45.53,188.28A19.26,19.26,0,0,0,44,186.76a46.59,46.59,0,0,1-4,3.35,1.11,1.11,0,0,1-.73.29c-.34-.05-.56-.39-.82-.61-1-.87-2.55.14-3.51,1.1l-5,5.05a4.78,4.78,0,0,1-2.84,1.73c-1.62.11-2.84-1.39-3.73-2.75-2-3-18.43,5.36-5.53-9.28.2-.23-.28-.53-.4-.81a27.3,27.3,0,0,0-5.81,5.68A27.59,27.59,0,0,0,.39,207.89c2.72-2.06,4.29-5.68,7.17-7.66a1.6,1.6,0,0,1,.91-.36c.81,0,1.15,1,1.7,1.6a3.29,3.29,0,0,0,3,.68c1-.18,5.88-5.41,6.93-5.41,2.44,0,1,6.89,3.26,6.07a5.56,5.56,0,0,1,2.06-.71,2.3,2.3,0,0,1,1.82,1.76,23,23,0,0,0,.7,2.59A1.93,1.93,0,0,0,30,207.68a2.62,2.62,0,0,0,1.24-1.22C35.41,199.93,39.74,193.35,45.53,188.28Z"/><path class="cls-5" d="M197.54,234.79h21.05c14.73,0,24.84-18.31,21.23-28.64-5.68-16.27-32.45-25.66-39.4-16.4-6.5,8.65,8.11,16.85,8.11,16.85s-5.83.72-5.8,5.48c0,7.75,10.26,11.61,8,15.58C207.37,233.53,197.54,234.79,197.54,234.79Z"/><path class="cls-15" d="M220.64,215.37c-.47-12.41-9.63-23.26-20.46-24.23l-.6,0c-4.15,8.13,8.95,15.5,8.95,15.5s-5.83.72-5.8,5.48c0,7.75,10.26,11.61,8,15.58-3.35,5.87-13.18,7.13-13.18,7.13h12.34C216.54,231.87,221,224.47,220.64,215.37Z"/><path class="cls-14" d="M232.8,208.34c.22-.52,1-.26,1.38.2s.59,1.08,1.15,1.17c.91.15,1.24-1.16,1.17-2.08a38.53,38.53,0,0,0,2.48,3.48,22.19,22.19,0,0,0-1.23-9.27c-8.37-13.53-31-20.5-37.33-12.09-6.5,8.65,8.11,16.85,8.11,16.85s-5.83.72-5.8,5.48c0,.2,0,.39,0,.59q1.45,1.91,3,3.74a11.6,11.6,0,0,0,2.78,2.55,4.35,4.35,0,0,0,3.62.53,2.85,2.85,0,0,0,1.9-2.4,1,1,0,0,0,.9.72,1,1,0,0,0,1-1.2c.83.52,2,1,2.65.22a1.9,1.9,0,0,0,.31-.81,19.15,19.15,0,0,0,0-7.43,8.4,8.4,0,0,1-.31-2.77c.27-2,2.82-3.39,4.48-2.27a4.76,4.76,0,0,1,1.36,1.68c1.47,2.64,2.5,5.67,4.82,7.61.79.66,2,1.16,2.79.5a2.19,2.19,0,0,0,.6-1A6.85,6.85,0,0,0,232.8,208.34Z"/><path class="cls-16" d="M218.91,208.59a8.59,8.59,0,0,1-.31-2.71c-4.75-9.25-12.17-15.31-18.55-15.58-5.49,8.44,8.48,16.3,8.48,16.3s-5.83.72-5.8,5.48c0,.2,0,.39,0,.59q1.45,1.91,3,3.74a11.6,11.6,0,0,0,2.78,2.55,4.35,4.35,0,0,0,3.62.53,2.85,2.85,0,0,0,1.9-2.4,1,1,0,0,0,.9.72,1,1,0,0,0,1-1.2c.83.52,2,1,2.65.22a1.9,1.9,0,0,0,.31-.81A19.15,19.15,0,0,0,218.91,208.59Z"/><polygon class="cls-18" points="238.25 28.35 237.21 28.11 178.08 233.78 180.97 234.44 238.25 28.35"/><path class="cls-19" d="M258.07,20.39,252.69,42.5c-2.82,7.69-8.72,13.41-14.42,14.93-3.27.88-6.83-2.61-5.79-6.15L238,30.14l1.55,3.08L245.86,0,233.47,31.82l3-2-6.3,20.73c-1,3.57-5.89,5-8.38,2.9-3.63-3.05-6.73-9.31-4.77-19.09l7-21.74L212.67,33.88l3.45-2c-2.73,13.15.2,24.06,6.86,25.58l12.16,2.79c6.66,1.52,15-6.8,19.61-19.52l2,3.21Z"/><path class="cls-20" d="M104.5,141.87c4.41-13.36,22.94-4,38.25,6.77-1.06-2.3-2.1-4.39-3.14-6.24-13.77-9.91-31.32-19.42-35.37-7.16,0,0-15.42-1.76-25.16,8.37.09,1.59.16,3.19.23,4.79C90.22,140.25,104.5,141.87,104.5,141.87Z"/><path class="cls-11" d="M103.53,62.8c4-7.18-2.63-10.32-2.63-10.32s4.82,3.78,1.12,8.3c-2.83,3.44-8.64,12.46,1.92,18.21l6.78-5.67C105.76,75.85,99.59,70,103.53,62.8Z"/><path class="cls-11" d="M94.93,76.36c-8.36-9.17-4.11-14.3-3.23-15s4,.13,4,.13-6.47-5.77-9.1,2.63C85.29,68.4,94.93,76.36,94.93,76.36Z"/><path class="cls-4" d="M105.83,34.63a1.41,1.41,0,0,0-1.21-.56,1.49,1.49,0,0,0-1.24.56c0,.13.59.08,1.27.08S105.83,34.76,105.83,34.63Z"/><path class="cls-4" d="M97.41,34.63a1.41,1.41,0,0,0-1.21-.56,1.49,1.49,0,0,0-1.24.56c0,.13.59.08,1.26.08S97.41,34.76,97.41,34.63Z"/><path class="cls-21" d="M131.82,98.62c0-.86-1.63-1.56-3.64-1.56s-3.64.7-3.64,1.56,1.63,1.55,3.64,1.55S131.82,99.47,131.82,98.62Z"/><path class="cls-17" d="M211.3,186.16a6.86,6.86,0,0,1,0,1.11c-.26,3-2.67,5.35-4.91,7.41-1.24,1.15-2.59,2.67-2.16,4.31a9,9,0,0,0,1.5,2.37c.5.79.71,2,0,2.57a1.65,1.65,0,0,1-.63.29,29.67,29.67,0,0,0,3.46,2.38s-5.83.72-5.8,5.48c0,.2,0,.39,0,.59l.32.4a3.7,3.7,0,0,1,5.69-2.11,25.52,25.52,0,0,1,2.78,2,2.86,2.86,0,0,0,1.32.64c1.27.14,2.18-1.26,2.4-2.52s.13-2.64.83-3.71a7.47,7.47,0,0,0,.79-1.14,3.25,3.25,0,0,0,0-1.83c-.25-1.27-.54-2.55-.87-3.81-.61-2.4-1.31-5.09,0-7.22s4.54-2.85,7.08-2.08,4.61,2.57,6.68,4.21a80.58,80.58,0,0,0,7.14,5C231,192.31,220,186.8,211.3,186.16Z"/><path class="cls-22" d="M91.57,30.47l11.08.33c.55-1,1.08-2,1.58-3l-1,0c-.62-2.37-1.41-5.31-1.41-5.31a40.89,40.89,0,0,0-.88,5.34c-1.15,0-2.28,0-3.33-.05-.52-2.21-.93-4.39-1.23-6.19-.41.66-.81,1.34-1.22,2a32.16,32.16,0,0,0,.14,4,13.56,13.56,0,0,1-2.2-.3C92.55,28.44,92,29.46,91.57,30.47Z"/><path class="cls-22" d="M106.13,23.79q.74-1.68,1.32-3.24c-.4-2-.8-3.41-.8-3.41S106.55,20.06,106.13,23.79Z"/><path class="cls-2" d="M44.55,71.58c-2.07-1.66-6.2-1.8-10.2-1.24S26.9,82.47,28.28,85.78,33.87,95,33.87,95s5,.73,7.79-.09,6.2-9,7-11.1S46.62,73.23,44.55,71.58Z"/><path class="cls-7" d="M44.55,71.58c-2.07-1.66-6.41-2.38-10.41-1.83-3.67.51-6.66,10.88-6.1,15,2.11.37,10.13,2,11.2-.13,3.62-7.23,4.86-9.82,6.35-11.8A5.08,5.08,0,0,0,44.55,71.58Z"/><path class="cls-7" d="M42.81,82.12c.41-1.51,2.69-8.54,3.86-8.2s3.47,3.9,1.88,7.55S42.81,82.12,42.81,82.12Z"/><path class="cls-2" d="M34.13,79.92A9.8,9.8,0,0,1,40.74,83l1.19-2.79A12.29,12.29,0,0,0,34.13,79.92Z"/><path class="cls-2" d="M36.56,75.11a9.8,9.8,0,0,1,6.61,3.1l1.19-2.79A12.36,12.36,0,0,0,36.56,75.11Z"/><path class="cls-7" d="M201.75,112.25c7.88,3.41,9.53,3.47,10.55,5.51s-3.2,9.49-3.53,10.37c-.42,1.12-4.33,1.21-4.31-.95s1.75-5.35,1.75-5.35-6,.13-6.51-4.2A6.54,6.54,0,0,1,201.75,112.25Z"/><path class="cls-7" d="M212.93,121.77c1.66-.26,6.12.39,6.81,1.23s-.62,3.62-2.11,3.84-5.25-.69-5.87-1.52S212.15,121.89,212.93,121.77Z"/><path class="cls-7" d="M210.12,127.08c1.61-.23,6,.49,6.76,1.34s-.35,3.59-1.8,3.79-5.19-.77-5.86-1.61S209.36,127.19,210.12,127.08Z"/><path class="cls-7" d="M207,131.12c1.62-.14,6,.83,6.67,1.72s-.55,3.57-2,3.69-5.14-1.07-5.76-1.94S206.19,131.19,207,131.12Z"/></g></g></g></svg>