<svg xmlns="http://www.w3.org/2000/svg" viewBox="0 0 262.93 256.74"><defs><style>.cls-1{fill:#ff9566;}.cls-2{fill:#ffb882;}.cls-3{fill:#eacfa9;}.cls-4{fill:#fcf0d9;}.cls-5{fill:#f4e1c1;}.cls-6{fill:#f4d5b0;}.cls-7{fill:#db5b3e;}.cls-8{fill:#fce7ca;}.cls-9{fill:#ffdd71;}.cls-10{fill:#ef8054;}.cls-11{fill:#fff297;}.cls-12{fill:#f7b42f;}.cls-13{fill:#ffcb48;}.cls-14{fill:#603642;}</style></defs><title>ZEUS</title><g id="Layer_2" data-name="Layer 2"><g id="_1" data-name="1"><path class="cls-1" d="M52.73,124.62c.59-.48-6.51-3.75-11.68-3.37-1,.08-4.45-.23-4.35,1.28A4.25,4.25,0,0,0,38.46,126C40.22,127.65,48.87,127.69,52.73,124.62Z"/><path class="cls-1" d="M40.27,121.17c.72-.61,0-7-1-7.84s-5.25-.7-6,1.11a4,4,0,0,0,.34,4.21C34.64,119.93,39.82,121.55,40.27,121.17Z"/><path class="cls-1" d="M37.84,114.45c.72-.61,0-7-1-7.84S31,104,30.25,105.79a8.41,8.41,0,0,0,.95,6.14C32.21,113.2,37.39,114.83,37.84,114.45Z"/><path class="cls-1" d="M214,133.48c5.26,8.36,9.31,10.41,10.12,21.13-4,.59-17.24,9.58-20.78,7.39s-7.15-19.26-7.15-19.26Z"/><ellipse class="cls-1" cx="208.43" cy="161.33" rx="4.17" ry="2.62" transform="translate(-25.79 40.45) rotate(-10.44)"/><ellipse class="cls-1" cx="215.25" cy="158.51" rx="4.17" ry="2.62" transform="translate(-25.17 41.64) rotate(-10.44)"/><path class="cls-1" d="M225.14,154.44c-.26-1.42-3-11-5.24-10.55s-3.22,10.64-3,12.06,2.31,2.24,4.58,1.82S225.41,155.86,225.14,154.44Z"/><path class="cls-2" d="M211.89,130.64c6.7,3.67,8.81,9.74,8.33,12.75s-10.89,7.85-11.93,8.54c-1.33.89-5.66-2.06-3.95-4.4s6.07-4.45,6.07-4.45-6.59-4.52-3.81-9.65C208.69,129.57,211.89,130.64,211.89,130.64Z"/><path class="cls-2" d="M217.77,148.25c2,1,6.36,5.19,6.45,6.65s-3.49,3.45-5.29,2.53-5.17-4.84-5.2-6.23S216.82,147.77,217.77,148.25Z"/><path class="cls-2" d="M211.4,151.56c1.94,1,6.18,5.23,6.31,6.73s-3.18,3.64-4.91,2.72-5-4.88-5.12-6.32S210.49,151.08,211.4,151.56Z"/><path class="cls-2" d="M204,153.77c1.87,1.11,5.87,5.57,5.92,7.08s-3.38,3.46-5.06,2.44-4.76-5.16-4.75-6.6S203.1,153.25,204,153.77Z"/><path class="cls-3" d="M187.52,200.31a2.58,2.58,0,1,0-2,2.85A2.49,2.49,0,0,0,187.52,200.31Z"/><path class="cls-3" d="M161.08,227a2.58,2.58,0,1,0-2,2.85A2.49,2.49,0,0,0,161.08,227Z"/><ellipse class="cls-3" cx="161.45" cy="243.69" rx="10.59" ry="9.76" transform="translate(-46.7 38.45) rotate(-11.88)"/><ellipse class="cls-4" cx="16.34" cy="201.45" rx="6.9" ry="5.64" transform="translate(-87.49 28.05) rotate(-26.28)"/><ellipse class="cls-3" cx="185.34" cy="230.78" rx="10.59" ry="9.76" transform="translate(-43.53 43.09) rotate(-11.88)"/><ellipse class="cls-3" cx="137.47" cy="240.57" rx="19.5" ry="14.71"/><path class="cls-3" d="M79,235.62c60.13,14,100.87-15.86,98.23-56.72C152.22,158.06,79,235.62,79,235.62Z"/><path class="cls-2" d="M156.55,37.84l-5.69,46.38c21.32,26.54,50.53,59.86,50.53,59.86L215.7,139S182.9,64.5,156.55,37.84Z"/><path class="cls-1" d="M164.77,60.62c-2.32-5.82-14.3,24.48-14.3,24.48,21.31,26.59,48.27,61.13,48.27,61.13l9-3C188.39,114.44,170.34,74.59,164.77,60.62Z"/><path class="cls-5" d="M23.49,256.74H247.91s12,.29,13.65-7.23-1.91-10.13-1.91-10.13,8.14-9.54-1.2-22.27-21.8,6.07-21.8,6.07,1.92-20.54-15.81-16.78-16.76,25.17-16.76,25.17-3.83-9-11.26-6.36-6.94,13-6.94,13-4.32-9.83-12.22-5.78-29,20.83-46.23,3.47S90.59,223.09,85.8,233.5c0,0,8.68-46.69-35.59-44.85-21.72.91-23.43,23.4-23.43,23.4C10,199.32-22.26,256.74,23.49,256.74Z"/><path class="cls-3" d="M205.57,239.08c.26-.41.51-.85.76-1.31C206.33,237.77,206,238.26,205.57,239.08Z"/><path class="cls-3" d="M205.57,239.08c-5.49,8.8-13.57,6.22-20.32.52l-2.81,1.46c11,.61,21.57,13.65,21.57,13.65C199.94,250.54,203.82,242.28,205.57,239.08Z"/><path class="cls-3" d="M187.9,256.74c-20-3.74-12.4-21.29-7.29-24.46a7.18,7.18,0,0,0-7,.16c-7.9,4.05-29,20.83-46.23,3.47S90.59,223.09,85.8,233.5c0,0,2.5-13.48-2-25.67C70.52,220,57.85,255,28.52,256.74Z"/><path class="cls-4" d="M221.46,229.45c5.82,0,10.88-3.89,13.53-9.64-.27-5-2.28-14.59-14.09-12.09-7.53,1.6-11.27,6.78-13.12,11.76C210.38,225.41,215.53,229.45,221.46,229.45Z"/><path class="cls-2" d="M119,172.89c-14.3,45.74-48.47,83.85-48.47,83.85H69.26l11.5-88.48Z"/><path class="cls-1" d="M78.72,241.79c1.55-.49,3.09-.91,4.61-1.27,11.22-15.36,27-40.11,35.62-67.63l-38.19-4.63-10,76.55A67,67,0,0,1,78.72,241.79Z"/><path class="cls-2" d="M136.5,176.55c20,45.42,55.33,80.19,55.33,80.19h1.22l-24.38-87.83Z"/><path class="cls-1" d="M177,198.92l-8.33-30-32.17,7.64c9.51,21.63,22.51,40.83,33.51,55C170.59,218.5,173.18,206.94,177,198.92Z"/><path class="cls-6" d="M139,19.25c3-.49,2.31-4.43.67-4.84,0,0,1-3.7-2.73-3.57,0,0,.8-3.38-2.91-2.38S134,20,139,19.25Z"/><path class="cls-6" d="M146.31,31.06c4.19-.71,3.23-5.71,1-6.19,0,0,1.41-4.74-3.72-4.47,0,0,1.14-4.34-4-2.94S139.47,32.22,146.31,31.06Z"/><path class="cls-6" d="M101.3,30.49c-4.19-.71-3.23-5.71-1-6.19,0,0-1.4-4.74,3.72-4.46,0,0-1.13-4.34,4-2.95S108.14,31.65,101.3,30.49Z"/><path class="cls-6" d="M109.71,18.6c-3,.14-3.09-3.7-1.6-4.41,0,0-1.69-3.28,1.89-3.89,0,0-1.44-3,2.31-2.81S114.62,18.36,109.71,18.6Z"/><path class="cls-1" d="M134.64,15.43c2.3-.4,2.62-3,1.76-3.76s-2.31-1.1-2.76-.13S133.88,15.57,134.64,15.43Z"/><path class="cls-7" d="M134.26,14.44c1.51-.25,1.75-1.66,1.2-2.09s-1.5-.58-1.8,0S133.76,14.52,134.26,14.44Z"/><path class="cls-1" d="M112.19,16.52c-2.11-.45-2.66-3-2-3.83s2-1.06,2.47-.07S112.88,16.67,112.19,16.52Z"/><path class="cls-7" d="M112.4,15.63a1.65,1.65,0,0,1-1.16-2.27c.4-.47,1.16-.63,1.46,0S112.81,15.71,112.4,15.63Z"/><path class="cls-2" d="M65.69,92.37C67,71.49,80.6,39.73,95.06,33.88s8.06,77.68-18.52,88.8C58.66,130.16,65.11,101.75,65.69,92.37Z"/><path class="cls-1" d="M93.73,36.89c-23,27.43-4,65-18.72,73-2.19,1.19-12-6.22-13.68-6.39,0,11.51,2.94,24.32,15.21,19.19C103.12,111.56,94.31,36.57,93.73,36.89Z"/><path class="cls-2" d="M96.52,130.16c.33-7.48-1.08-24.48-2.8-31.2C74.87,65.64,86.94,43.48,89,40.82,97.25,30,113.83,24.37,124.8,23.4s31.63,8.33,38.87,23.39c4.45,9.26,6.05,34.5-3.53,51.11-4,8.53-4.47,20.39-2.52,32.58Z"/><path class="cls-1" d="M123.17,118.41c0-3.67,1.63-16.73,1.63-16.73l1.92,19.43Z"/><path class="cls-1" d="M125,110.38c2.51.45,12.43,1.08,12.43,1.08l-12.33-3.33Z"/><path class="cls-1" d="M125,116c2.51.45,12.43,1.08,12.43,1.08l-12.33-3.32Z"/><path class="cls-1" d="M124.55,110.38c-2.38.45-11.76,1.08-11.76,1.08l11.67-3.33Z"/><path class="cls-1" d="M124.55,116c-2.38.45-11.76,1.08-11.76,1.08l11.67-3.32Z"/><path class="cls-1" d="M91.63,35.71a15.5,15.5,0,0,0-1,2c-2.07,4,2.11,7.92,2.11,7.92-3.11,5.48,3.59,8.87,3.59,8.87-2.44,5.34,4.49,7.87,4.49,7.87-.31,4.68,6.57,5.06,6.57,5.06.25,5,8.73,4.63,8.73,4.63s.66,4.77,7.25,4.56c3.86-.12,4.91-5.11,4.91-5.11,5.89,2.21,7.48-3.27,7.48-3.27,5.57.53,8-1.62,8.13-5.76,6.09-.88,8.28-3.83,7.64-8.3,4.19-1.26,6.31-7.15,3.91-10.34a5,5,0,0,0-.64-8.53c-7.14-5.21-18.73-8-31-7.88C110.83,27.53,99.42,30.31,91.63,35.71Z"/><path class="cls-1" d="M93.16,99.3c1.7,6.71,4.34,23.38,4,30.86l60.44.32q-.57-3.6-.84-7.13C146,122.1,90.19,137.9,106.88,28.28c0-.17,0-.34.05-.5-.73.28-1.47.56-2.2.86l-1.16.53C97.18,53.78,90.7,71.62,89.4,94.8,89.64,95.23,92.91,98.86,93.16,99.3Z"/><path class="cls-1" d="M165.66,86.11C158,99.93,138.72,97.17,126.58,97.17c-18.36,0-33.31,1.14-42.78-16.1a123.18,123.18,0,0,0,8.09,18.5c1.72,6.71,5,23.11,4.63,30.59l5.74,0a31.57,31.57,0,0,1-.21-3.53c0-15,11.16-27.22,24.94-27.22s24.94,12.19,24.94,27.22a29.55,29.55,0,0,1-.24,3.79l5.93,0c-2-12.19-1.09-23.6,2.88-32.13C162.66,94.6,164.15,90.15,165.66,86.11Z"/><path class="cls-1" d="M125.12,80.59S123.82,94.16,122.2,98a8.27,8.27,0,0,1,5.84-.32C125.36,90.83,125.12,80.59,125.12,80.59Z"/><path class="cls-4" d="M157,126.25c-5-4.19-69.85,21-51.92-95.58.48-3.14-1.43-4.2-2.17.36C89.37,114.39,80.7,136.42,69.47,235.45c50.45-30.06,79.32-15.18,107.73-56.55C177.2,178.9,161.59,130.13,157,126.25Z"/><path class="cls-5" d="M103.35,86.81c-2.19-13.55-2.08-31.73,1.68-56.14.48-3.14-2.28-4-3,.53C97.16,61.13,93.79,83,89.85,103.51c6.67-19.06,6.7-37,9.19-39.41C101,62.25,99.57,75.56,103.35,86.81Z"/><path class="cls-5" d="M157.61,127c3.06,34.54,2.59,60.28-3.89,75.08,8.13-5,15.82-12,23.48-23.17C177.2,178.9,162.9,134.23,157.61,127Z"/><path class="cls-4" d="M122.86,72.41c-6.16.06-6.58-2.92-6.58-2.92s-7.92.21-8.18-4.88c0,0-6.44-.54-6.19-5.26,0,0-6.49-2.72-4.24-8.07,0,0-5.63-3.45-2.76-8.93,0,0-3-4.69-1.12-8.71a8.59,8.59,0,0,1,5.29-4.78s.9-3.76,3-5.23a13.2,13.2,0,0,1,5.11-1.87s.52-4.17,5.6-7.21c0,0-2-1.39-1-2.85A6.62,6.62,0,0,1,114,9.58S111.3,9,114,6.91a1.66,1.66,0,0,1-.11-2.46A3.09,3.09,0,0,1,117,3.81a1.48,1.48,0,0,1,.86-2.1,2.81,2.81,0,0,1,2.57.21S121,0,122.59,0A2.82,2.82,0,0,1,125,1.59S126.07,0,127.4,1s1,1.77,1,1.77,1.93-1.44,2.84-.32A4,4,0,0,1,132,5.07s1.83-.42,2.21,1.15a2,2,0,0,1-1,2.27,1.51,1.51,0,0,1,1.72,1.35,3.11,3.11,0,0,1-1.36,2.68,5.28,5.28,0,0,1,3.85,2.74,9.44,9.44,0,0,1,1.09,4.51c3.48-.11,7.09,2.55,9.2,6.65,1.9-.5,4.66,2.71,4.55,7.17,4.11,2.79,2.46,6.92.56,8.23,2.27,3.29.33,9.2-3.58,10.37.63,4.54-1.4,7.48-7.08,8.23-.09,4.19-2.35,6.31-7.56,5.65,0,0-1.45,5.51-7,3.14A5.21,5.21,0,0,1,122.86,72.41Z"/><path class="cls-8" d="M134.78,50c-.14.17-.31.33-.47.5a17,17,0,0,1,1.91-.11C135.73,50.24,135.24,50.11,134.78,50Z"/><path class="cls-8" d="M152.27,33.59c.11-4.46-2.65-7.67-4.55-7.17-2.11-4.1-5.72-6.76-9.2-6.65a9.44,9.44,0,0,0-1.09-4.51,4.58,4.58,0,0,0-.42-.68,6,6,0,0,1,.42,2.17,6.5,6.5,0,0,1-1.32,3.83q.38,0,.75,0c5,0,9.14,2.58,9.14,5.77a5,5,0,0,1-2.72,4.1c5.77,1.49,9.78,5.06,9.23,8.53a5.43,5.43,0,0,1-3,3.76,4.56,4.56,0,0,1,.19,1.28c0,3.63-4.41,6.58-9.91,6.69,3.12.64,5.3,2.12,5.3,3.83,0,2.31-4,6-8.8,6s-8.71-3.69-8.71-6a2.2,2.2,0,0,1,.17-.83,18.53,18.53,0,0,1-3.56.35A17.24,17.24,0,0,1,117,52.55a1.09,1.09,0,0,1,0,.26,2.46,2.46,0,0,1-1.44,2,9.63,9.63,0,0,1,4.14-.85c3.25,0,5.89,1.31,5.89,2.93s-2.68,4.79-5.93,4.79-5.85-3.18-5.85-4.79A2.37,2.37,0,0,1,115.27,55c-1,.48-2.29,2-3.7,2-3,0-5.36-2.55-5.36-4.16s2.42-2.93,5.4-2.93a9.86,9.86,0,0,1,2,.21,5.84,5.84,0,0,1-.89-1.37,9.22,9.22,0,0,1-3.91.84c-3.66,0-6.62-1.93-6.62-4.31a3.19,3.19,0,0,1,.8-2c-4.8-1.2-8.19-4.08-8.19-7.45,0-2.89,2.48-5.41,6.2-6.83a3.44,3.44,0,0,1-.27-1.3c0-3,3.94-5.36,8.81-5.36A10.9,10.9,0,0,1,117,24.77a4.83,4.83,0,0,1,.4-.38c-4-1.54-6.63-4.38-6.63-7.64a7,7,0,0,1,.06-.8,10.16,10.16,0,0,0-3.65,5.81,13.2,13.2,0,0,0-5.11,1.87c-2.1,1.47-3,5.23-3,5.23a8.59,8.59,0,0,0-5.29,4.78c-1.9,4,1.12,8.71,1.12,8.71-2.87,5.48,2.76,8.93,2.76,8.93-2.25,5.35,3.91,8.37,3.91,8.37-.25,4.73,6.52,5,6.52,5,.26,5.09,8.18,4.88,8.18,4.88s.42,3,6.58,2.92a5.21,5.21,0,0,0,4.78-3.2c5.52,2.37,7-3.14,7-3.14,5.21.66,7.47-1.46,7.56-5.65,5.68-.75,7.71-3.69,7.08-8.23,3.91-1.17,5.85-7.08,3.58-10.37C154.73,40.51,156.38,36.38,152.27,33.59Z"/><path class="cls-8" d="M133.22,8.49a2,2,0,0,0,1-2.27C133.83,4.65,132,5.07,132,5.07a4.32,4.32,0,0,0-.4-2L131.46,3a1.5,1.5,0,0,1-1.13,2,2.83,2.83,0,0,1-2.52-.55s-.82,1.81-2.44,1.61a2.82,2.82,0,0,1-2.17-1.88s-1.28,1.38-2.47.26S120,2.56,120,2.56s-2.11,1.16-2.86-.07c0-.08-.08-.16-.12-.24A1.71,1.71,0,0,0,117,3.81a3.09,3.09,0,0,0-3.09.64A1.66,1.66,0,0,0,114,6.91C111.3,9,114,9.58,114,9.58a6.62,6.62,0,0,0-2.25,2.12,1.58,1.58,0,0,0,0,1.72c2-3.23,6.76-5.5,12.34-5.5a16.33,16.33,0,0,1,10.52,3.43,2.29,2.29,0,0,0,.31-1.51A1.51,1.51,0,0,0,133.22,8.49Z"/><path class="cls-5" d="M123.11,13.34h0a2.52,2.52,0,0,0-2.38,2.12l-.23,1.28a1,1,0,0,0,.84,1.19,15.62,15.62,0,0,0,3.74,0,1,1,0,0,0,.81-1.3l-.41-1.42A2.47,2.47,0,0,0,123.11,13.34Z"/><path class="cls-2" d="M114.71,13.29c1.77-1.19,5.27.07,8.73,0s6.94-1.54,8.37-.21c0,0-1.89,2.34-8.6,1.85C116.08,16.17,114.71,13.29,114.71,13.29Z"/><path class="cls-1" d="M115.33,14c1.88-.72,4.87.65,8,.56,2.94-.09,6-1.46,7.74-1a7.07,7.07,0,0,0,.71-.5c-1.43-1.33-4.88.11-8.37.21s-7-1.15-8.73,0A2.2,2.2,0,0,0,115.33,14Z"/><path class="cls-1" d="M123.09,13.62h0a2.05,2.05,0,0,0-2,1.77l-.2,1.07a.85.85,0,0,0,.69,1,12.63,12.63,0,0,0,3.07,0,.84.84,0,0,0,.67-1.08l-.34-1.2A2,2,0,0,0,123.09,13.62Z"/><path class="cls-2" d="M123.09,13.52h0a1.69,1.69,0,0,0-1.46,1.59l-.14.95A.74.74,0,0,0,122,17a8,8,0,0,0,2.29,0,.77.77,0,0,0,.5-1l-.25-1.07A1.62,1.62,0,0,0,123.09,13.52Z"/><path class="cls-4" d="M12.18,247c36.19,7.57,71-18.73,111.86-33.35-23-3.45-37.67-14.41-48-29.37C60.53,211.44,52.34,242.08,12.18,247Z"/><ellipse class="cls-4" cx="19.62" cy="229.32" rx="18.16" ry="19.05"/><path class="cls-4" d="M54.72,210.16c4.1-9.28-1-17.42-9.94-16.89-7.34.43-13.71,6.77-15.21,13.51-1.34,6.06,2.41,2.82,8.19,3.82C44.63,211.77,51.18,218.18,54.72,210.16Z"/><path class="cls-2" d="M200.05,256.74H189.69s-.15-3.31,1.23-4.22S200.05,256.74,200.05,256.74Z"/><path class="cls-2" d="M61.29,256.74H72.51s.16-3.31-1.34-4.22S61.29,256.74,61.29,256.74Z"/><path class="cls-2" d="M52.89,122.48c13.16,1.3,21.4.32,24.86-1.83C88.79,113.8,83,90.13,67,91.32c-4.39.32-21.14,10-22.59,12C41.92,106.76,47.7,122,52.89,122.48Z"/><path class="cls-1" d="M81,96.35c-.32,5.12-2.53,11.4-6.81,14.06-3.47,2.15-11.82,4.63-25,3.33-1.8-.17-3.66-2.29-5.21-5.12,1,6.16,5,15,8.78,15.36,13.16,1.3,21.9.06,25.36-2.09C85.25,117.5,86.18,104,81,96.35Z"/><path class="cls-2" d="M55.09,122.48c-6.53.19-9.21,4.64-15.85-.49-4.5-3.48-6.44-13.06-5.58-16.5,5.68-.46,8.87-6.94,17.89-3.37S64.67,122.19,55.09,122.48Z"/><path class="cls-1" d="M50.33,99.26c-4.71-.74-6.33,2.19-6.7,4.1s3.24,15.23,5.79,15.92c1.78.48,11.74-2.21,11.79-4.48C61.26,112.79,51.4,99.43,50.33,99.26Z"/><path class="cls-1" d="M58.07,114.79c-8.24.47-10.77-4.27-19.4-9.09-1.23-.69-7.08-1.06-5.45,5.24,1.12,4.62,3.75,10.23,6.39,12.27,6.64,5.13,10,1.18,16.48,1,4.84-.15,5.93-4.86,4.67-10A9,9,0,0,1,58.07,114.79Z"/><polygon class="cls-9" points="74.12 180.27 69.74 163.24 68.53 167.22 52.1 128.12 43.3 101.44 40.21 87.88 18.15 33.88 21.16 52.88 18.78 53.19 37.71 96.06 34.49 94.4 48.37 124.42 50.89 134.98 67.51 167.04 64.44 165.59 74.12 180.27"/><path class="cls-5" d="M110.69,218.84c4.77-1.47,8.54-3.87,12.9-5.1C139.4,184,153.5,156.51,155,133.08,153,149,140.68,186.06,110.69,218.84Z"/><path class="cls-10" d="M154.25,92.63c-.11-.9-2.05-1.39-4.32-1.09s-4,1.26-3.89,2.17,2.05,1.39,4.32,1.09S154.37,93.53,154.25,92.63Z"/><polygon class="cls-11" points="42.36 111.41 40.93 91.06 40.21 87.88 29.01 60.45 29.01 76.35 37.71 96.06 34.49 94.4 42.36 111.41"/><polygon class="cls-11" points="64.35 157.26 52.1 128.12 50.35 122.81 53.31 139.66 64.35 160.94 64.35 157.26"/><path class="cls-4" d="M258.35,216.94c-5.14-6.95-11.51-4.13-16.05-.39a31.56,31.56,0,0,0-6.63,18.88,30.14,30.14,0,0,0,6.38,19.68h4.88s12,.28,13.82-7-2.87-9-2.87-9S267.41,229.2,258.35,216.94Z"/><path class="cls-4" d="M221.19,234.32c-6.83-.61-11.93,3.9-11.39,10.06s4.71,8.66,11.53,9.27,13.73-.89,13.19-7.06S228,234.93,221.19,234.32Z"/><path class="cls-4" d="M198.44,226.41c-2.45-1-4.25.54-3.68,3.75s2.47,4.79,5,5.21c2.2.37,4-.22,3.4-2.84A9.25,9.25,0,0,0,198.44,226.41Z"/><path class="cls-5" d="M200.37,216.43c1.12-.51,2.16.41,2.18,2.18s-.79,2.6-2,2.78-2-.22-2-1.66A3.87,3.87,0,0,1,200.37,216.43Z"/><path class="cls-5" d="M35.64,185.09c2.24.55,2.7,3.1.65,5.71s-4.17,2.9-6.15,1.74c-1.73-1-2.67-2.64-.92-4.7S33.68,184.61,35.64,185.09Z"/><path class="cls-5" d="M85.08,128.67c-1.93,10.44-3.83,21.18-5.73,33.08-1.35,36.65-7.22,51.25-7.56,54C75.71,205.13,84.58,175.9,85.08,128.67Z"/><path class="cls-5" d="M99.61,82.71c3.22,31.46,21.32,45.7,40.34,45.7,0,0-26.65,2.79-36.66-23.48A55.37,55.37,0,0,1,99.61,82.71Z"/><path class="cls-4" d="M166.84,152.09c.7,10.28,4,35.11,4,35.11l6.32-8.3S166.48,146.73,166.84,152.09Z"/><path class="cls-8" d="M118.55,9.47a12,12,0,0,1,4.85,1.77s5.75-3,10.4-2.79l-5.19-1.84L112.89,8s-.64.32-.65.83A1.09,1.09,0,0,0,113.39,10S114.62,9,118.55,9.47Z"/><path class="cls-12" d="M134.28,3.14c-.09-.26-1.48,1.42-2.54,2.74l-2.19,0c-.17-1.3-.44-2.57-.7-2.69s-1,1.39-1.52,2.64l-3,0A7.13,7.13,0,0,0,123.19,3c-.36-.15-.89,1.53-1.21,2.72l-2.11,0c-.7-1.46-1.62-3.09-2-3.22s-.57,1.85-.61,3.17l-2.38,0c-1-1.41-2.4-3.42-2.5-3.13-.55,1.57-.14,3.78.39,5.63l20.93.39h0l.07,0C134.35,6.69,134.79,4.61,134.28,3.14Z"/><path class="cls-8" d="M125.28,35.75A10.31,10.31,0,0,1,135,34.28s-4.14-4.3-2.11-9.42C130.46,29.79,130.89,30.89,125.28,35.75Z"/><path class="cls-13" d="M127.33,5.79l-3,0A7.13,7.13,0,0,0,123.19,3c-.36-.15-.89,1.53-1.21,2.72l-2.11,0c-.17-.36-.35-.72-.54-1.07-1.09,1.22-2.16,2.4-3.15,3.53l10.34.2c.21-.25.41-.51.62-.75a33.29,33.29,0,0,1,2.31-2.41,4.35,4.35,0,0,0-.6-2C128.55,3,127.84,4.54,127.33,5.79Z"/><path class="cls-5" d="M244.56,244.55c9.1-10.64,15.5-3.56,15.5-3.56l-.8-3.67C254.87,235.86,248.94,237.08,244.56,244.55Z"/><path class="cls-4" d="M64.6,194.1c-.73-1.49-2.8-2-4.61-1.07s-2.69,2.83-2,4.31,2.8,2,4.61,1.06S65.33,195.58,64.6,194.1Z"/><path class="cls-5" d="M104.48,191.9c42.15-36,40.45-58.43,40.45-58.43s-10.29,19.35-17.49,30.25C119,176.54,104.48,191.9,104.48,191.9Z"/><path class="cls-14" d="M128.45,13.75a1.57,1.57,0,0,0-1.41-.39c-.76.09-1.38.6-1.36.74s.64,0,1.4-.12S128.46,13.89,128.45,13.75Z"/><path class="cls-14" d="M120.35,14.26c0-.14-.49-.64-1.25-.75a1.81,1.81,0,0,0-1.52.36c0,.14.63.14,1.39.25S120.33,14.4,120.35,14.26Z"/><path class="cls-2" d="M50.1,99c-4.38-1.9-7.29-.33-7.4,1.61s2.45,12.44,4.75,13.75c1.6.91,4.78.25,5.41-1.93C53.41,110.5,51.09,99.44,50.1,99Z"/><path class="cls-2" d="M42.67,110.73c1.16-.93-.05-7-1.68-7.35s-9.45,0-10.58,2.13c-.79,1.47-.26,4.75,1.58,5.68C33.62,112,42,111.31,42.67,110.73Z"/><path class="cls-2" d="M45,118.15c1.07-.88-.56-6-2.19-6.24s-9.29.59-10.25,2.49a3.92,3.92,0,0,0,2,4.8C36.22,119.81,44.38,118.69,45,118.15Z"/><path class="cls-2" d="M47.75,125.5c1-.7.13-5.4-1.3-5.74s-8.33-.23-9.38,1.38a3.46,3.46,0,0,0,1.25,4.44C39.74,126.26,47.11,125.92,47.75,125.5Z"/></g></g></svg>